<?xml version="1.0" encoding="UTF-8" standalone="no"?><!DOCTYPE svg PUBLIC "-//W3C//DTD SVG 1.1//EN" "http://www.w3.org/Graphics/SVG/1.1/DTD/svg11.dtd"><svg width="100%" height="100%" viewBox="0 0 44 48" version="1.1" xmlns="http://www.w3.org/2000/svg" xmlns:xlink="http://www.w3.org/1999/xlink" xml:space="preserve" xmlns:serif="http://www.serif.com/" style="fill-rule:evenodd;clip-rule:evenodd;stroke-linejoin:round;stroke-miterlimit:1.41421;"><rect id="arquivos-zip" serif:id="arquivos zip" x="0" y="0" width="44" height="48" style="fill:none;"/><clipPath id="_clip1"><rect x="0" y="0" width="44" height="48"/></clipPath><g clip-path="url(#_clip1)"><path d="M37,14l-2,0c-2.742,-0.003 -4.997,-2.258 -5,-5l0,-8c0,-0.549 0.451,-1 1,-1c0.549,0 1,0.451 1,1l0,8c0,1.646 1.354,3 3,3l2,0c0.549,0 1,0.451 1,1c0,0.549 -0.451,1 -1,1Z" style="fill:#bbb;fill-rule:nonzero;"/><path d="M7.033,0.006l1.051,-0.006c0.548,0 1,0.462 1,1.011c0,0.548 -0.452,1 -1,1l-2,0c-0.108,0 -0.215,-0.004 -0.321,-0.011l-0.763,0c-1.696,0.051 -3,1.385 -3,3l0,38c-0.003,0.051 -0.004,0.101 -0.004,0.152c0,1.565 1.287,2.852 2.852,2.852c0.051,0 0.101,-0.001 0.152,-0.004l34,0c1.646,0 3,-1.354 3,-3l0,-29.586l-11.414,-11.414l-12.586,0c-0.549,0 -1,-0.451 -1,-1c0,-0.549 0.451,-1 1,-1l13,0c0.265,0 0.52,0.106 0.707,0.293l12,12c0.187,0.187 0.293,0.442 0.293,0.707l0,30c-0.003,2.713 -2.211,4.949 -5,5l-34,0l-0.182,0.003c-2.645,0 -4.821,-2.176 -4.821,-4.821c0,-0.06 0.001,-0.121 0.003,-0.182l0,-38c0.003,-2.742 2.258,-4.997 5,-5l2.033,0l0,0.006Z" style="fill:#bbb;"/><path d="M11.996,1c-0.001,-0.25 0.284,-0.993 1.004,-1c0.501,-0.005 1,0.451 1,1l0,3c-0.016,1.028 -0.499,1.995 -1.312,2.624c-0.477,0.453 -0.688,0.676 -0.688,1.176c0,0.5 0.211,0.72 0.688,1.173c0.825,0.619 1.311,1.593 1.311,2.624c0,1.031 -0.486,2.005 -1.311,2.624c-0.478,0.453 -0.689,0.675 -0.689,1.174c0,0.499 0.211,0.723 0.689,1.177c0.825,0.621 1.311,1.594 1.311,2.626c0,1.033 -0.486,2.006 -1.311,2.627c-0.477,0.451 -0.688,0.675 -0.688,1.175l0,7c-0.003,0.03 -0.004,0.06 -0.004,0.089c0,0.502 0.413,0.915 0.915,0.915c0.029,0 0.059,-0.001 0.089,-0.004l2,0c0.03,0.003 0.06,0.004 0.089,0.004c0.502,0 0.915,-0.413 0.915,-0.915c0,-0.029 -0.001,-0.059 -0.004,-0.089l0,-5c0.003,-0.03 0.004,-0.06 0.004,-0.089c0,-0.502 -0.413,-0.915 -0.915,-0.915c-0.029,0 -0.059,0.001 -0.089,0.004c-0.549,0 -1,-0.451 -1,-1c0,-0.549 0.451,-1 1,-1c0.028,-0.001 0.057,-0.001 0.085,-0.001c1.6,0 2.916,1.316 2.916,2.916c0,0.028 0,0.057 -0.001,0.085l0,5c0.001,0.028 0.001,0.057 0.001,0.085c0,1.6 -1.316,2.916 -2.916,2.916l-0.085,-0.001l-2,0l-0.085,0.001c-1.6,0 -2.916,-1.316 -2.916,-2.916c0,-0.028 0,-0.057 0.001,-0.085l0,-7c0.016,-1.029 0.499,-1.996 1.311,-2.627c0.478,-0.454 0.689,-0.677 0.689,-1.177c0,-0.5 -0.211,-0.723 -0.689,-1.177c-0.825,-0.62 -1.311,-1.594 -1.311,-2.626c0,-1.032 0.486,-2.006 1.311,-2.626c0.477,-0.454 0.688,-0.674 0.688,-1.173c0,-0.499 -0.211,-0.72 -0.688,-1.173c-0.812,-0.629 -1.295,-1.594 -1.311,-2.621c0.016,-1.028 0.499,-1.995 1.312,-2.624c0.477,-0.456 0.688,-0.676 0.688,-1.176c0,0 0,-2.085 -0.004,-3Z" style="fill:#a297b3;"/><path d="M17,29l-6,0c-0.549,0 -1,-0.451 -1,-1c0,-0.549 0.451,-1 1,-1l6,0c0.549,0 1,0.451 1,1c0,0.549 -0.451,1 -1,1Z" style="fill:#a297b3;fill-rule:nonzero;"/></g></svg>