<?xml version="1.0" encoding="UTF-8" standalone="no"?><!DOCTYPE svg PUBLIC "-//W3C//DTD SVG 1.1//EN" "http://www.w3.org/Graphics/SVG/1.1/DTD/svg11.dtd"><svg width="100%" height="100%" viewBox="0 0 48 48" version="1.1" xmlns="http://www.w3.org/2000/svg" xmlns:xlink="http://www.w3.org/1999/xlink" xml:space="preserve" xmlns:serif="http://www.serif.com/" style="fill-rule:evenodd;clip-rule:evenodd;stroke-linejoin:round;stroke-miterlimit:1.41421;"><rect id="layout" x="0" y="0" width="48" height="48" style="fill:none;"/><clipPath id="_clip1"><rect x="0" y="0" width="48" height="48"/></clipPath><g clip-path="url(#_clip1)"><path d="M41,14l-2,0c-2.742,-0.003 -4.997,-2.258 -5,-5l0,-8c0,-0.549 0.451,-1 1,-1c0.549,0 1,0.451 1,1l0,8c0,1.646 1.354,3 3,3l2,0c0.549,0 1,0.451 1,1c0,0.549 -0.451,1 -1,1Z" style="fill:#bbb;fill-rule:nonzero;"/><path d="M9,48c-0.061,0.002 -0.122,0.003 -0.182,0.003c-2.645,0 -4.821,-2.176 -4.821,-4.821c0,-0.06 0.001,-0.121 0.003,-0.182l0,-6c0,-0.549 0.451,-1 1,-1c0.549,0 1,0.451 1,1l0,6c-0.003,0.051 -0.004,0.101 -0.004,0.152c0,1.565 1.287,2.852 2.852,2.852c0.051,0 0.101,-0.001 0.152,-0.004c0.549,0 1,0.451 1,1c0,0.549 -0.451,1 -1,1Z" style="fill:#bbb;fill-rule:nonzero;"/><path d="M43,48l-24,0c-0.549,0 -1,-0.451 -1,-1c0,-0.549 0.451,-1 1,-1l24,0c1.646,0 3,-1.354 3,-3l0,-29.586l-11.414,-11.414l-25.586,0c-1.646,0 -3,1.354 -3,3l0,18c0,0.549 -0.451,1 -1,1c-0.549,0 -1,-0.451 -1,-1l0,-18c0.003,-2.742 2.258,-4.997 5,-5l26,0c0.265,0 0.52,0.106 0.707,0.293l12,12c0.187,0.187 0.293,0.442 0.293,0.707l0,30c-0.003,2.742 -2.258,4.997 -5,5Z" style="fill:#bbb;fill-rule:nonzero;"/><path d="M29,33l-27,0c-1.097,0 -2,-0.903 -2,-2l0,-2c0,-1.097 0.903,-2 2,-2l27,0c0.127,0 0.253,0.024 0.371,0.071l5,2c0.38,0.151 0.63,0.52 0.63,0.929c0,0.409 -0.25,0.778 -0.63,0.929l-5,2c-0.118,0.047 -0.244,0.071 -0.371,0.071Zm-27,-4l0,2l26.808,0l2.5,-1l-2.5,-1l-26.808,0Z" style="fill:#a297b3;fill-rule:nonzero;"/><path d="M6,33c-0.549,0 -1,-0.451 -1,-1l0,-4c0,-0.549 0.451,-1 1,-1c0.549,0 1,0.451 1,1l0,4c0,0.549 -0.451,1 -1,1Z" style="fill:#a297b3;fill-rule:nonzero;"/><path d="M14,48c-0.549,0 -1,-0.451 -1,-1l0,-5c-0.001,-0.038 -0.002,-0.076 -0.002,-0.114c0,-2.133 1.755,-3.888 3.888,-3.888c0.038,0 0.076,0.001 0.114,0.002l1,0c0.549,0 1,0.451 1,1c0,0.549 -0.451,1 -1,1l-1,0c-0.041,-0.003 -0.081,-0.004 -0.122,-0.004c-1.032,0 -1.882,0.85 -1.882,1.882c0,0.041 0.001,0.081 0.004,0.122l0,5c0,0.549 -0.451,1 -1,1Z" style="fill:#d1a680;fill-rule:nonzero;"/><path d="M40,40l-3,0c-0.549,0 -1,-0.451 -1,-1c0,-0.549 0.451,-1 1,-1l3,0c0.04,0.003 0.081,0.004 0.121,0.004c1.033,0 1.883,-0.85 1.883,-1.883c0,-0.04 -0.001,-0.081 -0.004,-0.121l0,-3c0.003,-0.041 0.004,-0.081 0.004,-0.122c0,-1.032 -0.85,-1.882 -1.882,-1.882c-0.041,0 -0.081,0.001 -0.122,0.004l-2,0c-0.549,0 -1,-0.451 -1,-1c0,-0.549 0.451,-1 1,-1l2,0c0.038,-0.001 0.076,-0.002 0.114,-0.002c2.133,0 3.888,1.755 3.888,3.888c0,0.038 -0.001,0.076 -0.002,0.114l0,3c0.001,0.038 0.002,0.076 0.002,0.115c0,2.132 -1.755,3.887 -3.887,3.887c-0.039,0 -0.077,-0.001 -0.115,-0.002Z" style="fill:#d1a680;fill-rule:nonzero;"/><path d="M23,40l-1,0c-0.549,0 -1,-0.451 -1,-1c0,-0.549 0.451,-1 1,-1l1,0c0.549,0 1,0.451 1,1c0,0.549 -0.451,1 -1,1Z" style="fill:#9e9b80;fill-rule:nonzero;"/><path d="M28,40l-1,0c-0.549,0 -1,-0.451 -1,-1c0,-0.549 0.451,-1 1,-1l1,0c0.549,0 1,0.451 1,1c0,0.549 -0.451,1 -1,1Z" style="fill:#d1a680;fill-rule:nonzero;"/><path d="M33,40l-1,0c-0.549,0 -1,-0.451 -1,-1c0,-0.549 0.451,-1 1,-1l1,0c0.549,0 1,0.451 1,1c0,0.549 -0.451,1 -1,1Z" style="fill:#9e9b80;fill-rule:nonzero;"/></g></svg>