<?xml version="1.0" encoding="UTF-8" standalone="no"?><!DOCTYPE svg PUBLIC "-//W3C//DTD SVG 1.1//EN" "http://www.w3.org/Graphics/SVG/1.1/DTD/svg11.dtd"><svg width="100%" height="100%" viewBox="0 0 48 48" version="1.1" xmlns="http://www.w3.org/2000/svg" xmlns:xlink="http://www.w3.org/1999/xlink" xml:space="preserve" xmlns:serif="http://www.serif.com/" style="fill-rule:evenodd;clip-rule:evenodd;stroke-linejoin:round;stroke-miterlimit:1.41421;"><rect id="documentos" x="0" y="0" width="48" height="48" style="fill:none;"/><clipPath id="_clip1"><rect id="documentos1" serif:id="documentos" x="0" y="0" width="48" height="48"/></clipPath><g clip-path="url(#_clip1)"><path d="M41,14l-2,0c-2.742,-0.003 -4.997,-2.258 -5,-5l0,-8c0,-0.549 0.451,-1 1,-1c0.549,0 1,0.451 1,1l0,8c0,1.646 1.354,3 3,3l2,0c0.549,0 1,0.451 1,1c0,0.549 -0.451,1 -1,1Z" style="fill:#bbb;fill-rule:nonzero;"/><path d="M43,48l-9,0c-0.549,0 -1,-0.451 -1,-1c0,-0.549 0.451,-1 1,-1l9,0c1.646,0 3,-1.354 3,-3l0,-29.586l-11.414,-11.414l-25.586,0c-1.646,0 -3,1.354 -3,3l0,7c0,0.549 -0.451,1 -1,1c-0.549,0 -1,-0.451 -1,-1l0,-7c0.003,-2.742 2.258,-4.997 5,-5l26,0c0.265,0 0.52,0.106 0.707,0.293l12,12c0.187,0.187 0.293,0.442 0.293,0.707l0,30c-0.003,2.742 -2.258,4.997 -5,5Z" style="fill:#bbb;fill-rule:nonzero;"/><path d="M23,28l-1,0c-2.194,0 -4,-1.806 -4,-4l0,-7c0,-0.549 0.451,-1 1,-1c0.549,0 1,0.451 1,1l0,7c0,1.097 0.903,2 2,2l1,0c0.549,0 1,0.451 1,1c0,0.549 -0.451,1 -1,1Z" style="fill:#9e9b80;fill-rule:nonzero;"/><path d="M26,48l-22,0c-2.194,0 -4,-1.806 -4,-4l0,-24c0,-2.194 1.806,-4 4,-4l15,0c0.265,0 0.52,0.106 0.707,0.293l10,10c0.187,0.187 0.293,0.442 0.293,0.707l0,17c0,2.194 -1.806,4 -4,4Zm-22,-30c-1.097,0 -2,0.903 -2,2l0,24c0,1.097 0.903,2 2,2l22,0c1.097,0 2,-0.903 2,-2l0,-16.586l-9.414,-9.414l-14.586,0Z" style="fill:#9e9b80;fill-rule:nonzero;"/><path d="M20,33l-12,0c-0.549,0 -1,-0.451 -1,-1c0,-0.549 0.451,-1 1,-1l12,0c0.549,0 1,0.451 1,1c0,0.549 -0.451,1 -1,1Z" style="fill:#a297b3;fill-rule:nonzero;"/><path d="M20,38l-12,0c-0.549,0 -1,-0.451 -1,-1c0,-0.549 0.451,-1 1,-1l12,0c0.549,0 1,0.451 1,1c0,0.549 -0.451,1 -1,1Z" style="fill:#a297b3;fill-rule:nonzero;"/><path d="M16,43l-2,0c-0.549,0 -1,-0.451 -1,-1c0,-0.549 0.451,-1 1,-1l2,0c0.549,0 1,0.451 1,1c0,0.549 -0.451,1 -1,1Z" style="fill:#a297b3;fill-rule:nonzero;"/><path d="M10,43l-2,0c-0.549,0 -1,-0.451 -1,-1c0,-0.549 0.451,-1 1,-1l2,0c0.549,0 1,0.451 1,1c0,0.549 -0.451,1 -1,1Z" style="fill:#a297b3;fill-rule:nonzero;"/></g></svg>