<svg viewBox="0 0 554 23" xmlns="http://www.w3.org/2000/svg" fill-rule="evenodd" clip-rule="evenodd" stroke-miterlimit="22.93">
  <path d="M34.02 3c0-1.17-.95-2.13-2.13-2.13H2.14C.96.87 0 1.83 0 3.01v17.1c0 1.17.96 2.13 2.14 2.13h29.75c1.18 0 2.13-.96 2.13-2.14V3z" fill="#f1f1f1"/>
  <path d="M28.08 20.02l-.14.04a.18.18 0 00-.06.14c0 .05.03.1.06.13.04.04.09.06.14.06.05 0 .1-.02.14-.06a.19.19 0 00.06-.13c0-.06-.02-.1-.06-.14l-.14-.04zm0 .31a.14.14 0 01-.14-.13c0-.08.07-.14.14-.14.08 0 .14.06.14.14 0 .07-.06.13-.14.13zm0-.22H28v.18h.05v-.05l.04.05h.05l-.05-.05.05-.04v-.05l-.05-.04zm0 .04l.05.05h-.1v-.05h.05zm-20.82.14h-.4v-1.86h.4v.22s.36-.27.54-.27c.41 0 .64.32.64.32s.18-.32.63-.32c.64 0 .73.6.73.6v1.3h-.4v-1.17s0-.36-.42-.36c-.4 0-.45.36-.45.36v1.18h-.4V19.1s-.05-.36-.37-.36c-.5 0-.5.36-.5.36v1.18zm12.07-1.9c-.18 0-.55.26-.55.26v-.22h-.36v1.86h.4l-.04-1.18s.05-.36.5-.36l.18.04.14-.36-.27-.05zm5.62 0c-.23 0-.54.26-.54.26v-.22H24v1.86h.4V19.1s0-.36.46-.36l.23.04.13-.36-.27-.05zm-13.88 0c-.59 0-.9.5-.9.95 0 .45.36 1 .95 1 .31 0 .58-.23.58-.23v.18h.37v-1.86h-.37v.22s-.27-.27-.63-.27zm.09.36c.32 0 .6.27.6.63a.6.6 0 01-.6.6.6.6 0 01-.59-.6c0-.36.27-.63.59-.63zm11.3-.37c-.6 0-.91.5-.91.96 0 .45.36 1 .95 1 .32 0 .6-.23.6-.23v.18h.4v-1.86h-.4v.22s-.28-.27-.64-.27zm.09.37c.32 0 .59.27.59.63a.6.6 0 01-.6.6.6.6 0 01-.58-.6c0-.36.27-.63.59-.63zm3.67-.37c-.59 0-.9.5-.9.96 0 .45.36 1 .95 1 .31 0 .59-.23.59-.23v.18h.4V17.7h-.4v.95s-.28-.27-.64-.27zm.1.37c.3 0 .58.27.58.63a.6.6 0 01-.59.6.6.6 0 01-.59-.6c0-.36.27-.63.6-.63zm-13.03 1.58c-.4 0-.77-.22-.77-.22l.14-.27s.36.13.63.13c.14 0 .41-.05.46-.18 0-.18-.5-.23-.5-.23s-.68-.04-.68-.59c0-.36.36-.59.77-.59.27 0 .77.23.77.23l-.23.27-.54-.13c-.18 0-.36.09-.36.22 0 .37 1.13-.04 1.13.77 0 .5-.45.6-.82.6zm1.5-2.45v.55h-.36v.4h.36v.91s-.04.64.64.64l.54-.14-.14-.4s-.18.13-.31.13c-.32-.05-.32-.23-.32-.23v-.9h.63v-.41h-.63v-.55h-.41zm2.36.5a.9.9 0 00-.95 1c0 .46.27 1 .95 1 .32 0 .72-.27.72-.27l-.18-.32s-.27.23-.54.23c-.5 0-.55-.5-.55-.5h1.36s.14-1.14-.81-1.14zm-.1.37h.05c.5 0 .5.45.5.45h-1s0-.4.46-.45zm4.1 1.04l.17.36s-.27.18-.59.18a.99.99 0 01-1.04-1c0-.72.59-.95 1-.95.36 0 .68.23.68.23l-.23.36s-.09-.22-.45-.22c-.37 0-.6.31-.6.63s.23.6.6.6c.22 0 .45-.2.45-.2z"/>
  <path d="M28.35 13.53v-.27h-.09l-.09.18-.04-.18h-.1v.27h.05v-.23l.1.18h.04l.04-.18v.23h.1zm-.45 0v-.23h.1v-.04h-.19v.04h.04v.23h.05zm.45-3.72c0 3.84-3.16 7-7 7-3.85 0-7.01-3.16-7.01-7 0-3.85 3.16-7 7-7 3.85 0 7.01 3.15 7.01 7z" fill="#f79f1a"/>
  <path d="M19.69 9.8c0 3.85-3.17 7.02-7 7.02-3.85 0-7.02-3.17-7.02-7.01 0-3.85 3.17-7 7.01-7s7.01 3.15 7.01 7z" fill="#ea001b"/>
  <path d="M17.01 4.28a7.03 7.03 0 000 11.02 7.03 7.03 0 000-11.02z" fill="#ff5f01"/>
  <path d="M72.32 3c0-1.17-.96-2.13-2.14-2.13H40.43c-1.18 0-2.13.96-2.13 2.14v17.1c0 1.17.95 2.13 2.13 2.13h29.75c1.18 0 2.14-.96 2.14-2.14V3z" fill="#0e4595"/>
  <path d="M50.9 16.02l1.55-8.89h2.4l-1.5 8.9h-2.44zm11.17-8.66a5.96 5.96 0 00-2.18-.4c-2.36 0-4.04 1.22-4.08 2.94 0 1.27 1.22 2 2.13 2.4.95.46 1.27.73 1.27 1.14 0 .59-.77.86-1.45.86-1 0-1.5-.14-2.27-.5l-.32-.13-.36 2c.59.26 1.63.45 2.72.49 2.54 0 4.17-1.22 4.22-3.04 0-1.04-.64-1.81-2.04-2.45-.86-.4-1.36-.68-1.36-1.09 0-.36.4-.77 1.36-.77.81 0 1.36.18 1.81.36l.23.1.32-1.91m6.26-.23h-1.9c-.55 0-1 .18-1.28.77l-3.58 8.12h2.54l.5-1.31h3.13l.27 1.31h2.27l-1.95-8.89zm-3 5.76l.96-2.5.36-.85.13.77.55 2.58h-2zM48.87 7.13l-2.36 6.08-.28-1.22a7 7 0 00-3.35-3.72l2.18 7.75h2.54l3.8-8.89h-2.53" fill="#fff"/>
  <path d="M44.28 7.13h-3.9l-.04.23c3.04.73 5.03 2.5 5.9 4.63l-.87-4.09c-.13-.54-.54-.72-1.09-.77" fill="#f2ae14"/>
  <path d="M110.61 3c0-1.17-.95-2.13-2.13-2.13H78.73c-1.18 0-2.14.96-2.14 2.14v17.1c0 1.17.96 2.13 2.14 2.13h29.75c1.18 0 2.13-.96 2.13-2.14V3z" fill="#231f20"/>
  <path d="M94.31 4.6v9.28l1.44.58-.82 1.91-1.59-.66c-.35-.16-.6-.4-.78-.66-.18-.27-.3-.65-.3-1.15V4.6h2.05zm6.6 11.75a6.05 6.05 0 01-.47 0h.47zm-12-3.29l-.09-.05c-.26.42-.67.77-1.18.99-.98.43-1.9.32-2.55-.26l-.06.1-1.11 1.66a4.75 4.75 0 006.7-1.3l-1.7-1.14zm-6.39.97a4.71 4.71 0 01-.44-4.2 4.7 4.7 0 012.54-2.77 4.87 4.87 0 016.47 2.74c.06.14.11.3.17.42l-8.74 3.81zm2.92-5.08a2.41 2.41 0 00-1.46 2.56l4.4-1.9c-.76-.88-1.75-1.17-2.94-.66z" fill="#fff" fill-rule="nonzero"/>
  <path d="M99.77 8.83a2.85 2.85 0 013.7 2.13l1.95-.4a4.85 4.85 0 00-6.28-3.62l.63 1.89z" fill="#fbc707" fill-rule="nonzero"/>
  <path d="M97.47 15.16l1.32-1.5a2.84 2.84 0 010-4.26l-1.32-1.5a4.83 4.83 0 000 7.26" fill="#38a7e4" fill-rule="nonzero"/>
  <path d="M103.47 12.1a2.85 2.85 0 01-3.7 2.13l-.63 1.9a4.84 4.84 0 006.28-3.62l-1.95-.4z" fill="#ef3120" fill-rule="nonzero"/>
  <path d="M149.2 2.98c0-1.18-.96-2.13-2.13-2.13h-29.75c-1.18 0-2.14.95-2.14 2.13v17.1c0 1.17.96 2.13 2.14 2.13h29.75c1.17 0 2.13-.96 2.13-2.13V2.98z" fill="#2557d6"/>
  <path d="M115.18 10.88h1.63l.37-.88h.83l.36.88h3.22v-.68l.29.68h1.67l.28-.69v.69h8l-.01-1.45h.16c.1 0 .14.01.14.19v1.26h4.13v-.34c.33.18.85.34 1.53.34h1.74l.37-.88h.83l.36.88h3.35v-.84l.5.84h2.7V5.32h-2.66v.66l-.37-.66h-2.73v.66l-.34-.66h-3.69a3.3 3.3 0 00-1.6.33v-.33h-2.53v.33c-.28-.25-.66-.33-1.08-.33h-9.29l-.62 1.44-.64-1.44h-2.93v.66l-.32-.66h-2.5l-1.15 2.64v2.92zm10.32-.8h-.98V6.96l-1.4 3.12h-.84l-1.39-3.13v3.13h-1.94l-.37-.89h-1.99l-.37.89h-1.04l1.71-3.99h1.42l1.63 3.78V6.09h1.56l1.25 2.7 1.15-2.7h1.6v3.99zm-7.25-1.72l-.65-1.59-.65 1.6h1.3zm11.15 1.72h-3.2V6.09h3.2v.83h-2.24v.72h2.18v.82h-2.18v.8h2.24v.82zm4.5-2.91c0 .63-.42.96-.67 1.06.2.08.38.22.47.33.13.2.16.38.16.74v.78h-.97v-.5c0-.24.02-.59-.15-.78-.14-.14-.36-.17-.7-.17h-1.02v1.45h-.96V6.09h2.2c.49 0 .85.02 1.16.2.3.17.48.43.48.88zm-1.2.59c-.14.08-.3.08-.48.08h-1.16v-.88h1.17a1 1 0 01.46.07c.12.05.2.18.2.35 0 .17-.08.31-.2.38zm2.73 2.32h-.97V6.09h.97v3.99zm11.33 0h-1.35l-1.82-3v3h-1.94l-.38-.89h-1.98l-.36.89h-1.12c-.47 0-1.06-.1-1.39-.44-.34-.34-.51-.8-.51-1.52 0-.6.1-1.14.52-1.56.3-.32.79-.47 1.45-.47h.92v.86h-.9c-.35 0-.55.05-.74.23-.16.17-.27.49-.27.9 0 .43.08.74.26.94.15.16.41.2.67.2h.43l1.34-3.13h1.44l1.62 3.77V6.1h1.45l1.68 2.78V6.09h.98v3.99zm-5.81-1.72l-.66-1.59-.66 1.6h1.32zm8.25 8.08c-.23.34-.68.51-1.3.51h-1.84v-.85h1.84c.18 0 .3-.03.38-.1a.35.35 0 00.12-.26c0-.12-.05-.21-.12-.27-.07-.06-.17-.09-.34-.09-.9-.03-2.02.03-2.02-1.23 0-.58.37-1.19 1.38-1.19h1.9v-.79h-1.77a2 2 0 00-1.2.33v-.33h-2.62c-.41 0-.9.1-1.14.33v-.33h-4.67v.33a2.5 2.5 0 00-1.3-.33h-3.08v.33c-.3-.29-.94-.33-1.34-.33h-3.46l-.79.85-.74-.85h-5.15v5.56H127l.81-.86.77.86h3.12v-1.3h.3c.42 0 .9-.01 1.33-.2v1.5h2.58v-1.45h.12c.16 0 .17 0 .17.17v1.28h7.82c.5 0 1.01-.12 1.3-.35v.35h2.48c.51 0 1.02-.07 1.4-.25v-1.04zm-15.5-2.14c0 1.1-.82 1.34-1.66 1.34h-1.19v1.33h-1.86l-1.18-1.32-1.22 1.32h-3.79V13h3.85l1.17 1.3 1.22-1.3h3.06c.76 0 1.6.2 1.6 1.31zm-7.6 1.84h-2.35v-.8h2.1v-.81h-2.1v-.73h2.4l1.05 1.17-1.1 1.17zm3.8.45l-1.47-1.62 1.46-1.57v3.2zm2.17-1.77h-1.24V13.8h1.25c.34 0 .58.14.58.5 0 .34-.23.52-.6.52zm6.47-1.83h3.2v.82h-2.25v.73h2.19v.81h-2.19v.8h2.24v.82h-3.19V13zm-1.23 2.13c.22.08.4.22.47.34.14.2.16.37.16.72v.8h-.96v-.5c0-.25.02-.6-.15-.78-.15-.15-.36-.18-.7-.18h-1.03v1.45h-.96V13h2.2c.5 0 .84.02 1.16.19.3.18.49.43.49.88 0 .64-.43.96-.68 1.06zm-.54-.5c-.13.07-.28.08-.47.08h-1.16v-.9h1.18c.17 0 .34 0 .45.08.13.06.2.19.2.36 0 .17-.07.3-.2.38zm8.64.25c.18.2.28.44.28.85 0 .85-.53 1.25-1.5 1.25h-1.86v-.85h1.85c.18 0 .31-.03.4-.1a.35.35 0 00.1-.26c0-.12-.04-.2-.11-.26s-.17-.1-.34-.1c-.9-.02-2.01.04-2.01-1.22 0-.58.36-1.2 1.36-1.2h1.92v.86h-1.76c-.17 0-.28 0-.38.07-.1.06-.14.16-.14.29 0 .15.09.25.2.3.1.03.22.04.38.04l.51.01c.52.01.88.1 1.1.32zm3.8-1.07h-1.75c-.18 0-.3.01-.39.08-.1.06-.14.16-.14.28 0 .15.09.26.21.3.1.04.21.05.37.05h.52c.52.02.87.11 1.08.33l.1.1V13.8z" fill="#fff"/>
  <g>
    <path d="M187.5 2.98c0-1.18-.96-2.13-2.14-2.13h-29.75c-1.18 0-2.14.95-2.14 2.13v17.1c0 1.17.96 2.13 2.14 2.13h29.75c1.18 0 2.14-.96 2.14-2.13V2.98z" fill="#f47420"/>
    <path d="M158.01 6.82v7.55h1.72v-3.16h2.81v3.16h1.7V6.82h-1.7v2.9h-2.81v-2.9H158zM179 12.18c.03-.23.05-.45.05-.67 0-1.36-.67-2.74-2.44-2.74-1.9 0-2.77 1.54-2.77 2.93 0 1.71 1.06 2.79 2.93 2.79a5.4 5.4 0 001.98-.34l-.23-1.15c-.45.14-.93.22-1.5.22-.8 0-1.5-.34-1.56-1.04H179zM175.45 11c.05-.46.34-1.1 1.06-1.1.78 0 .96.69.96 1.1h-2.02zm4.15 3.36h1.7V11.6c0-.14.01-.27.03-.39.12-.52.54-.86 1.17-.86.19 0 .34.02.46.05V8.8c-.12-.03-.2-.03-.36-.03-.53 0-1.2.34-1.48 1.13h-.04l-.06-1h-1.47c.02.46.05 1 .05 1.8v3.67z" fill="#fff" fill-rule="nonzero"/>
    <path d="M165.98 6.52a.88.88 0 110 1.75.88.88 0 010-1.75z" fill="#ffe900"/>
    <path d="M169.57 13.1h.86c.86 0 1.24-.55 1.24-1.13 0-.57-.04-1.86-1.1-1.86-1.21 0-1.02 1.6-1.01 2.45l.01.54zm-4.47-4.21h1.75v3.08c0 .58.32 1.13 1.02 1.13 0-1.4 0-2.82-.04-4.21h1.46l.09.8c.69-1.38 2.87-1.08 3.6.09.76 1.2 1.01 4.66-2.55 4.66h-.83v2.1h-1.74v-2.1c-1.89-.01-2.76-1.21-2.76-2.47V8.9z" fill="#fff"/>
  </g>
  <g>
    <path d="M200.01.87a.1.1 0 00-.1.1v.71c0 .06.05.1.1.1h1.22a.1.1 0 00.1-.1v-.7a.1.1 0 00-.1-.1H200z" fill="#4d4d4d"/>
    <path d="M200.66 1.16c.06 0 .1.05.1.1s-.04.1-.1.1a.1.1 0 01-.1-.1c0-.05.05-.1.1-.1zm-.15 0a.1.1 0 01.04.02v.04c-.01-.02-.03-.02-.04-.02a.06.06 0 00-.07.06c0 .04.03.06.07.06.01 0 .03 0 .04-.02v.04a.11.11 0 01-.04.01c-.06 0-.1-.04-.1-.09 0-.05.04-.1.1-.1zm-.18 0a.1.1 0 01.06.03l-.02.02-.03-.01c-.02 0-.03 0-.03.02l.03.02c.04.01.05.03.05.05 0 .04-.03.06-.06.06a.08.08 0 01-.07-.03l.02-.02.04.02c.02 0 .03 0 .03-.02v-.02l-.03-.01c-.04-.01-.05-.03-.05-.05 0-.03.03-.05.06-.05zm.42.01h.04l.06.12.05-.12h.04l-.09.18h-.02l-.08-.18zm-.71 0h.05c.06 0 .1.04.1.1l-.03.06a.1.1 0 01-.07.02h-.05v-.18zm.17 0h.04v.18h-.04v-.18zm.75 0h.1v.03h-.07v.04h.07v.03h-.07v.05h.07v.03h-.1v-.18zm.13 0h.05c.04 0 .07.02.07.05 0 .03-.02.05-.05.05l.06.08h-.04l-.05-.07v.07h-.04v-.18zm.03.03v.05h.01c.03 0 .04 0 .04-.02s-.01-.03-.04-.03zm-1.05 0v.12h.01l.05-.01a.06.06 0 00.02-.05c0-.02 0-.03-.02-.04 0-.01-.02-.02-.05-.02z" fill="#fff"/>
    <path d="M201.32 1.4c-.04.03-.4.27-1 .38h.9a.1.1 0 00.1-.1V1.4z" fill="#f47216"/>
    <path d="M225.8 3.01c0-1.18-.97-2.14-2.15-2.14h-29.74c-1.18 0-2.14.96-2.14 2.14v17.1c0 1.17.96 2.13 2.14 2.13h29.74c1.18 0 2.14-.96 2.14-2.14V3.01z" fill="#0e4c96"/>
    <path d="M219.77 16.6a3.42 3.42 0 01-3.42 3.42H197.8V6.51a3.42 3.42 0 013.42-3.42h18.56V16.6z" fill="#fff"/>
    <path d="M483.86 242.04c11.68.26 23.44-.51 35.08.4 11.78 2.2 14.62 20.05 4.15 25.9-7.14 3.84-15.63 1.43-23.38 2.1h-15.85v-28.4zm41.83-32.14c2.6 9.16-6.24 17.4-15.06 16.13h-26.77c.18-8.64-.37-18.02.27-26.2 10.73.3 21.55-.62 32.21.47a12.75 12.75 0 019.35 9.6zM590.12 74c.5 17.5.07 35.92.21 53.78-.03 72.6.08 145.2-.05 217.79-.47 27.2-24.58 50.84-51.6 51.39-27.05.1-54.1.01-81.14.04V287.25c29.47-.15 58.96.31 88.41-.23 13.67-.86 28.64-9.87 29.27-24.91 1.61-15.1-12.63-25.55-26.15-27.2-5.2-.14-5.04-1.52 0-2.12 12.9-2.79 23.02-16.13 19.23-29.5-3.24-14.06-18.78-19.5-31.7-19.47-26.35-.18-52.7-.03-79.06-.08.17-20.49-.36-41 .28-61.47 2.09-26.72 26.8-48.75 53.45-48.27h78.85z" fill="url(#_Linear1)" transform="matrix(.04537 0 0 .04536 191.77 .87)"/>
    <path d="M159.74 125.04c.67-27.16 24.89-50.61 51.88-51 26.94-.09 53.89-.02 80.83-.04-.07 90.88.15 181.77-.11 272.65-1.04 26.84-24.99 49.84-51.68 50.31-27 .1-54 .02-81 .04V283.55c26.23 6.2 53.73 8.83 80.48 4.72 16-2.57 33.49-10.42 38.9-27.01 3.99-14.2 1.75-29.13 2.34-43.7v-33.82h-46.3c-.2 22.37.43 44.78-.33 67.13-1.25 13.73-14.85 22.46-27.8 22-16.07.16-47.9-11.65-47.9-11.65-.08-41.92.46-94.4.69-136.18z" fill="url(#_Linear2)" transform="matrix(.04537 0 0 .04536 191.77 .87)"/>
    <path d="M309.72 197.39c-2.43.52-.49-8.3-1.11-11.65.16-21.15-.35-42.32.28-63.45 2.08-26.83 27-48.92 53.74-48.3h78.76c-.07 90.9.15 181.78-.1 272.66-1.05 26.84-25 49.84-51.69 50.31-27 .1-54 .02-81 .05V272.7c18.45 15.13 43.5 17.48 66.48 17.52 17.31 0 34.53-2.67 51.35-6.67V260.8c-18.95 9.45-41.24 15.45-62.25 10.02-14.65-3.65-25.29-17.81-25.05-32.94-1.7-15.73 7.52-32.33 22.98-37 19.19-6.02 40.1-1.42 58.1 6.39 3.85 2.02 7.76 4.52 6.22-1.92v-17.9c-30.09-7.16-62.1-9.8-92.33-2-8.75 2.46-17.27 6.2-24.38 11.95z" fill="url(#_Linear3)" transform="matrix(.04537 0 0 .04536 191.77 .87)"/>
  </g>
  <g>
    <path d="M264.09 3c0-1.17-.96-2.13-2.14-2.13H232.2c-1.18 0-2.14.96-2.14 2.14v17.1c0 1.17.96 2.13 2.14 2.13h29.75c1.18 0 2.14-.96 2.14-2.14V3z" fill="#0079be"/>
    <path d="M256.6 11.67c0-4.51-3.77-7.63-7.89-7.63h-3.55a7.45 7.45 0 00-7.6 7.63 7.57 7.57 0 007.6 7.5h3.55c4.12.01 7.89-3.38 7.89-7.5z" fill="#fff"/>
    <path d="M245.18 4.68a6.91 6.91 0 10.02 13.83 6.91 6.91 0 00-.02-13.83z" fill="#0079be"/>
    <path d="M240.82 11.58a4.39 4.39 0 012.81-4.1v8.2a4.39 4.39 0 01-2.81-4.1zm5.94 4.1v-8.2a4.39 4.39 0 010 8.2z" fill="#fff"/>
  </g>
  <g>
    <path d="M293.5 11.19c3.14.62 5.7 1.47 7.73 2.2v7.1a2.14 2.14 0 01-2.1 1.75h-28.85a2.14 2.14 0 01-2.14-2.14V12.6c2.15-.6 4.2-1.06 6.15-1.4h19.2z" fill="#fff200" fill-rule="nonzero"/>
    <path d="M299.12.87c1.06 0 1.94.77 2.11 1.78l.03 8.3c-4-1.49-16.7-5.04-33.12-.61V3c0-1.18.96-2.14 2.14-2.14h28.84z" fill-rule="nonzero"/>
    <path d="M301.22 14.18c-5.96-1.95-16.57-4.87-33.08-.73v-3.11c16.42-4.43 29.13-.87 33.12.6l-.04 3.24z" fill="#ed1c24" fill-rule="nonzero"/>
    <path d="M278.68 8.44a5.98 5.98 0 015.95-4.1c3.25.02 5.43 1.84 6.01 4.21-4.2-.42-6.99-.5-11.96-.11z" fill="#fff200" fill-rule="nonzero"/>
    <path d="M58.15 139.18l17.43-26H82l18.57 26h-6.8l-5.29-7.87h-19l-5 7.87h-6.33zm13.09-10.67h15.39l-4.74-7.19a54.22 54.22 0 01-3.21-5.39 23.45 23.45 0 01-2.45 5l-5 7.61.01-.03zm59.86 10.67v-2.76c-2.57 2.13-6.05 3.19-10.44 3.19-1.83.01-3.65-.2-5.43-.63a10.15 10.15 0 01-3.74-1.6 5.12 5.12 0 01-1.72-2.36 9.67 9.67 0 01-.34-3v-11.65H115v10.43a11 11 0 00.34 3.37 3.92 3.92 0 002.23 2c1.35.51 2.78.75 4.22.71 1.6.01 3.18-.23 4.7-.73a6 6 0 003.11-2c.68-1.1 1-2.39.92-3.68v-10.1h5.57v18.81h-4.99zm18.5 0v-18.81h5v2.85c.98-1.12 2.2-2.02 3.55-2.64a9.7 9.7 0 013.57-.64c1.95 0 3.9.34 5.73 1l-1.92 3c-1.31-.46-2.69-.7-4.08-.7a8.23 8.23 0 00-3.29.63c-.87.33-1.6.95-2.07 1.75a7.55 7.55 0 00-.93 3.72v9.85l-5.56-.01zm47.47-2.32c-1.9.94-3.92 1.66-6 2.13-2.02.42-4.08.63-6.15.62-3.61 0-6.38-.5-8.33-1.51-1.95-1.01-2.91-2.3-2.91-3.87.01-.96.4-1.87 1.1-2.53a7.8 7.8 0 012.87-1.83c1.3-.47 2.63-.8 4-1 1.09-.16 2.74-.33 4.94-.48 3.33-.17 6.65-.54 9.94-1.1v-.83a2.82 2.82 0 00-1.58-2.74c-2-.83-4.17-1.2-6.34-1.08a16 16 0 00-5.81.79 5.2 5.2 0 00-2.77 2.79l-5.44-.43a6.85 6.85 0 012.44-3.23c1.5-.97 3.17-1.61 4.92-1.9 2.46-.47 4.96-.7 7.46-.66 2.3-.04 4.59.15 6.84.57 1.37.23 2.69.72 3.88 1.43a4.63 4.63 0 011.73 2.17c.23.96.32 1.95.27 2.94v4.25c-.09 1.88.03 3.77.36 5.62.28.86.76 1.63 1.41 2.26h-5.82a4.78 4.78 0 01-1.11-2.32l.1-.06zm-.47-7.12c-3 .61-6.04 1.01-9.1 1.21-1.63.1-3.26.3-4.86.63-.8.15-1.56.5-2.2 1a2 2 0 00-.78 1.51c0 .85.57 1.56 1.69 2.13 1.56.65 3.24.94 4.93.85 1.94.03 3.87-.24 5.73-.8a7.84 7.84 0 003.69-2.21c.66-.93.98-2.05.9-3.19v-1.13z" fill-rule="nonzero" stroke="#2c328c" stroke-width=".22" transform="matrix(.12711 0 0 .12419 268.14 .87)"/>
  </g>
  <g>
    <path d="M336.67 17.9c-.82 0-1.61-.33-2.2-.91l-3.15-3.16a.6.6 0 00-.83 0L327.32 17c-.58.58-1.37.9-2.2.9h-.62l4 4a3.22 3.22 0 004.53 0l4.02-4h-.38zm3.7-7.85l-2.43-2.43a.46.46 0 01-.17.03h-1.1c-.57 0-1.13.24-1.53.64l-3.16 3.16a1.51 1.51 0 01-2.15 0l-3.17-3.17c-.4-.4-.96-.64-1.53-.64h-1.36a.46.46 0 01-.16-.03l-2.44 2.44a3.22 3.22 0 000 4.52l2.44 2.44c.05-.02.1-.04.16-.04h1.36c.57 0 1.12-.23 1.53-.63l3.17-3.17a1.55 1.55 0 012.15 0l3.15 3.16c.41.4.96.63 1.54.63h1.1c.06 0 .12.02.17.04l2.43-2.43a3.22 3.22 0 000-4.52zM325.13 6.7c.82 0 1.6.33 2.19.91l3.17 3.17c.23.23.6.23.83 0l3.16-3.16c.58-.58 1.37-.9 2.19-.9h.38l-4.02-4.02a3.22 3.22 0 00-4.52 0l-4 4h.62zm37.96-4.15l-.76-.76a.48.48 0 010-.68l.76-.75c.18-.18.49-.18.68 0l.75.75c.18.2.18.5 0 .68l-.76.76a.48.48 0 01-.67 0z" fill="#73b1a2" fill-rule="nonzero"/>
    <path d="M346.97 21.36V8.39c0-2.1 1.72-3.82 3.82-3.82h3.83c2.1 0 3.8 1.73 3.8 3.8v2.78a3.84 3.84 0 01-3.82 3.82h-5.4a.5.5 0 000 .99h5.4a4.85 4.85 0 004.82-4.81V8.39a4.84 4.84 0 00-4.8-4.82h-3.83a4.84 4.84 0 00-4.82 4.82v12.97a.5.5 0 00.5.48.5.5 0 00.5-.48zM360 4.56h1.66c.7 0 1.28.58 1.28 1.28v9.69a.5.5 0 00.5.47c.26 0 .48-.21.5-.47v-9.7a2.3 2.3 0 00-2.28-2.27H360a.5.5 0 00-.48.5c0 .27.21.49.48.5zm6.62 11.38h1.65a3.7 3.7 0 002.61-1.08l3.86-3.86a.79.79 0 01.55-.23c.2 0 .4.09.55.23l3.83 3.84c.7.69 1.64 1.08 2.62 1.08h1.34a.5.5 0 00.48-.5.5.5 0 00-.48-.5h-1.34c-.72 0-1.4-.28-1.9-.78l-3.85-3.84a1.78 1.78 0 00-2.5 0l-3.86 3.85c-.5.5-1.19.79-1.9.79h-1.66a.5.5 0 00-.48.5c0 .26.21.49.48.5zm0 0l-.05-.06c-.02-.03-.05-.05-.05-.04 0 .08.1.1.1.1zm0-11.4h1.65c.72 0 1.4.3 1.91.8l3.85 3.86c.7.69 1.82.69 2.51 0l3.84-3.84a2.69 2.69 0 011.91-.8h1.34a.5.5 0 00.48-.5.5.5 0 00-.48-.5h-1.34c-.98 0-1.92.4-2.62 1.09l-3.83 3.84a.78.78 0 01-.55.23.75.75 0 01-.55-.23l-3.86-3.85a3.66 3.66 0 00-2.6-1.1h-1.66a.5.5 0 00-.48.5c0 .28.21.5.48.5zm-6.7-.1l.01.06c.03.04.07.06.07.06a.43.43 0 00-.03-.1l-.06-.01zm6.7.1l-.05-.05c-.02-.03-.05-.05-.05-.04 0 .09.1.1.1.1z" fill="#aaa"/>
  </g>
  <g>
    <path d="M404.55 20.97a.73.73 0 01-1.46 0V2.12c0-.39.33-.72.73-.72.4 0 .73.33.73.72v18.85zm4.34 0c0 .36-.28.73-.72.73h-.73a.73.73 0 01-.73-.73V2.12c0-.43.37-.72.73-.72h.73c.44 0 .72.29.72.72v18.85zm34.8 0c0 .36-.29.73-.73.73h-1.44a.73.73 0 01-.73-.73V2.12c0-.43.37-.72.73-.72h1.44c.44 0 .73.29.73.72v18.85zm3.62 0c0 .36-.29.73-.72.73a.73.73 0 01-.72-.73V2.12c0-.39.32-.72.72-.72.4 0 .72.33.72.72v18.85zm-30-2.6c0-.52.07-1.02.28-1.46.22-.44.51-.73.88-.94.42-.22.86-.36 1.3-.36.73 0 1.3.21 1.8.72.44.44.73 1.1.73 1.8v.3c0 .58-.14 1.02-.29 1.45-.21.44-.5.73-.86.94-.44.22-.88.36-1.38.36-.73 0-1.3-.29-1.82-.71-.49-.57-.74-1.3-.72-2.03v-.08h.07zm10.94 2.81c-.72 0-1.38-.21-1.81-.71a2.67 2.67 0 01-.73-1.97v-.14c0-.51.07-1.01.29-1.45a2.4 2.4 0 012.18-1.3 2 2 0 011.66.72c.44.44.58 1.1.58 1.96v.51h-3.47c0 .43.14.72.43 1.02.22.28.58.42.95.42.57 0 1-.21 1.44-.72l.58.65c-.22.32-.52.56-.87.72-.36.23-.73.3-1.23.3zm4.64-6.8v1.3h.94v1.02h-.94v2.9c0 .22 0 .35.15.43 0 .14.21.14.42.14h.44v.87l-.8.14c-.94 0-1.44-.5-1.44-1.51v-3.05h-.88v-.94h.88v-1.3h1.23zm1.52 3.98c0-.51.07-1.01.3-1.45.2-.44.5-.73.86-.94.36-.22.8-.36 1.3-.36.73 0 1.3.21 1.82.72.44.44.73 1.1.73 1.8v.3c0 .58-.15 1.02-.3 1.45-.22.44-.5.73-.94.94-.37.22-.72.36-1.3.36-.73 0-1.39-.29-1.81-.71-.5-.57-.76-1.3-.73-2.03v-.08h.07zm-23.2 2.76v-7.33h2.47c.8 0 1.44.22 1.88.59.44.29.65.71.65 1.44 0 .29-.06.59-.29.88-.14.28-.43.5-.72.65.7.2 1.18.85 1.16 1.59 0 .73-.21 1.23-.65 1.6-.54.4-1.2.61-1.9.58h-2.6zm12.1-7.7h1.3v7.62h-1.3v-7.61zm-4.78 5.05c.01.56.09.98.3 1.27.21.36.58.5.94.5.43 0 .73-.21 1.01-.5.22-.29.3-.73.3-1.45a2.1 2.1 0 00-.37-1.23 1.14 1.14 0 00-.94-.51c-.36 0-.73.22-.94.51-.21.28-.29.7-.3 1.41zm17.04 0c.01.56.15.98.36 1.27.22.36.58.5.94.5.44 0 .73-.21.94-.5.3-.29.37-.73.37-1.45a2.1 2.1 0 00-.37-1.23c-.21-.29-.5-.51-.94-.51-.36 0-.72.22-.94.51-.21.28-.35.7-.36 1.41zm-23.13-.62v2.18h1.45c.37 0 .73 0 .88-.21.21-.23.35-.52.35-.88 0-.73-.35-1.09-1.15-1.09h-1.53zm6.09.62v-.03.06-.03zm17.04 0v-.03.03zm-7.47-1.92a.92.92 0 00-.72.36c-.22.21-.37.58-.43 1.01h2.32v-.13c0-.37-.15-.73-.37-.88a.92.92 0 00-.72-.36h-.08zm-15.66.36h1.24c.43 0 .73-.07.94-.29a.92.92 0 00.36-.72c0-.37-.15-.66-.36-.8-.15-.14-.51-.22-.94-.22h-1.24v2.03zm.08-5.36c0 .36-.3.72-.73.72a.72.72 0 01-.72-.72V2.12c0-.39.32-.72.72-.72.4 0 .73.33.73.72v9.43zm3.63 0a.73.73 0 01-1.45 0V2.12c0-.39.32-.72.72-.72.4 0 .73.33.73.72v9.43zm4.35 0c0 .36-.3.72-.73.72h-.73a.73.73 0 01-.72-.72V2.12c0-.43.36-.72.72-.72h.73c.43 0 .73.29.73.72v9.43zm3.62 0a.73.73 0 01-1.46 0V2.12c0-.39.34-.72.73-.72.4 0 .73.33.73.72v9.43zm3.62 0c0 .36-.29.72-.73.72a.72.72 0 01-.71-.72V2.12c0-.39.32-.72.71-.72.4 0 .73.33.73.72v9.43zm4.35 0c0 .36-.3.72-.72.72h-.73a.73.73 0 01-.72-.72V2.12c0-.43.36-.72.72-.72h.73c.43 0 .72.29.72.72v9.43zm3.63 0c0 .36-.3.72-.73.72a.73.73 0 01-.72-.72V2.12c0-.39.33-.72.72-.72.4 0 .73.33.73.72v9.43zm3.62 0a.73.73 0 01-1.45 0V2.12c0-.39.33-.72.72-.72.4 0 .73.33.73.72v9.43z" fill="#444" fill-rule="nonzero"/>
  </g>
  <g>
    <path d="M533.85 10.19c-.27 1.72-1.58 1.72-2.85 1.72h-.72l.5-3.21a.4.4 0 01.4-.34h.33c.87 0 1.68 0 2.1.5.25.29.33.73.24 1.33zm-.56-4.48h-4.78c-.33 0-.6.24-.66.56l-1.93 12.27v.06c0 .22.17.4.4.4h2.45c.22 0 .42-.17.46-.4l.54-3.47a.67.67 0 01.66-.56h1.51c3.16 0 4.97-1.53 5.45-4.55.21-1.32 0-2.36-.61-3.09-.68-.8-1.89-1.22-3.49-1.22z" fill="#2790c3"/>
    <path d="M499.73 10.19c-.27 1.72-1.58 1.72-2.85 1.72h-.72l.5-3.21a.4.4 0 01.4-.34h.33c.87 0 1.68 0 2.1.5.25.29.33.73.24 1.33zm-.56-4.48h-4.78c-.33 0-.6.24-.66.56l-1.93 12.27v.06c0 .22.17.4.4.4h2.28c.32 0 .6-.24.65-.56l.53-3.31a.67.67 0 01.65-.56h1.52c3.15 0 4.97-1.53 5.44-4.55.21-1.32.01-2.36-.61-3.09-.68-.8-1.89-1.22-3.49-1.22zm11.1 8.88a2.55 2.55 0 01-2.58 2.19c-.66 0-1.2-.21-1.53-.62-.34-.4-.47-.97-.36-1.6.2-1.3 1.26-2.21 2.56-2.21.65 0 1.18.21 1.53.62.35.41.49.99.39 1.62zm3.2-4.46h-2.29a.4.4 0 00-.4.34l-.1.64-.15-.23c-.5-.72-1.6-.96-2.7-.96a5.27 5.27 0 00-5.12 4.6c-.22 1.35.09 2.63.85 3.52.7.83 1.7 1.17 2.88 1.17 2.04 0 3.18-1.31 3.18-1.31l-.1.64-.01.06c0 .22.18.4.4.4h2.06c.33 0 .6-.24.66-.56l1.24-7.85v-.06a.4.4 0 00-.4-.4z" fill="#27346a"/>
    <path d="M544.4 14.6a2.55 2.55 0 01-2.59 2.18c-.66 0-1.2-.21-1.53-.62-.34-.4-.47-.97-.36-1.6.2-1.3 1.26-2.21 2.56-2.21.65 0 1.18.21 1.53.62.35.41.49.99.39 1.62zm3.2-4.47h-2.3a.4.4 0 00-.4.34l-.1.64-.15-.23c-.5-.72-1.6-.96-2.7-.96a5.27 5.27 0 00-5.12 4.6c-.22 1.35.09 2.63.85 3.52.7.83 1.7 1.17 2.88 1.17 2.04 0 3.18-1.31 3.18-1.31l-.1.64-.01.06c0 .22.18.4.4.4h2.06c.33 0 .6-.24.66-.56l1.23-7.85.01-.06a.4.4 0 00-.4-.4z" fill="#2790c3"/>
    <path d="M525.67 10.13h-2.3a.67.67 0 00-.55.3l-3.18 4.67-1.34-4.5a.67.67 0 00-.64-.47h-2.26a.4.4 0 00-.38.53l2.54 7.44-2.39 3.37a.4.4 0 00.33.63h2.3c.21 0 .42-.11.54-.29L526 10.76a.4.4 0 00-.33-.63" fill="#27346a"/>
    <path d="M550.3 6.05l-1.97 12.49v.06c0 .22.17.4.4.4h1.97c.32 0 .6-.24.65-.56l1.94-12.27a.4.4 0 00-.4-.46h-2.2a.4.4 0 00-.4.34" fill="#2790c3"/>
    <path d="M475.36 21.23l.64-4.08.04-.23a.84.84 0 01.83-.7h.5c.86 0 1.64-.1 2.33-.27a5.26 5.26 0 003.42-2.5c.41-.68.71-1.5.9-2.45.16-.83.19-1.57.09-2.21a3.34 3.34 0 00-.77-1.7 3.25 3.25 0 00-.93-.72h-.01v-.02c.13-.83.12-1.52-.02-2.12a3.76 3.76 0 00-.87-1.64c-.92-1.05-2.6-1.58-4.99-1.58h-6.56a.92.92 0 00-.91.77l-2.73 17.33a.54.54 0 00.54.63h4.07v.02l-.29 1.77c-.02.14.02.28.11.38.1.1.22.17.36.17h3.42a.8.8 0 00.8-.68l.03-.17" fill="#27346a"/>
    <path d="M473.02 6.37a.82.82 0 01.8-.69h5.15a10.75 10.75 0 012.54.31l.2.06c.25.09.49.18.7.3.26-1.64 0-2.76-.89-3.77-.97-1.11-2.74-1.6-5-1.6h-6.56a.94.94 0 00-.93.8L466.3 19.1a.57.57 0 00.56.65h4.05L473 6.37" fill="#27346a"/>
    <path d="M482.41 6.35l-.06.38c-.87 4.45-3.83 5.98-7.6 5.98h-1.93a.94.94 0 00-.93.8l-1.26 8.02v.07c0 .27.21.5.48.5h3.42c.4 0 .75-.3.8-.7l.04-.17.64-4.08.05-.22c.06-.4.4-.7.8-.7h.52c3.3 0 5.9-1.34 6.65-5.23.32-1.62.15-2.98-.68-3.93a3.25 3.25 0 00-.94-.72" fill="#2790c3"/>
    <path d="M481.5 5.99a6.58 6.58 0 00-.83-.19c-.52-.08-1.09-.12-1.7-.12h-5.14a.83.83 0 00-.81.7l-1.1 6.92-.03.2c.08-.45.46-.79.93-.79h1.92c3.78 0 6.74-1.53 7.6-5.98l.07-.38a4.6 4.6 0 00-.9-.36" fill="#1f264f"/>
  </g>
  <defs>
    <linearGradient id="_Linear1" x1="0" y1="0" x2="1" y2="0" gradientUnits="userSpaceOnUse" gradientTransform="translate(457.54 235.5) scale(132.797)">
      <stop offset="0" stop-color="#007b40"/>
      <stop offset="1" stop-color="#55b330"/>
    </linearGradient>
    <linearGradient id="_Linear2" x1="0" y1="0" x2="1" y2="0" gradientUnits="userSpaceOnUse" gradientTransform="translate(159.67 235.5) scale(132.782)">
      <stop offset="0" stop-color="#1d2970"/>
      <stop offset="1" stop-color="#006dba"/>
    </linearGradient>
    <linearGradient id="_Linear3" x1="0" y1="0" x2="1" y2="0" gradientUnits="userSpaceOnUse" gradientTransform="translate(308.6 235.5) scale(132.788)">
      <stop offset="0" stop-color="#6e2b2f"/>
      <stop offset="1" stop-color="#e30138"/>
    </linearGradient>
  </defs>
</svg>