<svg xmlns="http://www.w3.org/2000/svg" fill-rule="evenodd" stroke-linejoin="round" stroke-miterlimit="2" clip-rule="evenodd" viewBox="0 0 554 23">
  <defs/>
  <path fill="none" d="M0 0h554v23H0z"/>
  <clipPath id="a">
    <path d="M0 0h554v23H0z"/>
  </clipPath>
  <g clip-path="url(#a)">
    <path fill="#f1f1f1" d="M34.02 3c0-1.17-.95-2.13-2.13-2.13H2.14C.96.87 0 1.83 0 3.01v17.1c0 1.17.96 2.13 2.14 2.13h29.75c1.18 0 2.13-.96 2.13-2.14V3z"/>
    <path d="M28.08 20.02l-.14.04a.18.18 0 00-.06.14c0 .05.03.1.06.13a.2.2 0 00.14.06.2.2 0 00.14-.06.18.18 0 000-.27l-.14-.04zm0 .31a.14.14 0 01-.14-.13c0-.08.07-.14.14-.14.08 0 .14.06.14.14 0 .07-.06.13-.14.13zm.01-.22H28v.18h.05v-.05l.04.05h.05l-.05-.05.05-.04v-.05l-.05-.04zm-.01.04l.05.05h-.1v-.05h.05zm-20.82.14h-.4v-1.86h.4v.22s.36-.27.54-.27c.41 0 .64.32.64.32s.18-.32.63-.32c.64 0 .73.6.73.6v1.3h-.4v-1.17s0-.36-.42-.36c-.4 0-.45.36-.45.36v1.18h-.4V19.1s-.05-.36-.37-.36c-.5 0-.5.36-.5.36v1.19zm12.07-1.9c-.18 0-.55.26-.55.26v-.22h-.36v1.86h.4l-.04-1.18s.05-.36.5-.36l.18.04.14-.36-.27-.05v.01zm5.62 0c-.23 0-.54.26-.54.26v-.22H24v1.86h.4V19.1s0-.36.46-.36l.23.04.13-.36-.27-.05v.02zm-13.88 0c-.59 0-.9.5-.9.95 0 .45.36 1 .95 1 .31 0 .58-.23.58-.23v.18h.37v-1.86h-.37v.22s-.27-.27-.63-.27v.01zm.09.36c.32 0 .6.27.6.63a.6.6 0 01-.6.6.6.6 0 01-.59-.6c0-.36.27-.63.59-.63zm11.3-.37c-.6 0-.91.5-.91.96 0 .45.36 1 .95 1 .32 0 .6-.23.6-.23v.18h.4v-1.86h-.4v.22s-.28-.27-.64-.27zm.09.37c.32 0 .59.27.59.63a.6.6 0 01-.6.6.6.6 0 01-.58-.6c0-.36.27-.63.59-.63zm3.67-.37c-.59 0-.9.5-.9.96 0 .45.36 1 .95 1 .31 0 .59-.23.59-.23v.18h.4V17.7h-.4v.95s-.28-.27-.64-.27zm.1.37c.3 0 .58.27.58.63a.6.6 0 01-.59.6.6.6 0 01-.59-.6.6.6 0 01.6-.63zm-13.03 1.58c-.4 0-.77-.22-.77-.22l.14-.27s.36.13.63.13c.14 0 .41-.05.46-.18 0-.18-.5-.23-.5-.23s-.68-.04-.68-.59c0-.36.36-.59.77-.59.27 0 .77.23.77.23l-.23.27-.54-.13c-.18 0-.36.09-.36.22 0 .37 1.13-.04 1.13.77 0 .5-.45.6-.82.6v-.01zm1.5-2.45v.55h-.36v.4h.36v.91s-.04.64.64.64l.54-.14-.14-.4s-.18.13-.31.13c-.32-.05-.32-.23-.32-.23v-.9h.63v-.41h-.63v-.55h-.41zm2.36.5h-.06a.9.9 0 00-.89 1c0 .46.27 1 .95 1 .32 0 .72-.27.72-.27l-.18-.32s-.27.23-.54.23c-.5 0-.55-.5-.55-.5h1.36s.14-1.14-.81-1.14zm-.1.37h.05c.5 0 .5.45.5.45h-1s0-.4.46-.45h-.01zm4.1 1.04l.17.36s-.27.18-.59.18h-.05a1 1 0 01-.99-.99v-.01c0-.72.59-.95 1-.95.36 0 .68.23.68.23l-.23.36s-.09-.22-.45-.22c-.37 0-.6.31-.6.63s.23.6.6.6c.22 0 .45-.2.45-.2l.01.01z"/>
    <path fill="#f79f1a" d="M28.35 13.53v-.27h-.09l-.09.18-.04-.18h-.1v.27h.05v-.23l.1.18h.04l.04-.18v.23h.1-.01zm-.45 0v-.23h.1v-.04h-.19v.04h.04v.23h.05zm.45-3.72c0 3.84-3.16 7-7 7a7.04 7.04 0 01-7.01-7c0-3.85 3.16-7 7-7a7.03 7.03 0 017.01 7z"/>
    <path fill="#ea001b" d="M19.69 9.8a7.05 7.05 0 01-7 7.02 7.05 7.05 0 01-7.02-7.01c0-3.85 3.17-7 7.01-7a7.04 7.04 0 017.01 7V9.8z"/>
    <path fill="#ff5f01" d="M17.01 4.28a7.03 7.03 0 000 11.02 7.03 7.03 0 000-11.02z"/>
    <path fill="#0e4595" d="M72.32 3c0-1.17-.96-2.13-2.14-2.13H40.43c-1.18 0-2.13.96-2.13 2.14v17.1c0 1.17.95 2.13 2.13 2.13h29.75c1.18 0 2.14-.96 2.14-2.14V3z"/>
    <path fill="#fff" d="M50.9 16.02l1.55-8.89h2.4l-1.5 8.9h-2.44l-.01-.01zm11.17-8.66c-.7-.27-1.44-.4-2.18-.4-2.36 0-4.04 1.22-4.08 2.94 0 1.27 1.22 2 2.13 2.4.95.46 1.27.73 1.27 1.14 0 .59-.77.86-1.45.86-1 0-1.5-.14-2.27-.5l-.32-.13-.36 2c.59.26 1.63.45 2.72.49 2.54 0 4.17-1.22 4.22-3.04 0-1.04-.64-1.81-2.04-2.45-.86-.4-1.36-.68-1.36-1.09 0-.36.4-.77 1.36-.77.81 0 1.36.18 1.81.36l.23.1.32-1.91m6.26-.23h-1.9c-.55 0-1 .18-1.28.77l-3.58 8.12h2.54l.5-1.31h3.13l.27 1.31h2.27l-1.95-8.89zm-3 5.76l.96-2.5.36-.85.13.77.55 2.58h-2zM48.87 7.13l-2.36 6.08-.28-1.22a7 7 0 00-3.35-3.72l2.18 7.75h2.54l3.8-8.89h-2.53"/>
    <path fill="#f2ae14" d="M44.28 7.13h-3.9l-.04.23c3.04.73 5.03 2.5 5.9 4.63l-.87-4.09c-.13-.54-.54-.72-1.09-.77"/>
    <g>
      <path fill="#444" fill-rule="nonzero" d="M96.23 20.97c0 .4-.33.73-.73.73a.73.73 0 01-.73-.73V2.12c0-.39.33-.72.73-.72.4 0 .73.33.73.72v18.85zm4.34 0c0 .36-.28.73-.72.73h-.73a.73.73 0 01-.73-.73V2.12c0-.43.37-.72.73-.72h.73c.44 0 .72.29.72.72v18.85zm34.8 0c0 .36-.29.73-.73.73h-1.44a.73.73 0 01-.73-.73V2.12c0-.43.37-.72.73-.72h1.44c.44 0 .73.29.73.72v18.85zm3.62 0c0 .36-.29.73-.72.73a.73.73 0 01-.72-.73V2.12c0-.39.32-.72.72-.72.4 0 .72.33.72.72v18.85zm-30-2.6c0-.52.07-1.02.28-1.46.22-.44.51-.73.88-.94.42-.22.86-.36 1.3-.36.73 0 1.3.21 1.8.72.44.44.73 1.1.73 1.8v.3c0 .58-.14 1.02-.29 1.45-.2.44-.5.73-.86.94-.44.22-.88.36-1.38.36a2.8 2.8 0 01-1.82-.71 3 3 0 01-.72-2.03v-.08h.07l.01.01zm10.94 2.81c-.72 0-1.38-.21-1.8-.71a2.67 2.67 0 01-.74-1.97v-.14c0-.51.07-1.01.3-1.45a2.4 2.4 0 012.17-1.3 2 2 0 011.66.72c.44.44.58 1.1.58 1.96v.51h-3.47c0 .43.14.72.43 1.02.22.28.58.42.95.42.57 0 1-.21 1.44-.72l.58.65a2.1 2.1 0 01-.87.72c-.36.23-.73.3-1.23.3v-.01zm4.64-6.8v1.3h.94v1.02h-.94v2.9c0 .22 0 .35.15.43 0 .14.21.14.42.14h.44v.87l-.8.14c-.94 0-1.44-.5-1.44-1.51v-3.05h-.88v-.94h.88v-1.3h1.23zm1.52 3.98c0-.51.07-1.01.3-1.45.2-.44.5-.73.86-.94.36-.22.8-.36 1.3-.36.73 0 1.3.21 1.82.72.44.44.73 1.1.73 1.8v.3c0 .58-.15 1.02-.3 1.45-.22.44-.5.73-.94.94a2.3 2.3 0 01-1.3.36c-.73 0-1.39-.29-1.8-.71a2.9 2.9 0 01-.74-2.03v-.08h.07zm-23.2 2.76v-7.33h2.47c.8 0 1.44.22 1.88.59.44.29.65.71.65 1.44 0 .29-.06.59-.29.88-.14.28-.43.5-.72.65.7.2 1.18.85 1.16 1.59 0 .73-.2 1.23-.65 1.6-.54.4-1.2.61-1.9.58h-2.6zm12.1-7.7h1.3v7.62H115v-7.62zm-4.78 5.05c.01.56.1.98.3 1.27.21.36.58.5.94.5.43 0 .73-.21 1.01-.5.22-.29.3-.73.3-1.45.01-.44-.12-.87-.37-1.23-.2-.31-.56-.5-.94-.51-.36 0-.73.22-.94.51-.2.28-.29.7-.3 1.41zm17.04 0c.01.56.15.98.36 1.27.22.36.58.5.94.5.44 0 .73-.21.94-.5.3-.29.37-.73.37-1.45.01-.44-.12-.87-.37-1.23-.2-.29-.5-.51-.94-.51-.36 0-.72.22-.94.51-.2.28-.35.7-.36 1.41zm-23.13-.62v2.18h1.45c.37 0 .73 0 .88-.21.21-.23.35-.52.35-.88 0-.73-.35-1.09-1.15-1.09h-1.53zm6.1.65v-.06.06zm17.03-.03v-.03.03zm-7.47-1.92a.92.92 0 00-.72.36c-.22.21-.37.58-.43 1.01h2.32v-.13c0-.37-.15-.73-.37-.88a.92.92 0 00-.72-.36h-.08zm-15.66.36h1.24c.43 0 .73-.07.94-.29a.92.92 0 00.36-.72c0-.37-.15-.66-.36-.8-.15-.14-.5-.22-.94-.22h-1.24v2.03zm.08-5.36a.72.72 0 01-1.45 0V2.12a.72.72 0 011.45 0v9.43zm3.63 0a.73.73 0 01-.72.64.73.73 0 01-.73-.64V2.12a.72.72 0 011.45 0v9.43zm4.35 0c0 .36-.3.72-.73.72h-.73a.73.73 0 01-.72-.72V2.12c0-.43.36-.72.72-.72h.73c.43 0 .73.29.73.72v9.43zm3.62 0c0 .4-.33.73-.73.73a.73.73 0 01-.73-.73V2.12c0-.39.34-.72.73-.72.4 0 .73.33.73.72v9.43zm3.62 0c0 .36-.29.72-.73.72a.72.72 0 01-.7-.72V2.12c0-.39.31-.72.7-.72.4 0 .73.33.73.72v9.43zm4.35 0c0 .36-.3.72-.72.72h-.73a.73.73 0 01-.72-.72V2.12c0-.43.36-.72.72-.72h.73c.43 0 .72.29.72.72v9.43zm3.63 0c0 .36-.3.72-.73.72a.73.73 0 01-.72-.72V2.12c0-.39.33-.72.72-.72.4 0 .73.33.73.72v9.43zm3.62 0a.73.73 0 01-.72.64.73.73 0 01-.73-.64V2.12c0-.39.33-.72.72-.72.4 0 .73.33.73.72v9.43z"/>
    </g>
    <g>
      <path fill="#73b1a2" fill-rule="nonzero" d="M177.87 17.9c-.82 0-1.61-.33-2.2-.91l-3.15-3.16a.6.6 0 00-.83 0L168.52 17a3.1 3.1 0 01-2.2.9h-.62l4 4a3.23 3.23 0 004.53 0l4.02-4h-.38zm3.7-7.85l-2.43-2.43a.45.45 0 01-.17.03h-1.1a2.2 2.2 0 00-1.53.64l-3.16 3.16a1.5 1.5 0 01-2.15 0l-3.17-3.17a2.2 2.2 0 00-1.53-.64h-1.36a.46.46 0 01-.16-.03l-2.44 2.44a3.24 3.24 0 000 4.52l2.44 2.44c.05-.02.1-.04.16-.04h1.36a2.2 2.2 0 001.53-.63l3.17-3.17c.6-.57 1.55-.57 2.15 0l3.15 3.16c.4.4.96.63 1.54.63h1.1c.06 0 .12.02.17.04l2.43-2.43a3.24 3.24 0 000-4.52zM166.33 6.7c.82 0 1.6.33 2.19.91l3.17 3.17c.23.23.6.23.83 0l3.16-3.16a3.1 3.1 0 012.19-.9h.38l-4.02-4.02a3.24 3.24 0 00-4.52 0l-4 4h.62zm37.96-4.15l-.76-.76a.48.48 0 010-.68l.76-.75a.5.5 0 01.68 0l.75.75c.18.2.18.5 0 .68l-.76.76a.48.48 0 01-.67 0z"/>
      <path fill="#aaa" d="M188.17 21.36V8.39c0-2.1 1.72-3.82 3.82-3.82h3.83c2.1 0 3.8 1.73 3.8 3.8v2.78a3.86 3.86 0 01-3.82 3.82h-5.4a.5.5 0 000 .99h5.4a4.87 4.87 0 004.82-4.81V8.39a4.86 4.86 0 00-4.8-4.82h-3.83a4.86 4.86 0 00-4.82 4.82v12.97a.5.5 0 00.5.48.5.5 0 00.5-.48zm13.03-16.8h1.66c.7 0 1.28.58 1.28 1.28v9.69a.5.5 0 00.5.47c.26 0 .48-.21.5-.47v-9.7a2.31 2.31 0 00-2.28-2.27h-1.66a.5.5 0 00-.48.5c0 .27.2.49.48.5zm6.62 11.38h1.65a3.7 3.7 0 002.6-1.08l3.87-3.86a.79.79 0 01.55-.23c.2 0 .4.09.55.23l3.83 3.84c.7.69 1.64 1.08 2.62 1.08h1.34a.5.5 0 00.48-.5.5.5 0 00-.48-.5h-1.34c-.72 0-1.4-.28-1.9-.78l-3.85-3.84a1.79 1.79 0 00-2.5 0l-3.86 3.85c-.5.5-1.2.79-1.9.79h-1.66a.5.5 0 00-.48.5c0 .26.2.49.48.5zm0 0l-.05-.06c-.02-.03-.05-.05-.05-.04 0 .08.1.1.1.1zm0-11.4h1.65c.72 0 1.4.3 1.9.8l3.86 3.86c.7.69 1.82.69 2.5 0l3.85-3.84c.5-.51 1.2-.8 1.9-.8h1.35a.5.5 0 00.48-.5.5.5 0 00-.48-.5h-1.34c-.98 0-1.92.4-2.62 1.09l-3.83 3.84a.78.78 0 01-.55.23c-.2 0-.4-.08-.55-.23l-3.86-3.85a3.66 3.66 0 00-2.6-1.1h-1.66a.5.5 0 00-.48.5c0 .28.2.5.48.5zm-6.7-.1v.06l.08.06a.44.44 0 00-.03-.1l-.06-.01v-.01zm6.7.1l-.05-.05c-.02-.03-.05-.05-.05-.04 0 .09.1.1.1.1v-.01z"/>
    </g>
    <g>
      <path fill="#2790c3" d="M315.32 10.19c-.27 1.72-1.58 1.72-2.85 1.72h-.72l.5-3.21a.4.4 0 01.4-.34h.33c.87 0 1.68 0 2.1.5.25.29.33.73.24 1.33zm-.56-4.48h-4.78c-.33 0-.6.24-.66.56l-1.93 12.27v.06c0 .22.17.4.4.4h2.45c.22 0 .42-.17.46-.4l.54-3.47a.67.67 0 01.66-.56h1.5c3.17 0 4.98-1.53 5.46-4.55.2-1.32 0-2.36-.61-3.09-.68-.8-1.9-1.22-3.5-1.22z"/>
      <path fill="#27346a" d="M281.2 10.19c-.27 1.72-1.58 1.72-2.85 1.72h-.72l.5-3.21a.4.4 0 01.4-.34h.33c.87 0 1.68 0 2.1.5.25.29.33.73.24 1.33zm-.56-4.48h-4.78c-.33 0-.6.24-.66.56l-1.93 12.27v.06c0 .22.17.4.4.4h2.28c.32 0 .6-.24.65-.56l.53-3.31a.67.67 0 01.65-.56h1.52c3.15 0 4.97-1.53 5.44-4.55.2-1.32 0-2.36-.61-3.09-.68-.8-1.9-1.22-3.5-1.22zm11.1 8.88a2.56 2.56 0 01-2.58 2.19c-.66 0-1.2-.21-1.53-.62-.34-.4-.47-.97-.36-1.6a2.56 2.56 0 012.56-2.21c.65 0 1.18.21 1.53.62.35.41.49.99.39 1.62h-.01zm3.2-4.46h-2.3a.4.4 0 00-.4.34l-.1.64-.14-.23c-.5-.72-1.6-.96-2.7-.96a5.29 5.29 0 00-5.12 4.6 4.31 4.31 0 00.85 3.52c.7.83 1.7 1.17 2.88 1.17 2.04 0 3.18-1.31 3.18-1.31l-.1.64-.01.06c0 .22.18.4.4.4h2.06c.33 0 .6-.24.66-.56l1.24-7.85v-.06a.4.4 0 00-.4-.4z"/>
      <path fill="#2790c3" d="M325.87 14.6a2.56 2.56 0 01-2.6 2.18c-.65 0-1.2-.21-1.52-.62-.34-.4-.47-.97-.36-1.6a2.56 2.56 0 012.56-2.21c.65 0 1.18.21 1.53.62.35.41.49.99.39 1.62v.01zm3.2-4.47h-2.3a.4.4 0 00-.4.34l-.1.64-.15-.23c-.5-.72-1.6-.96-2.7-.96a5.29 5.29 0 00-5.12 4.6 4.31 4.31 0 00.85 3.52c.7.83 1.7 1.17 2.88 1.17 2.04 0 3.18-1.31 3.18-1.31l-.1.64-.01.06c0 .22.18.4.4.4h2.06c.33 0 .6-.24.66-.56l1.23-7.85v-.06a.4.4 0 00-.4-.4h.02z"/>
      <path fill="#27346a" d="M307.14 10.13h-2.3a.67.67 0 00-.55.3l-3.18 4.67-1.34-4.5a.67.67 0 00-.64-.47h-2.26a.4.4 0 00-.38.53l2.54 7.44-2.4 3.37a.4.4 0 00-.06.23c0 .22.18.4.4.4h2.3c.2 0 .42-.11.54-.29l7.66-11.05a.4.4 0 00.07-.23.4.4 0 00-.4-.4"/>
      <path fill="#2790c3" d="M331.77 6.05l-1.97 12.49v.06c0 .22.17.4.4.4h1.97c.32 0 .6-.24.65-.56l1.94-12.27a.4.4 0 00-.4-.46h-2.2a.4.4 0 00-.4.34"/>
      <path fill="#27346a" d="M256.83 21.23l.64-4.08.04-.23c.07-.4.42-.7.83-.7h.5c.86 0 1.64-.1 2.33-.27a5.26 5.26 0 003.42-2.5c.4-.68.7-1.5.9-2.45.16-.83.19-1.57.09-2.21a3.34 3.34 0 00-.77-1.7c-.26-.3-.58-.54-.93-.72h-.01v-.02c.13-.83.12-1.52-.02-2.12a3.76 3.76 0 00-.87-1.64c-.92-1.05-2.6-1.58-5-1.58h-6.55a.92.92 0 00-.91.77l-2.73 17.33v.09c0 .3.23.54.53.54h4.08v.02l-.3 1.77c-.01.14.03.28.12.38.1.1.22.17.36.17H256a.8.8 0 00.8-.68l.03-.17"/>
      <path fill="#27346a" d="M254.49 6.37c.06-.4.4-.69.8-.69h5.15c.86 0 1.7.1 2.54.31l.2.06c.25.09.49.18.7.3.26-1.64 0-2.76-.9-3.77-.96-1.11-2.73-1.6-5-1.6h-6.55a.94.94 0 00-.93.8l-2.73 17.32v.08c0 .31.25.57.56.57h4.05l2.09-13.38"/>
      <path fill="#2790c3" d="M263.88 6.35l-.06.38c-.87 4.45-3.83 5.98-7.6 5.98h-1.93a.94.94 0 00-.93.8l-1.26 8.02v.07c0 .27.2.5.48.5H256c.4 0 .75-.3.8-.7l.04-.17.64-4.08.05-.22c.06-.4.4-.7.8-.7h.52c3.3 0 5.9-1.34 6.65-5.23.32-1.62.15-2.98-.68-3.93-.27-.3-.59-.54-.94-.72"/>
      <path fill="#1f264f" d="M262.97 5.99a6.56 6.56 0 00-.83-.19c-.52-.08-1.1-.12-1.7-.12h-5.14c-.4 0-.75.3-.81.7l-1.1 6.92-.03.2a.95.95 0 01.93-.79h1.92c3.78 0 6.74-1.53 7.6-5.98l.07-.38a4.6 4.6 0 00-.9-.36"/>
    </g>
    <g>
      <path fill="#11c76f" fill-rule="nonzero" d="M371.78 18.6h3.33V8.94h-3.33v9.66zm4.46-16.23H374V4.6h2.23V2.37zm-12.5 1.09h-3.21v2.8h2.97c1.89 0 2.97.91 2.97 2.63 0 1.71-1.08 2.68-2.96 2.68h-2.97V6.32h-3.32V18.6h3.3v-4.22h3.16c3.82 0 6.05-2.06 6.05-5.6 0-3.33-2.17-5.32-6-5.32zM378.47.14h-6.67v6.69h6.67V.14zm-1.08 5.55h-4.45V1.23h4.45V5.7zm19.44-2.23h-3.04v2.8h2.86c1.88 0 2.97.91 2.97 2.63 0 1.71-1.09 2.68-2.97 2.68h-2.86V6.32h-3.32V18.6h3.32v-4.22h3.04c3.82 0 6.05-2.06 6.05-5.6 0-3.33-2.22-5.32-6.05-5.32zM424.65 7l-2.85 7.2-2.86-7.2h-3.44l4.59 11.6-1.78 4.4h3.5l6.28-16h-3.44zm-14.85-.05c-2 0-3.54.45-5.26 1.3l1.03 2.3c1.06-.64 2.26-1 3.49-1.03 1.6 0 2.41.68 2.41 1.94v.23h-3.2c-2.86 0-4.4 1.31-4.4 3.48 0 2.12 1.48 3.6 3.98 3.6a4.73 4.73 0 003.67-1.54v1.25h3.26v-7.53c-.12-2.45-1.9-4-4.98-4zm1.95 7.77a2.76 2.76 0 01-2.7 1.76c-1.13 0-1.82-.56-1.82-1.48 0-.91.63-1.31 1.9-1.31h2.62v1.03zm-28.18 1.37c-1.6 0-2.74-1.26-2.74-3.15 0-1.83 1.14-3.08 2.74-3.08 1.15 0 2 .46 2.63 1.25l2.22-1.6c-1.02-1.54-2.79-2.45-5.02-2.45-3.49-.06-5.88 2.34-5.88 5.89 0 3.54 2.4 5.88 5.88 5.88 2.4 0 4.17-.97 5.15-2.57l-2.3-1.54c-.56.9-1.48 1.37-2.68 1.37z"/>
    </g>
    <g>
      <path d="M465.82.47a10.16 10.16 0 00-7.2 0 11.62 11.62 0 00-8.08 10.98c0 3.55 1.66 6.91 4.48 9.07.84.75 1.82 1.3 2.88 1.65a11.64 11.64 0 0016.01-10.72c0-5.12-3.39-9.48-8.08-10.98z"/>
      <path fill="#a4dbd9" d="M464.76 20.67a7.83 7.83 0 01-10.63-2.25 7.49 7.49 0 01-1.06-5.73 7.75 7.75 0 0113.45-3.24 5.33 5.33 0 00-.5 10.23c-.4.37-.8.7-1.26 1z"/>
      <path fill="#f7e022" d="M467.64 19.2l-.32.02a4.63 4.63 0 01-4.58-4.59 4.63 4.63 0 015-4.57 4.62 4.62 0 014.12 4.56 4.62 4.62 0 01-4.22 4.58z"/>
      <path fill="#dbe554" d="M452.51 9.9a9.66 9.66 0 019.7-9.6h.04a9.74 9.74 0 019.55 11.01 5.4 5.4 0 00-4.18-1.98h-.28a8.48 8.48 0 00-14.7 2.18 9.41 9.41 0 01-.14-1.62h.01z"/>
      <g>
        <path d="M529.29 15.95c-.72 3.26-1.92 4.76-5.5 4.76-.96 0-1.91-.15-2.82-.45l.45-1.6c.7.36 1.5.56 2.33.54 2 0 2.79-1.06 3.15-2.58l.27-1.08a3.3 3.3 0 01-2.93 1.5c-1.68 0-2.47-1.02-2.47-2.4 0-3.66 3.33-5.87 6.4-5.87.92 0 1.8.11 2.65.36l-1.52 6.83v-.01h-.01zm-25.22 0c-.72 3.26-1.9 4.76-5.5 4.76a9.3 9.3 0 01-2.82-.45l.44-1.6c.74.36 1.52.56 2.33.54 2.02 0 2.8-1.06 3.17-2.58l.26-1.08a3.26 3.26 0 01-2.93 1.5c-1.65 0-2.45-1.02-2.45-2.4 0-3.66 3.3-5.87 6.4-5.87.92 0 1.78.11 2.64.36l-1.53 6.83v-.01zm12.05-2.32c-.07.21-.12.49-.12.75 0 1.08.85 1.52 1.84 1.52a4.85 4.85 0 002.49-.74l-.08 1.43a6.8 6.8 0 01-3.1.64c-1.75 0-3.41-.76-3.41-2.75 0-3.21 2.43-5.7 5.3-5.7 1.3 0 2.8.47 2.8 1.95 0 2.55-3.69 2.89-5.7 2.89h-.02zm-2.56-5.39a5.15 5.15 0 00-2.24-.54c-.97 0-2.44.45-2.44 1.57 0 1.58 4.26 1.33 4.26 4.3 0 2.35-2.23 3.65-4.95 3.65-1.07.01-2.13-.14-3.15-.47l.56-1.74c.83.4 1.73.63 2.65.6 1.15-.03 2.42-.55 2.42-1.74 0-1.68-4.23-1.52-4.23-4.25 0-2.56 2.57-3.52 5.03-3.52.9 0 1.8.17 2.66.49l-.57 1.65zm24.68 6.97c-.14.61-.24 1.22-.32 1.84h-2.07l.22-1.47c-.7.96-1.55 1.63-2.9 1.63-1.34 0-2.22-.65-2.22-2 0-.3.02-.6.08-.91l1.14-5.39h2.23l-1.01 4.89c-.08.28-.1.58-.13.86 0 .6.3 1.06 1.06 1.06 1.22 0 1.78-1.12 2.02-2.15l.98-4.67h2.23l-1.32 6.3.01.01zm10.54 2.01c-1.78 0-3.43-.99-3.43-2.94 0-3.15 2.02-5.5 5.23-5.5 1.8 0 3.42.94 3.42 2.91 0 3.1-2.06 5.53-5.21 5.53h-.01zm-53.34-3.06c-.22.94-.35 1.91-.38 2.89h-2.28c.03-.42.17-1.18.31-1.91-.58 1.04-1.54 2.08-3.11 2.08-1.64 0-2.47-1.1-2.47-2.57 0-3.65 3.25-5.89 6.34-5.89.94 0 2.15.15 2.72.37l-1.13 5.04v-.01zm50.08-3.3l-.66-.11c-1.46 0-2.28 1.43-2.57 2.71l-.76 3.59h-2.23l1.33-6.31c.14-.59.25-1.2.33-1.8h2.1l-.31 1.67c.5-1 1.48-1.85 2.65-1.85.22 0 .43.02.65.08l-.54 2.03h.02-.01zm-62.11 2.18h-2.07l-.84 4h-2.36l2.28-10.77h4.45c1.8 0 3.04 1.26 3.04 2.72 0 2.9-2.3 4.06-4.5 4.06v-.01zm66.78-2.77c-1.66 0-2.5 2.36-2.5 3.77 0 .97.36 1.68 1.41 1.68 1.63 0 2.59-2.39 2.59-3.77 0-.97-.45-1.68-1.5-1.68zm-56.76-.01c-1.87 0-3.56 1.95-3.56 4.13 0 .72.26 1.33 1.08 1.33 1.14 0 2.23-1.56 2.67-3.5l.44-1.87c-.2-.07-.42-.1-.63-.09zm9.08 0c-1.87 0-3.6 1.92-3.6 4.18 0 .73.26 1.26 1.06 1.26 1.52 0 2.35-1.95 2.69-3.38l.48-1.95c-.2-.07-.42-.1-.63-.11zm25.19 0c-1.85 0-3.58 1.92-3.58 4.18 0 .73.26 1.26 1.06 1.26 1.51 0 2.36-1.95 2.68-3.38l.48-1.95c-.2-.07-.42-.1-.63-.11h-.01zm-8.84-.17c-1.23 0-2.1 1.28-2.52 2.32 1.47 0 3.48-.25 3.48-1.52.04-.6-.4-.8-.95-.8zm-35.15-2.24h-1.27l-.77 3.63h.8c1.59 0 3.04-.36 3.04-2.25 0-.87-.89-1.38-1.8-1.38z"/>
      </g>
    </g>
  </g>
</svg>
