<svg viewBox="0 0 554 24" xmlns="http://www.w3.org/2000/svg" fill-rule="evenodd" clip-rule="evenodd" stroke-miterlimit="22.93">
  <path d="M34.15 3.22c0-1.2-.96-2.18-2.13-2.18H2.28c-1.17 0-2.13.98-2.13 2.18V20.6c0 1.2.96 2.17 2.13 2.17h29.74c1.17 0 2.13-.97 2.13-2.17V3.2z" fill="#f1f1f1"/>
  <path d="M28.21 20.52l-.13.05a.2.2 0 000 .28c.03.03.08.06.13.06s.1-.03.14-.07a.2.2 0 000-.27l-.14-.05zm0 .32a.14.14 0 01-.13-.14c0-.07.06-.13.13-.13.08 0 .14.06.14.13 0 .08-.06.14-.14.14zm0-.23h-.09v.19h.05v-.05l.04.05h.05l-.05-.05.05-.05v-.04l-.05-.05zm0 .05l.05.04h-.1v-.04h.05zm-20.8.14h-.42v-1.9h.41v.23s.37-.27.55-.27c.4 0 .63.32.63.32s.18-.32.63-.32c.64 0 .73.6.73.6v1.34h-.4v-1.2s0-.37-.42-.37c-.4 0-.45.37-.45.37v1.2h-.4v-1.2s-.05-.37-.37-.37c-.5 0-.5.37-.5.37v1.2zm12.05-1.94c-.18 0-.54.27-.54.27v-.23h-.36v1.9h.4l-.04-1.2s.04-.37.5-.37l.18.04.14-.37-.28-.04zm5.63 0c-.23 0-.55.27-.55.27v-.23h-.4v1.9h.4v-1.2s0-.37.45-.37l.23.04.14-.37-.27-.04zm-13.88 0c-.59 0-.9.5-.9.97 0 .46.36 1.01.95 1.01.31 0 .58-.23.58-.23v.19h.37v-1.9h-.37v.23s-.27-.27-.63-.27zm.1.37c.3 0 .58.27.58.64a.6.6 0 01-.59.6.6.6 0 01-.59-.6c0-.37.27-.64.6-.64zm11.28-.37c-.59 0-.9.5-.9.97 0 .46.36 1.01.95 1.01.31 0 .59-.23.59-.23v.19h.4v-1.9h-.4v.23s-.28-.27-.64-.27zm.1.37c.3 0 .58.27.58.64a.6.6 0 01-.59.6.6.6 0 01-.59-.6c0-.37.27-.64.6-.64zm3.66-.37c-.59 0-.9.5-.9.97 0 .46.36 1.01.95 1.01.32 0 .59-.23.59-.23v.19h.4v-2.63H27v.96s-.27-.27-.64-.27zm.1.37c.31 0 .58.27.58.64a.6.6 0 01-.59.6.6.6 0 01-.58-.6c0-.37.27-.64.58-.64zm-13.02 1.61c-.4 0-.77-.23-.77-.23l.14-.27s.36.13.63.13c.14 0 .41-.04.46-.18 0-.19-.5-.23-.5-.23s-.68-.05-.68-.6c0-.37.36-.6.77-.6.27 0 .77.23.77.23l-.23.28-.54-.14c-.18 0-.36.09-.36.23 0 .37 1.13-.05 1.13.78 0 .51-.45.6-.82.6zm1.5-2.49v.55h-.36v.42h.36v.92s-.05.65.63.65l.55-.14-.14-.42s-.18.14-.32.14c-.31-.04-.31-.23-.31-.23v-.92h.63v-.42h-.63v-.55h-.41zm2.36.5c-.68 0-1 .56-.95 1.02 0 .47.27 1.02.95 1.02.31 0 .72-.28.72-.28l-.18-.32s-.27.23-.54.23c-.5 0-.55-.5-.55-.5h1.36s.14-1.16-.81-1.16zm-.1.38h.05c.5 0 .5.46.5.46h-1s0-.42.46-.46zm4.09 1.06l.18.37s-.28.18-.6.18a1 1 0 01-1.03-1.01c0-.74.58-.97 1-.97.35 0 .67.23.67.23l-.22.37s-.1-.23-.46-.23-.59.32-.59.64c0 .33.23.6.6.6.22 0 .45-.18.45-.18z"/>
  <path d="M28.49 13.92v-.28h-.1l-.09.19-.04-.19h-.1v.28h.05v-.23l.1.18h.04l.05-.18v.23h.09zm-.46 0v-.23h.1v-.05h-.19v.05H28v.23h.04zm.46-3.79a7.1 7.1 0 01-7.01 7.14 7.1 7.1 0 01-7-7.14 7.1 7.1 0 017-7.13c3.84 0 7 3.22 7 7.13z" fill="#f79f1a"/>
  <path d="M19.83 10.13a7.1 7.1 0 01-7.01 7.14 7.1 7.1 0 01-7-7.14 7.1 7.1 0 017-7.13c3.84 0 7 3.22 7 7.13z" fill="#ea001b"/>
  <path d="M17.15 4.5a7.2 7.2 0 000 11.22 7.2 7.2 0 000-11.22z" fill="#ff5f01"/>
  <path d="M72.43 3.22c0-1.2-.96-2.18-2.14-2.18H40.56c-1.18 0-2.14.98-2.14 2.18V20.6c0 1.2.96 2.17 2.14 2.17h29.73c1.18 0 2.14-.97 2.14-2.17V3.2z" fill="#0e4595"/>
  <path d="M51.03 16.46l1.54-9.05h2.4l-1.5 9.05h-2.44zm11.15-8.82A5.86 5.86 0 0060 7.23c-2.35 0-4.03 1.24-4.08 3 0 1.29 1.23 2.03 2.14 2.44.95.46 1.26.74 1.26 1.16 0 .6-.77.87-1.45.87-1 0-1.5-.13-2.26-.5l-.32-.14-.36 2.03c.59.28 1.63.46 2.72.5 2.54 0 4.17-1.24 4.21-3.09 0-1.06-.63-1.84-2.04-2.49-.86-.41-1.36-.7-1.36-1.1 0-.38.41-.8 1.36-.8.82 0 1.36.2 1.82.38l.22.1.32-1.95m6.26-.23h-1.9c-.55 0-1 .19-1.28.79l-3.58 8.26h2.54l.5-1.34h3.13l.27 1.34h2.27L68.44 7.4zm-3 5.86l.96-2.54.36-.87.14.78.54 2.63h-2zM49 7.41l-2.36 6.19-.27-1.25A7.08 7.08 0 0043 8.57l2.18 7.89h2.54l3.8-9.05H49" fill="#fff"/>
  <path d="M44.4 7.41h-3.9l-.04.23c3.04.74 5.04 2.54 5.9 4.71L45.5 8.2c-.14-.56-.55-.74-1.1-.79" fill="#f2ae14"/>
  <path d="M110.7 3.22c0-1.2-.95-2.18-2.13-2.18H78.83c-1.17 0-2.13.98-2.13 2.18V20.6c0 1.2.96 2.17 2.13 2.17h29.74c1.17 0 2.13-.97 2.13-2.17V3.2z" fill="#231f20"/>
  <path d="M94.4 4.84v9.43l1.45.6-.82 1.94-1.59-.67c-.36-.16-.6-.4-.78-.67-.18-.28-.3-.66-.3-1.17V4.84h2.05zm6.6 11.95a5.94 5.94 0 01-.47 0h.48zm-11.98-3.34l-.1-.06c-.26.43-.67.78-1.18 1-.98.44-1.9.33-2.55-.25l-.06.09-1.11 1.7a4.54 4.54 0 004.61.44c.9-.4 1.6-1 2.09-1.77l-1.7-1.15zm-6.4.98a4.87 4.87 0 01-.44-4.28 4.75 4.75 0 012.54-2.81 4.84 4.84 0 016.47 2.78l.17.43-8.73 3.88zm2.92-5.17a2.46 2.46 0 00-1.46 2.6l4.4-1.92c-.76-.9-1.75-1.2-2.94-.68z" fill="#fff" fill-rule="nonzero"/>
  <path d="M99.87 9.13a2.86 2.86 0 013.7 2.17l1.94-.4a4.87 4.87 0 00-6.28-3.69l.64 1.92z" fill="#fbc707" fill-rule="nonzero"/>
  <path d="M97.56 15.57l1.32-1.51a2.91 2.91 0 010-4.35L97.56 8.2a4.95 4.95 0 000 7.38" fill="#38a7e4" fill-rule="nonzero"/>
  <path d="M103.56 12.47a2.86 2.86 0 01-3.7 2.16l-.63 1.93a4.86 4.86 0 006.28-3.68l-1.95-.41z" fill="#ef3120" fill-rule="nonzero"/>
  <path d="M149.27 3.19c0-1.2-.96-2.18-2.13-2.18H117.4c-1.18 0-2.13.98-2.13 2.18v17.39c0 1.2.95 2.17 2.13 2.17h29.74c1.17 0 2.13-.97 2.13-2.17V3.18z" fill="#2557d6"/>
  <path d="M115.27 11.22h1.63l.37-.9h.82l.37.9h3.21v-.68l.29.69h1.67l.28-.7v.7h8l-.01-1.48h.15c.11 0 .14 0 .14.2v1.27h4.13v-.34c.33.18.85.34 1.54.34h1.73l.37-.9h.83l.36.9h3.35v-.85l.5.85h2.7V5.57h-2.66v.67l-.37-.67h-2.73v.67l-.34-.67h-3.68c-.62 0-1.16.09-1.6.33v-.33h-2.54v.33c-.28-.25-.66-.33-1.08-.33h-9.28l-.62 1.46-.64-1.46h-2.92v.67l-.32-.67h-2.5l-1.16 2.69v2.96zm10.3-.81h-.97V7.23l-1.4 3.18h-.83l-1.4-3.18v3.18h-1.94l-.36-.9h-2l-.37.9h-1.03l1.7-4.06h1.43l1.62 3.84V6.35h1.56l1.25 2.75 1.15-2.75h1.6v4.06zm-7.23-1.75l-.65-1.61-.66 1.61h1.3zm11.14 1.75h-3.2V6.35h3.2v.85h-2.24v.73h2.18v.83h-2.18v.8h2.24v.85zm4.5-2.97c0 .65-.43.99-.68 1.09.21.08.39.22.48.34.13.2.15.38.15.74v.8h-.96V9.9c0-.25.02-.6-.16-.8-.13-.14-.35-.17-.7-.17h-1.02v1.48h-.95V6.35h2.2c.48 0 .84.02 1.15.2.3.18.49.44.49.9zm-1.21.6c-.13.09-.29.1-.48.1h-1.16v-.9h1.18c.17 0 .34 0 .45.06.13.06.2.19.2.36 0 .18-.07.32-.2.39zm2.74 2.37h-.98V6.35h.98v4.06zm11.32 0h-1.35l-1.82-3.05v3.05h-1.94l-.37-.9h-1.99l-.36.9h-1.12c-.46 0-1.05-.1-1.38-.45-.34-.34-.52-.81-.52-1.55 0-.6.1-1.15.52-1.58.3-.33.8-.48 1.45-.48h.93v.87h-.9c-.36 0-.55.06-.74.24-.17.17-.28.5-.28.92 0 .44.09.75.26.95.15.16.42.21.67.21h.43l1.35-3.19h1.43l1.62 3.84V6.35h1.45l1.68 2.83V6.35h.98v4.06zm-5.8-1.75l-.67-1.61-.66 1.61h1.32zm8.24 8.22c-.23.35-.69.52-1.3.52h-1.84v-.87h1.83c.18 0 .31-.02.39-.1a.36.36 0 00.11-.26.34.34 0 00-.11-.27c-.07-.06-.17-.1-.34-.1-.9-.02-2.02.04-2.02-1.25 0-.59.37-1.2 1.37-1.2h1.9v-.81h-1.76c-.54 0-.92.13-1.2.33v-.33h-2.62c-.41 0-.9.1-1.14.33v-.33h-4.67v.33c-.37-.27-1-.33-1.29-.33h-3.08v.33c-.3-.29-.95-.33-1.35-.33h-3.45l-.79.86-.74-.86h-5.15v5.66h5.06l.81-.88.77.88h3.11v-1.33h.31c.41 0 .9-.01 1.33-.2v1.53h2.57v-1.48h.12c.16 0 .18 0 .18.17v1.3h7.8c.5 0 1.02-.12 1.3-.36v.37h2.49c.51 0 1.02-.08 1.4-.26v-1.06zm-15.49-2.17c0 1.12-.82 1.35-1.66 1.35h-1.2v1.36h-1.85l-1.18-1.34-1.22 1.34h-3.79v-4.05h3.85l1.17 1.33 1.22-1.33h3.05c.76 0 1.61.21 1.61 1.34zm-7.6 1.86h-2.35v-.8h2.1v-.83h-2.1v-.74h2.4l1.05 1.18-1.1 1.2zm3.8.47l-1.47-1.66 1.46-1.6v3.26zm2.16-1.8h-1.23V14.2h1.24c.35 0 .59.14.59.5 0 .35-.23.53-.6.53zm6.47-1.87h3.2v.84h-2.24v.74h2.18v.82h-2.18v.8l2.23.01v.84h-3.19v-4.05zm-1.22 2.17c.21.08.38.22.47.34.13.2.15.38.15.74v.8h-.96v-.5c0-.25.03-.6-.15-.8-.14-.14-.35-.18-.7-.18h-1.02v1.48h-.96v-4.05h2.2c.49 0 .84.02 1.15.19.3.19.5.44.5.9 0 .65-.43.98-.68 1.08zm-.54-.51c-.13.07-.29.08-.47.08h-1.17v-.91h1.18c.17 0 .34 0 .46.07s.2.2.2.37c0 .17-.08.31-.2.39zm8.63.26c.18.2.28.44.28.85 0 .88-.53 1.28-1.5 1.28h-1.86v-.86h1.85c.19 0 .31-.03.4-.1a.36.36 0 00.1-.27.35.35 0 00-.11-.27c-.07-.06-.17-.09-.34-.09-.9-.03-2.01.03-2.01-1.25 0-.6.36-1.21 1.36-1.21h1.92v.86h-1.75c-.18 0-.29 0-.39.08-.1.06-.14.16-.14.29 0 .15.09.25.2.3.11.03.22.05.38.05h.52c.52.02.87.11 1.09.34zm3.8-1.09h-1.75c-.18 0-.3 0-.39.07-.1.07-.14.17-.14.3 0 .15.09.25.2.3.11.03.22.04.38.04l.52.02c.52.01.87.1 1.08.32l.1.1V14.2z" fill="#fff"/>
  <g>
    <path d="M187.54 3.19c0-1.2-.95-2.18-2.13-2.18h-29.73c-1.18 0-2.14.98-2.14 2.18v17.39c0 1.2.96 2.17 2.14 2.17h29.73c1.18 0 2.13-.97 2.13-2.17V3.18z" fill="#f47420"/>
    <path d="M158.08 7.1v7.68h1.71v-3.22h2.81v3.22h1.7V7.09h-1.7v2.96h-2.8V7.09h-1.72zm20.97 5.44c.03-.22.05-.45.05-.68 0-1.38-.67-2.78-2.44-2.78-1.9 0-2.76 1.56-2.76 2.97 0 1.75 1.06 2.84 2.92 2.84.74 0 1.42-.11 1.98-.34l-.22-1.17c-.46.14-.93.22-1.52.22-.79 0-1.48-.34-1.54-1.06h3.53zm-3.54-1.18c.04-.47.33-1.13 1.05-1.13.79 0 .96.7.96 1.13h-2.01zm4.14 3.42h1.7v-2.83c0-.14.01-.27.03-.39.12-.53.54-.87 1.17-.87.19 0 .34.02.46.04V9.1c-.12-.02-.2-.02-.36-.02-.52 0-1.2.34-1.48 1.15h-.04l-.06-1.03h-1.47c.03.48.05 1.02.05 1.84v3.74z" fill="#fff" fill-rule="nonzero"/>
    <path d="M166.04 6.78c.48 0 .87.4.87.9 0 .49-.39.89-.87.89a.88.88 0 01-.88-.9c0-.49.4-.89.88-.89z" fill="#ffe900"/>
    <path d="M169.63 13.48h.86c.85 0 1.24-.56 1.24-1.14 0-.59-.04-1.9-1.1-1.9-1.22 0-1.02 1.63-1.01 2.49l.01.55zm-4.47-4.28h1.75v3.14c0 .58.32 1.14 1.02 1.14 0-1.41 0-2.87-.04-4.28h1.46l.08.81c.7-1.4 2.87-1.1 3.6.1.76 1.22 1.02 4.73-2.54 4.73h-.83v2.14h-1.74v-2.14c-1.89 0-2.76-1.23-2.76-2.5V9.2z" fill="#fff"/>
  </g>
  <g>
    <path d="M200.05 1.04a.1.1 0 00-.1.1v.72c0 .06.05.1.1.1h1.22a.1.1 0 00.1-.1v-.72a.1.1 0 00-.1-.1h-1.22z" fill="#4d4d4d"/>
    <path d="M200.7 1.34c.06 0 .1.04.1.1 0 .05-.04.1-.1.1a.1.1 0 01-.1-.1c0-.06.05-.1.1-.1zm-.15 0a.1.1 0 01.04.01v.04l-.04-.02a.06.06 0 00-.07.06c0 .04.03.07.07.07.01 0 .03 0 .04-.02v.04a.1.1 0 01-.04.01c-.06 0-.1-.04-.1-.1 0-.05.04-.1.1-.1zm-.18 0c.02 0 .04 0 .06.02l-.02.03-.03-.02c-.02 0-.03 0-.03.02 0 .01 0 .02.03.02.04.02.05.03.05.06 0 .04-.02.06-.06.06a.07.07 0 01-.07-.03l.03-.03c0 .02.02.03.04.03.01 0 .03-.01.03-.03l-.02-.02h-.02c-.04-.02-.05-.03-.05-.06s.03-.05.06-.05zm.43 0h.04l.05.13.05-.13h.04l-.08.2h-.02l-.08-.2zm-.72 0h.05c.06 0 .1.04.1.1 0 .02 0 .05-.03.07a.1.1 0 01-.07.02h-.05v-.19zm.17 0h.04v.19h-.04v-.19zm.75 0h.1v.04h-.07v.04h.07v.03h-.07v.05h.07v.03h-.1v-.19zm.13 0h.05c.04 0 .07.02.07.06 0 .03-.02.04-.05.05l.07.08h-.05l-.05-.08v.08h-.04v-.19zm.03.03v.06h.01c.03 0 .04-.01.04-.03 0-.02-.01-.03-.04-.03zm-1.05 0v.13h.01c.03 0 .04 0 .06-.02a.06.06 0 00.02-.04l-.02-.05-.06-.01z" fill="#fff"/>
    <path d="M201.37 1.57c-.05.04-.4.28-1.01.4h.9a.1.1 0 00.1-.1v-.3z" fill="#f47216"/>
    <path d="M225.82 3.22c0-1.2-.96-2.18-2.14-2.18h-29.73c-1.18 0-2.13.98-2.13 2.18V20.6c0 1.2.95 2.17 2.13 2.17h29.73c1.18 0 2.14-.97 2.14-2.17V3.2z" fill="#0e4c96"/>
    <path d="M219.8 17.05a3.45 3.45 0 01-3.42 3.48h-18.55V6.78a3.45 3.45 0 013.42-3.48h18.55v13.75z" fill="#fff"/>
    <path d="M483.86 242.04c11.68.26 23.44-.51 35.08.4 11.78 2.2 14.62 20.05 4.15 25.9-7.14 3.84-15.63 1.43-23.38 2.1h-15.85v-28.4zm41.83-32.14c2.6 9.16-6.24 17.4-15.06 16.13h-26.77c.18-8.64-.37-18.02.27-26.2 10.73.3 21.55-.62 32.21.47a12.75 12.75 0 019.35 9.6zM590.12 74c.5 17.5.07 35.92.21 53.78-.03 72.6.08 145.2-.05 217.79-.47 27.2-24.58 50.84-51.6 51.39-27.05.1-54.1.01-81.14.04V287.25c29.47-.15 58.96.31 88.41-.23 13.67-.86 28.64-9.87 29.27-24.91 1.61-15.1-12.63-25.55-26.15-27.2-5.2-.14-5.04-1.52 0-2.12 12.9-2.79 23.02-16.13 19.23-29.5-3.24-14.06-18.78-19.5-31.7-19.47-26.35-.18-52.7-.03-79.06-.08.17-20.49-.36-41 .28-61.47 2.09-26.72 26.8-48.75 53.45-48.27h78.85z" fill="url(#_Linear1)" transform="matrix(.04535 0 0 .04615 191.82 1.04)"/>
    <path d="M159.74 125.04c.67-27.16 24.89-50.61 51.88-51 26.94-.09 53.89-.02 80.83-.04-.07 90.88.15 181.77-.11 272.65-1.04 26.84-24.99 49.84-51.68 50.31-27 .1-54 .02-81 .04V283.55c26.23 6.2 53.73 8.83 80.48 4.72 16-2.57 33.49-10.42 38.9-27.01 3.99-14.2 1.75-29.13 2.34-43.7v-33.82h-46.3c-.2 22.37.43 44.78-.33 67.13-1.25 13.73-14.85 22.46-27.8 22-16.07.16-47.9-11.65-47.9-11.65-.08-41.92.46-94.4.69-136.18z" fill="url(#_Linear2)" transform="matrix(.04535 0 0 .04615 191.82 1.04)"/>
    <path d="M309.72 197.39c-2.43.52-.49-8.3-1.11-11.65.16-21.15-.35-42.32.28-63.45 2.08-26.83 27-48.92 53.74-48.3h78.76c-.07 90.9.15 181.78-.1 272.66-1.05 26.84-25 49.84-51.69 50.31-27 .1-54 .02-81 .05V272.7c18.45 15.13 43.5 17.48 66.48 17.52 17.31 0 34.53-2.67 51.35-6.67V260.8c-18.95 9.45-41.24 15.45-62.25 10.02-14.65-3.65-25.29-17.81-25.05-32.94-1.7-15.73 7.52-32.33 22.98-37 19.19-6.02 40.1-1.42 58.1 6.39 3.85 2.02 7.76 4.52 6.22-1.92v-17.9c-30.09-7.16-62.1-9.8-92.33-2-8.75 2.46-17.27 6.2-24.38 11.95z" fill="url(#_Linear3)" transform="matrix(.04535 0 0 .04615 191.82 1.04)"/>
  </g>
  <g>
    <path d="M264.1 3.22c0-1.2-.96-2.18-2.14-2.18h-29.73c-1.18 0-2.14.98-2.14 2.18V20.6c0 1.2.96 2.17 2.14 2.17h29.73c1.18 0 2.13-.97 2.13-2.17V3.2z" fill="#0079be"/>
    <path d="M256.61 12.02a7.77 7.77 0 00-7.88-7.75h-3.55a7.51 7.51 0 00-7.6 7.75c0 4.2 3.43 7.65 7.6 7.63h3.55c4.12.02 7.88-3.43 7.88-7.63z" fill="#fff"/>
    <path d="M245.2 4.92a6.97 6.97 0 00-6.9 7.04 6.97 6.97 0 006.9 7.04c3.81 0 6.9-3.15 6.9-7.04a6.97 6.97 0 00-6.9-7.04z" fill="#0079be"/>
    <path d="M240.84 11.94c0-1.9 1.17-3.52 2.8-4.17v8.33a4.46 4.46 0 01-2.8-4.16zm5.94 4.17V7.77a4.46 4.46 0 012.8 4.17c0 1.9-1.16 3.52-2.8 4.17z" fill="#fff"/>
  </g>
  <g>
    <path d="M293.49 11.53c3.14.64 5.7 1.5 7.72 2.25V21a2.15 2.15 0 01-2.1 1.78H270.3a2.16 2.16 0 01-2.14-2.17v-7.65c2.15-.6 4.2-1.07 6.14-1.43h19.2z" fill="#fff200" fill-rule="nonzero"/>
    <path d="M299.11 1.04c1.06 0 1.94.79 2.11 1.81l.03 8.44c-4-1.5-16.7-5.12-33.1-.62V3.22c0-1.2.96-2.18 2.13-2.18h28.83z" fill-rule="nonzero"/>
    <path d="M301.21 14.58c-5.96-1.98-16.56-4.96-33.06-.74v-3.17c16.4-4.5 29.1-.88 33.1.62l-.04 3.3z" fill="#ed1c24" fill-rule="nonzero"/>
    <path d="M278.68 8.74a5.98 5.98 0 015.95-4.17c3.25.02 5.42 1.87 6 4.29-4.19-.44-6.98-.51-11.95-.12z" fill="#fff200" fill-rule="nonzero"/>
    <path d="M58.15 139.18l17.43-26H82l18.57 26h-6.8l-5.29-7.87h-19l-5 7.87h-6.33zm13.09-10.67h15.39l-4.74-7.19a54.22 54.22 0 01-3.21-5.39 23.45 23.45 0 01-2.45 5l-5 7.61.01-.03zm59.86 10.67v-2.76c-2.57 2.13-6.05 3.19-10.44 3.19-1.83.01-3.65-.2-5.43-.63a10.15 10.15 0 01-3.74-1.6 5.12 5.12 0 01-1.72-2.36 9.67 9.67 0 01-.34-3v-11.65H115v10.43a11 11 0 00.34 3.37 3.92 3.92 0 002.23 2c1.35.51 2.78.75 4.22.71 1.6.01 3.18-.23 4.7-.73a6 6 0 003.11-2c.68-1.1 1-2.39.92-3.68v-10.1h5.57v18.81h-4.99zm18.5 0v-18.81h5v2.85c.98-1.12 2.2-2.02 3.55-2.64a9.7 9.7 0 013.57-.64c1.95 0 3.9.34 5.73 1l-1.92 3c-1.31-.46-2.69-.7-4.08-.7a8.23 8.23 0 00-3.29.63c-.87.33-1.6.95-2.07 1.75a7.55 7.55 0 00-.93 3.72v9.85l-5.56-.01zm47.47-2.32c-1.9.94-3.92 1.66-6 2.13-2.02.42-4.08.63-6.15.62-3.61 0-6.38-.5-8.33-1.51-1.95-1.01-2.91-2.3-2.91-3.87.01-.96.4-1.87 1.1-2.53a7.8 7.8 0 012.87-1.83c1.3-.47 2.63-.8 4-1 1.09-.16 2.74-.33 4.94-.48 3.33-.17 6.65-.54 9.94-1.1v-.83a2.82 2.82 0 00-1.58-2.74c-2-.83-4.17-1.2-6.34-1.08a16 16 0 00-5.81.79 5.2 5.2 0 00-2.77 2.79l-5.44-.43a6.85 6.85 0 012.44-3.23c1.5-.97 3.17-1.61 4.92-1.9 2.46-.47 4.96-.7 7.46-.66 2.3-.04 4.59.15 6.84.57 1.37.23 2.69.72 3.88 1.43a4.63 4.63 0 011.73 2.17c.23.96.32 1.95.27 2.94v4.25c-.09 1.88.03 3.77.36 5.62.28.86.76 1.63 1.41 2.26h-5.82a4.78 4.78 0 01-1.11-2.32l.1-.06zm-.47-7.12c-3 .61-6.04 1.01-9.1 1.21-1.63.1-3.26.3-4.86.63-.8.15-1.56.5-2.2 1a2 2 0 00-.78 1.51c0 .85.57 1.56 1.69 2.13 1.56.65 3.24.94 4.93.85 1.94.03 3.87-.24 5.73-.8a7.84 7.84 0 003.69-2.21c.66-.93.98-2.05.9-3.19v-1.13z" fill-rule="nonzero" stroke="#2c328c" stroke-width=".22" transform="matrix(.12704 0 0 .12636 268.15 1.04)"/>
  </g>
  <g>
    <path d="M336.5 18.36c-.82 0-1.6-.33-2.18-.92l-3.16-3.22a.6.6 0 00-.83 0l-3.17 3.23c-.58.59-1.37.92-2.19.92h-.62l4 4.07a3.17 3.17 0 004.52 0l4.01-4.08h-.38zm3.7-7.99l-2.42-2.46a.46.46 0 01-.17.03h-1.1c-.58 0-1.13.24-1.54.65l-3.15 3.21a1.5 1.5 0 01-2.15 0l-3.17-3.22c-.4-.42-.96-.65-1.53-.65h-1.35a.45.45 0 01-.17-.03l-2.43 2.47a3.32 3.32 0 000 4.61l2.43 2.48.16-.04h1.36c.57 0 1.13-.23 1.53-.64l3.17-3.23a1.53 1.53 0 012.14 0l3.16 3.22c.4.4.96.64 1.53.64h1.1c.07 0 .12.02.18.04l2.42-2.47a3.32 3.32 0 000-4.6zm-15.23-3.39c.83 0 1.6.33 2.19.93l3.17 3.22c.23.24.6.24.83 0l3.16-3.21c.58-.6 1.36-.93 2.18-.92h.38l-4-4.09a3.17 3.17 0 00-4.53 0l-4 4.07h.62zm37.94-4.23l-.75-.76a.5.5 0 010-.7l.75-.76c.19-.19.5-.19.68 0l.75.77a.5.5 0 010 .69l-.75.76a.47.47 0 01-.68 0z" fill="#73b1a2" fill-rule="nonzero"/>
    <path d="M346.8 21.88V8.68a3.87 3.87 0 013.82-3.88h3.83c2.09 0 3.8 1.76 3.8 3.88v2.81a3.87 3.87 0 01-3.82 3.9h-5.4a.5.5 0 00-.49.5c0 .26.21.49.48.5h5.4a4.89 4.89 0 004.83-4.9V8.7c0-2.69-2.16-4.9-4.8-4.9h-3.83a4.88 4.88 0 00-4.82 4.9v13.2a.5.5 0 00.5.48.5.5 0 00.5-.49zm13.02-17.1h1.66c.7 0 1.27.6 1.27 1.31v9.86a.5.5 0 00.5.48c.26 0 .48-.21.5-.48V6.1a2.31 2.31 0 00-2.27-2.32h-1.66a.5.5 0 00-.48.51c0 .28.2.5.48.5zm6.61 11.59h1.65c.98 0 1.92-.4 2.61-1.1l3.86-3.93a.78.78 0 01.55-.23c.2 0 .4.09.55.23l3.83 3.9c.7.71 1.64 1.1 2.61 1.1h1.34a.5.5 0 00.48-.5.5.5 0 00-.48-.5h-1.34a2.7 2.7 0 01-1.9-.8l-3.84-3.91c-.7-.7-1.82-.7-2.51 0l-3.85 3.92c-.5.5-1.19.8-1.9.8h-1.66a.5.5 0 00-.48.51c0 .26.21.5.48.5zm0 0l-.05-.06c-.02-.03-.05-.05-.05-.04 0 .08.1.1.1.1zm0-11.6h1.65c.72 0 1.4.3 1.91.81l3.85 3.93c.69.7 1.82.7 2.5 0l3.85-3.9c.5-.53 1.19-.81 1.9-.81h1.34a.5.5 0 00.48-.5.5.5 0 00-.48-.52h-1.34c-.97 0-1.91.4-2.61 1.1l-3.83 3.9a.77.77 0 01-.55.24.74.74 0 01-.55-.23l-3.86-3.92a3.63 3.63 0 00-2.6-1.1h-1.66a.5.5 0 00-.48.5c0 .28.21.5.48.5zm-6.7-.1c0 .03 0 .05.02.06.03.04.07.06.07.06a.44.44 0 00-.03-.1l-.06-.01zm6.7.1l-.05-.05c-.02-.03-.05-.05-.05-.04 0 .09.1.1.1.1z" fill="#fff"/>
  </g>
  <g>
    <path d="M404.22 21.49c0 .37-.29.74-.73.74a.74.74 0 01-.72-.74V2.32c0-.4.33-.74.72-.74.4 0 .73.33.73.74v19.17zm4.35 0c0 .37-.3.74-.73.74h-.73a.74.74 0 01-.72-.74V2.32c0-.45.36-.74.72-.74h.73c.44 0 .73.29.73.74v19.17zm34.77 0c0 .37-.29.74-.72.74h-1.45a.73.73 0 01-.72-.74V2.32c0-.45.36-.74.72-.74h1.45c.43 0 .72.29.72.74v19.17zm3.62 0c0 .37-.29.74-.71.74a.73.73 0 01-.73-.74V2.32c0-.4.32-.74.73-.74.39 0 .71.33.71.74v19.17zm-30-2.65c0-.52.08-1.03.3-1.48.22-.45.5-.74.87-.96.43-.23.87-.37 1.3-.37.73 0 1.3.22 1.8.74.45.45.74 1.11.74 1.84v.3c0 .6-.14 1.04-.3 1.47-.2.45-.5.74-.86.96a2.9 2.9 0 01-1.38.37c-.72 0-1.3-.3-1.81-.73a3.05 3.05 0 01-.73-2.07v-.07h.08zm10.95 2.87a2.3 2.3 0 01-1.81-.73 2.74 2.74 0 01-.73-2v-.14c0-.52.08-1.03.29-1.48a2.39 2.39 0 012.18-1.33c.72 0 1.23.22 1.66.74.44.45.58 1.11.58 2v.51h-3.47c0 .44.14.73.43 1.04.22.29.58.43.95.43.57 0 1-.22 1.44-.74l.58.66c-.22.33-.52.58-.87.74-.36.23-.73.3-1.23.3zm4.64-6.93v1.33h.94v1.03h-.94v2.95c0 .23 0 .37.15.44 0 .14.2.14.42.14h.44v.9l-.8.14c-.94 0-1.44-.51-1.44-1.55v-3.1h-.88v-.95h.88v-1.33h1.23zm1.51 4.06c0-.52.08-1.03.3-1.48.21-.45.5-.74.87-.96.36-.23.8-.37 1.3-.37.73 0 1.3.22 1.81.74.44.45.73 1.11.73 1.84v.3c0 .6-.15 1.04-.29 1.47a2 2 0 01-.95.96c-.36.23-.71.37-1.3.37-.73 0-1.38-.3-1.8-.73a2.95 2.95 0 01-.73-2.07v-.07h.06zm-23.18 2.8V14.2h2.47c.79 0 1.44.22 1.88.6.44.29.65.72.65 1.46 0 .3-.07.6-.29.9-.14.29-.44.5-.73.66.7.2 1.19.86 1.17 1.61 0 .74-.22 1.25-.65 1.62-.55.43-1.2.63-1.9.6h-2.6zm12.1-7.82h1.3v7.75h-1.3v-7.75zm-4.78 5.13c0 .56.08 1 .3 1.29.2.37.57.51.93.51.43 0 .73-.22 1.02-.51.21-.3.29-.74.29-1.48 0-.44-.12-.88-.37-1.25-.2-.3-.5-.52-.94-.52-.36 0-.72.23-.94.52-.2.28-.28.72-.3 1.44zm17.03 0c0 .56.15 1 .36 1.29.21.37.58.51.94.51.44 0 .73-.22.94-.51.3-.3.36-.74.36-1.48.01-.44-.12-.88-.36-1.25-.21-.3-.5-.52-.94-.52-.36 0-.73.23-.94.52-.21.28-.35.72-.36 1.44zm-23.12-.63v2.21h1.45c.37 0 .73 0 .88-.21.21-.23.35-.53.35-.9 0-.73-.35-1.1-1.15-1.1h-1.53zm6.09.63v-.04.07-.03zm17.03 0v-.04V18.95zm-7.47-1.96a.91.91 0 00-.72.37c-.22.22-.37.59-.43 1.03h2.32v-.14c0-.37-.15-.74-.37-.89a.91.91 0 00-.72-.37h-.08zm-15.65.37h1.24c.43 0 .72-.08.94-.3a.94.94 0 00.36-.73c0-.37-.15-.67-.36-.82-.15-.14-.51-.22-.94-.22h-1.24v2.07zm.07-5.46c0 .37-.28.74-.72.74a.73.73 0 01-.72-.74V2.32c0-.4.32-.74.72-.74.4 0 .72.33.72.74v9.58zm3.63 0c0 .37-.3.74-.72.74a.73.73 0 01-.73-.74V2.32c0-.4.32-.74.73-.74.4 0 .72.33.72.74v9.58zm4.35 0c0 .37-.3.74-.73.74h-.72a.74.74 0 01-.73-.74V2.32c0-.45.37-.74.73-.74h.72c.43 0 .73.29.73.74v9.58zm3.62 0c0 .37-.29.74-.73.74a.74.74 0 01-.72-.74V2.32c0-.4.33-.74.72-.74.4 0 .73.33.73.74v9.58zm3.62 0c0 .37-.29.74-.73.74a.73.73 0 01-.71-.74V2.32c0-.4.32-.74.71-.74.41 0 .73.33.73.74v9.58zm4.35 0c0 .37-.3.74-.72.74h-.73a.73.73 0 01-.72-.74V2.32c0-.45.36-.74.72-.74h.73c.43 0 .72.29.72.74v9.58zm3.63 0c0 .37-.3.74-.73.74a.74.74 0 01-.73-.74V2.32c0-.4.33-.74.73-.74.4 0 .73.33.73.74v9.58zm3.62 0c0 .37-.3.74-.73.74a.74.74 0 01-.73-.74V2.32c0-.4.33-.74.73-.74.4 0 .73.33.73.74v9.58z" fill="#fff" fill-rule="nonzero"/>
  </g>
  <g>
    <path d="M533.07 5.93h-4.8c-.33 0-.61.25-.66.58l-1.95 12.54v.06c0 .22.18.4.4.4h2.46c.23 0 .43-.16.46-.4l.56-3.55a.67.67 0 01.65-.57h1.52c3.17 0 5-1.56 5.47-4.65.22-1.35 0-2.41-.61-3.16-.69-.81-1.9-1.25-3.5-1.25zm.55 4.58c-.26 1.76-1.58 1.76-2.85 1.76h-.73l.51-3.28a.4.4 0 01.4-.34h.33c.87 0 1.69 0 2.1.5.26.3.34.75.24 1.36zm-34.8-4.58H494c-.33 0-.6.25-.66.58l-1.94 12.54v.06c0 .22.17.4.4.4h2.29c.32 0 .6-.24.66-.57l.52-3.38a.67.67 0 01.66-.57h1.52c3.16 0 4.99-1.56 5.46-4.65.22-1.35.01-2.41-.6-3.16-.7-.81-1.9-1.25-3.5-1.25zm.55 4.58c-.27 1.76-1.58 1.76-2.86 1.76h-.72l.5-3.28a.4.4 0 01.4-.34h.33c.87 0 1.69 0 2.11.5.25.3.33.75.24 1.36zm13.8-.05h-2.3a.4.4 0 00-.4.34l-.1.66-.16-.24c-.5-.74-1.6-.98-2.72-.98-2.54 0-4.7 1.96-5.13 4.7-.22 1.38.1 2.69.86 3.6.7.84 1.7 1.2 2.9 1.2 2.04 0 3.18-1.34 3.18-1.34l-.1.65-.01.06c0 .22.18.4.4.4h2.07c.33 0 .6-.24.66-.57l1.24-8.01v-.06a.4.4 0 00-.4-.41zm-3.2 4.56a2.58 2.58 0 01-2.6 2.23c-.67 0-1.2-.22-1.55-.63-.34-.41-.47-1-.36-1.65a2.59 2.59 0 012.58-2.25c.65 0 1.18.22 1.53.64.35.42.5 1 .4 1.66zm37.45-4.56h-2.3a.4.4 0 00-.4.34l-.1.66-.15-.24c-.5-.74-1.61-.98-2.72-.98-2.54 0-4.71 1.96-5.13 4.7-.22 1.38.09 2.69.85 3.6.7.84 1.7 1.2 2.9 1.2 2.05 0 3.18-1.34 3.18-1.34l-.1.65v.06c0 .22.18.4.4.4h2.07c.32 0 .6-.24.66-.57l1.24-8.01v-.06a.4.4 0 00-.4-.41zm-3.2 4.56a2.58 2.58 0 01-2.6 2.23c-.67 0-1.2-.22-1.54-.63-.34-.41-.47-1-.36-1.65a2.59 2.59 0 012.57-2.25c.66 0 1.19.22 1.54.64.35.42.49 1 .39 1.66zm-18.8-4.56h-2.32a.67.67 0 00-.55.3l-3.19 4.78-1.35-4.6a.67.67 0 00-.64-.48h-2.27a.4.4 0 00-.38.54l2.55 7.6-2.4 3.44c-.19.27 0 .65.33.65h2.3c.23 0 .43-.11.56-.3l7.68-11.3c.19-.26 0-.63-.32-.63zm24.71-4.18l-1.97 12.77v.06c0 .22.18.4.4.4h1.98c.33 0 .6-.24.66-.57l1.94-12.53v-.07a.4.4 0 00-.4-.4h-2.21a.4.4 0 00-.4.34z" fill="#fff" fill-rule="nonzero"/>
    <g fill="#fff" fill-rule="nonzero">
      <path d="M481.99 6.6c.25-1.69 0-2.83-.9-3.86-.98-1.14-2.75-1.63-5.02-1.63h-6.59a.95.95 0 00-.93.81l-2.74 17.7a.57.57 0 00.56.67h4.06l-.28 1.81a.5.5 0 00.49.59h3.43c.4 0 .75-.3.81-.71l.04-.18.64-4.17.04-.23c.07-.4.41-.7.82-.7h.5c3.33 0 5.93-1.38 6.69-5.35.32-1.66.15-3.05-.69-4.02-.25-.3-.57-.54-.93-.74" fill-opacity=".68"/>
      <path d="M481.99 6.6c.25-1.69 0-2.83-.9-3.86-.98-1.14-2.75-1.63-5.02-1.63h-6.59a.95.95 0 00-.93.81l-2.74 17.7a.57.57 0 00.56.67h4.06l1.02-6.6-.03.21a.95.95 0 01.93-.8h1.93c3.8 0 6.77-1.58 7.64-6.12l.07-.39" fill-opacity=".7"/>
      <path d="M472.55 6.61c.06-.4.41-.7.82-.7h5.16a10.58 10.58 0 012.14.2 6.28 6.28 0 011.32.48c.25-1.68 0-2.82-.9-3.85-.98-1.14-2.75-1.63-5.02-1.63h-6.59a.95.95 0 00-.93.81l-2.74 17.7a.57.57 0 00.56.67h4.06l1.02-6.6 1.1-7.08z"/>
    </g>
  </g>
  <defs>
    <linearGradient id="_Linear1" x1="0" y1="0" x2="1" y2="0" gradientUnits="userSpaceOnUse" gradientTransform="translate(457.54 235.5) scale(132.797)">
      <stop offset="0" stop-color="#007b40"/>
      <stop offset="1" stop-color="#55b330"/>
    </linearGradient>
    <linearGradient id="_Linear2" x1="0" y1="0" x2="1" y2="0" gradientUnits="userSpaceOnUse" gradientTransform="translate(159.67 235.5) scale(132.782)">
      <stop offset="0" stop-color="#1d2970"/>
      <stop offset="1" stop-color="#006dba"/>
    </linearGradient>
    <linearGradient id="_Linear3" x1="0" y1="0" x2="1" y2="0" gradientUnits="userSpaceOnUse" gradientTransform="translate(308.6 235.5) scale(132.788)">
      <stop offset="0" stop-color="#6e2b2f"/>
      <stop offset="1" stop-color="#e30138"/>
    </linearGradient>
  </defs>
</svg>