<svg xmlns="http://www.w3.org/2000/svg" xml:space="preserve" fill-rule="evenodd" stroke-linejoin="round" stroke-miterlimit="2" clip-rule="evenodd" viewBox="0 0 517 23">
  <path fill="#f1f1f1" d="M34.02 3c0-1.17-.95-2.13-2.13-2.13H2.14C.96.87 0 1.83 0 3.01v17.1c0 1.17.96 2.13 2.14 2.13h29.75c1.18 0 2.13-.96 2.13-2.14V3Z"/>
  <path d="m28.08 20.02-.14.04a.178.178 0 0 0-.06.14c0 .05.03.1.06.13.04.04.09.06.14.06.05 0 .1-.02.14-.06a.182.182 0 0 0 0-.27l-.14-.04Zm0 .31a.14.14 0 0 1-.14-.13c0-.08.07-.14.14-.14.08 0 .14.06.14.14 0 .07-.06.13-.14.13Zm.01-.22H28v.18h.05v-.05l.04.05h.05l-.05-.05.05-.04v-.05l-.05-.04Zm-.01.04.05.05h-.1v-.05h.05Zm-20.82.14h-.4v-1.86h.4v.22s.36-.27.54-.27c.41 0 .64.32.64.32s.18-.32.63-.32c.64 0 .73.6.73.6v1.3h-.4v-1.17s0-.36-.42-.36c-.4 0-.45.36-.45.36v1.18h-.4V19.1s-.05-.36-.37-.36c-.5 0-.5.36-.5.36v1.19Zm12.07-1.9c-.18 0-.55.26-.55.26v-.22h-.36v1.86h.4l-.04-1.18s.05-.36.5-.36l.18.04.14-.36-.27-.05v.01Zm5.62 0c-.23 0-.54.26-.54.26v-.22H24v1.86h.4V19.1s0-.36.46-.36l.23.04.13-.36-.27-.05v.02Zm-13.88 0c-.59 0-.9.5-.9.95 0 .45.36 1 .95 1 .31 0 .58-.23.58-.23v.18h.37v-1.86h-.37v.22s-.27-.27-.63-.27v.01Zm.09.36c.32 0 .6.27.6.63 0 .329-.271.6-.6.6a.603.603 0 0 1-.59-.6c0-.36.27-.63.59-.63Zm11.3-.37c-.6 0-.91.5-.91.96 0 .45.36 1 .95 1 .32 0 .6-.23.6-.23v.18h.4v-1.86h-.4v.22s-.28-.27-.64-.27Zm.09.37c.32 0 .59.27.59.63 0 .329-.271.6-.6.6a.602.602 0 0 1-.58-.6c0-.36.27-.63.59-.63Zm3.67-.37c-.59 0-.9.5-.9.96 0 .45.36 1 .95 1 .31 0 .59-.23.59-.23v.18h.4V17.7h-.4v.95s-.28-.27-.64-.27Zm.1.37c.3 0 .58.27.58.63a.603.603 0 0 1-.59.6.603.603 0 0 1-.59-.6c0-.36.27-.63.6-.63Zm-13.03 1.58c-.4 0-.77-.22-.77-.22l.14-.27s.36.13.63.13c.14 0 .41-.05.46-.18 0-.18-.5-.23-.5-.23s-.68-.04-.68-.59c0-.36.36-.59.77-.59.27 0 .77.23.77.23l-.23.27-.54-.13c-.18 0-.36.09-.36.22 0 .37 1.13-.04 1.13.77 0 .5-.45.6-.82.6v-.01Zm1.5-2.45v.55h-.36v.4h.36v.91s-.04.64.64.64l.54-.14-.14-.4s-.18.13-.31.13c-.32-.05-.32-.23-.32-.23v-.9h.63v-.41h-.63v-.55h-.41Zm2.36.5-.056-.002a.905.905 0 0 0-.894 1.002c0 .46.27 1 .95 1 .32 0 .72-.27.72-.27l-.18-.32s-.27.23-.54.23c-.5 0-.55-.5-.55-.5h1.36s.14-1.14-.81-1.14Zm-.1.37h.05c.5 0 .5.45.5.45h-1s0-.4.46-.45h-.01Zm4.1 1.04.17.36s-.27.18-.59.18l-.05.001a.995.995 0 0 1-.99-.99v-.011c0-.72.59-.95 1-.95.36 0 .68.23.68.23l-.23.36s-.09-.22-.45-.22c-.37 0-.6.31-.6.63s.23.6.6.6c.22 0 .45-.2.45-.2l.01.01Z"/>
  <path fill="#f79f1a" d="M28.35 13.53v-.27h-.09l-.09.18-.04-.18h-.1v.27h.05v-.23l.1.18h.04l.04-.18v.23h.1-.01Zm-.45 0v-.23h.1v-.04h-.19v.04h.04v.23h.05Zm.45-3.72c0 3.84-3.16 7-7 7-3.85 0-7.01-3.16-7.01-7 0-3.85 3.16-7 7-7 3.85 0 7.01 3.15 7.01 7Z"/>
  <path fill="#ea001b" d="M19.69 9.8c0 3.85-3.17 7.02-7 7.02-3.85 0-7.02-3.17-7.02-7.01 0-3.85 3.17-7 7.01-7s7.01 3.15 7.01 7V9.8Z"/>
  <path fill="#ff5f01" d="M17.01 4.28a7.034 7.034 0 0 0-2.664 5.51c0 2.146.982 4.177 2.664 5.51a7.034 7.034 0 0 0 2.664-5.51 7.034 7.034 0 0 0-2.664-5.51Z"/>
  <path fill="#0e4595" d="M72.32 3c0-1.17-.96-2.13-2.14-2.13H40.43c-1.18 0-2.13.96-2.13 2.14v17.1c0 1.17.95 2.13 2.13 2.13h29.75c1.18 0 2.14-.96 2.14-2.14V3Z"/>
  <path fill="#fff" d="m50.9 16.02 1.55-8.89h2.4l-1.5 8.9h-2.44l-.01-.01Zm11.17-8.66a5.973 5.973 0 0 0-2.18-.4c-2.36 0-4.04 1.22-4.08 2.94 0 1.27 1.22 2 2.13 2.4.95.46 1.27.73 1.27 1.14 0 .59-.77.86-1.45.86-1 0-1.5-.14-2.27-.5l-.32-.13-.36 2c.59.26 1.63.45 2.72.49 2.54 0 4.17-1.22 4.22-3.04 0-1.04-.64-1.81-2.04-2.45-.86-.4-1.36-.68-1.36-1.09 0-.36.4-.77 1.36-.77.81 0 1.36.18 1.81.36l.23.1.32-1.91m6.26-.23h-1.9c-.55 0-1 .18-1.28.77l-3.58 8.12h2.54l.5-1.31h3.13l.27 1.31h2.27l-1.95-8.89Zm-3 5.76.96-2.5.36-.85.13.77.55 2.58h-2ZM48.87 7.13l-2.36 6.08-.28-1.22a7 7 0 0 0-3.35-3.72l2.18 7.75h2.54l3.8-8.89h-2.53"/>
  <path fill="#f2ae14" d="M44.28 7.13h-3.9l-.04.23c3.04.73 5.03 2.5 5.9 4.63l-.87-4.09c-.13-.54-.54-.72-1.09-.77"/>
  <g>
    <path fill="#444" fill-rule="nonzero" d="M94.353 20.97c0 .4-.33.73-.73.73-.4 0-.73-.33-.73-.73V2.12c0-.39.33-.72.73-.72.4 0 .73.33.73.72v18.85Zm4.34 0c0 .36-.28.73-.72.73h-.73c-.4 0-.73-.33-.73-.73V2.12c0-.43.37-.72.73-.72h.73c.44 0 .72.29.72.72v18.85Zm34.8 0c0 .36-.29.73-.73.73h-1.44c-.4 0-.73-.33-.73-.73V2.12c0-.43.37-.72.73-.72h1.44c.44 0 .73.29.73.72v18.85Zm3.62 0c0 .36-.29.73-.72.73a.733.733 0 0 1-.72-.73V2.12c0-.39.32-.72.72-.72.4 0 .72.33.72.72v18.85Zm-30-2.6c0-.52.07-1.02.28-1.46.22-.44.51-.73.88-.94.42-.22.86-.36 1.3-.36.73 0 1.3.21 1.8.72.44.44.73 1.1.73 1.8v.3c0 .58-.14 1.02-.29 1.45-.21.44-.5.73-.86.94-.44.22-.88.36-1.38.36-.73 0-1.3-.29-1.82-.71-.49-.57-.74-1.3-.72-2.03v-.08h.07l.01.01Zm10.94 2.81c-.72 0-1.38-.21-1.81-.71a2.67 2.67 0 0 1-.73-1.97v-.14c0-.51.07-1.01.29-1.45a2.403 2.403 0 0 1 2.18-1.3 2.001 2.001 0 0 1 1.66.72c.44.44.58 1.1.58 1.96v.51h-3.47c0 .43.14.72.43 1.02.22.28.58.42.95.42.57 0 1-.21 1.44-.72l.58.65a2.1 2.1 0 0 1-.87.72c-.36.23-.73.3-1.23.3v-.01Zm4.64-6.8v1.3h.94v1.02h-.94v2.9c0 .22 0 .35.15.43 0 .14.21.14.42.14h.44v.87l-.8.14c-.94 0-1.44-.5-1.44-1.51v-3.05h-.88v-.94h.88v-1.3h1.23Zm1.52 3.98c0-.51.07-1.01.3-1.45.2-.44.5-.73.86-.94.36-.22.8-.36 1.3-.36.73 0 1.3.21 1.82.72.44.44.73 1.1.73 1.8v.3c0 .58-.15 1.02-.3 1.45-.22.44-.5.73-.94.94a2.3 2.3 0 0 1-1.3.36c-.73 0-1.39-.29-1.81-.71-.5-.57-.76-1.3-.73-2.03v-.08h.07Zm-23.2 2.76v-7.33h2.47c.8 0 1.44.22 1.88.59.44.29.65.71.65 1.44 0 .29-.06.59-.29.88-.14.28-.43.5-.72.65.7.2 1.18.85 1.16 1.59 0 .73-.21 1.23-.65 1.6-.54.4-1.2.61-1.9.58h-2.6Zm12.1-7.7h1.3v7.62h-1.3v-7.62Zm-4.78 5.05c.01.56.09.98.3 1.27.21.36.58.5.94.5.43 0 .73-.21 1.01-.5.22-.29.3-.73.3-1.45a2.098 2.098 0 0 0-.37-1.23 1.14 1.14 0 0 0-.94-.51c-.36 0-.73.22-.94.51-.21.28-.29.7-.3 1.41Zm17.04 0c.01.56.15.98.36 1.27.22.36.58.5.94.5.44 0 .73-.21.94-.5.3-.29.37-.73.37-1.45a2.098 2.098 0 0 0-.37-1.23c-.21-.29-.5-.51-.94-.51-.36 0-.72.22-.94.51-.21.28-.35.7-.36 1.41Zm-23.13-.62v2.18h1.45c.37 0 .73 0 .88-.21.21-.23.35-.52.35-.88 0-.73-.35-1.09-1.15-1.09h-1.53Zm6.09.65v-.06.06Zm17.04-.03v-.03.03Zm-7.47-1.92a.921.921 0 0 0-.72.36c-.22.21-.37.58-.43 1.01h2.32v-.13c0-.37-.15-.73-.37-.88a.921.921 0 0 0-.72-.36h-.08Zm-15.66.36h1.24c.43 0 .73-.07.94-.29a.921.921 0 0 0 .36-.72c0-.37-.15-.66-.36-.8-.15-.14-.51-.22-.94-.22h-1.24v2.03Zm.08-5.36c0 .36-.3.72-.73.72a.723.723 0 0 1-.72-.72V2.12c0-.39.32-.72.72-.72.4 0 .73.33.73.72v9.43Zm3.63 0a.733.733 0 0 1-.725.645.733.733 0 0 1-.725-.645V2.12c0-.39.32-.72.72-.72.4 0 .73.33.73.72v9.43Zm4.35 0c0 .36-.3.72-.73.72h-.73a.733.733 0 0 1-.72-.72V2.12c0-.43.36-.72.72-.72h.73c.43 0 .73.29.73.72v9.43Zm3.62 0c0 .4-.33.73-.73.73-.4 0-.73-.33-.73-.73V2.12c0-.39.34-.72.73-.72.4 0 .73.33.73.72v9.43Zm3.62 0c0 .36-.29.72-.73.72a.723.723 0 0 1-.71-.72V2.12c0-.39.32-.72.71-.72.4 0 .73.33.73.72v9.43Zm4.35 0c0 .36-.3.72-.72.72h-.73a.733.733 0 0 1-.72-.72V2.12c0-.43.36-.72.72-.72h.73c.43 0 .72.29.72.72v9.43Zm3.63 0c0 .36-.3.72-.73.72a.733.733 0 0 1-.72-.72V2.12c0-.39.33-.72.72-.72.4 0 .73.33.73.72v9.43Zm3.62 0a.733.733 0 0 1-.725.645.733.733 0 0 1-.725-.645V2.12c0-.39.33-.72.72-.72.4 0 .73.33.73.72v9.43Z"/>
  </g>
  <g>
    <path fill="#01b7a5" fill-rule="nonzero" d="M174.106 17.9c-.82 0-1.61-.33-2.2-.91l-3.15-3.16a.602.602 0 0 0-.83 0l-3.17 3.17a3.1 3.1 0 0 1-2.2.9h-.62l4 4a3.234 3.234 0 0 0 4.53 0l4.02-4h-.38Zm3.7-7.85-2.43-2.43a.448.448 0 0 1-.17.03h-1.1c-.57 0-1.13.24-1.53.64l-3.16 3.16a1.51 1.51 0 0 1-2.15 0l-3.17-3.17c-.4-.4-.96-.64-1.53-.64h-1.36a.459.459 0 0 1-.16-.03l-2.44 2.44a3.235 3.235 0 0 0 0 4.52l2.44 2.44c.05-.02.1-.04.16-.04h1.36a2.2 2.2 0 0 0 1.53-.63l3.17-3.17a1.557 1.557 0 0 1 2.15 0l3.15 3.16c.41.4.96.63 1.54.63h1.1c.06 0 .12.02.17.04l2.43-2.43a3.235 3.235 0 0 0 0-4.52Zm-15.24-3.35c.82 0 1.6.33 2.19.91l3.17 3.17c.23.23.6.23.83 0l3.16-3.16c.58-.58 1.37-.9 2.19-.9h.38l-4.02-4.02a3.235 3.235 0 0 0-4.52 0l-4 4h.62Zm37.96-4.15-.76-.76a.48.48 0 0 1 0-.68l.76-.75c.18-.18.49-.18.68 0l.75.75c.18.2.18.5 0 .68l-.76.76a.481.481 0 0 1-.67 0Z"/>
    <path fill="#aaa" d="M184.406 21.36V8.39c0-2.1 1.72-3.82 3.82-3.82h3.83c2.1 0 3.8 1.73 3.8 3.8v2.78a3.859 3.859 0 0 1-3.82 3.82h-5.4a.501.501 0 0 0 0 .99h5.4c2.634-.016 4.798-2.176 4.82-4.81V8.39c-.011-2.633-2.168-4.798-4.8-4.82h-3.83c-2.64.011-4.809 2.18-4.82 4.82v12.97c.011.267.233.48.5.48a.502.502 0 0 0 .5-.48Zm13.03-16.8h1.66c.7 0 1.28.58 1.28 1.28v9.69c.016.263.237.47.5.47.26 0 .48-.21.5-.47v-9.7a2.31 2.31 0 0 0-2.28-2.27h-1.66a.502.502 0 0 0-.48.5c0 .27.21.49.48.5Zm6.62 11.38h1.65a3.702 3.702 0 0 0 2.61-1.08l3.86-3.86a.789.789 0 0 1 .55-.23c.2 0 .4.09.55.23l3.83 3.84c.7.69 1.64 1.08 2.62 1.08h1.34a.502.502 0 0 0 .48-.5.502.502 0 0 0-.48-.5h-1.34c-.72 0-1.4-.28-1.9-.78l-3.85-3.84a1.789 1.789 0 0 0-2.5 0l-3.86 3.85c-.5.5-1.19.79-1.9.79h-1.66a.502.502 0 0 0-.48.5c0 .26.21.49.48.5Zm0 0-.05-.06c-.02-.03-.05-.05-.05-.04 0 .08.1.1.1.1Zm0-11.4h1.65c.72 0 1.4.3 1.91.8l3.85 3.86c.7.69 1.82.69 2.51 0l3.84-3.84a2.688 2.688 0 0 1 1.91-.8h1.34a.502.502 0 0 0 .48-.5.502.502 0 0 0-.48-.5h-1.34c-.98 0-1.92.4-2.62 1.09l-3.83 3.84a.784.784 0 0 1-.55.23.75.75 0 0 1-.55-.23l-3.86-3.85a3.66 3.66 0 0 0-2.6-1.1h-1.66a.502.502 0 0 0-.48.5c0 .28.21.5.48.5Zm-6.7-.1.01.06c.03.04.07.06.07.06a.443.443 0 0 0-.03-.1l-.06-.01.01-.01Zm6.7.1-.05-.05c-.02-.03-.05-.05-.05-.04 0 .09.1.1.1.1v-.01Z"/>
  </g>
  <g>
    <path fill="#2790c3" d="M309.674 10.19c-.27 1.72-1.58 1.72-2.85 1.72h-.72l.5-3.21a.402.402 0 0 1 .4-.34h.33c.87 0 1.68 0 2.1.5.25.29.33.73.24 1.33Zm-.56-4.48h-4.78c-.33 0-.6.24-.66.56l-1.93 12.27v.06c0 .22.17.4.4.4h2.45c.22 0 .42-.17.46-.4l.54-3.47a.672.672 0 0 1 .66-.56h1.51c3.16 0 4.97-1.53 5.45-4.55.21-1.32 0-2.36-.61-3.09-.68-.8-1.89-1.22-3.49-1.22Z"/>
    <path fill="#27346a" d="M275.554 10.19c-.27 1.72-1.58 1.72-2.85 1.72h-.72l.5-3.21a.402.402 0 0 1 .4-.34h.33c.87 0 1.68 0 2.1.5.25.29.33.73.24 1.33Zm-.56-4.48h-4.78c-.33 0-.6.24-.66.56l-1.93 12.27v.06c0 .22.17.4.4.4h2.28c.32 0 .6-.24.65-.56l.53-3.31a.672.672 0 0 1 .65-.56h1.52c3.15 0 4.97-1.53 5.44-4.55.21-1.32.01-2.36-.61-3.09-.68-.8-1.89-1.22-3.49-1.22Zm11.1 8.88a2.559 2.559 0 0 1-2.58 2.19c-.66 0-1.2-.21-1.53-.62-.34-.4-.47-.97-.36-1.6.2-1.3 1.26-2.21 2.56-2.21.65 0 1.18.21 1.53.62.35.41.49.99.39 1.62h-.01Zm3.2-4.46h-2.29a.402.402 0 0 0-.4.34l-.1.64-.15-.23c-.5-.72-1.6-.96-2.7-.96a5.287 5.287 0 0 0-5.12 4.6c-.22 1.35.09 2.63.85 3.52.7.83 1.7 1.17 2.88 1.17 2.04 0 3.18-1.31 3.18-1.31l-.1.64-.01.06c0 .22.18.4.4.4h2.06c.33 0 .6-.24.66-.56l1.24-7.85v-.06c0-.219-.181-.4-.4-.4Z"/>
    <path fill="#2790c3" d="M320.224 14.6a2.559 2.559 0 0 1-2.59 2.18c-.66 0-1.2-.21-1.53-.62-.34-.4-.47-.97-.36-1.6.2-1.3 1.26-2.21 2.56-2.21.65 0 1.18.21 1.53.62.35.41.49.99.39 1.62v.01Zm3.2-4.47h-2.3a.402.402 0 0 0-.4.34l-.1.64-.15-.23c-.5-.72-1.6-.96-2.7-.96a5.287 5.287 0 0 0-5.12 4.6c-.22 1.35.09 2.63.85 3.52.7.83 1.7 1.17 2.88 1.17 2.04 0 3.18-1.31 3.18-1.31l-.1.64-.01.06c0 .22.18.4.4.4h2.06c.33 0 .6-.24.66-.56l1.23-7.85.01-.06c0-.219-.181-.4-.4-.4h.01Z"/>
    <path fill="#27346a" d="M301.494 10.13h-2.3a.67.67 0 0 0-.55.3l-3.18 4.67-1.34-4.5a.672.672 0 0 0-.64-.47H291.222a.402.402 0 0 0-.378.53l2.54 7.44-2.39 3.37a.403.403 0 0 0-.073.23c0 .219.181.4.4.4h2.303c.21 0 .42-.11.54-.29l7.66-11.05a.403.403 0 0 0 .073-.23c0-.219-.181-.4-.4-.4h-.003"/>
    <path fill="#2790c3" d="m326.124 6.05-1.97 12.49v.06c0 .22.17.4.4.4h1.97c.32 0 .6-.24.65-.56l1.94-12.27a.402.402 0 0 0-.395-.46h-2.205a.402.402 0 0 0-.4.34"/>
    <path fill="#27346a" d="m251.184 21.23.64-4.08.04-.23a.842.842 0 0 1 .83-.7h.5c.86 0 1.64-.1 2.33-.27a5.264 5.264 0 0 0 3.42-2.5c.41-.68.71-1.5.9-2.45.16-.83.19-1.57.09-2.21a3.342 3.342 0 0 0-.77-1.7 3.242 3.242 0 0 0-.93-.72h-.01v-.02c.13-.83.12-1.52-.02-2.12a3.759 3.759 0 0 0-.87-1.64c-.92-1.05-2.6-1.58-4.99-1.58h-6.56a.923.923 0 0 0-.91.77l-2.73 17.33a.543.543 0 0 0 .532.63h4.078v.02l-.29 1.77c-.02.14.02.28.11.38.1.1.22.17.36.17h3.42a.803.803 0 0 0 .8-.68l.03-.17"/>
    <path fill="#27346a" d="M248.844 6.37a.824.824 0 0 1 .8-.69h5.15c.856.002 1.709.106 2.54.31l.2.06c.25.09.49.18.7.3.26-1.64 0-2.76-.89-3.77-.97-1.11-2.74-1.6-5-1.6h-6.56a.944.944 0 0 0-.93.8l-2.73 17.32a.573.573 0 0 0 .56.65h4.05l2.09-13.38"/>
    <path fill="#2790c3" d="m258.234 6.35-.06.38c-.87 4.45-3.83 5.98-7.6 5.98h-1.93a.944.944 0 0 0-.93.8l-1.26 8.02v.07c0 .27.21.5.48.5h3.42c.4 0 .75-.3.8-.7l.04-.17.64-4.08.05-.22c.06-.4.4-.7.8-.7h.52c3.3 0 5.9-1.34 6.65-5.23.32-1.62.15-2.98-.68-3.93a3.237 3.237 0 0 0-.94-.72"/>
    <path fill="#1f264f" d="M257.324 5.99a6.56 6.56 0 0 0-.83-.19c-.52-.08-1.09-.12-1.7-.12h-5.14a.833.833 0 0 0-.81.7l-1.1 6.92-.03.2c.08-.45.46-.79.93-.79h1.92c3.78 0 6.74-1.53 7.6-5.98l.07-.38a4.609 4.609 0 0 0-.9-.36"/>
  </g>
  <g>
    <path fill="#28316b" fill-rule="nonzero" d="M382.018 10.572C382.018 4.748 374.781 0 365.855 0c-8.927 0-16.162 4.748-16.162 10.572l-.001.62c0 6.177 6.323 11.182 16.16 11.182 9.9 0 16.166-5.003 16.166-11.182v-.62Z"/>
    <path fill="#50b4e9" fill-rule="nonzero" d="M381.398 10.567c0 5.49-6.955 9.942-15.54 9.942-8.583 0-15.54-4.452-15.54-9.942 0-5.491 6.957-9.943 15.54-9.943 8.585 0 15.54 4.452 15.54 9.943"/>
    <path fill="#fff" fill-rule="nonzero" d="M364.662 14.663c-.308-.004-.644.18-.69.153-.024-.016.02-.14.05-.212.028-.07.434-1.291-.556-1.717-.758-.325-1.22.04-1.379.207-.043.043-.06.039-.066-.016-.014-.22-.112-.816-.766-1.015-.936-.285-1.536.367-1.69.602a1.08 1.08 0 0 0-2.154.138 1.084 1.084 0 0 0 1.835.781c.006.006.008.016.004.037-.045.268-.128 1.242.893 1.64.41.158.757.04 1.046-.163.085-.06.098-.034.086.046-.036.251.01.788.763 1.092.572.234.911-.005 1.132-.21.097-.088.124-.072.13.062a1.358 1.358 0 0 0 1.361 1.303 1.363 1.363 0 1 0 .001-2.728Zm9.645-2.534c-.05-.044-5.027-4.4-6.155-5.248-.652-.49-1.015-.614-1.397-.663-.2-.024-.472.011-.665.065-.523.142-1.21.6-1.818 1.082-.631.504-1.225.976-1.777 1.1-.704.158-1.565-.029-1.959-.294a.868.868 0 0 1-.324-.356c-.145-.337.123-.605.166-.652l1.374-1.484c.159-.159.32-.32.485-.477-.442.059-.852.172-1.252.282-.497.141-.976.273-1.461.273-.202 0-1.285-.176-1.49-.232-1.243-.343-2.335-.672-3.963-1.433-1.953 1.454-3.26 3.272-3.636 5.273.28.075.732.208.921.25 4.42.983 5.796 1.995 6.046 2.207.27-.3.66-.492 1.095-.492.49.003.93.247 1.198.626.253-.2.602-.369 1.053-.369.204 0 .417.037.632.11.499.17.756.503.889.805.167-.077.373-.134.615-.132.239 0 .487.053.735.161.814.35.941 1.152.868 1.755a1.753 1.753 0 0 1 1.718 2.57c.263.147.933.482 1.52.407.47-.06.65-.22.713-.31.044-.062.09-.135.046-.188l-1.245-1.385s-.206-.193-.139-.269c.071-.076.198.034.289.109.632.53 1.408 1.329 1.408 1.329.012.01.065.11.35.161.247.044.683.02.987-.228a1.54 1.54 0 0 0 .216-.222c-.005.004-.01.009-.015.011.32-.408-.035-.821-.035-.821l-1.455-1.634s-.21-.193-.138-.271c.063-.066.198.035.288.111.461.384 1.113 1.04 1.737 1.65.122.089.67.429 1.397-.048.44-.29.528-.645.517-.914-.031-.354-.308-.607-.308-.607l-1.988-1.998s-.21-.18-.137-.27c.061-.078.197.032.288.108.633.53 2.348 2.102 2.348 2.102.024.017.618.44 1.348-.028.263-.167.43-.42.444-.712.025-.51-.334-.81-.334-.81ZM360.698 7.43c-.009.016-.164.177-.064.305.246.314 1.004.492 1.77.321.457-.103 1.04-.567 1.606-1.016.614-.488 1.224-.977 1.836-1.17.648-.207 1.062-.119 1.337-.037.301.092.656.289 1.22.713 1.063.8 5.34 4.532 6.076 5.177.597-.269 3.24-1.409 6.834-2.198-.312-1.916-1.478-3.67-3.245-5.105-2.462 1.034-5.473 1.575-8.416.135-.015-.003-1.608-.759-3.18-.72-2.336.053-3.348 1.064-4.42 2.134l-1.354 1.461Z"/>
    <path fill="#28316b" fill-rule="nonzero" d="M364.662 17.293a1.255 1.255 0 0 1-1.263-1.207c-.002-.058-.008-.212-.138-.212-.054 0-.102.032-.154.079-.152.14-.342.281-.621.281a1.1 1.1 0 0 1-.41-.088c-.721-.292-.73-.788-.702-.988.008-.052.01-.107-.025-.15l-.046-.04h-.044c-.036 0-.076.014-.126.051-.209.147-.409.216-.612.216a.935.935 0 0 1-.343-.066c-.948-.369-.874-1.265-.827-1.535.006-.056-.008-.097-.042-.126l-.067-.056-.063.06a.974.974 0 0 1-.682.277.989.989 0 0 1-.987-.987.985.985 0 0 1 1.961-.123l.035.264.144-.224c.017-.027.416-.63 1.15-.63.138 0 .282.024.426.068.586.178.684.707.7.93.01.128.101.135.12.135.048 0 .088-.032.113-.06a.99.99 0 0 1 .726-.307c.173 0 .355.04.544.122.929.399.507 1.58.502 1.59-.08.196-.082.283-.007.332l.036.018h.027c.042 0 .093-.018.18-.047.126-.044.317-.11.495-.11h.002a1.28 1.28 0 0 1 1.266 1.269 1.27 1.27 0 0 1-1.268 1.264m9.837-5.684c-1.532-1.34-5.076-4.42-6.037-5.14-.547-.413-.921-.632-1.25-.728a2.09 2.09 0 0 0-.614-.096c-.244 0-.505.044-.78.131-.621.196-1.238.688-1.837 1.162l-.03.024c-.557.443-1.132.901-1.567.998-.19.043-.386.065-.58.065-.488 0-.926-.14-1.09-.351-.028-.035-.01-.09.053-.171l.008-.011 1.349-1.454c1.056-1.055 2.054-2.054 4.352-2.107l.114-.002c1.43.002 2.86.642 3.02.715 1.34.655 2.724.988 4.115.99 1.45 0 2.946-.36 4.518-1.084-.176-.148-.36-.291-.547-.433-1.381.6-2.697.902-3.967.902-1.298-.002-2.593-.314-3.85-.928-.068-.03-1.645-.776-3.289-.776l-.128.001c-1.93.045-3.016.731-3.748 1.33-.711.019-1.324.19-1.87.343-.487.134-.906.252-1.316.252-.17 0-.473-.015-.5-.016-.472-.015-2.848-.597-4.738-1.313-.193.136-.38.277-.56.422 1.976.808 4.378 1.435 5.137 1.483.21.016.435.039.66.039.501 0 1.001-.14 1.486-.275.287-.082.602-.169.933-.234l-.265.266-1.37 1.481c-.107.11-.343.4-.187.759a.95.95 0 0 0 .36.4c.327.22.911.367 1.454.367.206.002.402-.019.58-.06.575-.128 1.177-.609 1.815-1.116.51-.405 1.232-.917 1.784-1.069.155-.041.346-.067.5-.067.045.001.087.001.126.006.366.048.72.172 1.351.646 1.125.845 6.103 5.2 6.152 5.243.003.002.32.275.299.732-.013.253-.154.479-.398.635a1.218 1.218 0 0 1-.653.203c-.334 0-.562-.157-.577-.167-.02-.015-1.724-1.58-2.353-2.104-.099-.083-.195-.158-.293-.158-.054 0-.1.022-.132.062-.1.122.012.29.143.402l1.993 2c.002.003.248.234.274.542.016.331-.143.61-.474.825a1.276 1.276 0 0 1-.705.234c-.307 0-.52-.14-.568-.174l-.285-.28c-.524-.514-1.063-1.046-1.457-1.375-.096-.081-.199-.154-.297-.154a.172.172 0 0 0-.126.054c-.045.05-.077.139.036.288.046.062.1.113.1.113l1.455 1.632c.012.016.298.357.032.697l-.051.066c-.044.047-.091.09-.135.13-.248.203-.58.225-.71.225-.071 0-.14-.007-.197-.018-.145-.024-.241-.064-.286-.12l-.017-.019c-.081-.08-.814-.83-1.42-1.335-.08-.066-.18-.152-.283-.152a.172.172 0 0 0-.13.059c-.121.132.058.329.135.4l1.242 1.367a.296.296 0 0 1-.05.084c-.044.062-.194.213-.643.269-.054.006-.11.009-.165.009-.464 0-.958-.226-1.214-.361.118-.245.178-.514.178-.785 0-1.021-.83-1.851-1.85-1.851h-.068c.036-.465-.03-1.348-.936-1.735a1.93 1.93 0 0 0-.775-.17c-.196 0-.387.032-.567.102a1.543 1.543 0 0 0-.905-.769 2.02 2.02 0 0 0-.664-.117c-.377 0-.723.11-1.033.33a1.572 1.572 0 0 0-1.217-.587c-.413 0-.81.165-1.105.457-.385-.295-1.917-1.268-6.014-2.198a21.066 21.066 0 0 1-.933-.257 6.85 6.85 0 0 0-.105.671s.755.182.904.216c4.186.93 5.57 1.896 5.803 2.078a1.572 1.572 0 0 0 1.735 2.147c.131.636.547 1.12 1.184 1.366a1.48 1.48 0 0 0 .916.065c.117.297.383.67.973.91.208.083.415.126.617.126.165 0 .326-.028.479-.085a1.845 1.845 0 0 0 3.035.587c.298.165.929.465 1.565.466.083 0 .16-.003.238-.013.632-.081.926-.328 1.061-.52a.888.888 0 0 0 .066-.106c.15.042.312.077.502.077.345 0 .676-.116 1.012-.361.328-.239.563-.579.596-.868a.04.04 0 0 0 .002-.014c.112.024.226.034.338.034.357 0 .707-.11 1.04-.328.644-.424.757-.975.747-1.337.113.022.228.036.343.036.333 0 .661-.1.973-.3.4-.255.64-.647.677-1.102a1.48 1.48 0 0 0-.215-.89c1.081-.466 3.55-1.366 6.459-2.021a6.547 6.547 0 0 0-.092-.67c-3.518.781-6.143 1.916-6.8 2.21M402.451 8.068a1.327 1.327 0 0 1-.248.275c-.258.212-.607.277-1.017.277-.39 0-.695-.059-.969-.232-.453-.28-.71-.751-.738-1.445h5.036c.006-.597-.012-1.055-.061-1.372a3.396 3.396 0 0 0-.55-1.429 2.827 2.827 0 0 0-1.195-1.023 3.944 3.944 0 0 0-1.624-.323c-1.013 0-1.837.319-2.473.957-.634.64-.953 1.558-.953 2.755 0 1.278.353 2.201 1.056 2.767a3.77 3.77 0 0 0 2.435.851c1.114 0 1.981-.336 2.6-1.009.335-.353.543-.703.632-1.049h-1.93Zm34.64-4.232c-.584-.73-1.469-1.096-2.656-1.096-1.188 0-2.074.366-2.657 1.096-.585.73-.876 1.594-.876 2.59 0 1.015.291 1.882.876 2.602.583.72 1.47 1.08 2.657 1.08s2.072-.36 2.657-1.08c.583-.72.874-1.587.874-2.601 0-.997-.291-1.86-.874-2.591Zm-23.933.488c.453 0 .785.14 1 .42.146.205.239.439.275.697h1.952c-.107-.986-.451-1.672-1.034-2.06-.585-.39-1.332-.585-2.245-.585-1.076 0-1.919.331-2.53.99-.611.66-.917 1.583-.917 2.767 0 1.05.276 1.907.829 2.567.554.659 1.417.988 2.59.988 1.175 0 2.06-.395 2.657-1.185.375-.492.584-1.01.628-1.561h-1.945c-.04.364-.153.66-.341.889-.187.226-.504.342-.952.342-.63 0-1.06-.287-1.286-.863-.126-.307-.188-.714-.188-1.22 0-.531.062-.957.188-1.28.236-.603.677-.906 1.32-.906Zm9.024-1.099c-.59-.3-1.268-.451-2.03-.451-1.172 0-1.999.304-2.48.914-.304.392-.473.89-.512 1.497h1.75c.043-.269.13-.48.258-.636.181-.213.488-.319.922-.319.386 0 .681.054.882.164.198.106.298.303.298.587 0 .234-.13.403-.39.515-.147.065-.388.117-.725.16l-.621.074c-.705.09-1.24.24-1.602.448-.663.382-.993.998-.993 1.85 0 .657.204 1.164.617 1.523.411.359.932.51 1.564.539 3.957.177 3.913-2.085 3.95-2.556V4.93c0-.836-.297-1.404-.888-1.705ZM430.36.611s-1.832-.196-1.832 1.276l-.002 1.95a2.175 2.175 0 0 0-.791-.764 2.221 2.221 0 0 0-1.116-.277c-.911 0-1.634.339-2.178 1.014-.544.678-.816 1.653-.816 2.833 0 1.022.277 1.862.828 2.515.553.652 1.634.939 2.595.939 3.35 0 3.31-2.874 3.31-2.874l.002-6.612Zm-21.224 2.185c-4.01 0-3.774 3.55-3.774 3.55v3.608h1.82V6.57c0-.553.072-.964.209-1.232.25-.473.738-.71 1.466-.71.054 0 .127.003.215.008.09.004.19.012.306.025V2.81c-.08-.007-.133-.009-.157-.012-.022 0-.051-.003-.085-.003Zm-12.207 7.156h-1.662V5.767c0-.382-.127-1.292-1.223-1.292-.731 0-1.26.527-1.26 1.292v4.185h-1.663V5.767c0-.382-.114-1.292-1.21-1.292-.744 0-1.261.527-1.261 1.292v4.185h-1.664V5.807c0-1.73 1.149-3.035 2.925-3.035.882 0 1.6.37 2.067.964a2.65 2.65 0 0 1 2.066-.964c1.815 0 2.885 1.252 2.885 3.035v4.145Zm24.334-2.776c-.013.606-.186 1.024-.52 1.253-.333.23-.698.345-1.093.345a1 1 0 0 1-.637-.208c-.175-.14-.262-.362-.262-.673 0-.346.143-.602.428-.769.17-.096.446-.18.834-.245l.413-.079c.204-.039.367-.08.486-.124.12-.043.234-.1.35-.175v.675Zm6.916.868c-.266.381-.657.57-1.167.57-.512 0-.894-.191-1.145-.573-.251-.382-.376-.94-.376-1.578 0-.593.122-1.088.37-1.488.248-.399.634-.6 1.164-.6.347 0 .65.11.913.33.425.363.64 1.017.64 1.862 0 .604-.134 1.097-.4 1.477Zm7.468-.014c-.284.375-.688.563-1.218.563-.529 0-.936-.188-1.22-.563-.287-.376-.429-.91-.429-1.603 0-.692.142-1.226.428-1.599.285-.374.692-.56 1.22-.56.531 0 .935.186 1.219.56.28.373.424.907.424 1.599 0 .693-.143 1.227-.424 1.603Zm-35.641-3.35c.255-.263.615-.394 1.08-.394.425 0 .782.123 1.072.372.286.25.447.613.48 1.092h-3.114c.065-.45.227-.806.482-1.07Z"/>
    <path fill="#50b4e9" fill-rule="nonzero" d="M405.755 19.61v-.446c-.316.494-.74.8-1.274.923a2.596 2.596 0 0 1-1.59-.133c-.526-.21-.975-.6-1.353-1.171-.377-.575-.564-1.326-.564-2.258 0-1.09.25-1.973.747-2.65.5-.677 1.302-.985 2.405-1.015 1.088-.028 1.72.217 2.338.686.678.513 1.077 1.3 1.077 2.53v3.721c.003 1.184-.823 3.379-3.415 3.192-1.605-.118-2.498-.777-2.994-2.268h1.917c.14.244.355.434.644.566.289.133.579.166.866.106.289-.062.551-.235.79-.515.236-.282.37-.704.406-1.268Zm-16.95 1.89a.858.858 0 0 1-.293.656.948.948 0 0 1-.647.243h-.88v-6.324c0-1.23.414-1.999 1.097-2.52.492-.375 1.25-.732 2.748-.662.773.035 1.518.371 2.01.968.606.74.859 1.563.859 2.639 0 1.109-.268 2.003-.802 2.692-.535.669-1.222 1.003-2.06 1.003-.447 0-.84-.08-1.177-.237a2.007 2.007 0 0 1-.856-.82v2.363Zm10.612-8.138c-.59-.3-1.27-.452-2.03-.452-1.172 0-1.999.305-2.48.916-.301.39-.471.89-.51 1.496h1.75c.042-.27.129-.48.257-.636.181-.212.488-.32.921-.32.389 0 .682.055.882.165.198.106.3.303.3.587 0 .233-.132.404-.39.515-.148.064-.388.117-.727.16l-.62.074c-.704.09-1.241.24-1.602.448-.664.381-.994.997-.994 1.85 0 .656.205 1.164.618 1.522.41.36.932.51 1.565.54 3.955.176 3.911-2.087 3.948-2.556v-2.605c0-.835-.296-1.402-.888-1.704Zm15.008.573c-.585-.731-1.47-1.097-2.659-1.097-1.186 0-2.072.366-2.655 1.097-.585.731-.876 1.595-.876 2.59 0 1.015.291 1.882.876 2.602.583.719 1.47 1.08 2.655 1.08 1.189 0 2.074-.361 2.659-1.08.582-.72.873-1.587.873-2.602 0-.995-.291-1.859-.873-2.59Zm-15.927 3.377c-.011.608-.185 1.025-.519 1.254-.332.23-.698.345-1.093.345-.25 0-.463-.072-.638-.209-.174-.138-.262-.361-.262-.672 0-.346.143-.603.43-.77.17-.096.446-.179.832-.245l.413-.078c.206-.04.368-.08.486-.125.12-.043.235-.1.35-.175v.675Zm14.48.815c-.282.376-.687.565-1.217.565-.528 0-.935-.189-1.22-.565-.287-.376-.429-.909-.429-1.602 0-.69.142-1.225.43-1.597.284-.375.691-.561 1.22-.561s.934.186 1.216.561c.283.372.426.906.426 1.597 0 .693-.143 1.226-.426 1.602Zm-10.219-1.548c0 1.212.351 1.884 1.052 2.018.7.13 1.216-.032 1.55-.49.158-.19.272-.496.341-.908a3.86 3.86 0 0 0 .014-1.226 2.436 2.436 0 0 0-.434-1.082c-.228-.317-.561-.476-.998-.476-.595 0-.998.221-1.208.66-.213.44-.317.94-.317 1.504Zm-10.905-.001c0-.687-.134-1.213-.403-1.584-.267-.369-.65-.555-1.15-.555-.48 0-.856.186-1.124.555-.25.336-.373.864-.373 1.584 0 .671.132 1.17.401 1.504.267.372.65.556 1.15.556a1.28 1.28 0 0 0 1.096-.556c.27-.368.403-.868.403-1.504Z"/>
  </g>
  <g>
    <g transform="matrix(.84615 0 0 .84615 458.538 -3.676)">
      <path fill="#009b3a" fill-rule="nonzero" d="M36 27a4 4 0 0 1-4 4H4a4 4 0 0 1-4-4V9a4 4 0 0 1 4-4h28a4 4 0 0 1 4 4v18Z"/>
      <path fill="#fedf01" fill-rule="nonzero" d="M32.728 18 18 29.124 3.272 18 18 6.875 32.728 18Z"/>
      <circle cx="17.976" cy="17.924" r="6.458" fill="#002776"/>
      <path fill="#cbe9d4" fill-rule="nonzero" d="M12.277 14.887a6.406 6.406 0 0 0-.672 2.023c3.995-.29 9.417 1.891 11.744 4.595.402-.604.7-1.28.883-2.004-2.872-2.808-7.917-4.63-11.955-4.614Z"/>
      <path fill="#88c9f9" fill-rule="nonzero" d="M12 18.233h1v1h-1v-1Zm1 2h1v1h-1v-1Z"/>
      <path fill="#55acee" fill-rule="nonzero" d="M15 18.233h1v1h-1v-1Zm2 1h1v1h-1v-1Zm4 2h1v1h-1v-1Zm-3 1h1v1h-1v-1Zm3-6h1v1h-1v-1Z"/>
      <path fill="#3b88c3" d="M19 20.233h1v1h-1z"/>
    </g>
    <g transform="translate(494.461 .555) scale(.61111)">
      <circle cx="18" cy="18" r="18" fill="#88c9f9"/>
      <path fill="#5c913b" fill-rule="nonzero" d="M30.13 23.748c-1.017-.39-.836-.248-1.463-1.581-.627-1.332-1.007-1.761-2.417-1.917-1.411-.155-1.358-.045-1.75-.75-.392-.706-1.982.191-3 .584-1.021.392-.769 1.246-1.083 1.166a4.831 4.831 0 0 1-1.893-.907c-.784-.628.583-1.118.976-1.509.393-.393-.74-.179-1.133-.416-.393-.234-1.096.471-1.723-.158-.628-.627-.235-1.568-.313-2.352-.079-.785 1.018-.941 1.724-1.098.705-.156 1.253.001 1.253.941 0 .941.863 1.255.628.156s.235-1.411.55-1.96c.313-.549.862-1.334 1.567-2.51.706-1.176 1.177-.628 2.039-.544.863.085 1.098-.083 1.725-.004.625.079 0-.784.236-1.646.234-.862 1.097-.706 1.961-.47.862.235-.864-1.099-1.177-1.804-.315-.706-1.177 0-1.724-1.176-.553-1.176-1.324-1.937-2.03-2.042-.706-.106.225 1.494-.324 2.356-.551.862-1.395.727-2.26.727-.861 0-1.661-.727-1.033-1.825.626-1.097 1.823-.984 2.45-1.925.628-.94-2.23-.854-3.25-1.167-1.02-.314-2.244-.311-3.263.473-1.02.783-3.201 1.028-4.064 1.341-.862.313-1.017-.52-1.173-1.148-.07-.279-.388-.367-.836-.357a18.08 18.08 0 0 0-5.666 4.921c.237.807 1.385-.189 1.61-.414.235-.235 1.411.079 1.567.941.157.862.079 1.805-.234 2.589-.314.783.784 1.881 1.411 2.979.628 1.099 1.333 1.098 1.647 1.098.313 0 2.117.706 2.038 1.568-.078.863 1.647 1.646 2.353 2.195.706.551 1.152 1.092 2.068 1.25.917.158 1.989 1.657 2.459 1.815.361.12.972.697 1.341.876-.485.614-1.424 1.875-1.424 2.456 0 .786 1.025 2.021 1.417 2.334.391.312 1.517.55 1.75 1.333.236.784-.164 3.423-.868 4.128-.708.705-.965 2.372-.965 2.372s.249.541 1.083 0C21.839 34.07 23.383 32.37 24 32a20.768 20.768 0 0 0 3.417-2.583c1.098-1.019.7-1.733 1.25-2.75.549-1.019 1.259-.973 2.199-1.833.942-.864.284-.693-.736-1.086Z"/>
    </g>
  </g>
</svg>