<svg xmlns="http://www.w3.org/2000/svg" xml:space="preserve" fill-rule="evenodd" stroke-linejoin="round" stroke-miterlimit="2" clip-rule="evenodd" viewBox="0 0 417 23">
  <path fill="#f1f1f1" d="M34.02 3c0-1.17-.95-2.13-2.13-2.13H2.14C.96.87 0 1.83 0 3.01v17.1c0 1.17.96 2.13 2.14 2.13h29.75c1.18 0 2.13-.96 2.13-2.14V3Z"/>
  <path d="m28.08 20.02-.14.04a.178.178 0 0 0-.06.14c0 .05.03.1.06.13.04.04.09.06.14.06.05 0 .1-.02.14-.06a.182.182 0 0 0 0-.27l-.14-.04Zm0 .31a.14.14 0 0 1-.14-.13c0-.08.07-.14.14-.14.08 0 .14.06.14.14 0 .07-.06.13-.14.13Zm.01-.22H28v.18h.05v-.05l.04.05h.05l-.05-.05.05-.04v-.05l-.05-.04Zm-.01.04.05.05h-.1v-.05h.05Zm-20.82.14h-.4v-1.86h.4v.22s.36-.27.54-.27c.41 0 .64.32.64.32s.18-.32.63-.32c.64 0 .73.6.73.6v1.3h-.4v-1.17s0-.36-.42-.36c-.4 0-.45.36-.45.36v1.18h-.4V19.1s-.05-.36-.37-.36c-.5 0-.5.36-.5.36v1.19Zm12.07-1.9c-.18 0-.55.26-.55.26v-.22h-.36v1.86h.4l-.04-1.18s.05-.36.5-.36l.18.04.14-.36-.27-.05v.01Zm5.62 0c-.23 0-.54.26-.54.26v-.22H24v1.86h.4V19.1s0-.36.46-.36l.23.04.13-.36-.27-.05v.02Zm-13.88 0c-.59 0-.9.5-.9.95 0 .45.36 1 .95 1 .31 0 .58-.23.58-.23v.18h.37v-1.86h-.37v.22s-.27-.27-.63-.27v.01Zm.09.36c.32 0 .6.27.6.63 0 .329-.271.6-.6.6a.603.603 0 0 1-.59-.6c0-.36.27-.63.59-.63Zm11.3-.37c-.6 0-.91.5-.91.96 0 .45.36 1 .95 1 .32 0 .6-.23.6-.23v.18h.4v-1.86h-.4v.22s-.28-.27-.64-.27Zm.09.37c.32 0 .59.27.59.63 0 .329-.271.6-.6.6a.602.602 0 0 1-.58-.6c0-.36.27-.63.59-.63Zm3.67-.37c-.59 0-.9.5-.9.96 0 .45.36 1 .95 1 .31 0 .59-.23.59-.23v.18h.4V17.7h-.4v.95s-.28-.27-.64-.27Zm.1.37c.3 0 .58.27.58.63a.603.603 0 0 1-.59.6.603.603 0 0 1-.59-.6c0-.36.27-.63.6-.63Zm-13.03 1.58c-.4 0-.77-.22-.77-.22l.14-.27s.36.13.63.13c.14 0 .41-.05.46-.18 0-.18-.5-.23-.5-.23s-.68-.04-.68-.59c0-.36.36-.59.77-.59.27 0 .77.23.77.23l-.23.27-.54-.13c-.18 0-.36.09-.36.22 0 .37 1.13-.04 1.13.77 0 .5-.45.6-.82.6v-.01Zm1.5-2.45v.55h-.36v.4h.36v.91s-.04.64.64.64l.54-.14-.14-.4s-.18.13-.31.13c-.32-.05-.32-.23-.32-.23v-.9h.63v-.41h-.63v-.55h-.41Zm2.36.5-.056-.002a.905.905 0 0 0-.894 1.002c0 .46.27 1 .95 1 .32 0 .72-.27.72-.27l-.18-.32s-.27.23-.54.23c-.5 0-.55-.5-.55-.5h1.36s.14-1.14-.81-1.14Zm-.1.37h.05c.5 0 .5.45.5.45h-1s0-.4.46-.45h-.01Zm4.1 1.04.17.36s-.27.18-.59.18l-.05.001a.995.995 0 0 1-.99-.99v-.011c0-.72.59-.95 1-.95.36 0 .68.23.68.23l-.23.36s-.09-.22-.45-.22c-.37 0-.6.31-.6.63s.23.6.6.6c.22 0 .45-.2.45-.2l.01.01Z"/>
  <path fill="#f79f1a" d="M28.35 13.53v-.27h-.09l-.09.18-.04-.18h-.1v.27h.05v-.23l.1.18h.04l.04-.18v.23h.1-.01Zm-.45 0v-.23h.1v-.04h-.19v.04h.04v.23h.05Zm.45-3.72c0 3.84-3.16 7-7 7-3.85 0-7.01-3.16-7.01-7 0-3.85 3.16-7 7-7 3.85 0 7.01 3.15 7.01 7Z"/>
  <path fill="#ea001b" d="M19.69 9.8c0 3.85-3.17 7.02-7 7.02-3.85 0-7.02-3.17-7.02-7.01 0-3.85 3.17-7 7.01-7s7.01 3.15 7.01 7V9.8Z"/>
  <path fill="#ff5f01" d="M17.01 4.28a7.034 7.034 0 0 0-2.664 5.51c0 2.146.982 4.177 2.664 5.51a7.034 7.034 0 0 0 2.664-5.51 7.034 7.034 0 0 0-2.664-5.51Z"/>
  <g>
    <path fill="#0e4595" d="M72.32 3c0-1.17-.96-2.13-2.14-2.13H40.43c-1.18 0-2.13.96-2.13 2.14v17.1c0 1.17.95 2.13 2.13 2.13h29.75c1.18 0 2.14-.96 2.14-2.14V3Z"/>
    <path fill="#fff" d="m50.9 16.02 1.55-8.89h2.4l-1.5 8.9h-2.44l-.01-.01Zm11.17-8.66a5.973 5.973 0 0 0-2.18-.4c-2.36 0-4.04 1.22-4.08 2.94 0 1.27 1.22 2 2.13 2.4.95.46 1.27.73 1.27 1.14 0 .59-.77.86-1.45.86-1 0-1.5-.14-2.27-.5l-.32-.13-.36 2c.59.26 1.63.45 2.72.49 2.54 0 4.17-1.22 4.22-3.04 0-1.04-.64-1.81-2.04-2.45-.86-.4-1.36-.68-1.36-1.09 0-.36.4-.77 1.36-.77.81 0 1.36.18 1.81.36l.23.1.32-1.91m6.26-.23h-1.9c-.55 0-1 .18-1.28.77l-3.58 8.12h2.54l.5-1.31h3.13l.27 1.31h2.27l-1.95-8.89Zm-3 5.76.96-2.5.36-.85.13.77.55 2.58h-2ZM48.87 7.13l-2.36 6.08-.28-1.22a7 7 0 0 0-3.35-3.72l2.18 7.75h2.54l3.8-8.89h-2.53"/>
    <path fill="#f2ae14" d="M44.28 7.13h-3.9l-.04.23c3.04.73 5.03 2.5 5.9 4.63l-.87-4.09c-.13-.54-.54-.72-1.09-.77"/>
  </g>
  <g>
    <path fill="#444" fill-rule="nonzero" d="M96.234 20.97c0 .4-.33.73-.73.73-.4 0-.73-.33-.73-.73V2.12c0-.39.33-.72.73-.72.4 0 .73.33.73.72v18.85Zm4.34 0c0 .36-.28.73-.72.73h-.73c-.4 0-.73-.33-.73-.73V2.12c0-.43.37-.72.73-.72h.73c.44 0 .72.29.72.72v18.85Zm34.8 0c0 .36-.29.73-.73.73h-1.44c-.4 0-.73-.33-.73-.73V2.12c0-.43.37-.72.73-.72h1.44c.44 0 .73.29.73.72v18.85Zm3.62 0c0 .36-.29.73-.72.73a.733.733 0 0 1-.72-.73V2.12c0-.39.32-.72.72-.72.4 0 .72.33.72.72v18.85Zm-30-2.6c0-.52.07-1.02.28-1.46.22-.44.51-.73.88-.94.42-.22.86-.36 1.3-.36.73 0 1.3.21 1.8.72.44.44.73 1.1.73 1.8v.3c0 .58-.14 1.02-.29 1.45-.21.44-.5.73-.86.94-.44.22-.88.36-1.38.36-.73 0-1.3-.29-1.82-.71-.49-.57-.74-1.3-.72-2.03v-.08h.07l.01.01Zm10.94 2.81c-.72 0-1.38-.21-1.81-.71a2.67 2.67 0 0 1-.73-1.97v-.14c0-.51.07-1.01.29-1.45a2.403 2.403 0 0 1 2.18-1.3 2.001 2.001 0 0 1 1.66.72c.44.44.58 1.1.58 1.96v.51h-3.47c0 .43.14.72.43 1.02.22.28.58.42.95.42.57 0 1-.21 1.44-.72l.58.65a2.1 2.1 0 0 1-.87.72c-.36.23-.73.3-1.23.3v-.01Zm4.64-6.8v1.3h.94v1.02h-.94v2.9c0 .22 0 .35.15.43 0 .14.21.14.42.14h.44v.87l-.8.14c-.94 0-1.44-.5-1.44-1.51v-3.05h-.88v-.94h.88v-1.3h1.23Zm1.52 3.98c0-.51.07-1.01.3-1.45.2-.44.5-.73.86-.94.36-.22.8-.36 1.3-.36.73 0 1.3.21 1.82.72.44.44.73 1.1.73 1.8v.3c0 .58-.15 1.02-.3 1.45-.22.44-.5.73-.94.94a2.3 2.3 0 0 1-1.3.36c-.73 0-1.39-.29-1.81-.71-.5-.57-.76-1.3-.73-2.03v-.08h.07Zm-23.2 2.76v-7.33h2.47c.8 0 1.44.22 1.88.59.44.29.65.71.65 1.44 0 .29-.06.59-.29.88-.14.28-.43.5-.72.65.7.2 1.18.85 1.16 1.59 0 .73-.21 1.23-.65 1.6-.54.4-1.2.61-1.9.58h-2.6Zm12.1-7.7h1.3v7.62h-1.3v-7.62Zm-4.78 5.05c.01.56.09.98.3 1.27.21.36.58.5.94.5.43 0 .73-.21 1.01-.5.22-.29.3-.73.3-1.45a2.098 2.098 0 0 0-.37-1.23 1.14 1.14 0 0 0-.94-.51c-.36 0-.73.22-.94.51-.21.28-.29.7-.3 1.41Zm17.04 0c.01.56.15.98.36 1.27.22.36.58.5.94.5.44 0 .73-.21.94-.5.3-.29.37-.73.37-1.45a2.098 2.098 0 0 0-.37-1.23c-.21-.29-.5-.51-.94-.51-.36 0-.72.22-.94.51-.21.28-.35.7-.36 1.41Zm-23.13-.62v2.18h1.45c.37 0 .73 0 .88-.21.21-.23.35-.52.35-.88 0-.73-.35-1.09-1.15-1.09h-1.53Zm6.09.65v-.06.06Zm17.04-.03v-.03.03Zm-7.47-1.92a.921.921 0 0 0-.72.36c-.22.21-.37.58-.43 1.01h2.32v-.13c0-.37-.15-.73-.37-.88a.921.921 0 0 0-.72-.36h-.08Zm-15.66.36h1.24c.43 0 .73-.07.94-.29a.921.921 0 0 0 .36-.72c0-.37-.15-.66-.36-.8-.15-.14-.51-.22-.94-.22h-1.24v2.03Zm.08-5.36c0 .36-.3.72-.73.72a.723.723 0 0 1-.72-.72V2.12c0-.39.32-.72.72-.72.4 0 .73.33.73.72v9.43Zm3.63 0a.733.733 0 0 1-.725.645.733.733 0 0 1-.725-.645V2.12c0-.39.32-.72.72-.72.4 0 .73.33.73.72v9.43Zm4.35 0c0 .36-.3.72-.73.72h-.73a.733.733 0 0 1-.72-.72V2.12c0-.43.36-.72.72-.72h.73c.43 0 .73.29.73.72v9.43Zm3.62 0c0 .4-.33.73-.73.73-.4 0-.73-.33-.73-.73V2.12c0-.39.34-.72.73-.72.4 0 .73.33.73.72v9.43Zm3.62 0c0 .36-.29.72-.73.72a.723.723 0 0 1-.71-.72V2.12c0-.39.32-.72.71-.72.4 0 .73.33.73.72v9.43Zm4.35 0c0 .36-.3.72-.72.72h-.73a.733.733 0 0 1-.72-.72V2.12c0-.43.36-.72.72-.72h.73c.43 0 .72.29.72.72v9.43Zm3.63 0c0 .36-.3.72-.73.72a.733.733 0 0 1-.72-.72V2.12c0-.39.33-.72.72-.72.4 0 .73.33.73.72v9.43Zm3.62 0a.733.733 0 0 1-.725.645.733.733 0 0 1-.725-.645V2.12c0-.39.33-.72.72-.72.4 0 .73.33.73.72v9.43Z"/>
  </g>
  <g>
    <path fill="#73b1a2" fill-rule="nonzero" d="M177.869 17.9c-.82 0-1.61-.33-2.2-.91l-3.15-3.16a.602.602 0 0 0-.83 0l-3.17 3.17a3.1 3.1 0 0 1-2.2.9h-.62l4 4a3.234 3.234 0 0 0 4.53 0l4.02-4h-.38Zm3.7-7.85-2.43-2.43a.448.448 0 0 1-.17.03h-1.1c-.57 0-1.13.24-1.53.64l-3.16 3.16a1.51 1.51 0 0 1-2.15 0l-3.17-3.17c-.4-.4-.96-.64-1.53-.64h-1.36a.459.459 0 0 1-.16-.03l-2.44 2.44a3.235 3.235 0 0 0 0 4.52l2.44 2.44c.05-.02.1-.04.16-.04h1.36a2.2 2.2 0 0 0 1.53-.63l3.17-3.17a1.557 1.557 0 0 1 2.15 0l3.15 3.16c.41.4.96.63 1.54.63h1.1c.06 0 .12.02.17.04l2.43-2.43a3.235 3.235 0 0 0 0-4.52Zm-15.24-3.35c.82 0 1.6.33 2.19.91l3.17 3.17c.23.23.6.23.83 0l3.16-3.16c.58-.58 1.37-.9 2.19-.9h.38l-4.02-4.02a3.235 3.235 0 0 0-4.52 0l-4 4h.62Zm37.96-4.15-.76-.76a.48.48 0 0 1 0-.68l.76-.75c.18-.18.49-.18.68 0l.75.75c.18.2.18.5 0 .68l-.76.76a.481.481 0 0 1-.67 0Z"/>
    <path fill="#aaa" d="M188.169 21.36V8.39c0-2.1 1.72-3.82 3.82-3.82h3.83c2.1 0 3.8 1.73 3.8 3.8v2.78a3.859 3.859 0 0 1-3.82 3.82h-5.4a.501.501 0 0 0 0 .99h5.4c2.634-.016 4.798-2.176 4.82-4.81V8.39c-.011-2.633-2.168-4.798-4.8-4.82h-3.83c-2.64.011-4.809 2.18-4.82 4.82v12.97c.011.267.233.48.5.48a.502.502 0 0 0 .5-.48Zm13.03-16.8h1.66c.7 0 1.28.58 1.28 1.28v9.69c.016.263.237.47.5.47.26 0 .48-.21.5-.47v-9.7a2.31 2.31 0 0 0-2.28-2.27h-1.66a.502.502 0 0 0-.48.5c0 .27.21.49.48.5Zm6.62 11.38h1.65a3.702 3.702 0 0 0 2.61-1.08l3.86-3.86a.789.789 0 0 1 .55-.23c.2 0 .4.09.55.23l3.83 3.84c.7.69 1.64 1.08 2.62 1.08h1.34a.502.502 0 0 0 .48-.5.502.502 0 0 0-.48-.5h-1.34c-.72 0-1.4-.28-1.9-.78l-3.85-3.84a1.789 1.789 0 0 0-2.5 0l-3.86 3.85c-.5.5-1.19.79-1.9.79h-1.66a.502.502 0 0 0-.48.5c0 .26.21.49.48.5Zm0 0-.05-.06c-.02-.03-.05-.05-.05-.04 0 .08.1.1.1.1Zm0-11.4h1.65c.72 0 1.4.3 1.91.8l3.85 3.86c.7.69 1.82.69 2.51 0l3.84-3.84a2.688 2.688 0 0 1 1.91-.8h1.34a.502.502 0 0 0 .48-.5.502.502 0 0 0-.48-.5h-1.34c-.98 0-1.92.4-2.62 1.09l-3.83 3.84a.784.784 0 0 1-.55.23.75.75 0 0 1-.55-.23l-3.86-3.85a3.66 3.66 0 0 0-2.6-1.1h-1.66a.502.502 0 0 0-.48.5c0 .28.21.5.48.5Zm-6.7-.1.01.06c.03.04.07.06.07.06a.443.443 0 0 0-.03-.1l-.06-.01.01-.01Zm6.7.1-.05-.05c-.02-.03-.05-.05-.05-.04 0 .09.1.1.1.1v-.01Z"/>
  </g>
  <g>
    <path fill="#2790c3" d="M315.319 10.19c-.27 1.72-1.58 1.72-2.85 1.72h-.72l.5-3.21a.402.402 0 0 1 .4-.34h.33c.87 0 1.68 0 2.1.5.25.29.33.73.24 1.33Zm-.56-4.48h-4.78c-.33 0-.6.24-.66.56l-1.93 12.27v.06c0 .22.17.4.4.4h2.45c.22 0 .42-.17.46-.4l.54-3.47a.672.672 0 0 1 .66-.56h1.51c3.16 0 4.97-1.53 5.45-4.55.21-1.32 0-2.36-.61-3.09-.68-.8-1.89-1.22-3.49-1.22Z"/>
    <path fill="#27346a" d="M281.199 10.19c-.27 1.72-1.58 1.72-2.85 1.72h-.72l.5-3.21a.402.402 0 0 1 .4-.34h.33c.87 0 1.68 0 2.1.5.25.29.33.73.24 1.33Zm-.56-4.48h-4.78c-.33 0-.6.24-.66.56l-1.93 12.27v.06c0 .22.17.4.4.4h2.28c.32 0 .6-.24.65-.56l.53-3.31a.672.672 0 0 1 .65-.56h1.52c3.15 0 4.97-1.53 5.44-4.55.21-1.32.01-2.36-.61-3.09-.68-.8-1.89-1.22-3.49-1.22Zm11.1 8.88a2.559 2.559 0 0 1-2.58 2.19c-.66 0-1.2-.21-1.53-.62-.34-.4-.47-.97-.36-1.6.2-1.3 1.26-2.21 2.56-2.21.65 0 1.18.21 1.53.62.35.41.49.99.39 1.62h-.01Zm3.2-4.46h-2.29a.402.402 0 0 0-.4.34l-.1.64-.15-.23c-.5-.72-1.6-.96-2.7-.96a5.287 5.287 0 0 0-5.12 4.6c-.22 1.35.09 2.63.85 3.52.7.83 1.7 1.17 2.88 1.17 2.04 0 3.18-1.31 3.18-1.31l-.1.64-.01.06c0 .22.18.4.4.4h2.06c.33 0 .6-.24.66-.56l1.24-7.85v-.06c0-.219-.181-.4-.4-.4Z"/>
    <path fill="#2790c3" d="M325.869 14.6a2.559 2.559 0 0 1-2.59 2.18c-.66 0-1.2-.21-1.53-.62-.34-.4-.47-.97-.36-1.6.2-1.3 1.26-2.21 2.56-2.21.65 0 1.18.21 1.53.62.35.41.49.99.39 1.62v.01Zm3.2-4.47h-2.3a.402.402 0 0 0-.4.34l-.1.64-.15-.23c-.5-.72-1.6-.96-2.7-.96a5.287 5.287 0 0 0-5.12 4.6c-.22 1.35.09 2.63.85 3.52.7.83 1.7 1.17 2.88 1.17 2.04 0 3.18-1.31 3.18-1.31l-.1.64-.01.06c0 .22.18.4.4.4h2.06c.33 0 .6-.24.66-.56l1.23-7.85.01-.06c0-.219-.181-.4-.4-.4h.01Z"/>
    <path fill="#27346a" d="M307.139 10.13h-2.3a.67.67 0 0 0-.55.3l-3.18 4.67-1.34-4.5a.672.672 0 0 0-.64-.47H296.867a.402.402 0 0 0-.378.53l2.54 7.44-2.39 3.37a.403.403 0 0 0-.073.23c0 .219.181.4.4.4h2.303c.21 0 .42-.11.54-.29l7.66-11.05a.403.403 0 0 0 .073-.23c0-.219-.181-.4-.4-.4h-.003"/>
    <path fill="#2790c3" d="m331.769 6.05-1.97 12.49v.06c0 .22.17.4.4.4h1.97c.32 0 .6-.24.65-.56l1.94-12.27a.402.402 0 0 0-.395-.46h-2.205a.402.402 0 0 0-.4.34"/>
    <path fill="#27346a" d="m256.829 21.23.64-4.08.04-.23a.842.842 0 0 1 .83-.7h.5c.86 0 1.64-.1 2.33-.27a5.264 5.264 0 0 0 3.42-2.5c.41-.68.71-1.5.9-2.45.16-.83.19-1.57.09-2.21a3.342 3.342 0 0 0-.77-1.7 3.242 3.242 0 0 0-.93-.72h-.01v-.02c.13-.83.12-1.52-.02-2.12a3.759 3.759 0 0 0-.87-1.64c-.92-1.05-2.6-1.58-4.99-1.58h-6.56a.923.923 0 0 0-.91.77l-2.73 17.33a.543.543 0 0 0 .532.63h4.078v.02l-.29 1.77c-.02.14.02.28.11.38.1.1.22.17.36.17h3.42a.803.803 0 0 0 .8-.68l.03-.17"/>
    <path fill="#27346a" d="M254.489 6.37a.824.824 0 0 1 .8-.69h5.15c.856.002 1.709.106 2.54.31l.2.06c.25.09.49.18.7.3.26-1.64 0-2.76-.89-3.77-.97-1.11-2.74-1.6-5-1.6h-6.56a.944.944 0 0 0-.93.8l-2.73 17.32a.573.573 0 0 0 .56.65h4.05l2.09-13.38"/>
    <path fill="#2790c3" d="m263.879 6.35-.06.38c-.87 4.45-3.83 5.98-7.6 5.98h-1.93a.944.944 0 0 0-.93.8l-1.26 8.02v.07c0 .27.21.5.48.5h3.42c.4 0 .75-.3.8-.7l.04-.17.64-4.08.05-.22c.06-.4.4-.7.8-.7h.52c3.3 0 5.9-1.34 6.65-5.23.32-1.62.15-2.98-.68-3.93a3.237 3.237 0 0 0-.94-.72"/>
    <path fill="#1f264f" d="M262.969 5.99a6.56 6.56 0 0 0-.83-.19c-.52-.08-1.09-.12-1.7-.12h-5.14a.833.833 0 0 0-.81.7l-1.1 6.92-.03.2c.08-.45.46-.79.93-.79h1.92c3.78 0 6.74-1.53 7.6-5.98l.07-.38a4.609 4.609 0 0 0-.9-.36"/>
  </g>
  <g>
    <g transform="matrix(.84615 0 0 .84615 358.538 -3.676)">
      <path fill="#009b3a" fill-rule="nonzero" d="M36 27a4 4 0 0 1-4 4H4a4 4 0 0 1-4-4V9a4 4 0 0 1 4-4h28a4 4 0 0 1 4 4v18Z"/>
      <path fill="#fedf01" fill-rule="nonzero" d="M32.728 18 18 29.124 3.272 18 18 6.875 32.728 18Z"/>
      <circle cx="17.976" cy="17.924" r="6.458" fill="#002776"/>
      <path fill="#cbe9d4" fill-rule="nonzero" d="M12.277 14.887a6.406 6.406 0 0 0-.672 2.023c3.995-.29 9.417 1.891 11.744 4.595.402-.604.7-1.28.883-2.004-2.872-2.808-7.917-4.63-11.955-4.614Z"/>
      <path fill="#88c9f9" fill-rule="nonzero" d="M12 18.233h1v1h-1v-1Zm1 2h1v1h-1v-1Z"/>
      <path fill="#55acee" fill-rule="nonzero" d="M15 18.233h1v1h-1v-1Zm2 1h1v1h-1v-1Zm4 2h1v1h-1v-1Zm-3 1h1v1h-1v-1Zm3-6h1v1h-1v-1Z"/>
      <path fill="#3b88c3" d="M19 20.233h1v1h-1z"/>
    </g>
    <g transform="translate(394.461 .555) scale(.61111)">
      <circle cx="18" cy="18" r="18" fill="#88c9f9"/>
      <path fill="#5c913b" fill-rule="nonzero" d="M30.13 23.748c-1.017-.39-.836-.248-1.463-1.581-.627-1.332-1.007-1.761-2.417-1.917-1.411-.155-1.358-.045-1.75-.75-.392-.706-1.982.191-3 .584-1.021.392-.769 1.246-1.083 1.166a4.831 4.831 0 0 1-1.893-.907c-.784-.628.583-1.118.976-1.509.393-.393-.74-.179-1.133-.416-.393-.234-1.096.471-1.723-.158-.628-.627-.235-1.568-.313-2.352-.079-.785 1.018-.941 1.724-1.098.705-.156 1.253.001 1.253.941 0 .941.863 1.255.628.156s.235-1.411.55-1.96c.313-.549.862-1.334 1.567-2.51.706-1.176 1.177-.628 2.039-.544.863.085 1.098-.083 1.725-.004.625.079 0-.784.236-1.646.234-.862 1.097-.706 1.961-.47.862.235-.864-1.099-1.177-1.804-.315-.706-1.177 0-1.724-1.176-.553-1.176-1.324-1.937-2.03-2.042-.706-.106.225 1.494-.324 2.356-.551.862-1.395.727-2.26.727-.861 0-1.661-.727-1.033-1.825.626-1.097 1.823-.984 2.45-1.925.628-.94-2.23-.854-3.25-1.167-1.02-.314-2.244-.311-3.263.473-1.02.783-3.201 1.028-4.064 1.341-.862.313-1.017-.52-1.173-1.148-.07-.279-.388-.367-.836-.357a18.08 18.08 0 0 0-5.666 4.921c.237.807 1.385-.189 1.61-.414.235-.235 1.411.079 1.567.941.157.862.079 1.805-.234 2.589-.314.783.784 1.881 1.411 2.979.628 1.099 1.333 1.098 1.647 1.098.313 0 2.117.706 2.038 1.568-.078.863 1.647 1.646 2.353 2.195.706.551 1.152 1.092 2.068 1.25.917.158 1.989 1.657 2.459 1.815.361.12.972.697 1.341.876-.485.614-1.424 1.875-1.424 2.456 0 .786 1.025 2.021 1.417 2.334.391.312 1.517.55 1.75 1.333.236.784-.164 3.423-.868 4.128-.708.705-.965 2.372-.965 2.372s.249.541 1.083 0C21.839 34.07 23.383 32.37 24 32a20.768 20.768 0 0 0 3.417-2.583c1.098-1.019.7-1.733 1.25-2.75.549-1.019 1.259-.973 2.199-1.833.942-.864.284-.693-.736-1.086Z"/>
    </g>
  </g>
</svg>