<svg xmlns="http://www.w3.org/2000/svg" fill-rule="evenodd" stroke-miterlimit="22.93" clip-rule="evenodd" viewBox="0 0 282 20">
  <g transform="scale(1.88 1)">
    <path fill="none" d="M0 0h150v20H0z"/>
    <clipPath id="a">
      <path d="M0 0h150v20H0z"/>
    </clipPath>
    <g clip-path="url(#a)">
      <path fill="#f1f1f1" d="M16.94 2c0-1.1038-.4767-2-1.0639-2H1.0638C.4767 0 0 .8962 0 2v16c0 1.1038.4767 2 1.0638 2h14.8123c.5872 0 1.0638-.8962 1.0638-2V2z"/>
      <path d="M13.9811 17.9193l-.0678.0425c-.0194.0322-.0305.0786-.0305.1274 0 .0487.0111.0951.0305.1273.0172.0366.0419.0575.0678.0575.026 0 .0506-.0209.0678-.0575.0194-.0322.0305-.0786.0305-.1273 0-.0488-.011-.0952-.0305-.1274l-.0678-.0425zm0 .2972c-.0372 0-.0678-.0575-.0678-.1273 0-.07.0306-.1274.0678-.1274s.0678.0575.0678.1274c0 .0698-.0306.1273-.0678.1273zm0-.2123h-.0452v.1699h.0226v-.0425l.0226.0425h.0226l-.0226-.0425.0226-.0424v-.0425l-.0226-.0425zm0 .0425l.0226.0425h-.0452v-.0425h.0226zM3.614 18.174h-.2033v-1.741h.2033v.2123s.1806-.2548.271-.2548c.2033 0 .3162.2973.3162.2973s.0904-.2973.3162-.2973c.3162 0 .3614.552.3614.552v1.2315h-.2033V17.07s0-.3398-.2033-.3398c-.2032 0-.2258.3397-.2258.3397v1.104H4.043V17.07s-.0226-.3397-.1807-.3397c-.2484 0-.2484.3397-.2484.3397v1.104zm6.008-1.7835c-.0904 0-.271.2548-.271.2548v-.2123h-.1807v1.741h.2032L9.351 17.07s.0225-.3398.2484-.3398l.0904.0425.0677-.3397-.1355-.0425zm2.8007 0c-.1129 0-.271.2548-.271.2548v-.2123h-.2033v1.741h.2033V17.07s0-.3398.2259-.3398l.1129.0425.0677-.3397-.1355-.0425zm-6.9115 0c-.2936 0-.4517.4671-.4517.8918 0 .4246.1807.9341.4743.9341.1581 0 .2936-.2123.2936-.2123v.1699h.1807v-1.741h-.1807v.2123s-.1355-.2548-.3162-.2548zm.0452.3397c.1581 0 .2936.2548.2936.5945 0 .2973-.1355.552-.2936.552-.1581 0-.2936-.2547-.2936-.552 0-.3397.1355-.5945.2936-.5945zm5.624-.3397c-.2936 0-.4517.4671-.4517.8918 0 .4246.1807.9341.4744.9341.158 0 .2936-.2123.2936-.2123v.1699h.2033v-1.741h-.2033v.2123s-.1355-.2548-.3162-.2548zm.0452.3397c.1581 0 .2937.2548.2937.5945 0 .2973-.1356.552-.2937.552-.158 0-.2936-.2547-.2936-.552 0-.3397.1355-.5945.2936-.5945zm1.8296-.3397c-.2937 0-.4518.4671-.4518.8918 0 .4246.1807.9341.4743.9341.1581 0 .2937-.2123.2937-.2123v.1699h.2032v-2.4204h-.2032v.8917s-.1356-.2548-.3162-.2548zm.0451.3397c.1581 0 .2937.2548.2937.5945 0 .2973-.1356.552-.2937.552-.158 0-.2936-.2547-.2936-.552 0-.3397.1355-.5945.2936-.5945zM6.618 18.2165c-.2033 0-.384-.2123-.384-.2123l.0678-.2547s.1807.1273.3162.1273c.0677 0 .2033-.0424.2258-.1698 0-.1699-.2484-.2123-.2484-.2123s-.3388-.0425-.3388-.552c0-.3397.1807-.552.384-.552.1355 0 .384.2123.384.2123l-.113.2547-.271-.1274c-.0904 0-.1807.085-.1807.2124 0 .3397.5646-.0425.5646.7218 0 .4671-.2258.552-.4065.552zm.7453-2.293v.5096h-.1807v.3822h.1807v.8492s-.0226.5945.3162.5945l.271-.1274-.0677-.3821s-.0903.1273-.158.1273c-.1582-.0424-.1582-.2123-.1582-.2123v-.8492h.3162v-.3822h-.3162v-.5095h-.2033zm1.1745.4671c-.3388 0-.4969.5096-.4743.9342 0 .4247.1355.9342.4743.9342.1581 0 .3614-.2548.3614-.2548l-.0903-.2972s-.1355.2123-.271.2123c-.2485 0-.2711-.467-.2711-.467h.6776s.0678-1.0617-.4066-1.0617zm-.0451.3397h.0225c.2485 0 .2485.4247.2485.4247h-.4969s0-.3822.2259-.4247zm2.0328.9767l.0903.3397s-.1355.1698-.2936.1698c-.3388 0-.5195-.467-.5195-.9341 0-.6794.2936-.8918.4969-.8918.1807 0 .3388.2124.3388.2124l-.113.3397s-.0451-.2124-.2258-.2124-.2936.2973-.2936.5945c0 .2973.1129.552.2936.552.113 0 .2259-.1698.2259-.1698z"/>
      <path fill="#f79f1a" d="M14.1166 11.8471v-.2548h-.0451l-.0452.1699-.0226-.1699h-.0452v.2548h.0226v-.2123l.0452.1699h.0226l.0226-.1699v.2123h.0451zm-.2258 0v-.2123h.0451v-.0425h-.0903v.0425h.0226v.2123h.0226zM14.1166 8.3652c0 3.599-1.5753 6.5605-3.4896 6.5605-1.9144 0-3.4896-2.9616-3.4896-6.5605 0-3.599 1.5752-6.5605 3.4896-6.5605 1.9143 0 3.4896 2.9615 3.4896 6.5605z"/>
      <path fill="#ea001b" d="M9.8026 8.3652c0 3.599-1.5753 6.5605-3.4896 6.5605-1.9144 0-3.4897-2.9616-3.4897-6.5605 0-3.599 1.5753-6.5605 3.4897-6.5605 1.9143 0 3.4896 2.9615 3.4896 6.5605z"/>
      <path fill="#ff5f01" d="M8.47 3.1847c-.8378 1.2476-1.3271 3.15-1.3271 5.1592 0 2.0093.4893 3.9117 1.327 5.1593.8378-1.2476 1.3272-3.15 1.3272-5.1593 0-2.0092-.4894-3.9116-1.3271-5.1592z"/>
      <path fill="#0e4595" d="M36.0075 2c0-1.1038-.4766-2-1.0638-2H20.1314c-.5871 0-1.0638.8962-1.0638 2v16c0 1.1038.4767 2 1.0638 2h14.8123c.5872 0 1.0638-.8962 1.0638-2V2z"/>
      <path fill="#fff" d="M25.3467 14.1826l.768-8.3227h1.197l-.7453 8.3227h-1.2197zm5.5563-8.1104c-.2259-.1699-.6099-.3822-1.0842-.3822-1.1745 0-2.0102 1.1465-2.0328 2.7601 0 1.189.6099 1.8684 1.0616 2.2505.4743.4247.6324.6794.6324 1.0616 0 .552-.384.8068-.7227.8068-.497 0-.7454-.1274-1.1294-.4671l-.158-.1274-.1808 1.8684c.2936.2547.8131.4246 1.3552.467 1.2649 0 2.078-1.1464 2.1006-2.845 0-.9766-.3162-1.6985-1.0164-2.293-.4292-.3821-.6776-.6369-.6776-1.019 0-.3397.2033-.722.6776-.722.4065 0 .6776.17.9034.3398l.113.085.158-1.7835m3.117-.2123h-.9486c-.271 0-.497.1698-.6324.7218l-1.7844 7.6009h1.2649l.2484-1.2314h1.5585l.1355 1.2314h1.1294l-.9713-8.3227zm-1.4907 5.3927l.4743-2.3354.1807-.8068.0678.7219.271 2.4203h-.9938zM24.3302 5.86l-1.1744 5.69-.1355-1.1465c-.226-1.3164-.9035-2.7601-1.6715-3.482l1.0842 7.2612h1.2649l1.8972-8.3227h-1.2648"/>
      <path fill="#f2ae14" d="M22.049 5.8599h-1.9424l-.0226.2123c1.5133.6794 2.5071 2.3354 2.9363 4.3312l-.4292-3.8217c-.0678-.5095-.271-.6794-.542-.7218"/>
      <g>
        <path fill="#231f20" d="M55.0752 2c0-1.1038-.4767-2-1.0638-2H39.199c-.5871 0-1.0638.8962-1.0638 2v16c0 1.1038.4767 2 1.0638 2h14.8123c.5871 0 1.0638-.8962 1.0638-2V2z"/>
        <path fill="#fff" fill-rule="nonzero" d="M46.9582 3.4928v8.679l.7176.547-.4075 1.788-.792-.619c-.1782-.145-.299-.367-.391-.617-.0872-.255-.1526-.604-.1526-1.075v-8.703h1.0255zm3.2872 10.999a1.2121 1.2121 0 01-.1207.005c-.0388 0-.0777-.002-.116-.005h.2367zm-5.9723-3.08c-.0005.001-.001.002-.001.003l-.0458-.058c-.1303.399-.334.721-.591.93-.4893.4-.9425.298-1.2675-.239l-.0303.085s0-.001-.0006-.001l-.5553 1.561c.1378.179.2857.332.441.454.6133.478 1.2404.456 1.8585-.049.4468-.363.7979-.919 1.0378-1.623l-.8458-1.063zm-3.185.904a7.7641 7.7641 0 01-.166-.601c-.2522-1.101-.2644-2.241-.0516-3.335.2345-1.201.6824-2.12 1.2606-2.587.7277-.589 1.532-.472 2.2287.305.4426.477.7564 1.214.9947 2.257.0308.133.057.276.083.397l-4.3495 3.564zm1.452-4.755c-.516.417-.7824 1.328-.7276 2.396l2.1877-1.77c-.376-.832-.866-1.107-1.46-.626z"/>
        <path fill="#fbc707" fill-rule="nonzero" d="M49.677 7.4443c.1414-.089.2925-.1367.45-.1367.686 0 1.2586.9161 1.39 2.1343l.9725-.3734c-.2232-2.069-1.196-3.6269-2.3625-3.6269-.2677 0-.5245.0818-.7647.2329l.3147 1.7698z"/>
        <path fill="#38a7e4" fill-rule="nonzero" d="M48.5292 13.37l.6579-1.398c-.2937-.4891-.479-1.2026-.479-1.9976 0-.7946.185-1.5077.4784-1.9964L48.5286 6.58c-.4987.8304-.8132 2.0435-.8132 3.3945 0 1.3518.3148 2.5652.8138 3.3956"/>
        <path fill="#ef3120" fill-rule="nonzero" d="M51.5165 10.5097c-.1316 1.2169-.7038 2.1317-1.3896 2.1317-.1577 0-.3091-.0479-.4504-.1373l-.315 1.7702c.2402.1512.4976.2325.7654.2325 1.1654 0 2.1381-1.5547 2.3621-3.6227l-.9725-.3744z"/>
      </g>
      <g>
        <path fill="#2557d6" d="M74.2885 1.975c0-1.1039-.4767-2-1.0638-2H58.4124c-.5871 0-1.0638.8961-1.0638 2v16c0 1.1038.4767 2 1.0638 2h14.8123c.5871 0 1.0638-.8962 1.0638-2v-16z"/>
        <path fill="#fff" d="M57.3486 9.3671h.8137l.1835-.8284h.4107l.183.8284h1.601v-.6333l.1428.636h.8311l.143-.6455v.6428h3.9786l-.0019-1.3599h.077c.054.0036.0697.0129.0697.1795V9.367h2.0577v-.3165c.166.1664.4242.3165.7639.3165h.8657l.1853-.8284h.4107l.1812.8284h1.6682v-.7869l.2527.787h1.3368v-5.202H72.18v.6143l-.1853-.6144h-1.3576v.6144l-.17-.6144h-1.8338c-.307 0-.5768.0802-.7948.3038V4.165h-1.2654v.3038c-.1387-.2305-.3277-.3038-.5378-.3038H61.412l-.3102 1.3436-.3186-1.3436h-1.4561v.6144l-.16-.6144h-1.2419l-.5767 2.4733v2.7287zm5.1362-.7503h-.4882l-.0018-2.9212-.6906 2.9211h-.4181l-.6923-2.9237v2.9237h-.9686l-.183-.8319h-.9916l-.1848.832h-.5172l.8528-3.7299h.7075l.81 3.5314V4.887h.7772l.6232 2.5303.5725-2.5303h.793v3.7298zm-3.6054-1.606l-.3259-1.487-.3241 1.487h.65zm5.5483 1.6059h-1.5909V4.8869h1.5909v.7767H63.313v.6723h1.0878v.7645H63.313v.745h1.1146v.7713zm2.2418-2.7253c0 .5947-.212.902-.3355.9942.1042.0742.1931.2054.2355.314.0673.1856.0789.3513.0789.6844v.7327h-.4804l-.0018-.4704c0-.2244.0115-.5471-.0751-.7266-.0696-.1312-.1757-.1596-.3471-.1596h-.5112v1.3566h-.4763V4.887h1.0954c.2433 0 .4227.012.5766.1786.1507.1667.241.4099.241.826zm-.602.5538c-.0654.0744-.1428.0769-.2355.0769h-.5786v-.8285h.5864c.083 0 .1696.007.2259.0673.0617.0544.1.17.1.3297 0 .163-.0364.2943-.0982.3546zm1.3658 2.1715h-.486V4.8869h.486v3.7298zm5.6407 0h-.6748l-.9027-2.7994v2.7994h-.9699l-.1853-.832h-.9892l-.1798.832h-.5573c-.2315 0-.5245-.0958-.6905-.4125-.1674-.3167-.2544-.7457-.2544-1.424 0-.553.052-1.0588.2567-1.4584.154-.2977.395-.4349.7232-.4349h.461v.7992h-.4513c-.1738 0-.272.0484-.3665.221-.0812.157-.1369.4539-.1369.8448 0 .3996.0425.6877.131.876.0733.1475.2065.1923.3319.1923h.2138l.6712-2.9332h.7136l.8062 3.5279V4.887h.7251l.8371 2.5976V4.887h.4878v3.7296zm-2.8946-1.606l-.3296-1.4869-.3277 1.487h.6573zm4.1081 7.5616c-.1156.3167-.341.4772-.6462.4772h-.9197v-.8h.916c.0908 0 .1544-.0224.1927-.0923.0362-.0625.0566-.151.0563-.2433 0-.1088-.0231-.195-.0582-.2468-.0345-.0569-.0848-.0828-.1678-.0828-.4471-.0284-1.005.0259-1.005-1.1547 0-.5411.1836-1.1107.6833-1.1107h.9486v-.7422h-.8814c-.266 0-.4591.1192-.596.3046v-.3047h-1.3036c-.2084 0-.4531.0968-.5688.3047v-.3047h-2.328v.3047c-.1852-.2502-.4978-.3047-.642-.3047H66.432v.3047c-.1466-.2657-.4725-.3047-.6712-.3047h-1.7185l-.3932.7967-.3683-.7967h-2.5671v5.2056h2.5187l.4052-.8093.3817.8093 1.5526.0026v-1.2245h.1526c.206.006.449-.0096.6634-.183v1.4048h1.2806v-1.3567h.0617c.0789 0 .0866.006.0866.1535v1.2031h3.8902c.247 0 .5052-.1183.6481-.3331v.3331h1.234c.2568 0 .5075-.0674.6983-.24v-.9697zM66.5741 12.57c0 1.0363-.413 1.2503-.8293 1.2503h-.5941v1.2513h-.9256l-.5864-1.235-.6094 1.235h-1.8864V11.341h1.9154l.5859 1.2229.6057-1.2229h1.5217c.378 0 .8026.1959.8026 1.229zm-3.786 1.717h-1.171v-.7424h1.0456v-.7612h-1.0455v-.6782h1.194l.5208 1.0872-.544 1.0945zm1.8865.4271l-.7311-1.5197.7311-1.4713v2.991zm1.0814-1.6588h-.6155v-.9501h.621c.1719 0 .2912.1312.2912.4574 0 .3227-.1138.4927-.2967.4927zm3.224-1.7144h1.5894v.7716h-1.1151v.6782h1.0879v.7612h-1.088v.7422l1.1152.0034v.7741H68.98V11.341zm-.611 1.997c.106.0732.1926.2045.2332.3132.0673.1822.077.3521.079.681v.7395h-.4782v-.4667c0-.2245.0116-.5568-.077-.7303-.0695-.1336-.1756-.1656-.3493-.1656h-.509v1.3626h-.4785V11.341h1.0995c.241 0 .4167.02.573.176.1503.17.2448.403.2448.8285 0 .5955-.2122.8994-.3375.9925zm-.2692-.4716c-.0637.0707-.1425.0768-.2351.0768h-.5786v-.838h.5864c.0848 0 .1697.0035.2273.0675.0617.0604.0986.176.0986.3356 0 .1596-.0369.2882-.0986.358zm4.299.2376c.0928.1796.1425.4065.1425.7904 0 .8026-.2678 1.1772-.7481 1.1772h-.9275v-.8h.9237c.0904 0 .1544-.0224.1946-.0923.0327-.0577.0562-.1416.0562-.2434 0-.1087-.0254-.195-.058-.2467-.0365-.0569-.0867-.0828-.1697-.0828-.4453-.0284-1.003.026-1.003-1.1547 0-.5411.1816-1.1107.6808-1.1107h.9547v.794h-.8736c-.0866 0-.1429.0061-.1908.0674-.0521.0604-.0715.1501-.0715.2684 0 .1408.0443.2365.1042.278.0503.0326.1042.0422.1854.0422l.2563.013c.2585.0118.436.0955.5439.3zm1.8897-.9987h-.8679c-.0866 0-.1442.006-.1927.0674-.0502.0604-.0696.15-.0696.2684 0 .1408.0424.2365.1041.278.0503.0326.1042.0422.1836.0422l.258.013c.2605.012.4344.0958.5404.3002.0193.0285.0309.0604.0441.0924v-1.0616z"/>
      </g>
      <g>
        <path fill="#f47420" d="M93.3561 1.975c0-1.1039-.4767-2-1.0638-2H77.48c-.5872 0-1.0638.8961-1.0638 2v16c0 1.1038.4766 2 1.0638 2h14.8123c.5871 0 1.0638-.8962 1.0638-2v-16z"/>
        <path fill="#fff" fill-rule="nonzero" d="M78.6759 5.568v7.07h.8536V9.68H80.93v2.958h.8481v-7.07h-.848v2.7169h-1.4006V5.568h-.8536zM89.1228 10.582a7.0589 7.0589 0 00.0279-.6293c0-1.2692-.3347-2.5594-1.2164-2.5594-.9485 0-1.3781 1.437-1.3781 2.7378 0 1.6048.53 2.6118 1.4563 2.6118.3682 0 .7086-.1048.9875-.3147l-.1115-1.0804c-.2288.1364-.4631.2099-.7532.2099-.3962 0-.7421-.3148-.77-.9757h1.7575zm-1.7631-1.091c.0223-.43.1674-1.0383.5245-1.0383.3905 0 .4798.6503.4798 1.0384h-1.0043zM89.4225 12.638h.8481v-2.6014c0-.126.0055-.2517.0167-.3566.0558-.493.2678-.8077.5803-.8077.0948 0 .1674.021.2288.0419v-1.5c-.0614-.021-.1005-.021-.1786-.021-.2622 0-.597.3147-.7365 1.0595h-.0223l-.028-.944h-.7309c.0113.4405.0224.9335.0224 1.6887v3.4407z"/>
        <path fill="#ffe900" d="M82.6408 5.2834c.2408 0 .436.367.436.8197s-.1952.8197-.436.8197-.436-.367-.436-.8197c0-.4526.1952-.8197.436-.8197z"/>
        <path fill="#fff" d="M84.432 11.4431h.4256c.4273 0 .6207-.5145.6207-1.0511s-.0206-1.7503-.5489-1.7503c-.6068 0-.5084 1.5065-.5058 2.2952.0006.1687.006.3373.0083.5062zm-2.2272-3.9417h.872v2.8906c0 .5362.1583 1.0504.5083 1.0511.0024-1.3014-.0004-2.6413-.0236-3.9417h.7284c.016.2504.0305.5017.0435.7533.3442-1.294 1.4287-1.009 1.7938.0832.377 1.1283.5052 4.3587-1.2696 4.3587h-.4133c.004.6558.0046 1.3128.0046 1.9698h-.872c0-.6304.0024-1.291.0046-1.9699-.9424-.0062-1.3767-1.1312-1.3767-2.3045V7.5014z"/>
      </g>
      <g>
        <path fill="#4d4d4d" d="M99.5877 0c-.0274 0-.0496.0417-.0496.0932V.756c0 .0515.0222.0932.0496.0932h.604c.0275 0 .0497-.0417.0497-.0932V.0932c0-.0515-.0222-.0932-.0496-.0932h-.6041z"/>
        <path fill="#fff" d="M99.9124.2733c.0279 0 .0505.04.0505.0893 0 .0494-.0226.0895-.0505.0895-.028 0-.0505-.04-.0505-.0894V.3626c0-.0494.0226-.0893.0505-.0893zm-.0793.0011c.008 0 .0146.003.0227.0103v.0386c-.0077-.0133-.0143-.019-.0232-.019-.0173 0-.031.0255-.031.0578 0 .034.0132.058.0319.058.0084 0 .015-.0053.0223-.0184v.0386c-.0084.007-.0152.0097-.0232.0097-.0282 0-.05-.0383-.05-.0877 0-.0488.0224-.0879.0505-.0879zm-.0876.001c.0104 0 .02.0064.028.0187l-.0098.0225C99.759.307 99.7543.303 99.7487.303c-.0079 0-.0137.008-.0137.0186 0 .009.0032.0139.0144.0211.021.0137.0273.0258.0273.0525 0 .0325-.0135.0551-.0328.0551-.014 0-.0243-.0098-.0328-.032l.012-.0203c.0042.0146.0113.0224.0201.0224.0083 0 .0144-.0101.0144-.0237a.0261.0261 0 00-.0055-.0174.0647.0647 0 00-.0128-.0096c-.0174-.011-.0234-.023-.0234-.046 0-.0276.0128-.0482.0296-.0482zm.2116.003h.0203l.0253.1129.0256-.1129h.0201l-.041.1724h-.01l-.0403-.1724zm-.3582.0003h.0272c.03 0 .051.0345.051.0841 0 .0247-.0065.0486-.0173.0645-.0091.0134-.0195.0194-.0339.0194h-.027v-.168zm.0867 0h.0185v.168h-.0185v-.168zm.3712 0h.0525V.307h-.034v.0373h.0328V.373h-.0328v.0454h.034v.0284h-.0525v-.168zm.0648 0h.0274c.0214 0 .0336.0181.0336.0496 0 .0257-.0076.0426-.0216.0476l.0299.0708h-.0228l-.0256-.0675h-.0024v.0675h-.0185v-.168zm.0185.0264v.051h.0054c.0118 0 .018-.0092.018-.026 0-.0164-.0062-.025-.0177-.025h-.0057zm-.5227.002v.1112h.005c.012 0 .0195-.0041.0253-.0134a.0837.0837 0 00.0103-.0423.0818.0818 0 00-.0103-.0419c-.0061-.0098-.0134-.0136-.0253-.0136h-.005z"/>
        <path fill="#f47216" d="M100.2413.4888c-.0234.031-.1993.2531-.5037.3604h.4542c.0273 0 .0495-.0418.0495-.0933V.4888z"/>
        <path fill="#0e4c96" d="M112.4229 2.001c0-1.1038-.4767-2-1.0639-2H96.5476c-.5871 0-1.0638.8962-1.0638 2V18c0 1.1038.4767 2 1.0638 2h14.8114c.5872 0 1.0639-.8962 1.0639-2V2.001z"/>
        <path fill="#fff" d="M109.4245 14.725c0 1.767-.7618 3.1997-1.702 3.1997h-9.2403V5.2766c0-1.7675.7619-3.2003 1.7021-3.2003h9.2402v12.6486z"/>
        <path fill="url(#_Linear2)" d="M483.859 242.045c11.684.253 23.437-.516 35.077.4 11.787 2.2 14.628 20.043 4.156 25.888-7.141 3.85-15.633 1.432-23.379 2.113H483.86v-28.401h-.001zm41.833-32.145c2.596 9.165-6.238 17.392-15.066 16.13h-26.767c.185-8.642-.368-18.021.272-26.208 10.724.301 21.549-.616 32.21.48 4.58 1.15 8.413 4.916 9.35 9.598h.001zM590.12 73.997c.498 17.501.071 35.927.214 53.783-.035 72.596.072 145.194-.055 217.79-.469 27.207-24.582 50.844-51.6 51.387-27.046.111-54.095.016-81.142.047v-109.75c29.47-.154 58.959.307 88.417-.232 13.667-.86 28.632-9.876 29.27-24.915 1.61-15.102-12.632-25.55-26.153-27.201-5.198-.135-5.044-1.515 0-2.117 12.892-2.787 23.02-16.133 19.226-29.499-3.236-14.058-18.773-19.499-31.697-19.472-26.351-.18-52.709-.026-79.063-.077.172-20.489-.354-41 .286-61.474 2.087-26.716 26.806-48.747 53.447-48.27h78.85z" transform="matrix(.02259 0 0 .04246 95.4838 .001)"/>
        <path fill="url(#_Linear3)" d="M159.74 125.04c.674-27.163 24.889-50.611 51.875-51.007 26.944-.083 53.891-.012 80.837-.036-.074 90.885.148 181.777-.112 272.658-1.038 26.834-24.99 49.834-51.679 50.307-26.996.099-53.995.014-80.992.042V283.551c26.223 6.194 53.722 8.832 80.473 4.721 15.993-2.575 33.488-10.424 38.902-27.014 3.986-14.192 1.742-29.126 2.334-43.692v-33.824h-46.297c-.208 22.37.426 44.78-.335 67.125-1.248 13.734-14.846 22.46-27.8 21.995-16.066.169-47.898-11.64-47.898-11.64-.08-41.917.466-94.408.692-136.182z" transform="matrix(.02259 0 0 .04246 95.4838 .001)"/>
        <path fill="url(#_Linear4)" d="M309.72 197.39c-2.434.517-.49-8.3-1.114-11.646.166-21.15-.346-42.323.284-63.458 2.083-26.829 26.991-48.916 53.739-48.288h78.766c-.074 90.884.147 181.775-.112 272.656-1.039 26.834-24.992 49.833-51.68 50.308-26.998.1-53.998.015-80.997.043V272.708c18.44 15.128 43.5 17.484 66.472 17.525 17.317-.006 34.534-2.675 51.35-6.67V260.79c-18.953 9.447-41.233 15.446-62.243 10.018-14.656-3.65-25.294-17.811-25.056-32.936-1.699-15.728 7.524-32.335 22.981-37.011 19.19-6.008 40.108-1.413 58.096 6.398 3.855 2.018 7.765 4.521 6.222-1.921v-17.9c-30.084-7.157-62.101-9.792-92.329-2.004-8.748 2.468-17.27 6.21-24.379 11.956z" transform="matrix(.02259 0 0 .04246 95.4838 .001)"/>
      </g>
      <g>
        <path fill="#0079be" d="M131.491 2c0-1.1038-.4767-2-1.0639-2h-14.8123c-.5871 0-1.0638.8962-1.0638 2v16c0 1.1038.4767 2 1.0638 2h14.8123c.5872 0 1.0639-.8962 1.0639-2V2z"/>
        <path fill="#fff" d="M127.7627 10.1039c0-4.2214-1.8743-7.1394-3.9277-7.138h-1.7672c-2.078-.0014-3.7885 2.9174-3.7885 7.138 0 3.8611 1.7104 7.0335 3.7885 7.015h1.7672c2.0534.0185 3.9277-3.1547 3.9277-7.015z"/>
        <path fill="#0079be" d="M122.0787 3.5639c-1.8989.0011-3.4376 2.9006-3.438 6.479.0004 3.5778 1.5391 6.477 3.438 6.4781 1.8993-.0011 3.4383-2.9003 3.4385-6.4781-.0002-3.5784-1.5392-6.4779-3.4385-6.479z"/>
        <path fill="#fff" d="M119.9055 10.0254c.0018-1.7486.5815-3.2398 1.399-3.8323v7.6637c-.8175-.5922-1.3972-2.0825-1.399-3.8314zm2.9589 3.8333V6.1931c.8178.591 1.3984 2.083 1.3999 3.8325-.0015 1.75-.5821 3.2409-1.4 3.8331z"/>
      </g>
      <g>
        <path fill="#fff200" fill-rule="nonzero" d="M146.1352 9.653c1.565.588 2.8389 1.384 3.8474 2.064v6.648c-.0915.93-.5256 1.635-1.0463 1.635h-14.3617c-.5872 0-1.0638-.896-1.0638-2v-7.036c1.0696-.554 2.0893-.985 3.0606-1.311h9.5638z"/>
        <path fill-rule="nonzero" d="M148.9363 0c.5271 0 .9654.722 1.0495 1.668L150 9.429c-1.9883-1.389-8.3154-4.714-16.4893-.571V2c0-1.104.4766-2 1.0638-2h14.3617z"/>
        <path fill="#ed1c24" fill-rule="nonzero" d="M149.9825 12.4568c-2.9707-1.8262-8.2514-4.5626-16.4717-.6858V8.8579c8.1741-4.143 14.501-.8137 16.4894.5707l-.0177 3.0282z"/>
        <path fill="#fff200" fill-rule="nonzero" d="M138.758 7.0816c.4075-2.0691 1.3403-3.8558 2.9611-3.836 1.6208.0197 2.7017 1.7204 2.9935 3.9453-2.0885-.3987-3.4808-.4685-5.9547-.1093z"/>
        <path fill-rule="nonzero" stroke="#2c328c" stroke-width=".22" d="M58.15 139.18l17.43-26H82l18.57 26h-6.8l-5.29-7.87h-19l-5 7.87h-6.33zm13.09-10.67h15.39l-4.74-7.19a54.0285 54.0285 0 01-3.21-5.39 23.4473 23.4473 0 01-2.45 5l-5 7.61.01-.03zm59.86 10.67v-2.76c-2.567 2.127-6.047 3.19-10.44 3.19-1.829.014-3.653-.197-5.43-.63-1.342-.275-2.614-.82-3.74-1.6a5.1281 5.1281 0 01-1.72-2.36 9.6731 9.6731 0 01-.34-3v-11.65H115v10.43c-.061 1.134.053 2.271.34 3.37a3.923 3.923 0 002.23 2c1.346.512 2.78.753 4.22.71 1.596.013 3.183-.234 4.7-.73a6.0052 6.0052 0 003.11-2 6.2234 6.2234 0 00.92-3.68v-10.1h5.57v18.81h-4.99zm18.5 0v-18.81h5v2.85c.984-1.12 2.194-2.02 3.55-2.64a9.6962 9.6962 0 013.57-.64c1.953.005 3.891.343 5.73 1l-1.92 3c-1.311-.459-2.69-.696-4.08-.7a8.2327 8.2327 0 00-3.29.63c-.867.334-1.597.951-2.07 1.75a7.553 7.553 0 00-.93 3.72v9.85l-5.56-.01zm47.47-2.32a27.0138 27.0138 0 01-6 2.13c-2.022.424-4.084.631-6.15.62-3.61 0-6.38-.5-8.33-1.51-1.95-1.01-2.91-2.3-2.91-3.87a3.542 3.542 0 011.1-2.53c.81-.814 1.79-1.438 2.87-1.83a19.754 19.754 0 014-1c1.09-.16 2.74-.33 4.94-.48 3.332-.171 6.651-.538 9.94-1.1v-.83c.086-1.149-.543-2.239-1.58-2.74a14.4128 14.4128 0 00-6.34-1.08c-1.969-.097-3.939.171-5.81.79a5.2008 5.2008 0 00-2.77 2.79l-5.44-.43a6.8468 6.8468 0 012.44-3.23 12.8703 12.8703 0 014.92-1.9c2.458-.47 4.957-.691 7.46-.66 2.293-.044 4.585.147 6.84.57 1.37.233 2.686.718 3.88 1.43a4.6275 4.6275 0 011.73 2.17c.226.963.316 1.952.27 2.94v4.25c-.088 1.881.032 3.766.36 5.62.28.857.764 1.632 1.41 2.26h-5.82a4.7784 4.7784 0 01-1.11-2.32l.1-.06zm-.47-7.12a67.0235 67.0235 0 01-9.1 1.21 34.411 34.411 0 00-4.86.63 5.067 5.067 0 00-2.2 1 2.003 2.003 0 00-.78 1.51c0 .85.57 1.56 1.69 2.13 1.56.647 3.244.937 4.93.85 1.94.033 3.873-.237 5.73-.8a7.8402 7.8402 0 003.69-2.21c.664-.925.983-2.054.9-3.19v-1.13z" transform="matrix(.06329 0 0 .11625 133.5108 0)"/>
      </g>
    </g>
  </g>
  <defs>
    <linearGradient id="_Linear2" x1="0" x2="1" y1="0" y2="0" gradientTransform="translate(457.538 235.501) scale(132.797)" gradientUnits="userSpaceOnUse">
      <stop offset="0" stop-color="#007b40"/>
      <stop offset="1" stop-color="#55b330"/>
    </linearGradient>
    <linearGradient id="_Linear3" x1="0" x2="1" y1="0" y2="0" gradientTransform="translate(159.67 235.501) scale(132.782)" gradientUnits="userSpaceOnUse">
      <stop offset="0" stop-color="#1d2970"/>
      <stop offset="1" stop-color="#006dba"/>
    </linearGradient>
    <linearGradient id="_Linear4" x1="0" x2="1" y1="0" y2="0" gradientTransform="translate(308.607 235.502) scale(132.788)" gradientUnits="userSpaceOnUse">
      <stop offset="0" stop-color="#6e2b2f"/>
      <stop offset="1" stop-color="#e30138"/>
    </linearGradient>
  </defs>
</svg>