<svg viewBox="0 0 68 20" xmlns="http://www.w3.org/2000/svg" fill-rule="evenodd" clip-rule="evenodd" stroke-linejoin="round" stroke-miterlimit="2"><path d="M31.85 2a2 2 0 00-2-2H2a2 2 0 00-2 2v16c0 1.1.9 2 2 2h27.85a2 2 0 002-2V2z" fill="#f1f1f1"/><path d="M26.28 17.92l-.12.04a.17.17 0 00-.06.13c0 .05.02.1.06.13.03.03.08.05.12.05.05 0 .1-.02.13-.05a.17.17 0 00.06-.13c0-.05-.02-.1-.06-.13l-.13-.04zm0 .3a.13.13 0 01-.12-.13c0-.07.05-.13.12-.13.07 0 .13.06.13.13s-.06.13-.13.13zm0-.22h-.08v.17h.04v-.04l.04.04h.05l-.05-.04.05-.04v-.04l-.05-.05zm0 .05l.05.04h-.09v-.04h.04zm-19.49.12h-.38v-1.74h.38v.21s.34-.25.51-.25c.39 0 .6.3.6.3s.17-.3.6-.3c.59 0 .67.55.67.55v1.23H8.8v-1.1s0-.34-.38-.34-.43.34-.43.34v1.1H7.6v-1.1s-.04-.34-.34-.34c-.47 0-.47.34-.47.34v1.1zm11.3-1.78c-.17 0-.51.25-.51.25v-.2h-.34v1.73h.38l-.04-1.1s.04-.34.47-.34l.17.04.13-.34-.26-.04zm5.27 0c-.22 0-.51.25-.51.25v-.2h-.39v1.73h.39v-1.1s0-.34.42-.34l.21.04.13-.34-.25-.04zm-13 0c-.55 0-.85.47-.85.9 0 .42.34.93.9.93.3 0 .54-.22.54-.22v.17h.35v-1.74h-.35v.21s-.25-.25-.59-.25zm.09.34c.3 0 .55.25.55.6 0 .3-.26.55-.55.55a.56.56 0 01-.56-.55c0-.34.26-.6.56-.6zm10.57-.34c-.55 0-.85.47-.85.9 0 .42.34.93.9.93.29 0 .54-.22.54-.22v.17H22v-1.74h-.39v.21s-.25-.25-.6-.25zm.08.34c.3 0 .56.25.56.6 0 .3-.26.55-.56.55a.56.56 0 01-.55-.55c0-.34.26-.6.55-.6zm3.44-.34c-.55 0-.85.47-.85.9 0 .42.34.93.9.93.3 0 .55-.22.55-.22v.17h.38v-2.42h-.38v.9s-.26-.26-.6-.26zm.09.34c.3 0 .55.25.55.6 0 .3-.25.55-.55.55a.56.56 0 01-.55-.55c0-.34.25-.6.55-.6zm-12.19 1.49c-.38 0-.72-.22-.72-.22l.13-.25s.34.13.6.13c.12 0 .37-.05.42-.17 0-.17-.47-.21-.47-.21s-.64-.05-.64-.56c0-.34.34-.55.73-.55.25 0 .72.21.72.21l-.22.26-.5-.13c-.18 0-.35.09-.35.21 0 .34 1.07-.04 1.07.72 0 .47-.43.56-.77.56zm1.4-2.3v.51h-.34v.39h.34v.84s-.04.6.6.6l.5-.13-.12-.38s-.17.13-.3.13c-.3-.05-.3-.21-.3-.21v-.86h.6v-.38h-.6v-.5h-.38zm2.21.47c-.64 0-.93.51-.89.93 0 .43.25.94.9.94.29 0 .67-.26.67-.26l-.17-.3s-.25.22-.5.22c-.48 0-.52-.47-.52-.47h1.27s.13-1.06-.76-1.06zm-.08.34H16c.47 0 .47.43.47.43h-.94s0-.39.43-.43zm3.82.98l.17.34s-.26.17-.55.17a.92.92 0 01-.98-.94c0-.68.55-.89.93-.89.34 0 .64.21.64.21l-.21.34s-.09-.21-.43-.21c-.34 0-.55.3-.55.6s.21.55.55.55c.22 0 .43-.17.43-.17z"/><path d="M26.54 11.85v-.26h-.08l-.1.17-.03-.17h-.09v.26h.04v-.21l.09.16h.04l.05-.17v.22h.08zm-.42 0v-.21h.08v-.05h-.17v.04h.04v.22h.05zm.42-3.48a6.6 6.6 0 01-6.56 6.56 6.6 6.6 0 01-6.56-6.56 6.6 6.6 0 016.56-6.56 6.6 6.6 0 016.56 6.55z" fill="#f79f1a"/><path d="M18.43 8.37a6.6 6.6 0 01-6.56 6.56A6.6 6.6 0 015.3 8.37a6.6 6.6 0 016.56-6.56 6.6 6.6 0 016.56 6.55z" fill="#ea001b"/><path d="M15.92 3.19a6.58 6.58 0 000 10.31 6.58 6.58 0 000-10.31z" fill="#ff5f01"/><g><path d="M67.7 2a2 2 0 00-2-2H37.84a2 2 0 00-2 2v16c0 1.1.9 2 2 2h27.84a2 2 0 002-2V2z" fill="#0e4595"/><path d="M47.65 14.18l1.45-8.32h2.25l-1.4 8.32h-2.3zm10.45-8.1a5.58 5.58 0 00-2.04-.39c-2.2 0-3.78 1.15-3.82 2.76 0 1.19 1.14 1.87 2 2.25.89.43 1.18.68 1.18 1.06 0 .55-.72.8-1.36.8-.93 0-1.4-.12-2.12-.46l-.3-.13-.34 1.87c.56.26 1.53.43 2.55.47 2.38 0 3.9-1.15 3.95-2.85 0-.97-.6-1.7-1.91-2.29-.8-.38-1.27-.63-1.27-1.02 0-.34.38-.72 1.27-.72.76 0 1.27.17 1.7.34l.21.09.3-1.79m5.86-.21h-1.79c-.5 0-.93.17-1.18.72l-3.36 7.6h2.38l.47-1.23h2.92l.26 1.23h2.12l-1.82-8.32zm-2.8 5.4l.89-2.34.34-.81.12.72.51 2.42h-1.87zm-15.42-5.4l-2.2 5.69-.26-1.15a6.55 6.55 0 00-3.14-3.48l2.03 7.26h2.38l3.57-8.32h-2.38" fill="#fff"/><path d="M41.45 5.86H37.8l-.04.21c2.84.68 4.71 2.34 5.52 4.33l-.8-3.82c-.14-.5-.52-.68-1.03-.72" fill="#f2ae14"/></g></svg>