<?xml version="1.0" encoding="UTF-8" standalone="no"?>
<!DOCTYPE svg PUBLIC "-//W3C//DTD SVG 1.1//EN" "http://www.w3.org/Graphics/SVG/1.1/DTD/svg11.dtd">
<svg width="100%" height="100%" viewBox="0 0 94 20" version="1.1" xmlns="http://www.w3.org/2000/svg" xmlns:xlink="http://www.w3.org/1999/xlink" xml:space="preserve" xmlns:serif="http://www.serif.com/" style="fill-rule:evenodd;clip-rule:evenodd;stroke-linejoin:round;stroke-miterlimit:2;">
    <g id="Prancheta1" transform="matrix(4.75,0,0,1,0,0)">
        <rect x="0" y="0" width="20" height="20" style="fill:none;"/>
        <clipPath id="_clip1">
            <rect x="0" y="0" width="20" height="20"/>
        </clipPath>
        <g clip-path="url(#_clip1)">
            <g transform="matrix(0.116959,0,0,0.555556,0,0)">
                <g>
                    <circle cx="18" cy="18" r="18" style="fill:rgb(136,201,249);"/>
                    <path d="M30.13,23.748C29.113,23.358 29.294,23.5 28.667,22.167C28.04,20.835 27.66,20.406 26.25,20.25C24.839,20.095 24.892,20.205 24.5,19.5C24.108,18.794 22.518,19.691 21.5,20.084C20.479,20.476 20.731,21.33 20.417,21.25C20.102,21.172 19.31,20.969 18.524,20.343C17.74,19.715 19.107,19.225 19.5,18.834C19.893,18.441 18.76,18.655 18.367,18.418C17.974,18.184 17.271,18.889 16.644,18.26C16.016,17.633 16.409,16.692 16.331,15.908C16.252,15.123 17.349,14.967 18.055,14.81C18.76,14.654 19.308,14.811 19.308,15.751C19.308,16.692 20.171,17.006 19.936,15.907C19.701,14.808 20.171,14.496 20.486,13.947C20.799,13.398 21.348,12.613 22.053,11.437C22.759,10.261 23.23,10.809 24.092,10.893C24.955,10.978 25.19,10.81 25.817,10.889C26.442,10.968 25.817,10.105 26.053,9.243C26.287,8.381 27.15,8.537 28.014,8.773C28.876,9.008 27.15,7.674 26.837,6.969C26.522,6.263 25.66,6.969 25.113,5.793C24.56,4.617 23.789,3.856 23.083,3.751C22.377,3.645 23.308,5.245 22.759,6.107C22.208,6.969 21.364,6.834 20.499,6.834C19.638,6.834 18.838,6.107 19.466,5.009C20.092,3.912 21.289,4.025 21.916,3.084C22.544,2.144 19.686,2.23 18.666,1.917C17.646,1.603 16.422,1.606 15.403,2.39C14.383,3.173 12.202,3.418 11.339,3.731C10.477,4.044 10.322,3.211 10.166,2.583C10.096,2.304 9.778,2.216 9.33,2.226C7.11,3.45 5.187,5.138 3.664,7.147C3.901,7.954 5.049,6.958 5.274,6.733C5.509,6.498 6.685,6.812 6.841,7.674C6.998,8.536 6.92,9.479 6.607,10.263C6.293,11.046 7.391,12.144 8.018,13.242C8.646,14.341 9.351,14.34 9.665,14.34C9.978,14.34 11.782,15.046 11.703,15.908C11.625,16.771 13.35,17.554 14.056,18.103C14.762,18.654 15.208,19.195 16.124,19.353C17.041,19.511 18.113,21.01 18.583,21.168C18.944,21.288 19.555,21.865 19.924,22.044C19.439,22.658 18.5,23.919 18.5,24.5C18.5,25.286 19.525,26.521 19.917,26.834C20.308,27.146 21.434,27.384 21.667,28.167C21.903,28.951 21.503,31.59 20.799,32.295C20.091,33 19.834,34.667 19.834,34.667C19.834,34.667 20.083,35.208 20.917,34.667C21.839,34.07 23.383,32.37 24,32C25.176,31.293 26.319,30.435 27.417,29.417C28.515,28.398 28.117,27.684 28.667,26.667C29.216,25.648 29.926,25.694 30.866,24.834C31.808,23.97 31.15,24.141 30.13,23.748Z" style="fill:rgb(92,145,59);fill-rule:nonzero;"/>
                </g>
            </g>
            <g transform="matrix(0.395789,0,0,1,5.74861,0)">
                <g>
                    <path d="M16.94,2C16.94,0.896 16.463,0 15.876,0L1.064,0C0.477,0 0,0.896 0,2L0,18C0,19.104 0.477,20 1.064,20L15.876,20C16.463,20 16.94,19.104 16.94,18L16.94,2L16.94,2Z" style="fill:rgb(241,241,241);"/>
                    <path d="M13.981,17.919L13.913,17.962C13.894,17.994 13.883,18.04 13.883,18.089C13.883,18.138 13.894,18.184 13.913,18.217C13.931,18.253 13.955,18.274 13.981,18.274C14.007,18.274 14.032,18.253 14.049,18.217C14.068,18.184 14.079,18.138 14.079,18.089C14.079,18.04 14.068,17.994 14.049,17.962L13.981,17.919ZM13.981,18.217C13.944,18.217 13.913,18.159 13.913,18.089C13.913,18.019 13.944,17.962 13.981,17.962C14.018,17.962 14.049,18.019 14.049,18.089C14.049,18.159 14.018,18.217 13.981,18.217ZM13.981,18.004L13.936,18.004L13.936,18.174L13.959,18.174L13.959,18.132L13.981,18.174L14.004,18.174L13.981,18.132L14.004,18.089L14.004,18.047L13.981,18.004ZM13.981,18.047L14.004,18.089L13.959,18.089L13.959,18.047L13.981,18.047ZM3.614,18.174L3.411,18.174L3.411,16.433L3.614,16.433L3.614,16.645C3.614,16.645 3.795,16.391 3.885,16.391C4.088,16.391 4.201,16.688 4.201,16.688C4.201,16.688 4.292,16.391 4.517,16.391C4.834,16.391 4.879,16.943 4.879,16.943L4.879,18.174L4.676,18.174L4.676,17.07C4.676,17.07 4.676,16.73 4.472,16.73C4.269,16.73 4.246,17.07 4.246,17.07L4.246,18.174L4.043,18.174L4.043,17.07C4.043,17.07 4.02,16.73 3.862,16.73C3.614,16.73 3.614,17.07 3.614,17.07L3.614,18.174L3.614,18.174ZM9.622,16.391C9.532,16.391 9.351,16.645 9.351,16.645L9.351,16.433L9.17,16.433L9.17,18.174L9.374,18.174L9.351,17.07C9.351,17.07 9.374,16.73 9.599,16.73L9.69,16.773L9.758,16.433L9.622,16.391ZM12.423,16.391C12.31,16.391 12.152,16.645 12.152,16.645L12.152,16.433L11.948,16.433L11.948,18.174L12.152,18.174L12.152,17.07C12.152,17.07 12.152,16.73 12.378,16.73L12.49,16.773L12.558,16.433L12.423,16.391ZM5.511,16.391C5.218,16.391 5.059,16.858 5.059,17.282C5.059,17.707 5.24,18.216 5.534,18.216C5.692,18.216 5.827,18.004 5.827,18.004L5.827,18.174L6.008,18.174L6.008,16.433L5.827,16.433L5.827,16.645C5.827,16.645 5.692,16.391 5.511,16.391ZM5.556,16.73C5.714,16.73 5.85,16.985 5.85,17.325C5.85,17.622 5.714,17.877 5.556,17.877C5.398,17.877 5.263,17.622 5.263,17.325C5.263,16.985 5.398,16.73 5.556,16.73ZM11.18,16.391C10.887,16.391 10.729,16.858 10.729,17.282C10.729,17.707 10.909,18.216 11.203,18.216C11.361,18.216 11.497,18.004 11.497,18.004L11.497,18.174L11.7,18.174L11.7,16.433L11.497,16.433L11.497,16.645C11.497,16.645 11.361,16.391 11.18,16.391L11.18,16.391ZM11.226,16.73C11.384,16.73 11.519,16.985 11.519,17.325C11.519,17.622 11.384,17.877 11.226,17.877C11.068,17.877 10.932,17.622 10.932,17.325C10.932,16.985 11.067,16.73 11.226,16.73ZM13.055,16.391C12.761,16.391 12.603,16.858 12.603,17.282C12.603,17.707 12.784,18.216 13.078,18.216C13.236,18.216 13.371,18.004 13.371,18.004L13.371,18.174L13.575,18.174L13.575,15.754L13.371,15.754L13.371,16.645C13.371,16.645 13.236,16.391 13.055,16.391ZM13.1,16.73C13.258,16.73 13.394,16.985 13.394,17.325C13.394,17.622 13.258,17.877 13.1,17.877C12.942,17.877 12.807,17.622 12.807,17.325C12.807,16.985 12.942,16.73 13.1,16.73ZM6.618,18.217C6.415,18.217 6.234,18.004 6.234,18.004L6.302,17.75C6.302,17.75 6.483,17.877 6.618,17.877C6.686,17.877 6.821,17.834 6.844,17.707C6.844,17.537 6.595,17.495 6.595,17.495C6.595,17.495 6.257,17.452 6.257,16.943C6.257,16.603 6.437,16.391 6.641,16.391C6.776,16.391 7.025,16.603 7.025,16.603L6.912,16.858L6.641,16.73C6.55,16.73 6.46,16.815 6.46,16.943C6.46,17.282 7.025,16.9 7.025,17.665C7.025,18.132 6.799,18.217 6.618,18.217ZM7.363,15.924L7.363,16.433L7.183,16.433L7.183,16.815L7.363,16.815L7.363,17.665C7.363,17.665 7.341,18.259 7.68,18.259L7.951,18.132L7.883,17.749C7.883,17.749 7.793,17.877 7.725,17.877C7.567,17.834 7.567,17.665 7.567,17.665L7.567,16.815L7.883,16.815L7.883,16.433L7.567,16.433L7.567,15.924L7.363,15.924L7.363,15.924ZM8.538,16.391C8.199,16.391 8.041,16.9 8.064,17.325C8.064,17.75 8.199,18.259 8.538,18.259C8.696,18.259 8.899,18.004 8.899,18.004L8.809,17.707C8.809,17.707 8.673,17.919 8.538,17.919C8.289,17.919 8.267,17.452 8.267,17.452L8.944,17.452C8.944,17.452 9.012,16.391 8.538,16.391ZM8.493,16.73L8.515,16.73C8.764,16.73 8.764,17.155 8.764,17.155L8.267,17.155C8.267,17.155 8.267,16.773 8.493,16.73ZM10.526,17.707L10.616,18.047C10.616,18.047 10.48,18.217 10.322,18.217C9.983,18.217 9.803,17.75 9.803,17.282C9.803,16.603 10.096,16.391 10.3,16.391C10.48,16.391 10.638,16.603 10.638,16.603L10.525,16.943C10.525,16.943 10.48,16.73 10.3,16.73C10.119,16.73 10.006,17.028 10.006,17.325C10.006,17.622 10.119,17.877 10.3,17.877C10.413,17.877 10.526,17.707 10.526,17.707Z"/>
                    <path d="M14.117,11.847L14.117,11.592L14.072,11.592L14.026,11.762L14.004,11.592L13.959,11.592L13.959,11.847L13.981,11.847L13.981,11.635L14.026,11.805L14.049,11.805L14.072,11.635L14.072,11.847L14.117,11.847ZM13.891,11.847L13.891,11.635L13.936,11.635L13.936,11.592L13.846,11.592L13.846,11.635L13.868,11.635L13.868,11.847L13.891,11.847ZM14.117,8.365C14.117,11.964 12.541,14.926 10.627,14.926C8.713,14.926 7.137,11.964 7.137,8.365C7.137,4.766 8.713,1.805 10.627,1.805C12.541,1.805 14.117,4.766 14.117,8.365Z" style="fill:rgb(247,159,26);"/>
                    <path d="M9.803,8.365C9.803,11.964 8.227,14.926 6.313,14.926C4.399,14.926 2.823,11.964 2.823,8.365C2.823,4.766 4.399,1.805 6.313,1.805C8.227,1.805 9.803,4.766 9.803,8.365Z" style="fill:rgb(234,0,27);"/>
                    <path d="M8.47,3.185C7.632,4.432 7.143,6.335 7.143,8.344C7.143,10.353 7.632,12.256 8.47,13.503C9.308,12.256 9.797,10.353 9.797,8.344C9.797,6.335 9.308,4.432 8.47,3.185Z" style="fill:rgb(255,95,1);"/>
                </g>
                <g>
                    <path d="M36.008,2C36.008,0.896 35.531,0 34.944,0L20.131,0C19.544,0 19.068,0.896 19.068,2L19.068,18C19.068,19.104 19.544,20 20.131,20L34.944,20C35.531,20 36.008,19.104 36.008,18L36.008,2Z" style="fill:rgb(14,69,149);"/>
                    <path d="M25.347,14.183L26.115,5.86L27.312,5.86L26.566,14.183L25.347,14.183ZM30.903,6.072C30.677,5.902 30.293,5.69 29.819,5.69C28.644,5.69 27.809,6.837 27.786,8.45C27.786,9.639 28.396,10.319 28.848,10.701C29.322,11.125 29.48,11.38 29.48,11.762C29.48,12.314 29.096,12.569 28.757,12.569C28.26,12.569 28.012,12.442 27.628,12.102L27.47,11.975L27.289,13.843C27.583,14.098 28.102,14.268 28.644,14.31C29.909,14.31 30.722,13.164 30.745,11.465C30.745,10.488 30.429,9.766 29.728,9.172C29.299,8.79 29.051,8.535 29.051,8.153C29.051,7.813 29.254,7.431 29.728,7.431C30.135,7.431 30.406,7.601 30.632,7.771L30.745,7.856L30.903,6.072M34.02,5.86L33.071,5.86C32.8,5.86 32.574,6.03 32.439,6.582L30.655,14.183L31.919,14.183L32.168,12.951L33.726,12.951L33.862,14.183L34.991,14.183L34.02,5.86ZM32.529,11.253L33.004,8.917L33.184,8.11L33.252,8.832L33.523,11.253L32.529,11.253ZM24.33,5.86L23.156,11.55L23.02,10.404C22.794,9.087 22.117,7.643 21.349,6.922L22.433,14.183L23.698,14.183L25.595,5.86L24.33,5.86" style="fill:white;"/>
                    <path d="M22.049,5.86L20.107,5.86L20.084,6.072C21.597,6.752 22.591,8.408 23.02,10.403L22.591,6.582C22.523,6.072 22.32,5.902 22.049,5.86" style="fill:rgb(242,174,20);"/>
                </g>
            </g>
        </g>
    </g>
</svg>
