<?xml version="1.0" encoding="UTF-8" standalone="no"?>
<!DOCTYPE svg PUBLIC "-//W3C//DTD SVG 1.1//EN" "http://www.w3.org/Graphics/SVG/1.1/DTD/svg11.dtd">
<svg width="100%" height="100%" viewBox="0 0 20 20" version="1.1" xmlns="http://www.w3.org/2000/svg" xmlns:xlink="http://www.w3.org/1999/xlink" xml:space="preserve" xmlns:serif="http://www.serif.com/" style="fill-rule:evenodd;clip-rule:evenodd;stroke-linejoin:round;stroke-miterlimit:2;">
    <g transform="matrix(0.773333,0,0,1,0,0)">
        <g transform="matrix(0.718391,0,0,0.555556,0,0)">
            <circle cx="18" cy="18" r="18" style="fill:rgb(136,201,249);"/>
            <path d="M30.13,23.748C29.113,23.358 29.294,23.5 28.667,22.167C28.04,20.835 27.66,20.406 26.25,20.25C24.839,20.095 24.892,20.205 24.5,19.5C24.108,18.794 22.518,19.691 21.5,20.084C20.479,20.476 20.731,21.33 20.417,21.25C20.102,21.172 19.31,20.969 18.524,20.343C17.74,19.715 19.107,19.225 19.5,18.834C19.893,18.441 18.76,18.655 18.367,18.418C17.974,18.184 17.271,18.889 16.644,18.26C16.016,17.633 16.409,16.692 16.331,15.908C16.252,15.123 17.349,14.967 18.055,14.81C18.76,14.654 19.308,14.811 19.308,15.751C19.308,16.692 20.171,17.006 19.936,15.907C19.701,14.808 20.171,14.496 20.486,13.947C20.799,13.398 21.348,12.613 22.053,11.437C22.759,10.261 23.23,10.809 24.092,10.893C24.955,10.978 25.19,10.81 25.817,10.889C26.442,10.968 25.817,10.105 26.053,9.243C26.287,8.381 27.15,8.537 28.014,8.773C28.876,9.008 27.15,7.674 26.837,6.969C26.522,6.263 25.66,6.969 25.113,5.793C24.56,4.617 23.789,3.856 23.083,3.751C22.377,3.645 23.308,5.245 22.759,6.107C22.208,6.969 21.364,6.834 20.499,6.834C19.638,6.834 18.838,6.107 19.466,5.009C20.092,3.912 21.289,4.025 21.916,3.084C22.544,2.144 19.686,2.23 18.666,1.917C17.646,1.603 16.422,1.606 15.403,2.39C14.383,3.173 12.202,3.418 11.339,3.731C10.477,4.044 10.322,3.211 10.166,2.583C10.096,2.304 9.778,2.216 9.33,2.226C7.11,3.45 5.187,5.138 3.664,7.147C3.901,7.954 5.049,6.958 5.274,6.733C5.509,6.498 6.685,6.812 6.841,7.674C6.998,8.536 6.92,9.479 6.607,10.263C6.293,11.046 7.391,12.144 8.018,13.242C8.646,14.341 9.351,14.34 9.665,14.34C9.978,14.34 11.782,15.046 11.703,15.908C11.625,16.771 13.35,17.554 14.056,18.103C14.762,18.654 15.208,19.195 16.124,19.353C17.041,19.511 18.113,21.01 18.583,21.168C18.944,21.288 19.555,21.865 19.924,22.044C19.439,22.658 18.5,23.919 18.5,24.5C18.5,25.286 19.525,26.521 19.917,26.834C20.308,27.146 21.434,27.384 21.667,28.167C21.903,28.951 21.503,31.59 20.799,32.295C20.091,33 19.834,34.667 19.834,34.667C19.834,34.667 20.083,35.208 20.917,34.667C21.839,34.07 23.383,32.37 24,32C25.176,31.293 26.319,30.435 27.417,29.417C28.515,28.398 28.117,27.684 28.667,26.667C29.216,25.648 29.926,25.694 30.866,24.834C31.808,23.97 31.15,24.141 30.13,23.748Z" style="fill:rgb(92,145,59);fill-rule:nonzero;"/>
        </g>
    </g>
</svg>
