<svg viewBox="0 0 117 43" xmlns="http://www.w3.org/2000/svg" fill-rule="evenodd" clip-rule="evenodd" stroke-linejoin="round" stroke-miterlimit="2" width="117"><path d="M78.78 5.228l-1.374-1.374a.873.873 0 010-1.235l1.374-1.373a.874.874 0 011.236 0l1.373 1.373c.34.341.34.894 0 1.235l-1.374 1.374a.873.873 0 01-1.235 0M30.584 33.204a5.61 5.61 0 01-3.992-1.653l-5.765-5.764a1.095 1.095 0 00-1.514 0l-5.786 5.785a5.612 5.612 0 01-3.993 1.653H8.398l7.301 7.301a5.84 5.84 0 008.258 0l7.322-7.322h-.695zm6.751-14.313l-4.425-4.425a.843.843 0 01-.314.064h-2.011c-1.04 0-2.059.421-2.794 1.156l-5.764 5.765c-.54.54-1.248.81-1.957.81a2.76 2.76 0 01-1.956-.81l-5.786-5.785a3.977 3.977 0 00-2.794-1.158H7.061a.837.837 0 01-.297-.06L2.32 18.891a5.84 5.84 0 000 8.257l4.442 4.442a.838.838 0 01.298-.06h2.473c1.04 0 2.058-.422 2.794-1.157l5.785-5.786c1.046-1.045 2.869-1.045 3.914 0l5.764 5.765a3.975 3.975 0 002.794 1.157h2.011c.112 0 .217.025.314.064l4.425-4.425a5.84 5.84 0 000-8.257zm-27.8-6.078c1.507 0 2.926.588 3.992 1.654l5.786 5.786a1.072 1.072 0 001.514 0l5.765-5.766a5.611 5.611 0 013.993-1.653h.694l-7.322-7.321a5.84 5.84 0 00-8.258 0l-7.3 7.3h1.135zM78.077 40.206v-.226c.12.012.232.02.31.02.302 0 .484-.087.653-.43l.079-.165-1.09-2.086h.28l.934 1.801h.016l.888-1.8h.277L79.25 39.66c-.215.426-.447.566-.872.566-.095 0-.198-.008-.302-.02zm-24.9-.036v-2.85h.198l.02.123c.335-.078.798-.182 1.128-.182.269 0 .525.041.74.215.248.203.326.529.326.884 0 .372-.124.723-.463.917-.235.132-.553.186-.838.186-.294 0-.574-.046-.868-.132v.839h-.244zm11.207-.707c-.401 0-.661-.058-.868-.232-.244-.21-.326-.515-.326-.867 0-.334.111-.69.388-.892.231-.161.517-.21.814-.21.269 0 .578.028.834.202.302.202.36.557.36.962h-2.14c.008.43.149.81.958.81.384 0 .744-.062 1.079-.12v.22c-.348.061-.732.127-1.1.127zm4.594 0c-.401 0-.661-.058-.868-.232-.244-.21-.326-.515-.326-.867 0-.334.111-.69.388-.892.231-.161.516-.21.814-.21.268 0 .578.028.834.202.302.202.36.557.36.962h-2.14c.008.43.149.81.958.81.384 0 .744-.062 1.079-.12v.22c-.348.061-.732.127-1.1.127zm3.917-.058l-.02-.124c-.335.079-.798.182-1.128.182-.268 0-.525-.037-.74-.215-.247-.202-.326-.528-.326-.884 0-.371.124-.723.463-.913.235-.136.553-.19.843-.19.289 0 .57.05.863.132v-.954h.244v2.966h-.199zm-14.562-.165c-.24.173-.561.223-.93.223-.375 0-.697-.054-.933-.223-.264-.186-.372-.492-.372-.876 0-.38.108-.69.372-.88.236-.17.558-.223.934-.223.372 0 .69.054.93.223.268.19.371.5.371.876 0 .384-.107.694-.372.88zm18.958.037c-.235.132-.553.186-.838.186-.31 0-.62-.054-.934-.157l-.012.1h-.166v-2.967h.244v.996c.335-.074.785-.174 1.103-.174.269 0 .525.041.74.215.248.203.326.529.326.884 0 .372-.124.723-.463.917zm-11.006.128V37.32h.199l.02.124c.442-.111.65-.182 1.037-.182h.03v.232h-.059c-.326 0-.524.045-.983.165v1.747h-.244zm-4.53 0l-.805-1.73h-.017l-.793 1.73h-.219l-.859-2.086h.268l.715 1.751h.017l.776-1.75h.223l.798 1.75h.016l.699-1.75h.26l-.86 2.085h-.219zm-4.351-1.92c-.723 0-1.045.227-1.045.863 0 .615.318.892 1.045.892.719 0 1.041-.223 1.041-.86 0-.615-.318-.896-1.041-.896zm-2.901.008c-.327 0-.707.078-1.083.165V39.1c.26.095.558.14.843.14.723 0 1.066-.243 1.066-.88 0-.599-.281-.867-.826-.867zm22.165 0c-.327 0-.707.078-1.083.165v1.437c.265.1.558.145.843.145.723 0 1.066-.243 1.066-.88 0-.599-.281-.867-.826-.867zm-3.818.132a2.497 2.497 0 00-.843-.14c-.723 0-1.066.243-1.066.88 0 .602.281.867.827.867.326 0 .706-.079 1.082-.162v-1.445zm-8.458-.145c-.67 0-.897.297-.938.727h1.875c-.02-.474-.264-.727-.937-.727zm4.594 0c-.67 0-.897.297-.938.727h1.876c-.02-.474-.265-.727-.938-.727z" fill="#c6867f" fill-rule="nonzero"/><path d="M49.225 39.503V15.85a7.152 7.152 0 017.152-7.152l6.983.01a7.14 7.14 0 017.126 7.14v5.036a7.152 7.152 0 01-7.152 7.152h-9.869a.729.729 0 000 1.457h9.87a8.61 8.61 0 008.608-8.609v-5.035a8.597 8.597 0 00-8.58-8.597l-6.986-.01a8.609 8.609 0 00-8.609 8.608v23.654a.729.729 0 001.457 0zm47.705-.259c-.256.173-.59.22-1 .22-.417 0-.751-.05-1.003-.22-.29-.19-.393-.504-.393-.88s.104-.694.393-.884c.252-.17.586-.219 1.004-.219.413 0 .743.05 1 .219.288.19.388.508.388.88 0 .376-.104.694-.389.884zm3.751.219c-.35 0-.73-.058-1.016-.293-.338-.281-.442-.715-.442-1.182 0-.417.133-.912.574-1.202.343-.223.769-.268 1.198-.268.315 0 .637.02.988.05v.508a12.642 12.642 0 00-.962-.046c-.806 0-1.15.306-1.15.958 0 .666.32.963.914.963.388 0 .822-.079 1.26-.17v.504c-.438.087-.897.178-1.364.178zm-7.487 0c-.269 0-.562-.037-.777-.219-.256-.206-.33-.533-.33-.884 0-.33.107-.69.425-.892.26-.17.583-.207.917-.207.24 0 .475.017.736.041v.447a7.415 7.415 0 00-.666-.037c-.553 0-.814.173-.814.652 0 .45.195.645.65.645.263 0 .573-.05.875-.108v.43c-.326.066-.682.132-1.016.132zm16.663 0c-.281 0-.537-.079-.678-.297-.103-.15-.153-.351-.153-.633v-.78h-.421v-.434h.421l.063-.632h.516v.632h.822v.434h-.822v.67c0 .16.012.297.058.396.062.14.198.194.38.194.136 0 .301-.02.417-.041v.417c-.19.037-.41.074-.603.074zm-6.187 0c-.343 0-.653-.041-.884-.231-.248-.206-.335-.517-.335-.872 0-.318.103-.673.393-.88.256-.182.582-.219.913-.219.297 0 .648.033.904.21.335.236.364.6.368 1.03h-1.983c.012.318.182.525.768.525.364 0 .769-.054 1.112-.108v.409c-.401.066-.839.136-1.256.136zm11.17-.058l-.017-.124c-.355.087-.768.182-1.132.182-.223 0-.463-.029-.632-.153-.157-.111-.231-.293-.231-.504 0-.235.103-.454.35-.566.22-.103.513-.111.782-.111.218 0 .512.012.756.029v-.038c0-.326-.215-.433-.802-.433-.227 0-.504.012-.768.037v-.422c.293-.024.623-.04.896-.04.364 0 .74.028.971.193.24.17.285.405.285.715v1.235h-.459zm-27.053 0l-.016-.124c-.355.087-.769.182-1.132.182-.223 0-.463-.029-.632-.153-.157-.111-.231-.293-.231-.504 0-.235.103-.454.35-.566.22-.103.513-.111.781-.111.22 0 .512.012.756.029v-.038c0-.326-.214-.433-.801-.433-.227 0-.504.012-.768.037v-.422c.293-.024.623-.04.896-.04.364 0 .74.028.97.193.24.17.286.405.286.715v1.235h-.459zm3.183 0v-1.153c0-.38-.194-.515-.541-.515-.257 0-.579.065-.851.132v1.536h-.583V37.32h.475l.02.132c.369-.094.777-.19 1.116-.19.256 0 .517.037.715.215.165.149.227.355.227.653v1.276h-.578zm16.65 0v-1.153c0-.38-.194-.515-.54-.515-.257 0-.58.065-.852.132v1.536h-.582V37.32h.475l.02.132c.368-.094.777-.19 1.116-.19.256 0 .516.037.714.215.166.149.228.355.228.653v1.276h-.579zm3.375 0V37.32h.475l.02.132c.385-.107.67-.19 1.034-.19.016 0 .041 0 .074.004v.496c-.066-.004-.145-.004-.202-.004-.286 0-.5.033-.819.108v1.54h-.582zm-26.104-.198c-.298.19-.657.198-1.314.198h-1.235v-2.83h1.206c.566 0 .913.009 1.202.182.207.124.29.314.29.562 0 .298-.124.496-.447.628v.016c.364.083.6.27.6.67 0 .272-.1.45-.302.574zm31.156-2.768h.583v2.966h-.583V36.44zm-1.331 2.09a8.819 8.819 0 00-.752-.032c-.426 0-.575.086-.575.28 0 .182.124.281.45.281.273 0 .6-.061.877-.124v-.404zm-27.053 0a8.827 8.827 0 00-.751-.032c-.426 0-.575.086-.575.28 0 .182.124.281.45.281.273 0 .6-.061.876-.124v-.404zm8.268-.83c-.554 0-.798.174-.798.649 0 .475.24.678.798.678.549 0 .788-.17.788-.646 0-.474-.235-.681-.788-.681zm-12.148.517h-.81v.731h.814c.558 0 .769-.062.769-.368 0-.327-.29-.363-.773-.363zm19.974-.583c-.484 0-.67.174-.707.492h1.405c-.017-.339-.215-.492-.698-.492zm-20.122-.603h-.661v.743h.665c.55 0 .768-.066.768-.376 0-.33-.277-.367-.772-.367zM73.167 8.694h3.03a2.506 2.506 0 012.505 2.505v17.67a.729.729 0 001.456 0V11.2a3.962 3.962 0 00-3.962-3.962h-3.03a.729.729 0 000 1.457zm12.075 20.75h3.005c1.738 0 3.406-.692 4.635-1.921l7.028-7.027a1.602 1.602 0 012.266 0l7.002 7.001a6.555 6.555 0 004.636 1.92h2.442a.729.729 0 000-1.457h-2.442a5.098 5.098 0 01-3.606-1.493l-7.001-7.002a3.06 3.06 0 00-4.327 0l-7.028 7.028a5.098 5.098 0 01-3.605 1.493h-3.005a.729.729 0 000 1.457zm0-20.766h3.005c1.352 0 2.65.537 3.605 1.493L98.88 17.2a3.06 3.06 0 004.327 0l7.001-7.002a5.1 5.1 0 013.606-1.493h2.442a.729.729 0 000-1.457h-2.442c-1.739 0-3.407.69-4.636 1.92l-7.002 7.002a1.602 1.602 0 01-2.266 0L92.882 9.14a6.555 6.555 0 00-4.635-1.92h-3.005a.729.729 0 000 1.457z" fill="#c6867f"/></svg>