<svg xmlns="http://www.w3.org/2000/svg" fill-rule="evenodd" stroke-linejoin="round" stroke-miterlimit="2" clip-rule="evenodd" viewBox="0 0 100 25">
  <path d="M16.55.52c-2.5-.95-5.27-.95-7.77 0a12.5 12.5 0 00-8.7 11.84c0 3.83 1.79 7.45 4.83 9.78.9.8 1.96 1.4 3.1 1.78 1.49.58 3.07.89 4.65.89 6.96 0 12.61-5.59 12.61-12.45 0-5.52-3.65-10.22-8.71-11.84h-.01z"/>
  <path fill="#a4dbd9" d="M15.41 22.3a8.4 8.4 0 01-11.46-2.43A8.07 8.07 0 012.8 13.7a8.33 8.33 0 0114.5-3.5 5.73 5.73 0 00-.54 11.03c-.42.4-.86.76-1.35 1.07z"/>
  <path fill="#f7e022" d="M18.51 20.72l-.34.01a4.97 4.97 0 01-4.94-4.94 4.97 4.97 0 015.38-4.93 4.96 4.96 0 014.45 4.92c0 2.56-2 4.72-4.55 4.93v.01z"/>
  <path fill="#dbe554" d="M2.2 10.68A10.37 10.37 0 0112.65.34h.05A10.45 10.45 0 0123 12.21a5.82 5.82 0 00-4.51-2.14h-.3a9.14 9.14 0 00-15.84 2.35c-.1-.57-.16-1.16-.16-1.74h.01z"/>
  <g>
    <path d="M76.6 15.82c-.66 3-1.76 4.38-5.06 4.38a8.4 8.4 0 01-2.6-.41l.42-1.48c.65.34 1.38.52 2.14.5 1.85 0 2.57-.97 2.9-2.37l.25-1a3.03 3.03 0 01-2.7 1.39c-1.54 0-2.27-.95-2.27-2.22 0-3.37 3.07-5.4 5.9-5.4.84 0 1.65.1 2.43.33l-1.4 6.29v-.01zm-23.22 0c-.66 3-1.75 4.38-5.06 4.38-.88 0-1.75-.14-2.6-.41l.4-1.48c.68.34 1.4.52 2.15.5 1.86 0 2.58-.97 2.92-2.37l.24-1a3 3 0 01-2.7 1.39c-1.52 0-2.26-.95-2.26-2.22 0-3.37 3.05-5.4 5.9-5.4.84 0 1.64.1 2.43.33l-1.41 6.29-.01-.01zm11.1-2.14c-.07.2-.11.45-.11.69 0 1 .78 1.4 1.69 1.4.8-.01 1.6-.25 2.29-.68l-.07 1.32c-.9.42-1.87.62-2.85.59-1.62 0-3.15-.7-3.15-2.53 0-2.96 2.24-5.25 4.89-5.25 1.2 0 2.58.43 2.58 1.79 0 2.35-3.4 2.66-5.26 2.66h-.01zm-2.36-4.96a4.73 4.73 0 00-2.06-.5c-.9 0-2.25.42-2.25 1.45 0 1.45 3.92 1.22 3.92 3.96 0 2.16-2.05 3.36-4.56 3.36a9.23 9.23 0 01-2.9-.43l.52-1.61c.76.38 1.59.58 2.44.55 1.06-.02 2.23-.5 2.23-1.6 0-1.54-3.9-1.4-3.9-3.91 0-2.36 2.37-3.24 4.63-3.24.84 0 1.67.16 2.45.45l-.52 1.52zm22.73 6.42c-.13.56-.22 1.12-.3 1.69h-1.9l.2-1.35c-.65.88-1.43 1.5-2.67 1.5s-2.05-.6-2.05-1.84c0-.28.02-.56.08-.84l1.05-4.96h2.05l-.93 4.5c-.07.26-.1.53-.12.79 0 .55.27.98.98.98 1.12 0 1.64-1.03 1.86-1.98l.9-4.3h2.05l-1.21 5.8zm9.7 1.85c-1.64 0-3.16-.91-3.16-2.71 0-2.9 1.86-5.06 4.82-5.06 1.65 0 3.15.86 3.15 2.68 0 2.85-1.9 5.09-4.8 5.09zm-49.12-2.82c-.2.87-.32 1.76-.35 2.66h-2.1c.03-.38.16-1.08.29-1.76-.54.96-1.42 1.92-2.87 1.92-1.51 0-2.27-1.01-2.27-2.37 0-3.36 2.99-5.42 5.84-5.42.86 0 1.98.14 2.5.34l-1.04 4.64v-.01zm46.12-3.03l-.61-.11c-1.34 0-2.1 1.32-2.36 2.5l-.7 3.3h-2.06l1.23-5.81c.13-.54.23-1.1.3-1.65h1.93L89 10.9c.46-.92 1.36-1.7 2.44-1.7.2 0 .4.02.6.07l-.5 1.87h.02-.01zm-57.2 2h-1.9l-.78 3.69H29.5l2.1-9.92h4.1c1.66 0 2.8 1.16 2.8 2.5 0 2.67-2.12 3.74-4.15 3.74zm61.5-2.55c-1.53 0-2.3 2.17-2.3 3.47 0 .89.33 1.55 1.3 1.55 1.5 0 2.38-2.2 2.38-3.47 0-.9-.41-1.55-1.38-1.55zm-52.27-.01c-1.72 0-3.28 1.8-3.28 3.8 0 .67.24 1.23 1 1.23 1.05 0 2.05-1.44 2.46-3.22l.4-1.73a1.68 1.68 0 00-.58-.08zm8.36 0c-1.72 0-3.31 1.77-3.31 3.85 0 .67.24 1.16.97 1.16 1.4 0 2.17-1.8 2.48-3.11l.44-1.8a1.95 1.95 0 00-.58-.1zm23.2 0c-1.7 0-3.3 1.77-3.3 3.85 0 .67.24 1.16.98 1.16 1.39 0 2.17-1.8 2.47-3.11l.44-1.8a1.9 1.9 0 00-.58-.1zM67 10.42c-1.13 0-1.94 1.18-2.32 2.14 1.35 0 3.2-.23 3.2-1.4.04-.56-.37-.74-.87-.74h-.01zM34.63 8.36h-1.17l-.71 3.34h.74c1.46 0 2.8-.33 2.8-2.07 0-.8-.82-1.27-1.66-1.27z"/>
  </g>
</svg>