<svg xmlns="http://www.w3.org/2000/svg" fill-rule="evenodd" stroke-linejoin="round" stroke-miterlimit="2" clip-rule="evenodd" viewBox="0 0 62 29" width="62">
  <path fill="#d19389" fill-rule="nonzero" d="M2.1 27.9c0 .5-.4 1-1 1a1 1 0 01-1-1v-26a1 1 0 012 0v26zM8.1 27.9c0 .5-.4 1-1 1h-1a1 1 0 01-1-1v-26c0-.6.5-1 1-1h1c.6 0 1 .4 1 1v26zM13.1 14.9c0 .5-.4 1-1 1a1 1 0 01-1-1v-13a1 1 0 012 0v13zM18.1 14.9c0 .5-.4 1-1 1a1 1 0 01-1-1v-13a1 1 0 012 0v13zM24.1 14.9c0 .5-.4 1-1 1h-1a1 1 0 01-1-1v-13c0-.6.5-1 1-1h1c.6 0 1 .4 1 1v13zM29.1 14.9c0 .5-.4 1-1 1a1 1 0 01-1-1v-13a1 1 0 012 0v13zM34.1 14.9c0 .5-.4 1-1 1a1 1 0 01-1-1v-13a1 1 0 012 0v13zM40.1 14.9c0 .5-.4 1-1 1h-1a1 1 0 01-1-1v-13c0-.6.5-1 1-1h1c.6 0 1 .4 1 1v13zM45.1 14.9c0 .5-.4 1-1 1a1 1 0 01-1-1v-13a1 1 0 012 0v13zM50.1 14.9c0 .5-.4 1-1 1a1 1 0 01-1-1v-13a1 1 0 012 0v13zM56.1 27.9c0 .5-.4 1-1 1h-2a1 1 0 01-1-1v-26c0-.6.5-1 1-1h2c.6 0 1 .4 1 1v26zM61.1 27.9c0 .5-.4 1-1 1a1 1 0 01-1-1v-26a1 1 0 012 0v26z"/>
  <path fill="#c17f78" fill-rule="nonzero" d="M11.3 28V18h3.4c1.1 0 2 .3 2.6.8.6.4.9 1 .9 2 0 .4-.1.8-.4 1.2-.2.4-.6.7-1 .9a2.2 2.2 0 011.6 2.2c0 1-.3 1.7-.9 2.2a4 4 0 01-2.6.8h-3.6zm1.7-5.7h1.7c.6 0 1-.1 1.3-.4.3-.2.5-.6.5-1 0-.5-.2-.9-.5-1.1-.2-.2-.7-.3-1.3-.3H13v2.8zm0 1.3v3h2c.5 0 1 0 1.2-.3.3-.3.5-.7.5-1.2 0-1-.5-1.5-1.6-1.5h-2zM19.7 24.3c0-.7.1-1.4.4-2 .3-.6.7-1 1.2-1.3.6-.3 1.2-.5 1.8-.5 1 0 1.8.3 2.5 1 .6.6 1 1.5 1 2.5v.4c0 .8-.2 1.4-.4 2-.3.6-.7 1-1.2 1.3-.6.3-1.2.5-1.9.5-1 0-1.8-.4-2.5-1a4 4 0 01-1-2.8v-.1zm1.7.1c0 .8.1 1.4.4 1.8.3.5.8.7 1.3.7.6 0 1-.3 1.4-.7.3-.4.4-1 .4-2a3 3 0 00-.5-1.7c-.3-.4-.7-.7-1.3-.7-.5 0-1 .3-1.3.7-.3.4-.4 1-.4 2zM28 17.5h1.8V28H28zM34.8 28.2c-1 0-1.9-.3-2.5-1-.7-.7-1-1.6-1-2.7v-.2c0-.7.1-1.4.4-2a3.3 3.3 0 013-1.8c1 0 1.7.3 2.3 1 .6.6.8 1.5.8 2.7v.7H33c0 .6.2 1 .6 1.4.3.4.8.6 1.3.6.8 0 1.4-.3 2-1l.8.9a3 3 0 01-1.2 1c-.5.3-1 .4-1.7.4zm-.2-6.4c-.4 0-.8.2-1 .5-.3.3-.5.8-.6 1.4h3.2v-.2c0-.5-.2-1-.5-1.2-.2-.3-.6-.5-1-.5zM41.2 18.8v1.8h1.3V22h-1.3V26c0 .3 0 .5.2.6 0 .2.3.2.6.2h.6V28l-1.1.2c-1.3 0-2-.7-2-2.1v-4.2h-1.2v-1.3h1.2v-1.8h1.7zM43.3 24.3c0-.7.1-1.4.4-2 .3-.6.7-1 1.2-1.3.5-.3 1.1-.5 1.8-.5 1 0 1.8.3 2.5 1 .6.6 1 1.5 1 2.5v.4c0 .8-.2 1.4-.4 2-.3.6-.7 1-1.3 1.3-.5.3-1 .5-1.8.5-1 0-1.9-.4-2.5-1a4 4 0 01-1-2.8v-.1zm1.6.1c0 .8.2 1.4.5 1.8.3.5.8.7 1.3.7.6 0 1-.3 1.3-.7.4-.4.5-1 .5-2a3 3 0 00-.5-1.7c-.3-.4-.7-.7-1.3-.7-.5 0-1 .3-1.3.7-.3.4-.5 1-.5 2z"/>
</svg>