<svg xmlns="http://www.w3.org/2000/svg" fill-rule="evenodd" stroke-linejoin="round" stroke-miterlimit="2" clip-rule="evenodd" viewBox="0 0 201 29" width="201">
  <path fill="#c6867f" d="M.8 9.8l14-9.3 14 9.3-16.7 11L9.2 19l13.4-9-8.1-5.4-3.8 2.5 2.9 2-7 4.6L.8 9.8zm28 9.3l-14 9.4L.7 19l16.6-11 2.9 2L6.9 19l8.1 5.4 3.8-2.5-2.9-2 7-4.6 5.8 3.8zm0-14.7l-3 2-3-2 6-3.9v4zM.7 24.6l2.9-2 2.9 2-5.8 3.9v-4z"/>
  <path fill="#c6867f" fill-rule="nonzero" d="M40.4 21H39v-5.3h1.5c2 0 2.8.7 3 2v.6c0 2.6-2.1 2.6-3.1 2.6M39 8h1.7c1.5 0 2.6 1 2.6 2.4 0 1.8-1.4 2.4-2.4 2.4H39V8zm9.2 9.7c-.2-2-1.2-3.2-3.8-3.5 2.4-.5 3.5-2 3.5-4.2 0-4-2.7-4.8-6-4.8h-7.6v18.6h7.6c1.8 0 6.4-.2 6.4-5l-.1-1zM195.6 21.5v-13h-4v15.3h8.5v-2.3h-4.5zM82.6 22c-1.4 0-1.8-.9-1.8-4.3v-1.5c0-4.9.3-5.7 1.7-5.7 1 0 1.5.8 1.5 2.8h3.8c.2-3.3-1.7-5.1-5.4-5.1-5.4 0-5.6 3.5-5.6 8v1.5h2.4-2.4c0 3.8.5 6.5 5.8 6.5 3.4 0 5.3-1.3 5.3-5.5h-3.8c0 1.3 0 3.2-1.5 3.2M165.3 18v-.3l1.4-5.8 1.4 5.8.1.4h-3zm12.6-.3c1.2.6 2.1 1.1 2.1 2 0 1-.5 1.8-1.7 1.8h-5.2l-1.1-3.8-2.8-9.1h-4.6l-2.9 9.1-1.4 4.7-2.1-4.7-.6-1.2c2-.4 2.8-1.7 2.8-4 0-2.5-1.6-4-4-4h-7.2v15.3h4V10.9h1.2c1.2 0 2.1.8 2.1 2.3 0 1.3-.6 2.3-1.6 2.3h-1.1l1 2.2 2.6 6h6.3l1-3.3h4.1l1 3.4h9.2c2.5 0 5.1-.3 5.1-4.3 0-.7-.2-1.3-.4-1.8h-5.8z"/>
  <path fill="#c6867f" fill-rule="nonzero" d="M178 17.7h5.7c-1.5-2.7-6.2-2.7-6.2-5.2 0-1 .6-1.6 1.7-1.6h3.6V8.5h-5c-4 0-5 1.9-5 4.3 0 2.9 3 3.9 5.1 5M143.2 18.3c0 2.6-1.8 2.7-2.6 2.7h-2v-5.3h2.2c1.6 0 2.2.7 2.4 2v.6m-4.6-10.2h2.3c1.2 0 2 1 2 2.3 0 1.8-1 2.4-1.8 2.4h-2.5V8.1zm5.4 6c2.4-.4 3.5-2 3.5-4.1 0-4-2.7-4.8-6-4.8H134v18.6h7.6c1.8 0 6.4-.2 6.4-5v-1c-.3-2-1.3-3.3-3.9-3.6"/>
  <path fill="#c6867f" d="M185.6 8.6h3.8v15.2h-3.8z"/>
  <path fill="#c6867f" fill-rule="nonzero" d="M53.7 18l.1-.3 1.3-5.9 1.5 6v.3h-2.9zm4-9.4H53l-2.8 9.1-1.8 6h3.8l1-3.3h4l1 3.4h4l-1.8-6-2.7-9.2zM126 17.7c-.2 3-.5 4.2-2 4.2s-2-1.3-2-4.2v-1.5c0-4 .2-5.6 2-5.6 1.7 0 2 1.7 2 5.6v1.5h1.2-1.3zm-2-9.4c-6 0-6 3.9-6 8v1.4h2.7-2.7c.1 3.5.8 6.5 6 6.5s5.8-3 5.9-6.5v-1.5c0-4 0-8-6-8M111 8.5h-5.9v15.3h5.8c5 0 5.6-3.5 5.7-6h-4c0 2.6-.5 3.7-2.1 3.7H109V10.9h1.6c2 0 2 2.5 2 5.3v1.5h4v-1.6c0-4.8-.9-7.6-5.5-7.6M72 8.6v9.8l-.3-.7-3.9-9.1h-4.6v15.2h3.2V13.6l1.8 4.1 2.5 6h4.6V8.7H72zM95 8.2c-6 0-6 3.9-6 8v1.5c.2 3.5.8 6.5 6 6.5s5.8-3 6-6.5h-4c-.1 3-.5 4.2-2 4.2s-1.9-1.3-2-4.2v-1.5c0-4 .3-5.7 2-5.7s2 1.7 2 5.7v1.5h4v-1.5c0-4.1 0-8-6-8"/>
</svg>