<svg viewBox="0 0 234 29" xmlns="http://www.w3.org/2000/svg" fill-rule="evenodd" clip-rule="evenodd" stroke-linejoin="round" stroke-miterlimit="2"><path fill="none" d="M0 0h234v29H0z"/><path d="M29.781 12.884s.475 2.325.581 2.812h-2.087c.206-.556 1-2.718 1-2.718-.013.018.206-.57.331-.932l.175.838zM36.4 3.428v22a3 3 0 01-3 3h-30a3 3 0 01-3-3v-22a3 3 0 013-3h30a3 3 0 013 3zM9.93 19.128l3.95-9.7h-2.656l-2.456 6.625-.269-1.344-.875-4.463c-.144-.618-.588-.793-1.138-.818H2.444L2.4 9.62c.987.25 1.869.613 2.637 1.07l2.238 8.437h2.656zm5.9.012l1.575-9.712h-2.512l-1.569 9.712h2.506zm8.744-3.175c.012-1.106-.663-1.95-2.106-2.644-.882-.443-1.419-.743-1.419-1.2.012-.412.456-.837 1.444-.837a4.307 4.307 0 011.868.369l.225.106.344-2.1a6.241 6.241 0 00-2.25-.413c-2.481 0-4.225 1.325-4.237 3.213-.019 1.394 1.25 2.169 2.2 2.637.968.475 1.3.788 1.3 1.207-.013.65-.788.95-1.507.95-1 0-1.537-.157-2.356-.52l-.331-.155-.35 2.18c.587.27 1.675.507 2.8.52 2.637.006 4.356-1.3 4.375-3.313zM33.4 19.14l-2.025-9.712H29.43c-.6 0-1.056.175-1.312.806l-3.732 8.906h2.638s.431-1.2.525-1.456h3.225c.075.344.3 1.456.3 1.456H33.4zM79.801 24.081c0 .425-.287.732-.7.732-.425 0-.7-.325-.7-.732 0-.406.275-.731.7-.731.413 0 .7.325.7.731zm-19.425-.731c-.444 0-.7.325-.7.731 0 .407.256.732.7.732.406 0 .681-.307.681-.732-.006-.406-.275-.731-.68-.731zm7.344-.019c-.338 0-.544.219-.594.544h1.194c-.056-.356-.275-.544-.6-.544zm6.737.019c-.425 0-.68.325-.68.731 0 .407.255.732.68.732.425 0 .7-.307.7-.732 0-.406-.275-.731-.7-.731zm6.62 1.631c0 .019.018.032.018.069 0 .019-.019.031-.019.069-.019.019-.019.031-.031.05-.019.019-.031.031-.069.031-.019.019-.031.019-.069.019-.018 0-.03 0-.068-.019-.02 0-.032-.019-.05-.031-.02-.019-.032-.031-.032-.05-.018-.031-.018-.05-.018-.069 0-.031 0-.05.018-.069 0-.031.02-.05.032-.068.018-.02.03-.02.05-.032.03-.018.05-.018.068-.018.032 0 .05 0 .07.018.03.019.05.019.068.032.019.012.012.037.031.068zm-.138.088c.03 0 .03-.019.05-.019.018-.019.018-.031.018-.05 0-.019 0-.031-.018-.05-.02 0-.032-.019-.07-.019h-.1v.219h.05v-.087h.02l.068.087h.05l-.068-.081zM85.619 3.5v22a3 3 0 01-3 3h-30a3 3 0 01-3-3v-22a3 3 0 013-3h30a3 3 0 013 3zm-32 8.725c0 4.781 3.882 8.656 8.657 8.656 1.7 0 3.369-.512 4.781-1.443-4.556-3.707-4.525-10.7 0-14.407a8.663 8.663 0 00-4.78-1.443C57.5 3.58 53.62 7.463 53.62 12.225zm14 6.8c4.407-3.437 4.388-10.137 0-13.594-4.387 3.457-4.405 10.163 0 13.594zm-8.893 4.769c0-.544-.356-.9-.919-.919-.287 0-.593.088-.8.406-.15-.256-.406-.406-.762-.406a.794.794 0 00-.663.338v-.275h-.512v2.293h.512c0-1.181-.156-1.887.563-1.887.637 0 .512.637.512 1.887h.494c0-1.143-.156-1.887.563-1.887.637 0 .512.625.512 1.887h.513v-1.437h-.013zm2.806-.856h-.493v.275a.9.9 0 00-.732-.338c-.643 0-1.137.513-1.137 1.206 0 .7.494 1.207 1.137 1.207.325 0 .563-.12.732-.338v.288h.493v-2.3zm2.532 1.6c0-.938-1.432-.513-1.432-.95 0-.357.744-.3 1.157-.07l.206-.405c-.588-.382-1.888-.375-1.888.512 0 .894 1.432.519 1.432.938 0 .393-.844.362-1.294.05l-.219.393c.7.475 2.038.375 2.038-.468zm2.212.58l-.137-.424c-.238.131-.763.275-.763-.256V23.4h.819v-.462h-.819v-.7h-.512v.7h-.475v.456h.475v1.044c0 1.1 1.08.9 1.412.68zm.831-.837h1.72c0-1.012-.463-1.412-1.088-1.412-.663 0-1.138.494-1.138 1.206 0 1.281 1.413 1.494 2.113.888l-.238-.375c-.487.4-1.225.362-1.369-.307zm3.694-1.343c-.287-.125-.725-.113-.95.275v-.275h-.512v2.293h.512v-1.293c0-.725.594-.632.8-.525l.15-.475zm.663 1.143c0-.712.725-.943 1.293-.525l.238-.406c-.725-.569-2.044-.256-2.044.938 0 1.237 1.4 1.487 2.044.937l-.238-.406c-.575.406-1.293.162-1.293-.538zm4.168-1.143h-.512v.275c-.519-.688-1.869-.3-1.869.868 0 1.2 1.4 1.544 1.869.869v.288h.512v-2.3zm2.107 0c-.15-.075-.688-.182-.95.275v-.275h-.494v2.293h.494v-1.293c0-.688.562-.644.8-.525l.15-.475zm2.518-.932h-.493v1.207c-.513-.682-1.87-.32-1.87.868 0 1.213 1.407 1.538 1.87.869v.288h.493v-3.232zm.475-4.693v.287h.05v-.287h.12v-.05h-.288v.05h.118zm.413 7.737c0-.031 0-.069-.019-.1-.019-.019-.031-.05-.05-.069-.019-.018-.05-.031-.069-.05-.03 0-.068-.018-.1-.018-.018 0-.05.018-.087.018a.326.326 0 00-.069.05c-.031.019-.05.05-.05.069-.019.031-.019.069-.019.1 0 .019 0 .05.02.088 0 .018.018.05.05.068a.217.217 0 00.068.05c.031.019.069.019.087.019.032 0 .07 0 .1-.019.02-.018.05-.031.07-.05.018-.018.03-.05.05-.068.018-.038.018-.07.018-.088zm.2-7.794h-.088l-.1.219-.1-.219h-.087v.338h.05v-.256l.1.218h.069l.087-.218v.256h.069v-.338zm.275-5.031c0-4.762-3.881-8.644-8.656-8.644-1.7 0-3.37.513-4.782 1.444 4.507 3.706 4.575 10.719 0 14.406a8.694 8.694 0 004.782 1.444c4.775.006 8.656-3.869 8.656-8.65zM119.171 8.988c0-1.025-.881-1.15-1.712-1.15l-2.444-.02v4.332h1.025v-1.569h1.125c1.15 0 .906.644.925 1.569h1.037v-.844c0-.575-.093-.943-.687-1.15.462-.187.737-.668.731-1.168zm-1.837.706h-1.294v-.956h1.312c.319 0 .669.062.669.462 0 .413-.331.494-.687.494zm-1.044 5.594h-3.294l-1.312 1.425-1.282-1.425h-4.156l-.006 4.33h4.087l1.332-1.437 1.275 1.438h2.012l.006-1.456c1.182 0 3.082.287 3.082-1.457 0-1.081-.77-1.418-1.744-1.418zm-6.488 3.418h-2.537v-.862h2.269v-.881h-2.27v-.782h2.607l1.119 1.263-1.188 1.262zm4.113.513l-1.581-1.756 1.58-1.713v3.469zm2.362-1.938h-1.325v-1.1h1.344c.35 0 .638.144.638.525 0 .4-.288.575-.657.575zm-1.975-8.543v-.913h-3.468v4.331h3.468v-.893h-2.43V10.4h2.362v-.881h-2.363v-.781h2.431zm20.55 5.725h-.012.012zm-12.162 1.993c0-1.025-.881-1.168-1.694-1.168h-2.462l-.007 4.33h1.038l.006-1.58h1.1c.688 0 .925.125.925.862l-.006.719h1.037l.007-.863c0-.556-.113-.943-.688-1.15.481-.193.738-.675.744-1.15zm-1.825.7h-1.294v-.975h1.313c.318 0 .668.063.668.463 0 .431-.337.512-.687.512zm-10.8-5V7.825h-1.725l-1.231 2.938-1.357-2.938h-1.693v4.106l-1.757-4.106h-1.53l-1.857 4.331h1.119l.4-.956h2.156l.4.956h2.112V8.77l1.5 3.387h.913l1.5-3.387v3.387h1.05zm-9.263-1.856l.7-1.725.72 1.725h-1.42zm29.838 9.931v-.281c-.675.35-.244.281-9.794.281 0-1.575.006-1.493 0-1.575-.106-.006-.2-.006-.587-.006 0 1.119-.007.425-.007 1.581h-2.475c0-.756.007-.956.007-1.825-.625.375-1.425.4-2.144.388 0 .919-.006.519-.006 1.437h-3.057c-.318-.356-.168-.193-.962-1.087-.2.219-.8.869-1.006 1.087h-5.125v-5.768h5.193c.313.35.175.193.97 1.075.2-.22.762-.838.98-1.075h3.625c.613 0 1.125.118 1.519.35v-.35c3.394 0 4.019-.088 4.731.318v-.318h4.888v.325c.712-.432 1.225-.325 4.056-.325v.312c.644-.369 1.038-.325 3.394-.312V3.5a3 3 0 00-3-3h-30a3 3 0 00-3 3v6.863l1.444-3.37h2.48l.563 1.32v-1.32h2.875c.182.388.694 1.5.87 1.876.362-.85.63-1.494.787-1.875h6.437c0-.006.719 0 .725 0 2.731.012 3.35-.05 4.025.331v-.331h2.494v.581c.475-.381 1.119-.581 1.919-.581h1.725c0 .031.118.019.143.019h2.025c.263.612.163.375.55 1.287V7.013h2.707c.306.5-.063-.113.7 1.15v-1.15h2.493v5.75h-2.6c-.337-.563-.087-.138-.825-1.37v1.37h-3.3c-.4-.925-.006-.02-.412-.957h-1.188c-.262.625-.137.325-.4.957h-1.675c-.768 0-1.393-.188-1.856-.557v.557h-4.156c-.019-.87-.006-1.55-.006-1.55-.113-.02-.213-.013-.613-.013v1.569h-8.469v-.713c-.156.35-.168.369-.318.713h-1.844c-.25-.556-.181-.4-.319-.713v.713h-3.306l-.4-.956h-1.2c-.263.625-.138.325-.4.956h-1.663V25.5a3 3 0 003 3h30.007a3 3 0 003-3v-5.65c-.794.519-2.044.381-4.22.381zm2.269-4.031h1.88v-.912h-2.055c-.8 0-1.488.412-1.488 1.293 0 2.063 2.669.8 2.669 1.713 0 .319-.269.4-.525.4h-2l-.006.925h2c.525 0 1.1-.113 1.406-.556V17.45c-.656-.862-2.456-.081-2.456-.844 0-.362.287-.406.575-.406zm-3.563 2.488h-2.012l-.007.925h2.013c.925 0 1.637-.35 1.637-1.375 0-2.075-2.681-.7-2.681-1.644 0-.35.306-.4.575-.4h1.9v-.913h-2.075c-.8 0-1.469.413-1.469 1.294 0 2.063 2.669.781 2.669 1.713-.006.337-.294.4-.55.4zm-2.637-2.507v-.893h-3.45l-.007 4.33h3.45l.007-.893-2.413-.019v-.862h2.369v-.881h-2.363v-.782h2.407zm-3.52-6.756c-.018.013-.087.138-.087.475 0 .375.057.481.069.494a.492.492 0 00.213.031l.456-1.056c-.069 0-.131-.006-.194-.006-.35 0-.437.043-.456.062zm1.276-.656h-.006.006zm-1.013-.95c-1.468 0-2.125.75-2.125 2.206 0 1.388.638 2.125 2.063 2.125h1.2l.4-.956h2.144l.412.956h2.106V8.906l1.95 3.244h1.475V7.838h-1.056v3.006l-1.819-3.006h-1.581v4.087l-1.744-4.087h-1.55l-1.468 3.406h-.463c-.831 0-1.006-.506-1.006-1.244 0-1.487.981-1.25 2.069-1.231v-.95h-1.007zm2.632.756l.7 1.725h-1.425l.725-1.725zm-6.32-.75v4.331h1.057V7.825h-1.056zM181.07.49h-30c-1.656 0-3 1.344-3 3v22c0 1.656 1.344 3 3 3h30c1.656 0 3-1.344 3-3v-22c0-1.656-1.344-3-3-3zm-4.847 20.579l-25.286.009v-.031c0-.017.02-.125.044-.241l.52-2.536.728-3.566.474-2.326.437-2.119c.026-.13.07-.33.098-.444.028-.113.067-.251.088-.306.02-.054.075-.173.123-.263l.087-.164.08-.104a2.475 2.475 0 01.542-.512 2.8 2.8 0 01.558-.289 5.48 5.48 0 01.268-.091 4.44 4.44 0 01.35-.085c.11-.022.282-.051.383-.064l.185-.025 25.3-.01v.031c0 .016-.02.125-.044.241l-.603 2.927-.521 2.532-1.034 5.05-.14.654-.155.386a2.236 2.236 0 01-.231.364l-.306.32-.288.198-.182.093c-.08.039-.191.09-.248.112a4.217 4.217 0 01-.447.135 5.788 5.788 0 01-.562.098l-.218.026zm-17.471-3.266h.658l.01-.024a.26.26 0 00.009-.07c0-.025.01-.116.024-.201l.152-.96.055-.371a.567.567 0 01.028-.134c.005 0 .026.033.047.072l.038.073.17.171.209.083.249.033.316-.02.342-.088.29-.154.108-.07.099-.1c.055-.054.133-.142.173-.195a.936.936 0 00.072-.105 1.706 1.706 0 00.152-.289c.036-.084.092-.236.124-.337l.06-.183.03-.159c.017-.088.039-.232.048-.322l.018-.162-.02-.275-.064-.276-.104-.206-.2-.212-.235-.122-.261-.062-.26-.019-.29.033-.236.061-.285.146a.798.798 0 00-.101.072.667.667 0 01-.061.047l-.04.026.028-.134c.015-.074.028-.143.028-.154v-.019h-.56l-.144.895-.17 1.002-.258 1.431-.185.979-.063.299zm9.789-1.349l.169.002.502-.068c.066-.013.173-.038.237-.057a.954.954 0 00.13-.043.722.722 0 00.04-.155c.016-.079.035-.185.044-.235a.425.425 0 00.009-.098c-.003-.003-.014.001-.025.009a1.24 1.24 0 01-.167.071l-.147.054-.42.082-.356-.013-.203-.07-.157-.137-.104-.189-.05-.253v-.328l.06-.398.077-.26c.007-.026.035-.098.063-.161l.168-.319.146-.151.154-.095.312-.079.115-.018.337.017.398.08.08.03.086.03c.002 0 .013-.057.023-.126.01-.07.03-.184.043-.254a.75.75 0 00.016-.134.793.793 0 00-.133-.022 12.14 12.14 0 00-.42-.031l-.292-.017-.413.032-.306.064-.275.127a2.085 2.085 0 00-.121.078 2.067 2.067 0 00-.161.146l-.117.115-.066.096a2.532 2.532 0 00-.138.244l-.073.149-.056.16c-.03.089-.073.233-.095.322l-.04.16-.028.291v.383l.029.222.092.229.106.166.168.165.178.094.324.078.257.015zm-4.866 0l.169.002.505-.054c.092-.013.252-.042.355-.065l.187-.041.093-.502-.016-.017-.275.109-.161.053-.336.065-.536.001-.257-.095-.073-.036-.121-.109-.094-.165-.06-.207v-.383l.053-.341.46-.022 1.703.011.073-.384.023-.167v-.28l-.048-.209-.04-.069a.667.667 0 00-.187-.214l-.208-.12-.267-.065-.33-.031-.306.02-.367.07-.33.148a1.438 1.438 0 00-.452.414c-.034.05-.086.14-.116.199-.03.059-.07.141-.087.183a2.986 2.986 0 00-.146.459l-.085.463v.456l.078.283a1.2 1.2 0 00.07.153.855.855 0 00.242.259c.042.031.117.075.166.098l.09.041.357.074.274.015zm12.555 0l.146.002.352-.066c.042-.012.118-.043.168-.069l.092-.047.158-.139.083-.111c.046-.061.087-.121.092-.134l.009-.023-.063.513h.6v-.207l.046-.39a17.78 17.78 0 01.153-1.063l.155-.88.26-1.4a39.42 39.42 0 01.12-.609v-.011h-.654l-.065.482-.154.943-.026-.011a2.414 2.414 0 00-.171-.047l-.145-.037-.398-.031-.337.032-.306.077-.291.142-.214.159-.092.099a2.25 2.25 0 00-.164.2l-.071.102-.206.453a3.251 3.251 0 00-.088.29l-.047.183-.046.476.035.382.105.3.118.159.135.111.28.117c.053.015.139.032.19.039l.24.014zm-5.378.001l.413-.012.26-.067.253-.136a1.274 1.274 0 00.295-.285.424.424 0 01.065-.077c.003.003-.005.074-.017.158a2.244 2.244 0 00-.022.248v.096h.562l.017-.436.119-.796.209-1.163.003-.383-.087-.177-.118-.113-.192-.098-.288-.064-.396-.03-.255.016c-.14.008-.338.025-.44.038l-.182.022-.251.001-.118.516c.002.003.069-.013.148-.034a5.74 5.74 0 01.374-.078l.229-.039.413-.017.267.047.177.088.1.148-.002.234-.052.256-1.102.004-.18.049a2.188 2.188 0 00-.244.081.411.411 0 01-.078.03.982.982 0 00-.131.073l-.116.073-.092.091a1.403 1.403 0 00-.144.169 1.39 1.39 0 00-.103.195l-.051.119-.046.267v.281l.044.233.042.076a.89.89 0 00.093.137l.05.06.184.111.3.073.09.015zm2.688-.075h.334v-.205l.176-1.111c.01-.072.04-.227.066-.344.025-.118.057-.246.07-.284a.46.46 0 00.024-.088c0-.011.029-.079.064-.153l.063-.133.166-.221.09-.068c.05-.038.132-.088.18-.111l.088-.043.382.003.15.048.026-.016v-.049c0-.026.018-.126.037-.222l.036-.173-.233-.08-.276.001-.224.079-.17.102-.218.229-.06.089a.42.42 0 01-.062.084 2.373 2.373 0 01.039-.226 3.28 3.28 0 00.044-.257v-.034h-.565v.01c0 .005-.014.103-.032.218l-.168 1.05c-.025.151-.063.368-.084.482l-.175.91-.102.513h.334zm-7.755 0h.326l.01-.138c.006-.077.024-.23.04-.341l.079-.493c.026-.16.074-.426.107-.591a4.73 4.73 0 01.106-.451c0-.012.024-.075.054-.14.03-.065.086-.165.124-.222l.07-.103.187-.173.23-.11.352.002.087.025c.047.015.09.026.095.026.005 0 .009-.016.009-.036 0-.02.018-.12.039-.224l.038-.197a.392.392 0 00-.111-.044 1.45 1.45 0 00-.187-.043l-.077-.009-.28.065a.903.903 0 00-.322.209c-.041.04-.11.121-.153.18l-.123.168.099-.516.008-.027h-.583v.037c0 .02-.017.142-.038.271l-.162 1c-.025.152-.063.369-.084.482l-.177.918-.068.343a1.752 1.752 0 00-.022.118v.014h.327zm-8.027 0h.658l.009-.024a4.74 4.74 0 01.055-.417l.178-1.074.165-.888c.02-.113.063-.329.093-.48.03-.151.059-.28.063-.287l.008-.014-.665.009-.102.681-.086.527c-.021.135-.06.352-.084.482l-.168.888-.124.597zm-4.16 0h.745l.26-1.569.077-.435a2.09 2.09 0 01.045-.214l.009-.009h1.999l.023.023-.35 1.867c-.03.164-.053.307-.053.318v.019h.747l.096-.605.253-1.492.345-1.889.099-.482h-.756l-.051.321-.15.865-.096.615-1.11.023-.465-.011a16.954 16.954 0 01-.468-.014 1.282 1.282 0 01.019-.132l.12-.627.093-.532c.013-.061.037-.189.054-.285.017-.096.035-.186.04-.199l.01-.024h-.75l-.21 1.285c-.021.13-.06.368-.084.528-.026.16-.068.408-.094.551l-.167.895-.19.966a3.285 3.285 0 00-.04.218v.025zm7.028-.354l-.256.015-.167-.029-.17-.078-.118-.113-.088-.235-.02-.082.016-.264.253-1.372.258-.193.082-.047.214-.066.276-.016.224.048.158.073.133.133.036.071c.019.039.047.115.06.169l.027.098-.016.582-.04.171a3.728 3.728 0 01-.091.322l-.052.149-.184.321a.887.887 0 01-.11.125l-.166.13-.26.088zm10.746-.012l-.245.013-.081-.02a.895.895 0 01-.15-.057l-.07-.035-.037-.045a.748.748 0 01-.071-.108l-.033-.063-.013-.294.1-.279.049-.1.186-.184.197-.095.245-.058h.765l.048.02-.08.385a2.9 2.9 0 01-.084.262c-.025.063-.045.12-.045.125a.835.835 0 01-.056.103l-.056.094-.092.091a.572.572 0 01-.104.09.322.322 0 00-.068.039l-.057.038-.248.078zm5.235 0l-.231.012-.078-.014a.84.84 0 01-.153-.046l-.074-.032-.126-.103-.093-.178-.042-.199.003-.398.05-.352.038-.122c.02-.068.038-.131.038-.141a.762.762 0 01.047-.123c.025-.057.067-.145.094-.195.026-.051.075-.129.109-.175a1.013 1.013 0 01.275-.265l.069-.042.24-.084h.506l.377.114-.126.697-.085.451a6.082 6.082 0 01-.07.321l-.052.195a1.322 1.322 0 01-.064.168c-.023.049-.064.12-.09.158a.981.981 0 01-.1.116l-.22.16-.242.077zm-12.644-1.715c-.423 0-.77-.003-.77-.007s.018-.057.04-.119l.133-.295.202-.201.1-.048a1.2 1.2 0 01.16-.063c.034-.009.13-.02.215-.025l.153-.01.235.03.17.078.047.051a.446.446 0 01.068.091l.022.04.028.179-.032.299h-.771zm-5.322-1.654l.186.001.148-.05.13-.133.069-.176.003-.261-.062-.101-.106-.066h-.23l-.157.07-.091.097-.071.169-.014.262.067.13.128.058z" fill="#d19389" fill-rule="nonzero"/><path d="M230.22.49h-30c-1.656 0-3 1.344-3 3v22c0 1.656 1.344 3 3 3h30c1.656 0 3-1.344 3-3v-22c0-1.656-1.344-3-3-3zm-18.456 18.538c-1.757 1.661-4.072 1.827-6.108.595l1.153-1.748c1.162.69 2.325.577 3.496-.341l1.459 1.494zm13.099-3.443a2.794 2.794 0 01-2.788 2.657c-.236 0-.463-.026-.681-.087l-.848 1.975a4.921 4.921 0 006.449-4.483l-2.132-.062zm-11.107 2.229l-.008-9.263h1.756v9.009c0 .088.009.166.122.21l1.53.594-.691 1.792-1.791-.76c-.682-.289-.918-.708-.918-1.582zm6.607-.157a2.808 2.808 0 01-1.084-2.211c0-.796.332-1.521.874-2.028l-1.136-1.835a4.924 4.924 0 00-1.87 3.863 4.91 4.91 0 002.14 4.063l1.076-1.852zm-12.025-7.035a4.896 4.896 0 00-4.072 7.611l4.84-2.114 2.02-.892 1.975-.865a4.904 4.904 0 00-4.763-3.74zm-2.787 5.156c-.01-.088-.01-.166-.01-.254a2.808 2.808 0 012.806-2.805c.839 0 1.59.367 2.106.953l-4.902 2.106zm15.58-2.963a2.785 2.785 0 013.556 1.643l2.168-.183a4.922 4.922 0 00-4.788-3.758c-.656 0-1.276.131-1.853.358l.918 1.94z" fill="#d19389"/></svg>