<svg xmlns="http://www.w3.org/2000/svg" width="404.655" height="98.179">
  <g fill="#FFF">
    <path d="M311.628 21.955h-22.251a3.091 3.091 0 00-3.053 2.61l-8.998 57.053a1.855 1.855 0 001.832 2.144h11.417a2.163 2.163 0 002.137-1.827l2.552-16.174a3.091 3.091 0 013.054-2.61h7.041c14.655 0 23.113-7.093 25.324-21.15.995-6.148.04-10.979-2.839-14.361-3.164-3.719-8.772-5.685-16.216-5.685zm2.568 20.837c-1.216 7.987-7.315 7.987-13.216 7.987h-3.356l2.354-14.912a1.856 1.856 0 011.832-1.566h1.539c4.016 0 7.81 0 9.765 2.288 1.171 1.37 1.524 3.399 1.082 6.203zM152.932 21.955h-22.25a3.093 3.093 0 00-3.054 2.61l-8.998 57.053a1.856 1.856 0 001.833 2.144h10.624a3.092 3.092 0 003.054-2.609l2.428-15.392a3.091 3.091 0 013.053-2.61h7.041c14.656 0 23.114-7.093 25.325-21.15.995-6.148.04-10.979-2.838-14.361-3.166-3.719-8.775-5.685-16.218-5.685zm2.568 20.837c-1.216 7.987-7.316 7.987-13.215 7.987h-3.357l2.354-14.912a1.855 1.855 0 011.832-1.566h1.539c4.016 0 7.81 0 9.765 2.288 1.17 1.37 1.524 3.399 1.082 6.203zM219.435 42.537h-10.653c-.913 0-1.69.664-1.833 1.566l-.468 2.979-.745-1.079c-2.308-3.349-7.45-4.468-12.585-4.468-11.77 0-21.826 8.92-23.783 21.43-1.019 6.241.427 12.206 3.966 16.369 3.251 3.825 7.891 5.417 13.419 5.417 9.487 0 14.75-6.096 14.75-6.096l-.476 2.962a1.854 1.854 0 001.832 2.145h9.595a3.091 3.091 0 003.053-2.608l5.76-36.473a1.854 1.854 0 00-1.832-2.144zm-14.848 20.738c-1.029 6.087-5.862 10.174-12.026 10.174-3.09 0-5.564-.994-7.154-2.876-1.576-1.865-2.169-4.523-1.669-7.483.959-6.033 5.87-10.252 11.94-10.252 3.025 0 5.482 1.003 7.103 2.903 1.632 1.913 2.273 4.588 1.806 7.534zM378.131 42.537h-10.653c-.913 0-1.69.664-1.832 1.566l-.469 2.979-.745-1.079c-2.308-3.349-7.45-4.468-12.585-4.468-11.771 0-21.826 8.92-23.782 21.43-1.019 6.241.427 12.206 3.966 16.369 3.251 3.825 7.891 5.417 13.419 5.417 9.487 0 14.75-6.096 14.75-6.096l-.476 2.962a1.854 1.854 0 001.832 2.145h9.595a3.091 3.091 0 003.053-2.608l5.76-36.473a1.855 1.855 0 00-1.833-2.144zm-14.847 20.738c-1.029 6.087-5.861 10.174-12.025 10.174-3.091 0-5.564-.994-7.155-2.876-1.575-1.865-2.169-4.523-1.669-7.483.96-6.033 5.869-10.252 11.939-10.252 3.025 0 5.482 1.003 7.104 2.903 1.631 1.913 2.272 4.588 1.806 7.534zM276.181 42.537h-10.709a3.096 3.096 0 00-2.558 1.356l-14.772 21.756-6.261-20.907a3.093 3.093 0 00-2.961-2.206h-10.527a1.856 1.856 0 00-1.756 2.454l11.792 34.612-11.091 15.648c-.871 1.229.008 2.928 1.514 2.928h10.698a3.09 3.09 0 002.541-1.331l35.614-51.399c.852-1.229-.028-2.911-1.524-2.911zM390.69 23.522l-9.133 58.097a1.855 1.855 0 001.832 2.143h9.185a3.092 3.092 0 003.054-2.609l9.004-57.053a1.854 1.854 0 00-1.832-2.144h-10.277a1.854 1.854 0 00-1.833 1.566z"/>
  </g>
  <g fill="#FFF">
    <path opacity=".68" d="M74.981 24.944c1.198-7.638-.008-12.834-4.139-17.542C66.294 2.22 58.078 0 47.566 0H17.052a4.365 4.365 0 00-4.312 3.686L.033 84.258a2.62 2.62 0 002.587 3.027h18.838l-1.3 8.245a2.29 2.29 0 002.263 2.648H38.3a3.819 3.819 0 003.772-3.224l.156-.808 2.991-18.968.193-1.048a3.82 3.82 0 013.772-3.225h2.375c15.383 0 27.428-6.249 30.947-24.323 1.471-7.552.71-13.856-3.179-18.288-1.175-1.338-2.639-2.446-4.346-3.35"/>
    <path opacity=".7" d="M74.981 24.944c1.198-7.638-.008-12.834-4.139-17.542C66.294 2.22 58.078 0 47.566 0H17.052a4.365 4.365 0 00-4.312 3.686L.033 84.258a2.62 2.62 0 002.587 3.027h18.838l4.732-30.007-.147.941a4.35 4.35 0 014.297-3.686h8.954c17.584 0 31.353-7.144 35.375-27.804.12-.61.221-1.203.312-1.785"/>
    <path d="M31.274 25.045a3.818 3.818 0 013.773-3.224h23.919c2.834 0 5.476.186 7.891.575.69.111 1.362.239 2.015.384a29.396 29.396 0 012.804.768c1.186.394 2.291.858 3.307 1.397 1.198-7.638-.008-12.834-4.139-17.542C66.294 2.22 58.078 0 47.566 0H17.052a4.365 4.365 0 00-4.312 3.686L.033 84.258a2.62 2.62 0 002.587 3.027h18.838l4.732-30.007 5.084-32.233z"/>
  </g>
</svg>