<?xml version="1.0" encoding="UTF-8" standalone="no"?>
<!DOCTYPE svg PUBLIC "-//W3C//DTD SVG 1.1//EN" "http://www.w3.org/Graphics/SVG/1.1/DTD/svg11.dtd">
<svg width="100%" height="100%" viewBox="0 0 148 44" version="1.1" xmlns="http://www.w3.org/2000/svg" xmlns:xlink="http://www.w3.org/1999/xlink" xml:space="preserve" xmlns:serif="http://www.serif.com/" style="fill-rule:evenodd;clip-rule:evenodd;stroke-linejoin:round;stroke-miterlimit:2;">
    <g id="Prancheta1" transform="matrix(1.20325,0,0,1,0,0)">
        <rect x="0" y="0" width="123" height="44" style="fill:rgb(51,51,51);"/>
        <clipPath id="_clip1">
            <rect x="0" y="0" width="123" height="44"/>
        </clipPath>
        <g clip-path="url(#_clip1)">
            <g transform="matrix(0.831081,0,0,1,0,0)">
                <path d="M0.25,17.04C0.3,12.82 0.25,4.8 0.25,4.8L15.35,0.48L30.43,4.8C30.43,4.8 30.37,12.28 30.43,17.04C30.53,26.71 19.61,39.34 15.28,39.34C10.93,39.34 0.1,26.7 0.25,17.04Z" style="fill:rgb(66,132,244);"/>
            </g>
            <g transform="matrix(0.831081,0,0,1,0,0)">
                <path d="M10.58,16.22L10.6,13.72C10.6,10.98 12.61,8.79 15.27,8.79C17.93,8.79 19.95,10.99 19.95,13.72L19.94,16.22L21.22,16.22C21.86,16.22 22.42,16.77 22.42,17.42L22.42,26.79C22.42,27.43 21.86,27.91 21.22,27.91L9.5,27.91C8.85,27.91 8.27,27.43 8.27,26.79L8.27,17.4C8.27,16.76 8.85,16.21 9.5,16.21L10.58,16.21L10.58,16.22ZM17.87,16.22L17.87,13.72C17.87,12.16 16.78,10.87 15.27,10.87C13.76,10.87 12.67,12.17 12.67,13.72L12.66,16.22L17.87,16.22Z" style="fill:white;"/>
            </g>
            <g transform="matrix(0.831081,0,0,1,0,0)">
                <path d="M16.1,22.6L16.1,24.6L14.6,24.6L14.6,22.6C13.895,22.298 13.435,21.602 13.435,20.835C13.435,19.781 14.302,18.915 15.355,18.915C16.408,18.915 17.275,19.781 17.275,20.835C17.275,21.602 16.815,22.298 16.11,22.6L16.1,22.6Z" style="fill:rgb(51,102,183);"/>
            </g>
            <g transform="matrix(0.831081,0,0,1,0,-0.856185)">
                <path d="M39.9,28.78C39.903,28.881 39.905,28.982 39.905,29.082C39.905,34.102 35.775,38.232 30.755,38.232C25.735,38.232 21.605,34.102 21.605,29.082C21.605,28.982 21.607,28.881 21.61,28.78C21.61,23.76 25.74,19.63 30.76,19.63C35.78,19.63 39.91,23.76 39.91,28.78L39.9,28.78Z" style="fill:rgb(56,181,73);"/>
                <path d="M34.99,25.46L29.62,30.54L27.33,28.16L26.4,29.09L29.62,32.31L35.82,26.38L34.99,25.46Z" style="fill:white;"/>
            </g>
            <g transform="matrix(1.10488,0,0,1.32945,-11.7955,-13.196)">
                <path d="M57.31,28.12L57.31,30.61L63.26,30.61C63.166,31.775 62.688,32.877 61.9,33.74C60.696,34.967 59.027,35.629 57.31,35.56C53.731,35.555 50.79,32.609 50.79,29.03C50.79,29.003 50.79,28.977 50.79,28.95C50.79,28.927 50.79,28.903 50.79,28.88C50.79,25.298 53.737,22.35 57.32,22.35C58.98,22.35 60.58,22.983 61.79,24.12L63.54,22.37C61.894,20.716 59.643,19.802 57.31,19.84C52.295,19.84 48.151,23.926 48.08,28.94C48.08,33.95 52.29,38.04 57.31,38.04C60.02,38.04 62.06,37.15 63.66,35.49C65.3,33.85 65.82,31.54 65.82,29.68C65.824,29.157 65.778,28.634 65.68,28.12L57.31,28.12Z" style="fill:rgb(66,133,244);"/>
                <path d="M73.25,26.1C73.213,26.099 73.176,26.099 73.139,26.099C69.963,26.099 67.349,28.713 67.349,31.889C67.349,31.916 67.35,31.943 67.35,31.97C67.35,31.997 67.349,32.024 67.349,32.051C67.349,35.233 69.968,37.851 73.149,37.851C73.183,37.851 73.216,37.851 73.25,37.85C73.284,37.851 73.317,37.851 73.351,37.851C76.532,37.851 79.151,35.233 79.151,32.051C79.151,32.024 79.15,31.997 79.15,31.97C79.15,28.57 76.49,26.1 73.25,26.1ZM73.25,35.53C71.47,35.53 69.93,34.07 69.93,31.97C69.93,29.86 71.47,28.41 73.25,28.41C75.03,28.41 76.56,29.86 76.56,31.97C76.56,34.07 75.03,35.53 73.25,35.53Z" style="fill:rgb(234,67,53);"/>
                <path d="M102.15,27.41L102.05,27.41C101.257,26.55 100.13,26.072 98.96,26.1C96.03,26.1 93.47,28.66 93.47,31.97C93.47,35.27 96.03,37.85 98.97,37.85C100.37,37.85 101.48,37.22 102.06,36.51L102.15,36.51L102.15,37.33C102.15,39.58 100.95,40.78 99.01,40.78C97.44,40.78 96.46,39.65 96.05,38.68L93.81,39.62C94.675,41.722 96.737,43.098 99.01,43.09C102.04,43.09 104.6,41.31 104.6,36.97L104.6,26.4L102.15,26.4L102.15,27.41ZM99.19,35.53C97.41,35.53 96.05,34.02 96.05,31.97C96.05,29.9 97.41,28.41 99.19,28.41C100.95,28.41 102.32,29.93 102.32,31.99C102.33,34.05 100.95,35.53 99.19,35.53Z" style="fill:rgb(66,133,244);"/>
                <path d="M86.4,26.1C86.363,26.099 86.326,26.099 86.289,26.099C83.113,26.099 80.499,28.713 80.499,31.889C80.499,31.916 80.5,31.943 80.5,31.97C80.5,31.997 80.499,32.024 80.499,32.051C80.499,35.233 83.118,37.851 86.299,37.851C86.333,37.851 86.366,37.851 86.4,37.85C86.43,37.85 86.46,37.851 86.491,37.851C89.672,37.851 92.291,35.232 92.291,32.051C92.291,32.024 92.29,31.997 92.29,31.97C92.29,28.57 89.64,26.1 86.39,26.1L86.4,26.1ZM86.4,35.53C84.61,35.53 83.08,34.07 83.08,31.97C83.08,29.86 84.61,28.41 86.39,28.41C88.17,28.41 89.71,29.86 89.71,31.97C89.71,34.07 88.17,35.53 86.39,35.53L86.4,35.53Z" style="fill:rgb(251,188,5);"/>
                <rect x="106.62" y="20.08" width="2.54" height="17.77" style="fill:rgb(52,168,83);"/>
                <path d="M117,35.53C115.775,35.578 114.638,34.871 114.14,33.75L122,30.51L121.74,29.84C121.25,28.52 119.76,26.1 116.71,26.1C113.69,26.1 111.17,28.47 111.17,31.97C111.17,35.27 113.66,37.85 116.99,37.85C118.954,37.86 120.797,36.882 121.89,35.25L119.89,33.91C119.277,34.922 118.173,35.539 116.99,35.53L117,35.53ZM116.81,28.3C117.85,28.3 118.74,28.84 119.04,29.6L113.73,31.79C113.73,29.32 115.48,28.3 116.81,28.3Z" style="fill:rgb(234,67,53);"/>
            </g>
            <g transform="matrix(1.66216,0,0,2,-207.698,-328.003)">
                <g transform="matrix(4.5,0,0,4.5,144.163,168.083)">
                    <path d="M0.535,-0.049L0.206,-0.503L0.204,-0.503L0.204,-0.062C0.204,-0.035 0.197,-0.017 0.184,-0.007C0.171,0.004 0.156,0.009 0.141,0.009C0.126,0.009 0.111,0.004 0.098,-0.007C0.085,-0.017 0.078,-0.035 0.078,-0.062L0.078,-0.625C0.078,-0.659 0.087,-0.683 0.104,-0.697C0.121,-0.71 0.138,-0.717 0.157,-0.717C0.188,-0.717 0.217,-0.698 0.245,-0.659L0.574,-0.206L0.576,-0.206L0.576,-0.646C0.576,-0.673 0.583,-0.691 0.596,-0.702C0.609,-0.712 0.624,-0.717 0.639,-0.717C0.654,-0.717 0.669,-0.712 0.682,-0.702C0.695,-0.691 0.702,-0.673 0.702,-0.646L0.702,-0.083C0.702,-0.049 0.694,-0.025 0.677,-0.012C0.66,0.002 0.642,0.009 0.623,0.009C0.593,0.009 0.564,-0.01 0.535,-0.049Z" style="fill:rgb(251,246,246);fill-rule:nonzero;"/>
                </g>
                <g transform="matrix(4.5,0,0,4.5,148.105,168.083)">
                    <path d="M0.565,-0.04L0.514,-0.162L0.189,-0.162L0.138,-0.039C0.125,-0.007 0.104,0.009 0.075,0.009C0.057,0.009 0.042,0.003 0.03,-0.008C0.018,-0.019 0.012,-0.034 0.012,-0.053C0.012,-0.064 0.015,-0.076 0.021,-0.09L0.276,-0.657C0.294,-0.697 0.32,-0.717 0.354,-0.717C0.389,-0.717 0.415,-0.697 0.433,-0.657L0.686,-0.092C0.691,-0.08 0.694,-0.068 0.694,-0.056C0.694,-0.036 0.688,-0.02 0.675,-0.009C0.662,0.003 0.647,0.009 0.629,0.009C0.6,0.009 0.578,-0.007 0.565,-0.04ZM0.353,-0.554L0.234,-0.27L0.47,-0.27L0.353,-0.554Z" style="fill:rgb(251,246,246);fill-rule:nonzero;"/>
                </g>
                <g transform="matrix(4.5,0,0,4.5,151.714,168.083)">
                    <path d="M0.635,-0.617L0.412,-0.061C0.393,-0.014 0.364,0.009 0.325,0.009C0.285,0.009 0.256,-0.014 0.238,-0.061L0.018,-0.616C0.013,-0.63 0.01,-0.643 0.01,-0.654C0.01,-0.672 0.016,-0.687 0.028,-0.699C0.04,-0.711 0.055,-0.717 0.074,-0.717C0.104,-0.717 0.126,-0.699 0.139,-0.662L0.326,-0.163L0.33,-0.163L0.516,-0.664C0.529,-0.699 0.551,-0.717 0.58,-0.717C0.598,-0.717 0.613,-0.711 0.626,-0.7C0.638,-0.689 0.644,-0.674 0.644,-0.656C0.644,-0.645 0.641,-0.632 0.635,-0.617Z" style="fill:rgb(251,246,246);fill-rule:nonzero;"/>
                </g>
                <g transform="matrix(4.5,0,0,4.5,155.085,168.083)">
                    <path d="M0.478,-0.312L0.204,-0.312L0.204,-0.112L0.513,-0.112C0.536,-0.112 0.552,-0.106 0.561,-0.094C0.57,-0.082 0.574,-0.069 0.574,-0.056C0.574,-0.043 0.57,-0.03 0.561,-0.018C0.552,-0.006 0.536,-0 0.513,-0L0.153,-0C0.103,-0 0.078,-0.025 0.078,-0.075L0.078,-0.633C0.078,-0.683 0.103,-0.708 0.153,-0.708L0.494,-0.708C0.511,-0.708 0.524,-0.704 0.534,-0.697C0.544,-0.69 0.55,-0.682 0.553,-0.675C0.555,-0.668 0.556,-0.66 0.556,-0.653C0.556,-0.646 0.555,-0.638 0.553,-0.631C0.55,-0.624 0.544,-0.616 0.534,-0.609C0.524,-0.602 0.511,-0.598 0.494,-0.598L0.204,-0.598L0.204,-0.418L0.478,-0.418C0.501,-0.418 0.517,-0.412 0.526,-0.401C0.534,-0.39 0.538,-0.378 0.538,-0.365C0.538,-0.358 0.537,-0.35 0.535,-0.344C0.532,-0.337 0.526,-0.33 0.517,-0.323C0.507,-0.316 0.494,-0.312 0.478,-0.312Z" style="fill:rgb(251,246,246);fill-rule:nonzero;"/>
                </g>
                <g transform="matrix(4.5,0,0,4.5,158.262,168.083)">
                    <path d="M0.698,-0.333L0.698,-0.092C0.698,-0.071 0.693,-0.054 0.684,-0.042C0.675,-0.029 0.66,-0.02 0.639,-0.013C0.576,0.008 0.506,0.018 0.431,0.018C0.317,0.018 0.224,-0.017 0.152,-0.086C0.08,-0.155 0.044,-0.245 0.044,-0.356C0.044,-0.467 0.08,-0.557 0.153,-0.625C0.225,-0.692 0.317,-0.726 0.428,-0.726C0.518,-0.726 0.59,-0.706 0.644,-0.667C0.665,-0.652 0.675,-0.634 0.675,-0.614C0.675,-0.597 0.67,-0.583 0.659,-0.572C0.648,-0.561 0.635,-0.555 0.619,-0.555C0.604,-0.555 0.589,-0.56 0.575,-0.57C0.53,-0.6 0.481,-0.615 0.429,-0.615C0.356,-0.615 0.296,-0.59 0.251,-0.541C0.206,-0.492 0.183,-0.43 0.183,-0.356C0.183,-0.279 0.206,-0.217 0.252,-0.168C0.297,-0.119 0.358,-0.095 0.435,-0.095C0.489,-0.095 0.536,-0.103 0.576,-0.12L0.576,-0.3L0.476,-0.3C0.455,-0.3 0.44,-0.306 0.431,-0.317C0.422,-0.328 0.418,-0.339 0.418,-0.352C0.418,-0.365 0.422,-0.377 0.431,-0.388C0.44,-0.399 0.455,-0.404 0.476,-0.404L0.627,-0.404C0.674,-0.404 0.698,-0.38 0.698,-0.333Z" style="fill:rgb(251,246,246);fill-rule:nonzero;"/>
                </g>
                <g transform="matrix(4.5,0,0,4.5,162.172,168.083)">
                    <path d="M0.565,-0.04L0.514,-0.162L0.189,-0.162L0.138,-0.039C0.125,-0.007 0.104,0.009 0.075,0.009C0.057,0.009 0.042,0.003 0.03,-0.008C0.018,-0.019 0.012,-0.034 0.012,-0.053C0.012,-0.064 0.015,-0.076 0.021,-0.09L0.276,-0.657C0.294,-0.697 0.32,-0.717 0.354,-0.717C0.389,-0.717 0.415,-0.697 0.433,-0.657L0.686,-0.092C0.691,-0.08 0.694,-0.068 0.694,-0.056C0.694,-0.036 0.688,-0.02 0.675,-0.009C0.662,0.003 0.647,0.009 0.629,0.009C0.6,0.009 0.578,-0.007 0.565,-0.04ZM0.353,-0.554L0.234,-0.27L0.47,-0.27L0.353,-0.554Z" style="fill:rgb(251,246,246);fill-rule:nonzero;"/>
                </g>
                <g transform="matrix(4.5,0,0,4.5,165.781,168.083)">
                    <path d="M0.315,0.169C0.318,0.169 0.327,0.171 0.34,0.174C0.356,0.179 0.373,0.181 0.39,0.181C0.427,0.181 0.446,0.169 0.446,0.146C0.446,0.135 0.442,0.127 0.435,0.121C0.427,0.114 0.416,0.111 0.403,0.111C0.396,0.111 0.39,0.112 0.383,0.113C0.373,0.115 0.366,0.116 0.361,0.116C0.344,0.116 0.335,0.108 0.335,0.093C0.335,0.087 0.338,0.079 0.345,0.07L0.381,0.016C0.281,0.007 0.2,-0.031 0.138,-0.1C0.075,-0.168 0.044,-0.253 0.044,-0.356C0.044,-0.467 0.08,-0.557 0.153,-0.625C0.225,-0.692 0.317,-0.726 0.428,-0.726C0.469,-0.726 0.507,-0.72 0.545,-0.709C0.582,-0.697 0.612,-0.681 0.635,-0.661C0.654,-0.644 0.663,-0.627 0.663,-0.609C0.663,-0.593 0.657,-0.579 0.646,-0.568C0.635,-0.557 0.621,-0.551 0.604,-0.551C0.591,-0.551 0.575,-0.558 0.556,-0.571C0.522,-0.6 0.479,-0.615 0.428,-0.615C0.356,-0.615 0.297,-0.59 0.252,-0.541C0.206,-0.492 0.183,-0.43 0.183,-0.356C0.183,-0.279 0.205,-0.216 0.249,-0.168C0.292,-0.119 0.35,-0.095 0.423,-0.095C0.48,-0.095 0.53,-0.113 0.571,-0.15C0.588,-0.164 0.603,-0.171 0.618,-0.171C0.634,-0.171 0.647,-0.166 0.658,-0.156C0.669,-0.146 0.674,-0.133 0.674,-0.116C0.674,-0.097 0.665,-0.079 0.648,-0.062C0.6,-0.014 0.533,0.012 0.447,0.017L0.413,0.065C0.424,0.064 0.432,0.063 0.437,0.063C0.463,0.063 0.485,0.07 0.503,0.084C0.521,0.097 0.53,0.118 0.53,0.146C0.53,0.179 0.517,0.203 0.49,0.218C0.462,0.233 0.431,0.24 0.395,0.24C0.368,0.24 0.341,0.236 0.315,0.227C0.296,0.221 0.287,0.211 0.287,0.198C0.287,0.19 0.29,0.183 0.295,0.178C0.3,0.172 0.307,0.169 0.315,0.169Z" style="fill:rgb(251,246,246);fill-rule:nonzero;"/>
                </g>
                <g transform="matrix(4.5,0,0,4.5,169.345,168.083)">
                    <path d="M0.565,-0.04L0.514,-0.162L0.189,-0.162L0.138,-0.039C0.125,-0.007 0.104,0.009 0.075,0.009C0.057,0.009 0.042,0.003 0.03,-0.008C0.018,-0.019 0.012,-0.034 0.012,-0.053C0.012,-0.064 0.015,-0.076 0.021,-0.09L0.276,-0.657C0.294,-0.697 0.32,-0.717 0.354,-0.717C0.389,-0.717 0.415,-0.697 0.433,-0.657L0.686,-0.092C0.691,-0.08 0.694,-0.068 0.694,-0.056C0.694,-0.036 0.688,-0.02 0.675,-0.009C0.662,0.003 0.647,0.009 0.629,0.009C0.6,0.009 0.578,-0.007 0.565,-0.04ZM0.353,-0.554L0.234,-0.27L0.47,-0.27L0.353,-0.554ZM0.423,-0.773C0.398,-0.773 0.372,-0.78 0.344,-0.795C0.318,-0.808 0.299,-0.815 0.287,-0.815C0.272,-0.815 0.259,-0.806 0.25,-0.788C0.241,-0.771 0.229,-0.763 0.214,-0.763C0.191,-0.763 0.18,-0.774 0.18,-0.797C0.18,-0.804 0.182,-0.812 0.185,-0.821C0.204,-0.87 0.237,-0.895 0.285,-0.895C0.31,-0.895 0.336,-0.888 0.364,-0.873C0.39,-0.86 0.409,-0.853 0.421,-0.853C0.436,-0.853 0.449,-0.862 0.458,-0.88C0.467,-0.897 0.479,-0.905 0.494,-0.905C0.517,-0.905 0.528,-0.894 0.528,-0.871C0.528,-0.864 0.526,-0.856 0.523,-0.847C0.504,-0.798 0.471,-0.773 0.423,-0.773Z" style="fill:rgb(251,246,246);fill-rule:nonzero;"/>
                </g>
                <g transform="matrix(4.5,0,0,4.5,172.954,168.083)">
                    <path d="M0.805,-0.356C0.805,-0.246 0.769,-0.156 0.698,-0.087C0.626,-0.017 0.534,0.018 0.423,0.018C0.313,0.018 0.222,-0.017 0.151,-0.087C0.08,-0.156 0.044,-0.246 0.044,-0.356C0.044,-0.468 0.08,-0.558 0.151,-0.625C0.222,-0.692 0.312,-0.726 0.423,-0.726C0.535,-0.726 0.627,-0.692 0.698,-0.625C0.769,-0.558 0.805,-0.468 0.805,-0.356ZM0.668,-0.356C0.668,-0.43 0.646,-0.492 0.601,-0.541C0.556,-0.59 0.497,-0.615 0.424,-0.615C0.352,-0.615 0.294,-0.59 0.249,-0.541C0.204,-0.492 0.181,-0.43 0.181,-0.356C0.181,-0.28 0.204,-0.218 0.249,-0.169C0.294,-0.12 0.353,-0.095 0.424,-0.095C0.496,-0.095 0.555,-0.12 0.6,-0.169C0.645,-0.218 0.668,-0.28 0.668,-0.356Z" style="fill:rgb(251,246,246);fill-rule:nonzero;"/>
                </g>
                <g transform="matrix(4.5,0,0,4.5,178.81,168.083)">
                    <path d="M0.15,-0.137C0.186,-0.105 0.226,-0.089 0.27,-0.089C0.304,-0.089 0.334,-0.098 0.36,-0.115C0.385,-0.132 0.398,-0.159 0.398,-0.194C0.398,-0.206 0.396,-0.217 0.393,-0.227C0.39,-0.236 0.384,-0.245 0.375,-0.253C0.366,-0.261 0.358,-0.268 0.351,-0.273C0.344,-0.278 0.333,-0.283 0.316,-0.29C0.299,-0.296 0.286,-0.3 0.279,-0.303C0.272,-0.306 0.257,-0.31 0.235,-0.317C0.21,-0.325 0.188,-0.333 0.17,-0.342C0.152,-0.351 0.134,-0.363 0.115,-0.378C0.096,-0.393 0.081,-0.412 0.071,-0.436C0.061,-0.459 0.056,-0.487 0.056,-0.518C0.056,-0.585 0.082,-0.637 0.133,-0.673C0.184,-0.708 0.244,-0.726 0.314,-0.726C0.377,-0.726 0.429,-0.711 0.47,-0.68C0.491,-0.665 0.501,-0.648 0.501,-0.627C0.501,-0.612 0.496,-0.599 0.486,-0.588C0.475,-0.577 0.462,-0.572 0.446,-0.572C0.433,-0.572 0.419,-0.577 0.404,-0.588C0.372,-0.61 0.34,-0.621 0.309,-0.621C0.276,-0.621 0.247,-0.613 0.222,-0.597C0.197,-0.58 0.184,-0.556 0.184,-0.524C0.184,-0.508 0.187,-0.495 0.193,-0.484C0.198,-0.472 0.208,-0.463 0.223,-0.454C0.237,-0.445 0.25,-0.439 0.263,-0.434C0.276,-0.429 0.294,-0.423 0.319,-0.415C0.342,-0.408 0.362,-0.401 0.377,-0.396C0.392,-0.391 0.409,-0.382 0.431,-0.371C0.452,-0.359 0.468,-0.346 0.481,-0.333C0.493,-0.32 0.503,-0.302 0.513,-0.281C0.522,-0.259 0.526,-0.235 0.526,-0.208C0.526,-0.135 0.502,-0.08 0.453,-0.041C0.404,-0.001 0.342,0.018 0.268,0.018C0.187,0.018 0.122,-0.003 0.074,-0.045C0.055,-0.06 0.046,-0.078 0.046,-0.097C0.046,-0.113 0.052,-0.127 0.063,-0.139C0.074,-0.15 0.088,-0.156 0.105,-0.156C0.12,-0.156 0.135,-0.15 0.15,-0.137Z" style="fill:rgb(251,246,246);fill-rule:nonzero;"/>
                </g>
                <g transform="matrix(4.5,0,0,4.5,181.825,168.083)">
                    <path d="M0.478,-0.312L0.204,-0.312L0.204,-0.112L0.513,-0.112C0.536,-0.112 0.552,-0.106 0.561,-0.094C0.57,-0.082 0.574,-0.069 0.574,-0.056C0.574,-0.043 0.57,-0.03 0.561,-0.018C0.552,-0.006 0.536,-0 0.513,-0L0.153,-0C0.103,-0 0.078,-0.025 0.078,-0.075L0.078,-0.633C0.078,-0.683 0.103,-0.708 0.153,-0.708L0.494,-0.708C0.511,-0.708 0.524,-0.704 0.534,-0.697C0.544,-0.69 0.55,-0.682 0.553,-0.675C0.555,-0.668 0.556,-0.66 0.556,-0.653C0.556,-0.646 0.555,-0.638 0.553,-0.631C0.55,-0.624 0.544,-0.616 0.534,-0.609C0.524,-0.602 0.511,-0.598 0.494,-0.598L0.204,-0.598L0.204,-0.418L0.478,-0.418C0.501,-0.418 0.517,-0.412 0.526,-0.401C0.534,-0.39 0.538,-0.378 0.538,-0.365C0.538,-0.358 0.537,-0.35 0.535,-0.344C0.532,-0.337 0.526,-0.33 0.517,-0.323C0.507,-0.316 0.494,-0.312 0.478,-0.312Z" style="fill:rgb(251,246,246);fill-rule:nonzero;"/>
                </g>
                <g transform="matrix(4.5,0,0,4.5,185.002,168.083)">
                    <path d="M0.698,-0.333L0.698,-0.092C0.698,-0.071 0.693,-0.054 0.684,-0.042C0.675,-0.029 0.66,-0.02 0.639,-0.013C0.576,0.008 0.506,0.018 0.431,0.018C0.317,0.018 0.224,-0.017 0.152,-0.086C0.08,-0.155 0.044,-0.245 0.044,-0.356C0.044,-0.467 0.08,-0.557 0.153,-0.625C0.225,-0.692 0.317,-0.726 0.428,-0.726C0.518,-0.726 0.59,-0.706 0.644,-0.667C0.665,-0.652 0.675,-0.634 0.675,-0.614C0.675,-0.597 0.67,-0.583 0.659,-0.572C0.648,-0.561 0.635,-0.555 0.619,-0.555C0.604,-0.555 0.589,-0.56 0.575,-0.57C0.53,-0.6 0.481,-0.615 0.429,-0.615C0.356,-0.615 0.296,-0.59 0.251,-0.541C0.206,-0.492 0.183,-0.43 0.183,-0.356C0.183,-0.279 0.206,-0.217 0.252,-0.168C0.297,-0.119 0.358,-0.095 0.435,-0.095C0.489,-0.095 0.536,-0.103 0.576,-0.12L0.576,-0.3L0.476,-0.3C0.455,-0.3 0.44,-0.306 0.431,-0.317C0.422,-0.328 0.418,-0.339 0.418,-0.352C0.418,-0.365 0.422,-0.377 0.431,-0.388C0.44,-0.399 0.455,-0.404 0.476,-0.404L0.627,-0.404C0.674,-0.404 0.698,-0.38 0.698,-0.333Z" style="fill:rgb(251,246,246);fill-rule:nonzero;"/>
                </g>
                <g transform="matrix(4.5,0,0,4.5,188.913,168.083)">
                    <path d="M0.516,-0.265L0.516,-0.646C0.516,-0.673 0.523,-0.691 0.536,-0.702C0.549,-0.712 0.564,-0.717 0.579,-0.717C0.594,-0.717 0.609,-0.712 0.622,-0.702C0.635,-0.691 0.642,-0.673 0.642,-0.646L0.642,-0.26C0.642,-0.176 0.615,-0.109 0.562,-0.058C0.508,-0.007 0.44,0.018 0.357,0.018C0.274,0.018 0.206,-0.007 0.153,-0.058C0.099,-0.109 0.072,-0.176 0.072,-0.26L0.072,-0.646C0.072,-0.673 0.079,-0.691 0.092,-0.702C0.105,-0.712 0.12,-0.717 0.135,-0.717C0.15,-0.717 0.165,-0.712 0.178,-0.702C0.191,-0.691 0.198,-0.673 0.198,-0.646L0.198,-0.265C0.198,-0.218 0.211,-0.178 0.236,-0.145C0.261,-0.112 0.302,-0.095 0.357,-0.095C0.412,-0.095 0.453,-0.112 0.478,-0.145C0.503,-0.178 0.516,-0.218 0.516,-0.265Z" style="fill:rgb(251,246,246);fill-rule:nonzero;"/>
                </g>
                <g transform="matrix(4.5,0,0,4.5,192.558,168.083)">
                    <path d="M0.204,-0.602L0.204,-0.403L0.307,-0.403C0.408,-0.403 0.459,-0.437 0.459,-0.506C0.459,-0.541 0.445,-0.565 0.418,-0.58C0.391,-0.595 0.357,-0.602 0.318,-0.602L0.204,-0.602ZM0.47,-0.025L0.296,-0.3L0.204,-0.3L0.204,-0.062C0.204,-0.035 0.197,-0.017 0.184,-0.007C0.171,0.004 0.156,0.009 0.141,0.009C0.126,0.009 0.111,0.004 0.098,-0.007C0.085,-0.017 0.078,-0.035 0.078,-0.062L0.078,-0.633C0.078,-0.683 0.103,-0.708 0.153,-0.708L0.324,-0.708C0.371,-0.708 0.414,-0.702 0.452,-0.69C0.489,-0.677 0.521,-0.655 0.547,-0.624C0.572,-0.592 0.585,-0.552 0.585,-0.505C0.585,-0.455 0.571,-0.413 0.542,-0.381C0.513,-0.347 0.474,-0.325 0.423,-0.314L0.572,-0.095C0.582,-0.08 0.587,-0.066 0.587,-0.052C0.587,-0.035 0.581,-0.02 0.57,-0.009C0.558,0.003 0.543,0.009 0.525,0.009C0.503,0.009 0.485,-0.002 0.47,-0.025Z" style="fill:rgb(251,246,246);fill-rule:nonzero;"/>
                </g>
                <g transform="matrix(4.5,0,0,4.5,195.82,168.083)">
                    <path d="M0.565,-0.04L0.514,-0.162L0.189,-0.162L0.138,-0.039C0.125,-0.007 0.104,0.009 0.075,0.009C0.057,0.009 0.042,0.003 0.03,-0.008C0.018,-0.019 0.012,-0.034 0.012,-0.053C0.012,-0.064 0.015,-0.076 0.021,-0.09L0.276,-0.657C0.294,-0.697 0.32,-0.717 0.354,-0.717C0.389,-0.717 0.415,-0.697 0.433,-0.657L0.686,-0.092C0.691,-0.08 0.694,-0.068 0.694,-0.056C0.694,-0.036 0.688,-0.02 0.675,-0.009C0.662,0.003 0.647,0.009 0.629,0.009C0.6,0.009 0.578,-0.007 0.565,-0.04ZM0.353,-0.554L0.234,-0.27L0.47,-0.27L0.353,-0.554Z" style="fill:rgb(251,246,246);fill-rule:nonzero;"/>
                </g>
            </g>
        </g>
    </g>
</svg>
