<svg xmlns="http://www.w3.org/2000/svg" fill-rule="evenodd" stroke-linejoin="round" stroke-miterlimit="2" clip-rule="evenodd" viewBox="0 0 90 39" width="90">
  <g fill="#c6867f" fill-rule="nonzero">
    <path d="M48.6 6.4h-4.5a2 2 0 00-2 1.9v22h-3.6c-2 0-3.6-1.6-3.6-3.6V8.3c0-1-.9-2-2-2h-4.5c-1 0-1.9 1-1.9 2V28c0 6.3 7 10.2 12 10.2 3.4 0 5.6-1.8 5.6-4.4v-1.6h1.2c2.6 0 5.2-2.6 5.2-5.2V8.3c0-1-.8-2-1.9-2zm-10 25.8h3.6v1.6c0 2.1-2.3 2.4-3.6 2.4-4.3 0-10.1-3-10.1-8.2v-4.6-15l4.5-.1v18.4c0 3 2.5 5.5 5.5 5.5zm6.7-1.9h-1.2v-22h4.5V27c0 1.5-1.8 3.3-3.3 3.3zM24.8 10.6c0-6.3-7-10.1-12-10.1-3.4 0-5.6 1.7-5.6 4.4v1.5H5.9C3.4 6.4.8 9.1.8 11.6v18.8c0 1 .8 1.9 1.9 1.9h4.5a2 2 0 002-2v-.1V8.4h3.6c2 0 3.6 1.6 3.6 3.6v18.4c0 1 .9 1.9 2 1.9h4.5c1 0 1.9-.9 1.9-2V10.7zM5.9 8.4h1.3v21.9H2.7V11.7c0-1.4 1.8-3.2 3.2-3.2zm6.9-2H9V5c0-2.1 2.3-2.5 3.6-2.5 4.3 0 10.1 3.1 10.1 8.2v19.7h-4.5V12c0-3-2.5-5.6-5.5-5.6zM58.7 20.2a5 5 0 00-1.7.3V16c0-.3-.2-.5-.5-.5h-1c-.2 0-.4.2-.4.5v14.2c0 .2 0 .3.2.4.7.5 1.8.8 3 .8 2.8 0 4.7-2.2 4.7-5.8 0-3.3-1.8-5.5-4.3-5.5zM57 22.1c.4-.2.8-.2 1.5-.2 1.8 0 2.5 2 2.5 3.8 0 2.7-1 4.1-2.8 4.1l-1.2-.1V22zM67.4 20.2c-1.4 0-2.6.6-3 .8-.1 0-.2.4-.1.6l.2.6a.5.5 0 00.7.3c.4-.2 1.2-.6 2.1-.6 1.4 0 2 .5 2 1.8v.2c-2.7.3-5.6 1.2-5.6 4.3 0 2 1.4 3.3 4 3.3 1.2 0 2.4-.3 3.2-.8.2 0 .3-.2.3-.4v-6.6c0-2.2-1.4-3.5-3.8-3.5zm1.8 5.3v4.2l-1.4.2c-2 0-2.2-1-2.2-1.7 0-1.6.9-2.2 3.6-2.7zM76.8 20.2c-1.5 0-2.6.2-3.6.7-.2.1-.3.3-.3.5v9.4c0 .3.3.5.5.5h1c.3 0 .5-.2.5-.5v-8.7c.5-.2.9-.2 1.8-.2 1.3 0 1.8.5 1.8 1.7v7.2c0 .3.3.5.5.5h1c.3 0 .5-.2.5-.5v-7.3c0-1.6-1-3.3-3.7-3.3zM89.5 30.4l-4.1-4.8 3.8-4.4c.1-.2.2-.4 0-.6l-.4-.2h-1l-.5.1-3 3.7v-8.1c0-.3-.3-.5-.5-.5h-1c-.3 0-.5.2-.5.5v14.7c0 .3.2.5.5.5h1c.2 0 .5-.2.5-.5V27l3.4 4.1c0 .2.2.2.4.2h1.1a.5.5 0 00.3-.9z"/>
  </g>
</svg>