<svg xmlns="http://www.w3.org/2000/svg" fill-rule="evenodd" stroke-linejoin="round" stroke-miterlimit="2" clip-rule="evenodd" viewBox="0 0 135 44" width="135">
  <path fill="#d19389" fill-rule="nonzero" d="M79.8 24.07c0 .43-.28.73-.7.73-.42 0-.7-.32-.7-.73 0-.4.28-.73.7-.73.42 0 .7.33.7.73zm-19.42-.73c-.44 0-.7.33-.7.73 0 .4.26.73.7.73.4 0 .68-.3.68-.73 0-.4-.27-.73-.68-.73zm7.34-.02c-.33 0-.54.22-.6.55h1.2c-.05-.36-.27-.55-.6-.55zm6.74.02c-.42 0-.68.33-.68.73 0 .4.26.73.68.73.43 0 .7-.3.7-.73 0-.4-.27-.73-.7-.73zm6.62 1.63c0 .02.02.03.02.07 0 .02-.02.03-.02.07l-.03.05c-.02.02-.03.03-.07.03-.02.02-.03.02-.07.02l-.07-.02c-.02 0-.03-.02-.05-.03-.02-.02-.03-.03-.03-.05-.02-.03-.02-.05-.02-.07 0-.03 0-.05.02-.07 0-.03.02-.05.03-.07l.05-.03c.03-.02.05-.02.07-.02.03 0 .05 0 .07.02l.07.03c.02.02.01.04.03.07zm-.14.09c.03 0 .03-.02.05-.02.02-.02.02-.03.02-.05 0-.02 0-.03-.02-.05-.02 0-.03-.02-.07-.02h-.1v.22h.05v-.09h.02l.07.09h.05l-.07-.08zm4.68-21.57v22a3 3 0 01-3 3h-30a3 3 0 01-3-3v-22a3 3 0 013-3h30a3 3 0 013 3zm-32 8.73a8.66 8.66 0 0013.44 7.2 9.32 9.32 0 010-14.4 8.66 8.66 0 00-13.44 7.2zm14 6.8a8.65 8.65 0 000-13.6 8.65 8.65 0 000 13.6zm-8.9 4.76c0-.54-.35-.9-.91-.91a.9.9 0 00-.8.4c-.15-.25-.4-.4-.76-.4a.8.8 0 00-.66.33v-.27h-.52v2.3h.52c0-1.19-.16-1.9.56-1.9.64 0 .51.64.51 1.9h.5c0-1.15-.16-1.9.56-1.9.63 0 .5.63.5 1.9h.52v-1.45h-.01zm2.82-.85h-.5v.27a.9.9 0 00-.73-.33c-.64 0-1.14.5-1.14 1.2s.5 1.2 1.14 1.2c.33 0 .56-.11.73-.33v.29h.5v-2.3zm2.53 1.6c0-.94-1.43-.51-1.43-.95 0-.36.74-.3 1.15-.07l.2-.4c-.58-.39-1.88-.38-1.88.5 0 .9 1.43.52 1.43.94 0 .4-.84.37-1.3.05l-.21.4c.7.47 2.04.37 2.04-.47zm2.2.58l-.13-.43c-.24.14-.76.28-.76-.25v-1.04h.82v-.46h-.82v-.7h-.51v.7h-.48v.45h.48v1.05c0 1.1 1.08.9 1.4.68zm.84-.84h1.72c0-1.01-.46-1.41-1.09-1.41-.66 0-1.14.5-1.14 1.2 0 1.29 1.42 1.5 2.12.9l-.24-.38c-.49.4-1.23.36-1.37-.3zm3.7-1.34c-.3-.13-.73-.11-.96.27v-.27h-.5v2.3h.5v-1.3c0-.73.6-.63.8-.53l.15-.47zm.66 1.14c0-.71.72-.94 1.29-.52l.24-.41c-.73-.57-2.05-.26-2.05.94 0 1.24 1.4 1.49 2.05.94l-.24-.41c-.57.4-1.3.16-1.3-.54zm4.17-1.14h-.52v.27c-.52-.68-1.87-.3-1.87.87 0 1.2 1.4 1.55 1.87.87v.29h.52v-2.3zm2.1 0c-.15-.08-.69-.18-.95.27v-.27h-.5v2.3h.5v-1.3c0-.69.56-.65.8-.53l.15-.47zm2.52-.93h-.5v1.2c-.5-.68-1.86-.32-1.86.87 0 1.21 1.4 1.54 1.87.87v.29h.49V22zm.48-4.7v.29h.05v-.29h.11v-.05h-.28v.05h.12zm.4 7.74l-.01-.1-.05-.07-.07-.05-.1-.02-.09.02a.33.33 0 00-.07.05c-.03.02-.05.05-.05.07l-.01.1.01.09c0 .02.02.05.05.07l.07.05c.03.02.07.02.09.02.03 0 .07 0 .1-.02l.07-.05.05-.07c.02-.04.02-.07.02-.09zm.2-7.8h-.08l-.1.23-.1-.22h-.09v.33h.05v-.25l.1.22h.07l.09-.22v.25h.07v-.33zm.28-5.02a8.66 8.66 0 00-13.43-7.2 9.32 9.32 0 010 14.4 8.65 8.65 0 0013.44-7.2zM119.16 8.98c0-1.03-.88-1.15-1.71-1.15l-2.44-.02v4.33h1.02v-1.57h1.13c1.15 0 .9.65.92 1.57h1.04v-.84c0-.58-.1-.95-.69-1.15.46-.2.74-.67.73-1.17zm-1.84.7h-1.29v-.95h1.31c.32 0 .67.06.67.46 0 .41-.33.5-.69.5zm-1.04 5.6h-3.3l-1.3 1.42-1.29-1.42h-4.15v4.33h4.08l1.33-1.44 1.27 1.44h2.02v-1.46c1.18 0 3.08.29 3.08-1.45 0-1.08-.76-1.42-1.74-1.42zm-6.49 3.42h-2.53v-.87h2.26v-.88h-2.26v-.78h2.6l1.12 1.26-1.19 1.27zm4.12.5l-1.59-1.75 1.59-1.71v3.47zm2.36-1.93h-1.33v-1.1h1.35c.35 0 .63.15.63.53 0 .4-.28.57-.65.57zm-1.98-8.54v-.91h-3.47v4.33h3.47v-.9h-2.43v-.86h2.36v-.88h-2.36v-.78h2.43zm20.55 5.72zm-12.16 2c0-1.03-.88-1.17-1.7-1.17h-2.46v4.33h1.04v-1.58h1.1c.69 0 .93.12.93.86v.72h1.03v-.86c0-.56-.1-.95-.68-1.15.48-.2.73-.68.74-1.15zm-1.82.7h-1.3v-.98h1.31c.32 0 .67.06.67.46 0 .44-.33.52-.68.52zm-10.8-5V7.82h-1.73l-1.23 2.93-1.36-2.93h-1.69v4.1l-1.76-4.1h-1.53l-1.85 4.33h1.11l.4-.96h2.16l.4.96h2.11v-3.4l1.5 3.4h.92l1.5-3.4v3.4h1.05zm-9.27-1.86l.7-1.72.72 1.72h-1.42zm29.84 9.93v-.28c-.67.35-.24.28-9.8.28 0-1.57.01-1.5 0-1.57l-.58-.01v1.58h-2.48V18.4c-.62.37-1.42.4-2.14.38v1.44h-3.06l-.96-1.09-1.01 1.1h-5.13v-5.78h5.2l.97 1.08.98-1.08h3.62c.62 0 1.13.12 1.52.35v-.35c3.4 0 4.02-.08 4.73.32v-.32h4.9v.33c.7-.43 1.22-.33 4.05-.33v.32c.64-.37 1.03-.33 3.4-.32V3.5a3 3 0 00-3-3h-30a3 3 0 00-3 3v6.86l1.43-3.37h2.49c.26.64.1.24.56 1.32V6.98h2.87l.87 1.88.79-1.88h7.16c2.73.02 3.35-.05 4.03.34v-.34h2.5v.59a2.99 2.99 0 011.91-.59h1.72c0 .04.12.02.15.02h2.02l.55 1.29V7h2.71l.7 1.15V7h2.5v5.75h-2.6c-.34-.56-.1-.13-.83-1.37v1.37h-3.3l-.41-.95h-1.2c-.25.62-.13.32-.4.95h-1.67a2.9 2.9 0 01-1.85-.55v.55h-4.16c-.02-.87 0-1.55 0-1.55-.12-.02-.22-.01-.62-.01v1.57h-8.47v-.71l-.32.7h-1.84l-.32-.7v.7h-3.3l-.4-.95h-1.2l-.4.96h-1.67v12.73a3 3 0 003 3h30.01a3 3 0 003-3v-5.65c-.8.52-2.04.38-4.22.38zm2.27-4.03h1.88v-.91h-2.06c-.8 0-1.48.41-1.48 1.3 0 2.05 2.67.8 2.67 1.7 0 .32-.27.4-.53.4h-2v.93h2c.52 0 1.1-.11 1.4-.56v-1.61c-.66-.86-2.46-.08-2.46-.84 0-.37.3-.41.58-.41zm-3.56 2.49h-2.02v.92h2.01c.93 0 1.64-.35 1.64-1.37 0-2.08-2.68-.7-2.68-1.65 0-.35.3-.4.57-.4h1.9v-.9h-2.07c-.8 0-1.47.4-1.47 1.29 0 2.06 2.67.78 2.67 1.7 0 .35-.3.4-.55.4zm-2.64-2.5v-.9h-3.45v4.33h3.44l.01-.9-2.41-.01v-.87h2.37v-.88h-2.37v-.78h2.41zm-3.52-6.76c-.02 0-.09.13-.09.47 0 .38.06.48.07.5a.5.5 0 00.21.03l.46-1.06h-.2c-.34 0-.43.04-.45.06zm1.28-.66h-.01zm-1.02-.95c-1.47 0-2.12.75-2.12 2.2 0 1.4.64 2.13 2.06 2.13h1.2l.4-.96h2.14l.42.96h2.1V8.9l1.95 3.24h1.48V7.83H132v3l-1.82-3h-1.58v4.09l-1.74-4.1h-1.55l-1.47 3.41h-.46c-.83 0-1-.5-1-1.24 0-1.49.97-1.25 2.06-1.23V7.8h-1zm2.63.76l.7 1.72h-1.42l.72-1.72zm-6.31-.75v4.33h1.05V7.82h-1.05zM29.79 12.95s.47 2.32.58 2.8h-2.09l1-2.71.33-.93.18.84zm6.61-9.46v22a3 3 0 01-3 3h-30a3 3 0 01-3-3v-22a3 3 0 013-3h30a3 3 0 013 3zM9.94 19.19l3.95-9.7h-2.66l-2.46 6.63-.27-1.35-.87-4.46c-.14-.62-.59-.8-1.14-.82H2.45l-.05.2c1 .24 1.87.6 2.64 1.06l2.24 8.44h2.66zm5.9.01L17.4 9.5H14.9l-1.57 9.71h2.5zm8.74-3.17c.01-1.1-.66-1.95-2.1-2.65-.89-.44-1.43-.74-1.43-1.2.02-.4.46-.83 1.45-.83a4.3 4.3 0 011.87.37l.22.1.35-2.1c-.5-.2-1.29-.41-2.25-.41-2.49 0-4.23 1.32-4.24 3.21-.02 1.4 1.25 2.17 2.2 2.64.97.47 1.3.79 1.3 1.2-.01.66-.79.96-1.5.96a5 5 0 01-2.36-.52l-.34-.16-.35 2.18c.6.27 1.68.5 2.8.52 2.64 0 4.36-1.3 4.38-3.31zm8.82 3.17L31.38 9.5h-1.94c-.6 0-1.06.18-1.32.8L24.4 19.2h2.64l.52-1.45h3.23l.3 1.45h2.32zM55.63 42.38a.66.66 0 01-.17-.43c0-.13.05-.25.15-.35a.5.5 0 01.35-.14c.17 0 .33.1.47.28.25.33.6.5 1.02.5.34 0 .62-.12.85-.33.22-.22.34-.52.34-.9 0-.44-.14-.77-.41-.96-.27-.2-.61-.3-1.01-.3-.23 0-.49.03-.77.1a1.5 1.5 0 01-.27.04c-.05 0-.1 0-.17-.02-.05-.02-.1-.07-.17-.15a.55.55 0 01-.08-.32l.06-2.17c0-.4.21-.61.62-.61h2.57c.2 0 .34.05.42.15a.54.54 0 010 .67c-.08.1-.22.15-.42.15h-2.15l-.06 1.38c.2-.06.45-.08.75-.08.64 0 1.17.17 1.58.53.41.36.61.85.61 1.48 0 .69-.22 1.23-.66 1.64-.45.4-1 .61-1.66.61-.76 0-1.36-.26-1.79-.77zm27.97.12c0 .21-.05.36-.16.44a.57.57 0 01-.56.1.45.45 0 01-.2-.18.6.6 0 01-.1-.36v-.16h-.02c-.14.25-.35.44-.62.57-.27.14-.56.2-.87.2-.64 0-1.15-.22-1.54-.66a2.4 2.4 0 01-.58-1.64c0-.65.2-1.19.6-1.62.38-.43.89-.65 1.5-.65.6 0 1.09.23 1.45.68h.02V36.7c0-.23.06-.39.17-.47a.6.6 0 01.37-.14.6.6 0 01.37.14c.12.08.17.24.17.47v5.8zm4.86-1.33h-2.71c.02.3.15.55.4.76.23.2.51.3.83.3.36 0 .7-.12.99-.37a.6.6 0 01.37-.15c.12 0 .23.04.3.12.09.08.13.19.13.31 0 .15-.06.28-.18.39-.4.39-.94.59-1.6.59-.68 0-1.24-.2-1.67-.62-.44-.4-.65-.95-.65-1.64 0-.7.21-1.25.64-1.68.44-.42.98-.64 1.64-.64.55 0 1 .16 1.38.48.37.31.6.77.68 1.39l.02.22c0 .36-.19.54-.57.54zm14.3-1.56a1.13 1.13 0 00-1.21-.14c-.14.08-.2.2-.2.35 0 .15.06.26.2.33.13.07.37.15.73.23.18.04.35.1.5.15.14.06.28.13.43.23.15.1.26.22.34.38.08.15.12.33.12.54 0 .49-.17.85-.5 1.08-.34.24-.77.36-1.3.36-.55 0-1-.14-1.36-.4-.16-.13-.24-.27-.24-.43 0-.13.05-.24.13-.33.09-.09.2-.13.32-.13s.24.05.37.14c.26.2.53.3.83.3.18 0 .35-.03.49-.12a.42.42 0 00.21-.38.38.38 0 00-.22-.37c-.15-.07-.4-.16-.78-.25a2.5 2.5 0 01-.93-.4c-.23-.18-.35-.46-.35-.83 0-.45.17-.8.5-1.03.34-.23.75-.35 1.22-.35.5 0 .9.11 1.2.34.17.12.26.26.26.42 0 .13-.04.23-.12.31a.42.42 0 01-.32.13c-.1 0-.2-.04-.32-.13zm31.18 0a1.13 1.13 0 00-1.22-.14c-.13.08-.2.2-.2.35 0 .15.07.26.2.33.14.07.38.15.73.23.2.04.36.1.5.15.14.06.29.13.44.23.14.1.26.22.34.38.08.15.12.33.12.54 0 .49-.17.85-.5 1.08-.35.24-.78.36-1.3.36-.56 0-1.01-.14-1.36-.4-.16-.13-.24-.27-.24-.43 0-.13.04-.24.13-.33.09-.09.2-.13.32-.13s.24.05.37.14c.25.2.53.3.82.3.2 0 .35-.03.5-.12a.42.42 0 00.2-.38.38.38 0 00-.21-.37c-.15-.07-.41-.16-.78-.25a2.5 2.5 0 01-.93-.4c-.23-.18-.35-.46-.35-.83 0-.45.17-.8.5-1.03.34-.23.74-.35 1.22-.35.5 0 .9.11 1.2.34.17.12.26.26.26.42 0 .13-.04.23-.12.31a.42.42 0 01-.32.13c-.1 0-.21-.04-.32-.13zm-14.2 1.56h-2.71c.02.3.16.55.4.76.24.2.51.3.83.3.37 0 .7-.12 1-.37a.6.6 0 01.36-.15c.13 0 .23.04.31.12.08.08.12.19.12.31 0 .15-.06.28-.18.39-.4.39-.94.59-1.6.59-.68 0-1.23-.2-1.67-.62-.43-.4-.65-.95-.65-1.64 0-.7.22-1.25.65-1.68.43-.42.98-.64 1.64-.64.54 0 1 .16 1.37.48.37.31.6.77.69 1.39l.01.22c0 .36-.18.54-.56.54zM63.34 42.5v-5.8c0-.22.05-.38.17-.46a.6.6 0 01.37-.14.6.6 0 01.37.14c.11.08.17.24.17.47v2.5h.02c.36-.44.85-.67 1.45-.67.61 0 1.12.22 1.51.65.4.43.59.97.59 1.62 0 .65-.2 1.2-.58 1.64-.39.44-.9.67-1.54.67-.31 0-.6-.07-.87-.2a1.45 1.45 0 01-.62-.58h-.02v.16c0 .21-.05.36-.16.44a.57.57 0 01-.56.1.45.45 0 01-.2-.18.6.6 0 01-.1-.36zm51.18-.47a.65.65 0 01.35-.14.42.42 0 01.44.43c0 .18-.1.34-.29.48-.3.21-.68.32-1.15.32a2.3 2.3 0 01-1.65-.62 2.19 2.19 0 01-.65-1.67c0-.68.22-1.24.66-1.66.45-.42 1-.63 1.65-.63.46 0 .83.1 1.13.3.2.15.31.3.31.48 0 .12-.04.23-.13.33-.09.09-.2.14-.34.14a.63.63 0 01-.36-.15.98.98 0 00-.6-.2c-.38 0-.67.14-.88.42-.21.28-.32.6-.32.97s.1.7.31.97.5.4.88.4c.25 0 .46-.05.64-.17zm16.02.47c0 .21-.05.36-.16.44a.55.55 0 01-.55.1.46.46 0 01-.2-.18.6.6 0 01-.1-.36v-.06h-.03c-.1.2-.28.35-.52.47a2 2 0 01-1.94-.14c-.33-.22-.5-.56-.5-1.01 0-.25.07-.46.19-.65.12-.18.28-.32.46-.42.19-.1.42-.19.7-.25.28-.06.54-.1.8-.12.24-.02.52-.03.82-.03v-.1c0-.26-.09-.46-.28-.6-.18-.13-.42-.2-.7-.2-.28 0-.6.1-.94.32-.1.06-.2.1-.29.1a.4.4 0 01-.4-.41c0-.17.08-.31.25-.42.42-.3.9-.44 1.46-.44.38 0 .7.06.95.16.26.1.46.25.6.43.14.19.24.38.3.58.05.2.08.42.08.65v2.14zm-19.98 0c0 .21-.05.36-.16.44a.55.55 0 01-.55.1.46.46 0 01-.2-.18.6.6 0 01-.1-.36v-.06h-.03c-.1.2-.28.35-.52.47a2 2 0 01-1.94-.14c-.33-.22-.5-.56-.5-1.01 0-.25.07-.46.19-.65.12-.18.28-.32.46-.42.19-.1.42-.19.7-.25.28-.06.54-.1.8-.12.24-.02.52-.03.82-.03v-.1c0-.26-.09-.46-.28-.6-.18-.13-.42-.2-.7-.2-.28 0-.6.1-.94.32-.1.06-.2.1-.29.1a.4.4 0 01-.4-.41c0-.17.08-.31.25-.42.42-.3.9-.44 1.46-.44.38 0 .7.06.95.16.26.1.46.25.6.43.14.19.24.38.3.58.05.2.08.42.08.65v2.14zm-37.84 0c0 .21-.05.36-.16.44a.55.55 0 01-.55.1.46.46 0 01-.2-.18.6.6 0 01-.1-.36v-.06h-.02c-.1.2-.28.35-.53.47a2 2 0 01-1.94-.14c-.33-.22-.5-.56-.5-1.01 0-.25.07-.46.2-.65.12-.18.27-.32.46-.42.18-.1.41-.19.7-.25.27-.06.54-.1.79-.12.24-.02.52-.03.83-.03v-.1c0-.26-.1-.46-.28-.6-.19-.13-.42-.2-.71-.2-.28 0-.59.1-.94.32-.1.06-.2.1-.29.1a.4.4 0 01-.4-.41c0-.17.08-.31.25-.42.42-.3.91-.44 1.47-.44.37 0 .69.06.95.16s.46.25.6.43c.13.19.23.38.29.58.06.2.08.42.08.65v2.14zm26.64 0c0 .21-.05.36-.16.44a.55.55 0 01-.55.1.46.46 0 01-.2-.18.6.6 0 01-.1-.36v-.06h-.02c-.1.2-.28.35-.53.47a2 2 0 01-1.94-.14c-.33-.22-.5-.56-.5-1.01 0-.25.07-.46.2-.65.12-.18.27-.32.46-.42.18-.1.41-.19.7-.25.27-.06.54-.1.79-.12.24-.02.52-.03.83-.03v-.1c0-.26-.1-.46-.28-.6-.19-.13-.42-.2-.71-.2-.28 0-.59.1-.94.32-.1.06-.2.1-.29.1a.4.4 0 01-.4-.41c0-.17.08-.31.25-.42.42-.3.91-.44 1.47-.44.37 0 .69.06.95.16s.46.25.6.43c.13.19.23.38.29.58.06.2.08.42.08.65v2.14zm26.5.46c-.17.08-.34.12-.54.12-.53 0-.9-.14-1.1-.41-.2-.27-.3-.65-.3-1.12v-2.02h-.35c-.18 0-.3-.04-.37-.14a.47.47 0 01-.08-.47.37.37 0 01.15-.17.53.53 0 01.3-.08h.35v-.75c0-.21.06-.36.18-.45a.59.59 0 01.36-.13c.12 0 .24.04.36.13.11.09.17.24.17.45v.75h.67c.18 0 .3.05.38.14a.47.47 0 01.08.47.37.37 0 01-.15.17.53.53 0 01-.3.08h-.68v2.01c0 .43.13.65.41.65.03 0 .09 0 .17-.02h.13a.4.4 0 01.41.4c0 .17-.09.3-.26.4zm-34.67-.5c0 .24-.06.4-.17.48a.6.6 0 01-.37.13.6.6 0 01-.37-.13c-.11-.09-.17-.24-.17-.47v-3.28c0-.23.06-.38.17-.47a.6.6 0 01.37-.13.6.6 0 01.37.13c.11.09.17.24.17.47v3.28zm31.29 0c0 .24-.06.4-.18.48a.6.6 0 01-.36.13.6.6 0 01-.37-.13c-.12-.09-.17-.24-.17-.47v-3.28c0-.23.05-.38.17-.47a.6.6 0 01.37-.13.6.6 0 01.36.13c.12.09.18.24.18.47v3.28zm-28.9 0c0 .24-.05.4-.17.48a.6.6 0 01-.36.13.6.6 0 01-.37-.13c-.12-.09-.17-.24-.17-.47v-3.3c0-.22.05-.36.16-.45a.55.55 0 01.35-.13c.12 0 .24.04.35.12.12.09.17.24.17.45v.23h.02c.09-.24.24-.44.44-.6.2-.17.43-.25.68-.25.17 0 .3.04.4.13.11.08.16.2.16.35 0 .15-.05.28-.14.37-.1.1-.25.15-.44.15-.34 0-.6.12-.79.34-.19.23-.28.53-.28.9v1.69zm-41.63 0v-4.53l-.92.76a.58.58 0 01-.37.13.46.46 0 01-.47-.48c0-.15.1-.3.26-.44l1.4-1.13c.2-.16.37-.23.54-.23.1 0 .19.01.27.04.09.02.17.1.25.21a.8.8 0 01.12.47v5.2c0 .24-.06.4-.17.48a.6.6 0 01-.7.03.42.42 0 01-.15-.2.76.76 0 01-.06-.3zm22.03 0v-3.3c0-.21.06-.36.17-.45a.57.57 0 01.56-.09c.07.03.13.09.2.18s.1.2.1.36v.2h.02c.1-.23.27-.42.52-.58.24-.16.51-.24.82-.24.53 0 .92.17 1.2.51.26.34.4.75.4 1.24v2.18c0 .23-.07.38-.18.47a.6.6 0 01-.37.13.6.6 0 01-.37-.13c-.11-.09-.17-.24-.17-.47V40.6c0-.77-.27-1.16-.8-1.16a.88.88 0 00-.76.35c-.17.23-.26.5-.26.82v1.86c0 .23-.05.38-.17.47a.6.6 0 01-.37.13.6.6 0 01-.37-.13c-.1-.09-.17-.24-.17-.47zm-25.53-1.74H46.9v1.55c0 .2-.05.33-.15.4a.5.5 0 01-.3.11.5.5 0 01-.32-.11c-.1-.07-.15-.2-.15-.4v-1.55h-1.54c-.2 0-.33-.05-.4-.15a.5.5 0 01-.12-.3c0-.12.04-.22.12-.32.07-.1.2-.15.4-.15h1.54v-1.54c0-.2.05-.33.15-.4a.5.5 0 01.31-.12c.11 0 .22.04.31.12.1.07.15.2.15.4v1.54h1.55c.2 0 .33.05.4.15.08.1.11.2.11.31a.5.5 0 01-.1.31c-.08.1-.22.15-.4.15zm49.89.3h-.25c-1.1 0-1.64.24-1.64.72 0 .19.07.33.22.41.15.09.32.13.53.13.37 0 .65-.1.85-.3.2-.19.29-.46.29-.8v-.16zm11.2 0h-.25c-1.1 0-1.65.24-1.65.72 0 .19.08.33.22.41.15.09.33.13.54.13.37 0 .65-.1.84-.3.2-.19.3-.46.3-.8v-.16zm-37.84 0h-.25c-1.1 0-1.64.24-1.64.72 0 .19.07.33.22.41.15.09.32.13.53.13.37 0 .65-.1.85-.3.2-.19.29-.46.29-.8v-.16zm57.81 0h-.24c-1.1 0-1.65.24-1.65.72 0 .19.08.33.22.41.15.09.33.13.54.13.37 0 .65-.1.84-.3.2-.19.3-.46.3-.8v-.16zm-62.95.77c.22-.28.33-.6.33-.98 0-.37-.1-.7-.33-.97a1.1 1.1 0 00-.91-.41c-.38 0-.68.14-.92.43a1.5 1.5 0 000 1.93c.24.28.54.43.92.43.39 0 .7-.15.9-.43zm13.82-1.95c-.21.28-.32.6-.32.97s.1.7.33.98c.22.28.52.43.91.43.38 0 .68-.15.92-.43a1.5 1.5 0 000-1.94 1.13 1.13 0 00-.92-.42c-.39 0-.7.13-.92.4zm36.66.56h2.21c0-.3-.08-.55-.26-.75-.17-.2-.42-.3-.75-.3-.32 0-.6.1-.82.3-.23.2-.36.45-.38.75zm-31.28 0h2.21c0-.3-.09-.55-.26-.75-.18-.2-.43-.3-.76-.3-.32 0-.59.1-.82.3-.22.2-.35.45-.37.75zm36.66-3.66c.14.12.2.28.2.46a.6.6 0 01-.2.47.72.72 0 01-.5.18.67.67 0 01-.48-.2.62.62 0 010-.9c.13-.13.3-.2.49-.2.2 0 .36.07.5.2zm-31.28 0c.14.12.2.28.2.46a.6.6 0 01-.2.47.72.72 0 01-.5.18.67.67 0 01-.48-.2.62.62 0 010-.9c.13-.13.3-.2.48-.2.2 0 .37.07.5.2z"/>
</svg>