<?xml version="1.0" encoding="UTF-8" standalone="no"?>
<!DOCTYPE svg PUBLIC "-//W3C//DTD SVG 1.1//EN" "http://www.w3.org/Graphics/SVG/1.1/DTD/svg11.dtd">
<svg width="100%" height="100%" viewBox="0 0 124 31" version="1.1" xmlns="http://www.w3.org/2000/svg" xmlns:xlink="http://www.w3.org/1999/xlink" xml:space="preserve" xmlns:serif="http://www.serif.com/" style="fill-rule:evenodd;clip-rule:evenodd;stroke-linejoin:round;stroke-miterlimit:2;">
    <g transform="matrix(1,0,0,1,-215,-3)">
        <g transform="matrix(1.19808,0,0,1,0,0)">
            <g transform="matrix(0.834669,0,0,1,0,0)">
                <path d="M238.45,8.841L238.441,8.763C238.444,8.789 238.447,8.815 238.45,8.841L238.451,8.849L238.456,8.898L238.458,8.914L238.463,8.966L238.464,8.979L238.469,9.034L238.47,9.045L238.475,9.112L238.479,9.178L238.482,9.244C238.485,9.29 238.487,9.337 238.488,9.383L238.49,9.45L238.491,9.519L238.491,9.589L238.491,9.659L238.49,9.729L238.49,9.747L238.489,9.801L238.489,9.821L238.487,9.872L238.486,9.896L238.484,9.944L238.483,9.971L238.481,10.017L238.48,10.047L238.477,10.09L238.475,10.124L238.473,10.164L238.47,10.201L238.468,10.238L238.464,10.278L238.462,10.313L238.458,10.356L238.455,10.388L238.451,10.435L238.448,10.464L238.443,10.515L238.441,10.54L238.435,10.594L238.433,10.617L238.426,10.675L238.424,10.694L238.416,10.756L238.414,10.773L238.406,10.838L238.404,10.851L238.395,10.921L238.382,11.01L238.37,11.091L238.358,11.172C238.876,11.446 239.319,11.782 239.676,12.188C240.855,13.532 241.085,15.442 240.639,17.731C239.572,23.209 235.922,25.103 231.26,25.103L230.54,25.103C229.97,25.103 229.485,25.518 229.397,26.08L229.338,26.398L228.431,32.147L228.384,32.391C228.295,32.954 227.811,33.368 227.241,33.368L222.428,33.368C222.001,33.368 221.676,32.987 221.742,32.566L222.137,30.067L216.427,30.067L216.405,30.066L216.382,30.065L216.36,30.064L216.338,30.062L216.317,30.059L216.295,30.056L216.274,30.052L216.253,30.048L216.232,30.043L216.211,30.037L216.191,30.031L216.171,30.025L216.151,30.017L216.131,30.01L216.112,30.002L216.093,29.993L216.074,29.984L216.055,29.975L216.037,29.965L216.019,29.954L216.002,29.943L215.984,29.932L215.967,29.92L215.951,29.908L215.934,29.895L215.918,29.882L215.903,29.869L215.888,29.855L215.873,29.841L215.858,29.827L215.844,29.812L215.83,29.796L215.817,29.781L215.804,29.765L215.792,29.749L215.779,29.732L215.768,29.715L215.756,29.698L215.746,29.68L215.735,29.663L215.725,29.645L215.716,29.626L215.707,29.608L215.699,29.589L215.69,29.57L215.681,29.545L215.674,29.526L215.668,29.507L215.662,29.487L215.657,29.467L215.652,29.447L215.648,29.427L215.644,29.406L215.641,29.386L215.638,29.365L215.636,29.344L215.635,29.323L215.634,29.302L215.633,29.278L215.633,29.258L215.634,29.238C215.634,29.231 215.635,29.224 215.635,29.216L215.637,29.194C215.638,29.187 215.639,29.18 215.64,29.172L215.637,29.194L215.635,29.216C215.635,29.223 215.634,29.231 215.634,29.238L215.633,29.259L215.633,29.281L215.634,29.302L215.635,29.323L215.636,29.345L215.638,29.365L215.641,29.386L215.644,29.407L215.648,29.428L215.652,29.448L215.657,29.468L215.663,29.488L215.669,29.508L215.675,29.528L215.682,29.547L215.689,29.566L215.697,29.585L215.705,29.604L215.714,29.622L215.723,29.641L215.733,29.659L215.743,29.676L215.754,29.694L215.765,29.711L215.777,29.728L215.788,29.744L215.801,29.761L215.814,29.777L215.827,29.792L215.84,29.807L215.854,29.822L215.868,29.837L215.883,29.851L215.898,29.865L215.914,29.878L215.929,29.891L215.945,29.904L215.962,29.916L215.979,29.928L215.996,29.94L216.013,29.951L216.031,29.961L216.049,29.971L216.067,29.981L216.077,29.985L216.095,29.994L216.114,30.003L216.133,30.011L216.153,30.018L216.173,30.025L216.193,30.032L216.213,30.038L216.233,30.043L216.254,30.048L216.275,30.052L216.296,30.056L216.317,30.059L216.339,30.062L216.361,30.064L216.383,30.065L216.405,30.066L216.427,30.067C216.427,30.067 222.137,30.067 222.137,30.067L223.527,21.251C223.63,20.611 224.179,20.141 224.828,20.141L227.542,20.141C232.872,20.141 237.044,17.975 238.263,11.714C238.3,11.528 238.331,11.348 238.358,11.172C238.358,11.172 238.371,11.089 238.371,11.089L238.383,11.007L238.394,10.925L238.405,10.845L238.41,10.809L238.415,10.764L238.42,10.728L238.425,10.685L238.429,10.648L238.434,10.605L238.438,10.569L238.442,10.527L238.446,10.491L238.45,10.449L238.453,10.413L238.457,10.371L238.46,10.336L238.463,10.295L238.466,10.259L238.469,10.218L238.471,10.183L238.474,10.142L238.476,10.108L238.478,10.067L238.48,10.033L238.482,9.992L238.484,9.959L238.485,9.918L238.487,9.885L238.488,9.844L238.489,9.812L238.49,9.77L238.49,9.739L238.491,9.697L238.491,9.667L238.491,9.624L238.491,9.595L238.491,9.524L238.49,9.454L238.488,9.383L238.486,9.313L238.482,9.244L238.479,9.175L238.474,9.107L238.469,9.039L238.467,9.012L238.463,8.972L238.461,8.944L238.457,8.905L238.454,8.876L238.45,8.841ZM330.239,16.504L327.01,16.504C326.733,16.504 326.498,16.705 326.455,16.978L326.313,17.881L326.087,17.554C325.387,16.539 323.829,16.2 322.273,16.2C318.705,16.2 315.657,18.903 315.065,22.695C314.756,24.587 315.194,26.394 316.266,27.656C317.252,28.815 318.658,29.298 320.334,29.298C323.209,29.298 324.804,27.45 324.804,27.45L324.66,28.348C324.606,28.689 324.869,28.998 325.215,28.998L328.123,28.998C328.584,28.998 328.976,28.663 329.049,28.207L330.794,17.153C330.848,16.812 330.584,16.504 330.239,16.504ZM334.044,10.741L331.276,28.348C331.222,28.69 331.486,28.998 331.832,28.998L334.615,28.998C335.077,28.998 335.469,28.662 335.541,28.207L338.27,10.916C338.324,10.575 338.06,10.266 337.716,10.266L334.601,10.266C334.323,10.266 334.087,10.468 334.044,10.741ZM310.082,10.266L303.338,10.266C302.877,10.266 302.484,10.601 302.413,11.057L299.686,28.348C299.632,28.689 299.895,28.998 300.241,28.998L303.701,28.998C304.024,28.998 304.299,28.763 304.349,28.444L305.123,23.542C305.194,23.087 305.587,22.751 306.048,22.751L308.182,22.751C312.624,22.751 315.188,20.602 315.857,16.341C316.159,14.477 315.869,13.014 314.997,11.988C314.038,10.861 312.338,10.266 310.082,10.266ZM325.739,22.789C325.427,24.634 323.962,25.872 322.094,25.872C321.157,25.872 320.407,25.571 319.925,25.001C319.448,24.435 319.268,23.63 319.42,22.733C319.711,20.904 321.198,19.625 323.038,19.625C323.955,19.625 324.7,19.93 325.191,20.505C325.686,21.085 325.88,21.896 325.739,22.789ZM223.527,21.251L223.526,21.257L223.571,20.972L223.527,21.251ZM310.86,16.581C310.491,19.003 308.643,19.003 306.855,19.003L305.837,19.003L306.551,14.482C306.594,14.209 306.83,14.008 307.106,14.008L307.573,14.008C308.79,14.008 309.94,14.008 310.532,14.702C310.887,15.116 310.994,15.731 310.86,16.581Z" style="fill:rgb(213,163,155);fill-rule:nonzero;"/>
            </g>
            <g transform="matrix(0.834669,0,0,1,0,0)">
                <path d="M222.468,27.968L222.137,30.067L216.427,30.067C215.985,30.067 215.638,29.708 215.633,29.283C215.638,29.708 215.985,30.066 216.427,30.066L222.137,30.066L222.468,27.968ZM223.529,21.237L223.571,20.973L225.111,11.203C225.172,10.816 225.421,10.499 225.755,10.339C225.907,10.266 226.077,10.225 226.255,10.225L233.504,10.225C234.363,10.225 235.164,10.283 235.896,10.4C236.105,10.433 236.309,10.473 236.506,10.516C236.704,10.56 236.896,10.61 237.082,10.663C237.175,10.69 237.267,10.719 237.356,10.749C237.716,10.868 238.05,11.009 238.358,11.172L238.337,11.305C238.315,11.438 238.291,11.574 238.263,11.714C237.044,17.975 232.872,20.141 227.542,20.141L224.828,20.141C224.184,20.141 223.638,20.604 223.529,21.237ZM219.493,4.729C219.595,4.086 220.149,3.612 220.801,3.612L230.049,3.612C233.235,3.612 235.726,4.285 237.104,5.856C238.043,6.925 238.483,8.079 238.491,9.566C238.483,8.08 238.043,6.926 237.104,5.856C235.726,4.285 233.235,3.612 230.049,3.612L220.801,3.612C220.159,3.612 219.612,4.071 219.498,4.699L219.493,4.729Z" style="fill:rgb(198,134,127);fill-rule:nonzero;"/>
            </g>
            <g transform="matrix(0.834669,0,0,1,0,0)">
                <path d="M299.339,16.504L296.093,16.504C295.782,16.504 295.492,16.658 295.318,16.915L290.84,23.508L288.943,17.172C288.824,16.775 288.459,16.504 288.045,16.504L284.855,16.504C284.47,16.504 284.199,16.883 284.323,17.247L287.897,27.738L284.535,32.481C284.272,32.853 284.538,33.368 284.994,33.368L288.236,33.368C288.544,33.368 288.832,33.217 289.007,32.965L299.801,17.386C300.059,17.014 299.792,16.504 299.339,16.504ZM225.111,11.203C225.172,10.816 225.421,10.499 225.755,10.339C225.907,10.266 226.077,10.225 226.255,10.225L233.504,10.225C234.363,10.225 235.164,10.283 235.896,10.4C236.105,10.433 236.309,10.473 236.506,10.516C236.704,10.56 236.896,10.61 237.082,10.663C237.175,10.69 237.267,10.719 237.356,10.749C237.716,10.868 238.05,11.009 238.358,11.172C238.721,8.858 238.356,7.283 237.104,5.856C235.726,4.285 233.235,3.612 230.049,3.612L220.801,3.612C220.149,3.612 219.595,4.086 219.493,4.729L215.643,29.149C215.567,29.63 215.939,30.066 216.427,30.066L222.137,30.066L223.571,20.973L225.111,11.203ZM282.14,16.504L278.912,16.504C278.635,16.504 278.399,16.705 278.356,16.978L278.215,17.881L277.989,17.554C277.289,16.539 275.731,16.2 274.175,16.2C270.607,16.2 267.559,18.903 266.966,22.695C266.658,24.587 267.096,26.394 268.168,27.656C269.154,28.815 270.56,29.298 272.235,29.298C275.111,29.298 276.706,27.45 276.706,27.45L276.562,28.348C276.508,28.689 276.771,28.998 277.117,28.998L280.025,28.998C280.486,28.998 280.878,28.663 280.95,28.207L282.696,17.153C282.75,16.812 282.486,16.504 282.14,16.504ZM261.985,10.266L255.241,10.266C254.78,10.266 254.388,10.601 254.315,11.057L251.589,28.348C251.535,28.689 251.799,28.998 252.144,28.998L255.364,28.998C255.825,28.998 256.217,28.663 256.289,28.207L257.025,23.542C257.096,23.087 257.49,22.751 257.95,22.751L260.084,22.751C264.526,22.751 267.09,20.602 267.76,16.341C268.061,14.477 267.772,13.014 266.9,11.988C265.94,10.861 264.241,10.266 261.985,10.266ZM277.64,22.789C277.329,24.634 275.864,25.872 273.996,25.872C273.059,25.872 272.309,25.571 271.828,25.001C271.349,24.435 271.17,23.63 271.322,22.733C271.612,20.904 273.1,19.625 274.94,19.625C275.857,19.625 276.602,19.93 277.093,20.505C277.588,21.085 277.782,21.896 277.64,22.789ZM262.763,16.581C262.394,19.003 260.546,19.003 258.758,19.003L257.74,19.003L258.454,14.482C258.497,14.209 258.732,14.008 259.009,14.008L259.475,14.008C260.692,14.008 261.843,14.008 262.435,14.702C262.79,15.116 262.897,15.731 262.763,16.581Z" style="fill:rgb(209,147,137);fill-rule:nonzero;"/>
            </g>
        </g>
    </g>
</svg>
