<svg xmlns="http://www.w3.org/2000/svg" viewBox="0 0 262 49">
    <path fill="#313131" class="sombra" d="M247.96 9.29c2.98-.22.77-2.82-.63-3.06l-3.63.28c-1.66-.98 1.98-1.4-.94-2.25l.79.05c.84-.11-7.31-.23 2.66-1.5h.36c-.06-.04-.79-.04.18-.13l-2.22.22c-.92-.15-2.65-.28-2.9-.46.41-.04 1.16-.05 1.74-.05l-.6-.45 2.34-.12c-1.27-.15-6.22-.12-3.46-.47-3.44.12-2.06-.19-3.8-.16.42-.01 1.05-.05 1.64-.08a7.44 7.44 0 00-3.12-.75s-7.24.8-10.91 1.02c.94-.3-.42-.09-1.58-.03l.86.02c-.84.18-3 .17-3.61.25h.6l-.29-.01.86.01c.47 0 .83.01.7.06h-.22c.3.07-.03.2-.19.26l-1.8-.01c3.44.15-5.28.88-5.4 1.06-1.22.1-.97.2-.65.33l-10.9-.74-13.28.13c-5.04-.9-15.22-1.23-35.75.9l-1.11-.04c-.43.1-.8.2-1.1.3-4.25-.07-8.91-.14-13.52-.17-14.92-.37-34.46-.86-36.65-.87.06-.14.13-.27.41-.31-.82.03-1.2.3-.74.44l1.86.04c.65.33-1.1.07-.98.4-1.53 0-1.85-.3-2-.56-.18.23-1.3.46.38.57-.64.21-1.86-.04-2.52.22.45.2 1.94.45 1.03.66h-.27c-.14.05-.23.1-.3.14a933.7 933.7 0 00-6.4-.03A9.02 9.02 0 0090.58 4l-4.32.45c-4.56.06-8.28.18-10.36.4l-1.33-.02.17.22c-.66.27.88.4-.45.37l.17-.36c-.39.26-1.09.07-1.84-.03a1.4 1.4 0 01-.7.3c.51.06.55-.04.84-.08.47.15 1.71.36 1.1.53-.07.15-.68.14-1.26.15-11.74-.26-43.22-.87-51.12 0l-1.33-.04.17.23c-.65.26.89.39-.44.36l.17-.36c-.4.27-1.1.08-1.85-.03-.12.1-.28.22-.7.3.52.06.56-.03.85-.07.46.14 1.71.35 1.1.52-.13.27-2.16 0-2.3.32-1.05 1.68-2.6 3.3-2.32 5-.55.03-.53-.01-.78-.06.57.51.36.97.95 1.44-.6.12-1.42.15-1.97.19 1.1-.07 1.18 2.58.9 2.62l2.39.05c.03.5-2.75.13-2.16.6 3.4.2-.36.77 1.44.94-.27 0-.37.22-1.43.2 1.84.08.42.24.9.38.5.06.54-.03 1.1-.07l.65.34c-.6.12-1.68.15-1.88 0-.67.86-2.48 4.99-1.57 5.92 1.4-.1.46-.4 2.65-.5 1.22.26-.43.36.85.48-3.25.07-.78.53-4.08.7l1.84.08-1.12.11c1.9 1.1.93.26.49 1.21.27.56 2.83.84 1.88 1.14a4.31 4.31 0 011.62-.02c-1.62.02 1.16.4-.48.45.2.14 0 .6 2.21.46-1.1.07-1.56.47-2.52.22-.07.14-.4.27.1.37l.61-.17c.32.46-1.4.7.6 1.02l.89-.17c.13.28.3.51-1.9.6l-.67-.28c.06.46.2.74 1.36 1.13l.06-.14c2.18.5 3.97 3.06 6.7 3.52l1.7-.2 1.43.4c.02-.04-4.56-.19-4.96-.24.16.85 1.42 5.13.27 5.88-.94.3-2.7.04-2.97.04.63.38 1.8.17 1.65.49-.3.08-1.33-.03-1.57-.08.2.14-.39.27.4.28.62-.17 2.73-.08 4.1-.15l-.19.41-1.33-.02c-.04.09 3.64.25 2.92.65-.58.67-.12 1.42-.44 2.1a5.46 5.46 0 01-1.73-.31c-.05.09.16.23-.42.31 1.42-.15.94.3 1.53.17 3.25.52.28 1.15 2.48 1.6 2.93.06 50.26 1.27 53.74 1.29-.06.13-.12.27-.41.3.82-.02 1.21-.29.74-.43l-1.86-.04c-.65-.33 1.1-.07.98-.4 1.53 0 1.85.3 2 .56.18-.23 1.3-.46-.38-.57.64-.21 1.87.04 2.52-.22-.45-.2-1.94-.45-1.03-.67l.27.01c.23-.08.33-.15.37-.22l3.3-.03 6.43-.34c15.14.37 39.05.97 41.49.98-.07.14-.13.28-.42.32.82-.03 1.21-.3.75-.45l-1.87-.03c-.65-.34 1.11-.07.99-.4 1.52 0 1.85.3 2 .56.17-.24 1.29-.46-.38-.57.63-.22 1.86.04 2.52-.23-.45-.19-1.94-.45-1.04-.66h.27c.12-.03.2-.07.26-.1 14.68.36 32.92.8 35.03.82-.07.14-.13.27-.42.31.82-.03 1.21-.3.75-.44l-1.87-.04c-.65-.33 1.11-.07.99-.4 1.52 0 1.85.3 2 .56.17-.23 1.29-.46-.38-.57.64-.21 1.86.04 2.52-.22-.45-.2-1.94-.45-1.04-.66h.27c.97-.31-.1-.55-.73-.8 2.55.25 4.9.42 7.05.55.52.22 1.39.47 2.7.55l2.98-.32c10.61.23 14.91-.93 14.91-.93 2.63-.47 3.1-.87 2.51-1.27.33-.05.56-.09.58-.11 1.22-.1.97-.2.66-.33l10.89.74 15.4-.15 12.5-.66-2.69-2.04 4.9-1.58-1.61-3.93-3.47-.3c6.08-.74-.9-1.77 3.44-2.57l-2.98-.04c-.18-.23 1.67-.2 2.2-.26-.65-2.18-4.6-4.45-.82-6.39 1.98-.17.82-.75 2.91-.89-3.65-.66-3.6-1.33-3.22-1.97l.33.03-.58-.3c.25-.02.6-.02.84 0-2.65-.36-.03-.88 1.06-1.28l.32.02c.57-2.41-4.99-4.7-.8-7.07 4.9-1.08-1.82-2.42 2.25-3.67"/>
    <path fill="#ebb7af" class="afc" d="M15.03 27.06h-1.16c-5.26 0-7.89 1.16-7.89 3.45 0 .9.34 1.59 1.08 1.98.69.39 1.55.6 2.54.6 1.77 0 3.1-.47 4.05-1.42.9-.9 1.38-2.2 1.38-3.88v-.73zm4.91 7.1c0 1-.26 1.73-.77 2.12-.52.39-1.08.6-1.64.6-.35 0-.7-.04-1-.17a2.3 2.3 0 01-.94-.82c-.3-.43-.47-.99-.47-1.72v-.3h-.13a5.8 5.8 0 01-2.5 2.24c-1.17.6-2.5.9-3.92.9-1.99 0-3.8-.52-5.35-1.6C1.58 34.39.81 32.8.81 30.6a5.84 5.84 0 013.1-5.13c.9-.47 2.03-.9 3.36-1.2 1.34-.3 2.59-.48 3.8-.56a54.5 54.5 0 013.96-.13v-.52c0-1.2-.43-2.15-1.34-2.8-.9-.65-2.02-1-3.4-1-1.34 0-2.8.53-4.48 1.56-.48.3-.95.43-1.38.43-.56 0-1-.21-1.38-.6a1.82 1.82 0 01-.56-1.38c0-.78.39-1.42 1.2-1.98a12.15 12.15 0 017.03-2.07c1.77 0 3.32.26 4.57.73a6.6 6.6 0 012.84 2.07 9.9 9.9 0 011.42 2.76c.26.99.4 2.02.4 3.14v10.26zM24.64 19.95h-1.98c-.87 0-1.47-.22-1.81-.7a2.2 2.2 0 01-.52-1.37c0-.3.04-.56.13-.86.13-.3.34-.56.73-.82.39-.26.86-.39 1.47-.39h1.98v-3.06c0-2.76.64-5 1.9-6.76 1.24-1.73 3.23-2.59 6.03-2.59 2.2 0 3.27.78 3.27 2.28 0 .6-.21 1.13-.6 1.51-.43.4-1.04.6-1.81.6-1.34 0-2.24.4-2.8 1.17-.56.78-.82 1.94-.82 3.49v3.36h2.84c.87 0 1.47.22 1.81.65a2.4 2.4 0 01.4 2.28c-.14.3-.35.56-.74.82-.39.26-.86.39-1.47.39h-2.84V34c0 1.07-.26 1.85-.82 2.24a2.8 2.8 0 01-1.77.64c-.25 0-.51-.04-.77-.08a3.02 3.02 0 01-.82-.43 1.7 1.7 0 01-.69-.9c-.22-.4-.3-.91-.3-1.47V19.95zM48.55 31.88c.65-.43 1.21-.64 1.68-.64.65 0 1.17.21 1.56.6.38.39.56.9.56 1.47 0 .86-.48 1.63-1.38 2.28a9.48 9.48 0 01-5.52 1.5c-3.19 0-5.82-.98-7.88-2.97-2.12-1.93-3.15-4.6-3.15-7.97 0-3.27 1.08-5.9 3.19-7.93a10.93 10.93 0 017.88-3.01c2.2 0 4.01.47 5.43 1.46 1 .65 1.47 1.42 1.47 2.24 0 .6-.22 1.12-.6 1.55-.43.48-1 .7-1.64.7-.52 0-1.08-.22-1.73-.7a4.6 4.6 0 00-2.93-.94c-1.76 0-3.18.64-4.18 1.98a7.62 7.62 0 00-1.5 4.65 7.4 7.4 0 001.5 4.61 4.87 4.87 0 004.18 1.99c1.17 0 2.2-.3 3.06-.87z"/>
    <path fill="#dddabd" class="web" d="M82.92 34.64c-.52 1.47-1.43 2.2-2.72 2.2-1.33 0-2.24-.73-2.71-2.2l-4.57-13.53h-.09l-4.48 13.53c-.47 1.47-1.38 2.2-2.67 2.2-1.34 0-2.24-.73-2.76-2.2l-5.47-16.03a2.6 2.6 0 01-.17-.95c0-.6.17-1.07.6-1.42a2.1 2.1 0 011.47-.52c.99 0 1.63.57 1.98 1.73l4.4 14.22h.08l4.61-13.83c.47-1.43 1.3-2.12 2.54-2.12 1.25 0 2.07.7 2.55 2.12l4.6 13.83h.1L84.6 17.4c.34-1.12.99-1.69 1.94-1.69.56 0 1.07.18 1.46.52a2 2 0 01.56 1.38c0 .3-.04.65-.17 1l-5.47 16.02zM107.74 27.49H93.69a5.89 5.89 0 002.02 4.4 6.55 6.55 0 004.62 1.8c1.93 0 3.66-.73 5.25-2.2.48-.42.95-.64 1.42-.64.48 0 .9.13 1.25.43.3.3.48.73.48 1.25s-.22 1-.65 1.47c-1.98 2.02-4.57 3.06-7.75 3.06-3.15 0-5.74-1-7.72-2.98-2.02-1.98-3.06-4.57-3.06-7.75 0-3.15 1-5.78 3.02-7.8a10.37 10.37 0 017.54-3.02c2.63 0 4.78.73 6.55 2.2 1.72 1.5 2.76 3.62 3.15 6.37.04.4.08.87.08 1.34 0 1.38-.73 2.07-2.15 2.07zm-14.05-3.02h12.15a6.23 6.23 0 00-1.55-4.18c-1-1.07-2.37-1.6-4.18-1.6-1.72 0-3.19.57-4.4 1.69a6.13 6.13 0 00-2.02 4.1zM133.82 31.9c-.4.74-.9 1.42-1.48 2.05-1.9 2.07-4.38 3.1-7.45 3.1a9.36 9.36 0 01-4.2-.99 7.78 7.78 0 01-3.17-2.8h-.09v1.43c0 .57-.13 1.03-.39 1.37-.25.35-.51.56-.77.65a2.44 2.44 0 01-1.6 0c-.25-.09-.51-.3-.77-.65-.26-.34-.39-.8-.39-1.37V5.8c0-.83.22-1.41.65-1.74.43-.33.89-.5 1.38-.5.48 0 .94.17 1.38.5.43.33.64.91.64 1.74v13.32h.13a8.9 8.9 0 017.28-3.62 9.58 9.58 0 017.35 3.08l.02.02a6.19 6.19 0 00-2.6 3.16 6.18 6.18 0 00-5.55-2.9c-2 0-3.66.73-4.95 2.2a7.62 7.62 0 00-1.94 5.21c0 2.01.65 3.74 1.94 5.2a6.34 6.34 0 004.96 2.17c2.12 0 3.8-.72 5-2.15a7.7 7.7 0 001.52-2.96c.66 1 1.33 1.65 1.45 1.76l.02.02h-.01l-.01-.02-.11-.1 1.76 1.7z"/>
    <path fill="#d1c8e2" class="design" d="M145.96 18.24a9.7 9.7 0 017.07-2.73 8.8 8.8 0 017.28 3.62h.09V5.8c0-.83.22-1.41.65-1.74.43-.33.89-.5 1.38-.5.48 0 .94.17 1.37.5.43.33.65.91.65 1.74V34.7c0 .57-.13 1.03-.39 1.37-.26.35-.51.56-.77.65a2.44 2.44 0 01-1.6 0c-.26-.09-.51-.3-.77-.65-.26-.34-.4-.8-.4-1.37v-1.43h-.08a7.48 7.48 0 01-3.12 2.8c-1.34.67-2.75 1-4.25 1-3.07 0-5.55-1.04-7.45-3.1-.41-.46-.78-.93-1.1-1.42l2.41-2.32.06-.05c.03-.04.27-.28.6-.7.3.73.7 1.4 1.2 2a6.09 6.09 0 004.97 2.18c2.01 0 3.67-.72 4.96-2.17a7.54 7.54 0 001.94-5.2c0-2-.65-3.75-1.94-5.21a6.31 6.31 0 00-4.96-2.2 6.2 6.2 0 00-4.9 2.05 6.22 6.22 0 00-2.9-2.68zm-2.97 5.6c.15 0 .28-.02.36.09.09.12.07.3.07.48 0 .28-.2.5-.32.68-.1.15-.21.29-.3.39.03-.56.09-1.1.19-1.63zM186.21 27.49h-14.05a5.89 5.89 0 002.03 4.4 6.55 6.55 0 004.61 1.8c1.94 0 3.66-.73 5.26-2.2.47-.42.94-.64 1.42-.64.47 0 .9.13 1.25.43.3.3.47.73.47 1.25s-.21 1-.64 1.47c-1.99 2.02-4.57 3.06-7.76 3.06-3.15 0-5.73-1-7.71-2.98-2.03-1.98-3.06-4.57-3.06-7.75 0-3.15.99-5.78 3.01-7.8a10.37 10.37 0 017.54-3.02c2.63 0 4.79.73 6.55 2.2 1.73 1.5 2.76 3.62 3.15 6.37.04.4.09.87.09 1.34 0 1.38-.74 2.07-2.16 2.07zm-14.05-3.02h12.16a6.23 6.23 0 00-1.56-4.18c-.99-1.07-2.37-1.6-4.18-1.6-1.72 0-3.18.57-4.4 1.69a6.13 6.13 0 00-2.02 4.1zM202.11 20.25a5.57 5.57 0 00-3.92-1.55c-1.03 0-1.94.21-2.67.64a2.26 2.26 0 00-1.12 2.03 2 2 0 001.08 1.85c.73.43 1.9.82 3.57 1.2 2.16.48 3.84 1.22 5.04 2.12 1.21.9 1.81 2.24 1.81 3.92 0 2.24-.77 3.92-2.32 4.96a9.84 9.84 0 01-5.82 1.64 10 10 0 01-6.72-2.29c-.56-.52-.86-1.08-.86-1.64 0-.51.17-.94.51-1.29.3-.34.74-.52 1.25-.52.48 0 1 .22 1.51.65a6.58 6.58 0 004.4 1.81c1.16 0 2.1-.26 2.88-.73.78-.48 1.17-1.2 1.17-2.24 0-.9-.4-1.55-1.21-2.03-.82-.47-2.2-.9-4.14-1.38-.82-.21-1.55-.43-2.1-.64a9.21 9.21 0 01-1.82-.95 3.96 3.96 0 01-1.5-1.64 5.37 5.37 0 01-.52-2.41c0-2.07.77-3.62 2.28-4.7a9.27 9.27 0 015.43-1.55c2.41 0 4.4.65 5.9 1.94.65.52.95 1.08.95 1.64 0 .47-.17.9-.47 1.25-.35.34-.78.51-1.3.51-.43 0-.86-.21-1.29-.6zM213.66 8.7c0 .73-.26 1.34-.77 1.81a2.77 2.77 0 01-3.84 0 2.35 2.35 0 01-.78-1.8c0-.74.26-1.34.78-1.86a2.6 2.6 0 011.9-.78c.73 0 1.37.26 1.94.74.51.51.77 1.16.77 1.9zm-.69 9.27V34.6c0 .82-.21 1.42-.65 1.72-.43.35-.9.52-1.37.52a2.2 2.2 0 01-1.38-.52c-.43-.3-.65-.9-.65-1.72V17.97c0-.82.22-1.43.65-1.77.43-.3.9-.48 1.38-.48.47 0 .94.18 1.37.48.44.34.65.95.65 1.77zM218.31 44c-.68-.57-1.03-1.13-1.03-1.77 0-.52.17-.95.52-1.34.34-.39.82-.56 1.38-.56.47 0 .99.22 1.55.6a9.93 9.93 0 006.2 2.37c4.79 0 7.2-2.5 7.2-7.54v-2.63h-.09a7.2 7.2 0 01-3.06 2.59 9.1 9.1 0 01-4.13.95c-3.06 0-5.56-1-7.46-3.02a10.56 10.56 0 01-2.84-7.5c0-3.01.95-5.56 2.84-7.58a9.68 9.68 0 017.41-3.06c1.51 0 2.93.34 4.27 1a7.09 7.09 0 013.1 2.83h.09v-1.46c0-.56.13-1.03.39-1.38.25-.34.51-.56.77-.65a2.5 2.5 0 011.6 0c.25.09.51.3.77.65.26.35.39.82.39 1.38v17.58c0 1.55-.17 2.97-.56 4.31-.39 1.3-1.03 2.5-1.85 3.58a8.88 8.88 0 01-3.54 2.58c-1.5.6-3.31.9-5.34.9-3.36 0-6.2-.94-8.58-2.84zm2.42-17.93c0 1.98.6 3.66 1.85 5.08a6.2 6.2 0 004.91 2.11 6.6 6.6 0 005.04-2.07 7.25 7.25 0 001.9-5.12c0-1.99-.65-3.67-1.94-5.09a6.51 6.51 0 00-5-2.1 6.2 6.2 0 00-4.9 2.06 7.36 7.36 0 00-1.86 5.13zM246.8 17.88v1.55h.13a6.29 6.29 0 012.63-2.8 7.82 7.82 0 014-1.12c2.5 0 4.4.78 5.7 2.33 1.28 1.55 1.93 3.53 1.93 5.99V34.6c0 .82-.21 1.42-.65 1.72-.43.35-.9.52-1.37.52a2.2 2.2 0 01-1.38-.52c-.43-.3-.65-.9-.65-1.72v-9.44c0-4.18-1.55-6.25-4.65-6.25-1.6 0-2.93.6-3.93 1.86a7.33 7.33 0 00-1.55 4.87v8.96c0 .82-.21 1.42-.64 1.72-.43.35-.9.52-1.38.52a2.2 2.2 0 01-1.38-.52c-.43-.3-.65-.9-.65-1.72V17.88c0-.56.13-1.03.4-1.38.2-.34.46-.56.72-.65a2.5 2.5 0 011.6 0c.26.09.51.3.77.65.22.35.35.82.35 1.38z"/>
    <path fill="#f6dac1" class="heart" d="M139.15 32.69l-4.92-4.74c-.06-.06-1.8-1.64-1.8-3.53 0-2.31 1.42-3.7 3.77-3.7 1.38 0 2.67 1.1 3.3 1.7.62-.6 1.91-1.7 3.3-1.7 2.35 0 3.76 1.39 3.76 3.7 0 1.89-1.73 3.47-1.8 3.54l-4.92 4.73c-.1.1-.22.14-.34.14a.48.48 0 01-.35-.14"/>
</svg>