<svg xmlns="http://www.w3.org/2000/svg" viewBox="0 0 262 49">
    <path fill="#fbf6f6" class="sombra" d="M247.96 9.7c2.97-.22.77-2.83-.63-3.06l-3.64.27c-1.66-.97 1.99-1.4-.93-2.24l.78.05c.85-.11-7.3-.23 2.66-1.5h.37c-.06-.04-.79-.04.18-.13l-2.23.22c-.91-.15-2.64-.28-2.89-.46.4-.04 1.15-.05 1.73-.05l-.6-.45 2.35-.12c-1.27-.15-6.23-.12-3.47-.47-3.43.12-2.05-.2-3.8-.16.42-.01 1.06-.05 1.65-.08a7.44 7.44 0 00-3.12-.75s-7.24.8-10.92 1.01c.94-.3-.42-.08-1.57-.03l.85.03c-.84.18-3 .16-3.6.25h.6l-.3-.01h.87c.46 0 .83.02.7.07l-.23-.01c.31.08-.03.2-.18.26h-1.81c3.44.15-5.27.88-5.39 1.06-1.22.1-.97.2-.66.32L203.84 3l-13.28.13c-5.05-.91-15.22-1.23-35.75.9l-1.12-.05c-.42.11-.79.2-1.1.3-4.25-.07-8.9-.13-13.51-.17-14.93-.37-34.47-.85-36.66-.86.07-.14.13-.27.42-.31-.82.03-1.21.3-.75.44l1.87.04c.65.33-1.1.07-.99.39-1.52 0-1.85-.3-1.99-.55-.18.23-1.3.46.38.56-.64.22-1.87-.03-2.52.23.44.2 1.94.45 1.03.66h-.27c-.15.04-.23.09-.3.14L92.9 4.8a9.02 9.02 0 00-2.3-.41l-4.32.45c-4.56.06-8.29.18-10.37.4l-1.32-.02.16.22c-.65.26.89.4-.44.37l.17-.36c-.4.26-1.1.07-1.84-.04a1.4 1.4 0 01-.7.3c.5.06.55-.03.84-.07.46.15 1.71.36 1.1.53-.07.14-.68.13-1.26.14-11.74-.26-43.22-.86-51.12 0l-1.33-.03.17.22c-.66.27.88.4-.44.37l.16-.36c-.39.26-1.09.07-1.84-.03-.13.1-.29.21-.7.3.51.06.55-.03.84-.07.47.14 1.72.35 1.1.52-.12.27-2.15 0-2.3.32-1.04 1.68-2.6 3.3-2.31 5-.55.03-.53-.01-.78-.06.57.51.36.96.94 1.43-.59.13-1.41.16-1.96.2 1.1-.08 1.18 2.58.89 2.62l2.4.04c.03.5-2.75.13-2.16.6 3.39.2-.36.77 1.44.95-.27 0-.37.22-1.44.2 1.85.08.43.24.9.38.51.06.55-.03 1.1-.07l.65.34c-.6.12-1.68.15-1.87 0-.67.86-2.48 4.99-1.57 5.92 1.4-.11.46-.4 2.65-.5 1.22.25-.44.36.85.48-3.25.07-.78.53-4.08.7l1.84.08-1.13.11c1.91 1.1.94.25.5 1.2.27.56 2.83.84 1.88 1.15a4.31 4.31 0 011.62-.02c-1.62.02 1.16.39-.48.45.2.14 0 .6 2.2.45-1.1.07-1.56.48-2.51.23-.07.14-.4.27.1.37l.61-.17c.32.46-1.4.7.6 1.02l.88-.17c.14.28.3.51-1.89.6l-.67-.28c.05.46.2.73 1.36 1.12l.06-.13c2.18.5 3.96 3.06 6.7 3.52l1.7-.2 1.43.4c.02-.04-4.57-.19-4.96-.24.16.85 1.42 5.13.27 5.88-.95.3-2.7.04-2.97.03.63.38 1.8.18 1.65.5-.3.08-1.33-.03-1.57-.08.2.14-.4.26.4.28.62-.17 2.73-.08 4.1-.15l-.19.41-1.33-.03c-.04.1 3.64.26 2.92.66-.59.67-.13 1.41-.44 2.1a5.46 5.46 0 01-1.74-.31c-.04.09.16.23-.41.31 1.41-.16.94.3 1.53.17 3.25.52.27 1.15 2.48 1.6 2.92.06 50.26 1.26 53.74 1.28-.06.14-.13.28-.42.32.82-.03 1.22-.3.75-.45l-1.86-.03c-.66-.34 1.1-.07.98-.4 1.53 0 1.85.3 2 .56.17-.24 1.29-.46-.38-.57.63-.22 1.86.04 2.52-.23-.45-.19-1.94-.45-1.04-.66h.27c.24-.07.34-.14.37-.2l3.31-.04 6.43-.34c15.14.37 39.05.97 41.48.98-.06.14-.12.27-.41.31.82-.03 1.21-.3.74-.44l-1.86-.04c-.65-.33 1.1-.07.98-.39 1.53 0 1.85.3 2 .55.18-.23 1.3-.46-.38-.56.64-.22 1.87.03 2.52-.23-.45-.2-1.94-.45-1.03-.66h.27c.11-.03.2-.07.26-.1 14.68.36 32.91.8 35.03.82-.07.13-.13.27-.42.31.82-.03 1.21-.3.74-.44l-1.86-.04c-.65-.33 1.1-.07.98-.4 1.53 0 1.85.3 2 .56.18-.23 1.3-.46-.38-.57.64-.21 1.87.04 2.52-.22-.44-.2-1.93-.45-1.03-.67l.27.01c.97-.32-.1-.55-.74-.8 2.56.24 4.9.42 7.06.55.52.21 1.38.47 2.7.55l2.97-.32c10.62.23 14.92-.93 14.92-.93 2.63-.47 3.1-.87 2.5-1.27.34-.05.56-.09.58-.12 1.22-.09.98-.2.66-.32l10.9.74 15.39-.15 12.5-.67-2.69-2.03 4.9-1.58-1.6-3.94-3.48-.3c6.08-.73-.9-1.76 3.45-2.57l-2.99-.03c-.18-.24 1.68-.21 2.2-.26-.64-2.19-4.6-4.45-.81-6.39 1.98-.18.82-.76 2.9-.9-3.64-.65-3.6-1.33-3.22-1.96l.33.03-.57-.3c.24-.02.6-.02.83 0-2.64-.36-.02-.88 1.06-1.29l.33.03c.56-2.42-5-4.7-.8-7.07 4.9-1.08-1.83-2.42 2.25-3.68"/>
    <path fill="#d19389" class="afc" d="M15.03 27.47h-1.17c-5.25 0-7.88 1.16-7.88 3.44 0 .9.34 1.6 1.07 1.99.7.38 1.56.6 2.55.6 1.76 0 3.1-.48 4.05-1.42.9-.9 1.38-2.2 1.38-3.88v-.73zm4.9 7.1c0 1-.25 1.73-.77 2.12-.51.39-1.07.6-1.64.6-.34 0-.68-.04-.99-.17a2.3 2.3 0 01-.94-.82c-.3-.43-.48-1-.48-1.72v-.3h-.13a5.8 5.8 0 01-2.5 2.24c-1.16.6-2.5.9-3.92.9-1.98 0-3.79-.52-5.34-1.6C1.58 34.8.8 33.2.8 31a5.84 5.84 0 013.1-5.13c.9-.47 2.02-.9 3.36-1.2 1.34-.3 2.58-.48 3.8-.57a54.5 54.5 0 013.96-.12v-.52c0-1.2-.44-2.16-1.34-2.8-.9-.65-2.03-1-3.4-1-1.34 0-2.8.52-4.49 1.56-.47.3-.94.43-1.37.43-.56 0-1-.22-1.38-.6a1.82 1.82 0 01-.56-1.38c0-.78.38-1.43 1.2-1.99a12.15 12.15 0 017.03-2.06c1.76 0 3.31.25 4.56.73a6.6 6.6 0 012.85 2.07 9.9 9.9 0 011.42 2.75c.26 1 .39 2.03.39 3.15v10.26zM24.63 20.36h-1.98c-.86 0-1.46-.22-1.8-.7a2.2 2.2 0 01-.52-1.37c0-.3.04-.56.12-.86.13-.3.35-.56.74-.82.39-.26.86-.4 1.46-.4h1.98v-3.05c0-2.76.65-5 1.9-6.77 1.25-1.72 3.23-2.58 6.03-2.58 2.2 0 3.28.77 3.28 2.28 0 .6-.22 1.12-.6 1.51-.44.39-1.04.6-1.81.6-1.34 0-2.25.4-2.8 1.17-.57.77-.82 1.94-.82 3.49v3.36h2.84c.86 0 1.46.21 1.8.65a2.4 2.4 0 01.4 2.28c-.13.3-.35.56-.74.82-.38.26-.86.39-1.46.39h-2.84V34.4c0 1.08-.26 1.86-.82 2.24a2.8 2.8 0 01-1.77.65c-.26 0-.52-.04-.78-.09a3.02 3.02 0 01-.81-.43 1.7 1.7 0 01-.7-.9c-.2-.39-.3-.9-.3-1.47V20.36zM48.55 32.3c.65-.44 1.2-.65 1.68-.65.65 0 1.16.21 1.55.6.39.39.56.9.56 1.46 0 .87-.47 1.64-1.38 2.29a9.48 9.48 0 01-5.51 1.5c-3.2 0-5.82-.98-7.89-2.97-2.11-1.94-3.14-4.6-3.14-7.97 0-3.27 1.07-5.9 3.18-7.93a10.93 10.93 0 017.9-3.01c2.19 0 4 .47 5.42 1.46 1 .65 1.47 1.42 1.47 2.24 0 .6-.22 1.12-.6 1.55-.44.48-1 .7-1.65.7-.51 0-1.07-.22-1.72-.7a4.6 4.6 0 00-2.93-.95c-1.77 0-3.19.65-4.18 1.99a7.62 7.62 0 00-1.5 4.65 7.4 7.4 0 001.5 4.61 4.87 4.87 0 004.18 1.98c1.16 0 2.2-.3 3.06-.86z"/>
    <path fill="#9e9b80" class="web" d="M82.91 35.05c-.51 1.47-1.42 2.2-2.71 2.2-1.34 0-2.24-.73-2.72-2.2l-4.56-13.53h-.1l-4.47 13.53c-.48 1.47-1.38 2.2-2.67 2.2-1.34 0-2.24-.73-2.76-2.2l-5.47-16.03a2.6 2.6 0 01-.18-.95c0-.6.18-1.08.6-1.42a2.1 2.1 0 011.47-.52c1 0 1.64.56 1.98 1.73l4.4 14.22h.09l4.6-13.84c.48-1.42 1.3-2.1 2.55-2.1 1.25 0 2.07.68 2.54 2.1l4.61 13.84h.09l4.4-14.27c.34-1.12.98-1.68 1.93-1.68.56 0 1.08.18 1.47.52a2 2 0 01.56 1.38c0 .3-.05.65-.18.99l-5.47 16.03zM107.73 27.9H93.68a5.89 5.89 0 002.03 4.4 6.55 6.55 0 004.61 1.8c1.94 0 3.66-.73 5.26-2.2.47-.43.95-.64 1.42-.64s.9.13 1.25.43c.3.3.47.73.47 1.25s-.21.99-.64 1.46c-1.99 2.03-4.57 3.06-7.76 3.06-3.14 0-5.73-.99-7.71-2.97-2.03-1.98-3.06-4.57-3.06-7.76 0-3.14.99-5.77 3.01-7.8a10.37 10.37 0 017.55-3.01c2.62 0 4.78.73 6.55 2.2 1.72 1.5 2.75 3.61 3.14 6.37.04.39.09.86.09 1.34 0 1.38-.74 2.07-2.16 2.07zm-14.05-3.02h12.16a6.23 6.23 0 00-1.55-4.18c-1-1.08-2.37-1.6-4.18-1.6-1.73 0-3.2.57-4.4 1.69a6.13 6.13 0 00-2.03 4.09zM133.82 32.31c-.4.73-.9 1.42-1.48 2.05-1.9 2.07-4.38 3.1-7.46 3.1a9.36 9.36 0 01-4.2-.99 7.78 7.78 0 01-3.17-2.8h-.08v1.42c0 .58-.13 1.04-.39 1.38-.26.35-.52.56-.78.65a2.44 2.44 0 01-1.59 0c-.26-.09-.52-.3-.78-.65-.25-.34-.38-.8-.38-1.38V6.22c0-.83.21-1.41.64-1.74.43-.33.9-.5 1.38-.5.49 0 .95.17 1.38.5.43.33.65.9.65 1.74v13.32h.13a8.9 8.9 0 017.28-3.62 9.58 9.58 0 017.35 3.08l.01.02a6.19 6.19 0 00-2.59 3.16 6.18 6.18 0 00-5.55-2.9c-2 0-3.66.73-4.95 2.2a7.62 7.62 0 00-1.94 5.21c0 2.01.64 3.74 1.94 5.2a6.34 6.34 0 004.95 2.17c2.13 0 3.8-.72 5-2.16a7.7 7.7 0 001.53-2.96c.66 1 1.32 1.66 1.44 1.77l.02.02-.02-.02-.1-.1 1.76 1.7z"/>
    <path fill="#a297b3" class="design" d="M145.96 18.65a9.7 9.7 0 017.07-2.73 8.79 8.79 0 017.28 3.62h.08V6.22c0-.83.22-1.41.65-1.74.43-.33.9-.5 1.38-.5.49 0 .95.17 1.38.5.43.33.65.9.65 1.74V35.1c0 .58-.13 1.04-.4 1.38-.25.35-.51.56-.77.65a2.44 2.44 0 01-1.6 0c-.25-.09-.51-.3-.77-.65-.26-.34-.39-.8-.39-1.38v-1.42h-.08a7.48 7.48 0 01-3.13 2.8c-1.33.66-2.75 1-4.24 1-3.07 0-5.56-1.04-7.45-3.11-.42-.45-.78-.92-1.1-1.41l2.4-2.32.06-.06c.03-.03.28-.28.6-.69.3.72.7 1.39 1.2 2a6.09 6.09 0 004.98 2.18c2.01 0 3.66-.73 4.95-2.18a7.54 7.54 0 001.94-5.19c0-2.01-.64-3.75-1.94-5.21a6.31 6.31 0 00-4.95-2.2 6.2 6.2 0 00-4.91 2.05 6.22 6.22 0 00-2.9-2.68zm-2.98 5.6c.16 0 .29-.02.36.09.1.12.08.3.08.48 0 .27-.2.5-.33.68-.1.15-.2.28-.3.39.03-.56.1-1.1.2-1.63zM186.2 27.9h-14.04a5.89 5.89 0 002.02 4.4 6.55 6.55 0 004.61 1.8c1.94 0 3.67-.73 5.26-2.2.48-.43.95-.64 1.42-.64.48 0 .9.13 1.25.43.3.3.48.73.48 1.25s-.22.99-.65 1.46c-1.98 2.03-4.57 3.06-7.76 3.06-3.14 0-5.73-.99-7.7-2.97-2.03-1.98-3.07-4.57-3.07-7.76 0-3.14 1-5.77 3.02-7.8a10.37 10.37 0 017.54-3.01c2.63 0 4.78.73 6.55 2.2 1.72 1.5 2.76 3.61 3.14 6.37.05.39.1.86.1 1.34 0 1.38-.74 2.07-2.16 2.07zm-14.04-3.02h12.15a6.23 6.23 0 00-1.55-4.18c-1-1.08-2.37-1.6-4.18-1.6-1.72 0-3.19.57-4.4 1.69a6.13 6.13 0 00-2.02 4.09zM202.1 20.66a5.57 5.57 0 00-3.91-1.55c-1.04 0-1.94.21-2.68.64a2.26 2.26 0 00-1.12 2.03 2 2 0 001.08 1.85c.73.43 1.9.82 3.58 1.2 2.15.48 3.83 1.21 5.04 2.12 1.2.9 1.8 2.24 1.8 3.92 0 2.24-.77 3.92-2.32 4.96a9.84 9.84 0 01-5.82 1.63 10 10 0 01-6.72-2.28c-.56-.52-.86-1.08-.86-1.64 0-.52.17-.95.52-1.3.3-.34.73-.5 1.25-.5.47 0 .99.2 1.5.64a6.58 6.58 0 004.4 1.8c1.16 0 2.11-.25 2.89-.72.77-.48 1.16-1.21 1.16-2.25 0-.9-.39-1.55-1.2-2.02-.82-.47-2.2-.9-4.14-1.38-.82-.21-1.55-.43-2.11-.65a9.21 9.21 0 01-1.81-.94 3.96 3.96 0 01-1.51-1.64 5.37 5.37 0 01-.52-2.41c0-2.07.78-3.62 2.29-4.7a9.27 9.27 0 015.42-1.55c2.42 0 4.4.64 5.9 1.94.65.51.96 1.07.96 1.63 0 .48-.18.9-.48 1.25-.34.35-.77.52-1.3.52-.42 0-.85-.21-1.28-.6zM213.66 9.1c0 .74-.26 1.34-.78 1.82a2.77 2.77 0 01-3.84 0 2.35 2.35 0 01-.77-1.81c0-.73.26-1.34.77-1.85a2.6 2.6 0 011.9-.78c.73 0 1.38.26 1.94.73.52.52.78 1.17.78 1.9zm-.7 9.27v16.64c0 .82-.21 1.42-.64 1.72-.43.35-.9.52-1.38.52a2.2 2.2 0 01-1.38-.52c-.43-.3-.64-.9-.64-1.72V18.37c0-.82.21-1.42.64-1.76.43-.3.9-.48 1.38-.48.47 0 .95.18 1.38.48.43.34.65.94.65 1.76zM218.3 44.4c-.68-.56-1.03-1.12-1.03-1.77 0-.51.18-.94.52-1.33.35-.39.82-.56 1.38-.56.47 0 1 .21 1.55.6a9.93 9.93 0 006.2 2.37c4.79 0 7.2-2.5 7.2-7.54v-2.63h-.08a7.2 7.2 0 01-3.06 2.59 9.1 9.1 0 01-4.14.95c-3.06 0-5.56-1-7.45-3.02a10.56 10.56 0 01-2.85-7.5c0-3.02.95-5.56 2.85-7.58a9.68 9.68 0 017.4-3.06c1.52 0 2.94.34 4.27.99a7.09 7.09 0 013.1 2.84h.1V18.3c0-.56.12-1.04.38-1.38.26-.35.52-.56.78-.65a2.5 2.5 0 011.59 0c.26.09.52.3.78.65.25.34.38.82.38 1.38v17.58c0 1.55-.17 2.97-.56 4.3-.38 1.3-1.03 2.5-1.85 3.58a8.88 8.88 0 01-3.53 2.59c-1.51.6-3.32.9-5.35.9-3.36 0-6.2-.94-8.57-2.84zm2.42-17.93c0 1.99.6 3.67 1.85 5.09a6.2 6.2 0 004.92 2.11 6.6 6.6 0 005.04-2.07 7.25 7.25 0 001.9-5.13c0-1.98-.65-3.66-1.94-5.08a6.51 6.51 0 00-5-2.11 6.2 6.2 0 00-4.92 2.07 7.36 7.36 0 00-1.85 5.12zM246.8 18.29v1.55h.12a6.29 6.29 0 012.63-2.8 7.82 7.82 0 014-1.12c2.5 0 4.4.77 5.7 2.32 1.29 1.56 1.93 3.54 1.93 6V35c0 .82-.21 1.42-.64 1.72-.43.35-.9.52-1.38.52a2.2 2.2 0 01-1.38-.52c-.43-.3-.65-.9-.65-1.72v-9.44c0-4.18-1.55-6.25-4.65-6.25-1.6 0-2.93.6-3.92 1.85a7.33 7.33 0 00-1.55 4.87v8.97c0 .82-.22 1.42-.65 1.72-.43.35-.9.52-1.38.52a2.2 2.2 0 01-1.38-.52c-.43-.3-.64-.9-.64-1.72V18.29c0-.56.13-1.04.38-1.38.22-.35.48-.56.74-.65a2.5 2.5 0 011.6 0c.25.09.5.3.77.65.21.34.34.82.34 1.38z"/>
    <path fill="#d1a680" class="heart" d="M139.15 33.1l-4.92-4.75c-.06-.05-1.8-1.64-1.8-3.53 0-2.3 1.41-3.69 3.77-3.69 1.38 0 2.67 1.1 3.3 1.7.62-.6 1.9-1.7 3.29-1.7 2.35 0 3.76 1.38 3.76 3.7 0 1.88-1.73 3.47-1.8 3.54l-4.91 4.73c-.1.1-.22.14-.35.14a.48.48 0 01-.34-.14"/>
</svg>