<svg xmlns="http://www.w3.org/2000/svg" preserveAspectRatio="none" viewBox="0 0 238 49">
<!-- <svg xmlns="http://www.w3.org/2000/svg"> -->
  <path fill="#fbf6f6" fill-rule="nonzero" d="M236 10c3-1 1-3-1-3h-3c-2-1 2-1-1-2h1s-8-1 2-2h1s-1 0 0 0h-5 1V2h2-7 1l-3-1-11 1h-1 1-4 1-1a12 12 0 012 0h-2l-6 1v1l-11-1h-13c-5-1-16-1-36 1h-2a1658 1658 0 00-51-1h1-1 2c1 1-1 0-1 1l-2-1v1h-2s2 0 1 1h-1a934 934 0 00-8-1l-5 1H63c-1 1 1 1-1 1V5h-1l-1 1h1H8v1s1 0 0 0L6 6v1h1L5 8l-2 5-1-1 1 2H1l1 3h0l2 1-2 1h3-2c-1 1-3 5-2 6h4l-4 1h2-1v1l2 1h2c-2 0 1 1-1 1h2-2v1l1 1 1-1-2 1H4l2 1 6 3h2l2 1-5-1v6H8l2 1H8h5-2s4 0 3 1l-1 2h-1-1 2c3 1 0 1 2 2l54 1s1 0 0 0h-1c-1-1 1 0 1-1l2 1s1-1-1-1h3c-1 0-2 0-1-1h10l41 1h1-2c-1-1 1 0 1-1l2 1v-1h2s-2 0-1-1h1l35 1h-1 1-1 2s1 0 0 0l2-1h-1v-1a195 195 0 009 1h3l15-1 3-2h1l11 1h15l13-1-3-2 5-2-2-4h-3c6-1-1-2 3-2l-3-1h3c-1-2-5-4-1-6l3-1c-4-1-4-1-3-2h-1 1c-3-1 0-1 1-2h1c0-2-5-4-1-7 5-1-2-2 2-3"/>
</svg>