<svg xmlns="http://www.w3.org/2000/svg" fill-rule="evenodd" viewBox="0 0 248 40">
  <path fill="#555" d="M20.08.63a19.68 19.68 0 10.01 39.36 19.68 19.68 0 000-39.36zm0 1.18a18.6 18.6 0 0117.06 11.32 18.43 18.43 0 01-1.7 17.53 18.45 18.45 0 01-25.68 5 18.46 18.46 0 01-5-25.68A18.6 18.6 0 0120.07 1.8zm.28 19.91l-4.92 14.31c3.3.96 6.83.89 10.08-.26l-.13-.21-5.03-13.84zM3.69 20.31a16.4 16.4 0 009.25 14.76L5.1 13.63a16.3 16.3 0 00-1.42 6.68zm30.78-7.87c.08.55.12 1.12.12 1.69 0 1.67-.32 3.54-1.24 5.86l-5.03 14.49a16.4 16.4 0 006.15-22.04zm27.11 11.55l3.02-8.92c.86-2.58.47-3.32-2.32-3.32v-.89h8.22v.87c-2.75 0-3.4.65-4.5 3.85l-4.98 14.96h-.57l-4.47-13.7-4.55 13.7h-.57L46 15.58c-1.04-3.18-1.75-3.85-4.29-3.85v-.87h9.7v.87c-2.58 0-3.28.6-2.36 3.32l2.93 8.92 4.45-13.11h.82l4.33 13.13zm113.24 6.37a6.47 6.47 0 01-3.92-1.5c-.37.44-.61.95-.7 1.5h-.83v-6.04h.86c.35 2.9 2.36 4.59 4.94 4.59 1.4 0 2.54-.8 2.54-2.1 0-1.33-1-2.02-2.8-2.84l-2.49-1.18c-1.75-.83-3.07-2.29-3.07-4.2 0-1.9 1.97-3.9 4.68-3.9 1.24-.01 2.45.4 3.4 1.15.23-.18.44-.65.58-1.18h.82v5.15h-.92c-.31-2.04-1.43-3.75-3.76-3.75-1.22 0-2.36.7-2.36 1.79 0 1.08.93 1.75 3.01 2.71l2.4 1.18c2.1 1 2.93 2.62 2.93 3.94 0 2.75-2.38 4.67-5.31 4.68h.02-.04.02zm-98.37 0c-4.81 0-8.74-3.54-8.74-7.87s3.93-7.83 8.74-7.83c4.8 0 8.73 3.54 8.73 7.83 0 4.3-3.93 7.87-8.73 7.87zm111.6 0a6.45 6.45 0 01-3.92-1.5c-.38.44-.61.95-.7 1.5h-.84v-6.04h.87c.35 2.9 2.36 4.59 4.94 4.59 1.4 0 2.54-.8 2.54-2.1 0-1.33-1.01-2.02-2.8-2.84l-2.5-1.18c-1.75-.83-3.07-2.29-3.07-4.2 0-1.9 1.97-3.9 4.69-3.9 1.23-.01 2.43.4 3.4 1.15.22-.18.43-.65.57-1.18h.83v5.15h-.93c-.31-2.04-1.44-3.75-3.76-3.75-1.22 0-2.36.7-2.36 1.79 0 1.08.92 1.75 3.02 2.71l2.4 1.18c2.1 1 2.93 2.62 2.93 3.94 0 2.75-2.4 4.67-5.31 4.68h.02-.04.02zM31.16 19.48c0-2.03-.72-3.42-1.35-4.53-.63-1.1-1.62-2.5-1.62-3.83 0-1.34 1.14-2.92 2.76-2.92h.21a16.38 16.38 0 00-24.77 3.1h1.06c1.7 0 4.36-.22 4.36-.22.9-.06 1 1.24.1 1.36 0 0-.88.1-1.87.15l5.97 17.77L19.6 19.6l-2.55-7c-.9-.07-1.71-.16-1.71-.16-.9-.06-.8-1.4.1-1.36 0 0 2.7.21 4.3.21 1.59 0 4.37-.21 4.37-.21.88-.06.98 1.24.1 1.36 0 0-.9.1-1.87.15l5.92 17.63 1.7-5.35c.74-2.34 1.2-4 1.2-5.4l.01.01zm210.49 4.78v-.49H248v.5c-2.01 0-2.3.4-2.3 2.83v1.85c-2.7 0-3.79 1.25-6.33 1.25a7.61 7.61 0 01-7.46-7.69 7.6 7.6 0 017.46-7.7c1.7 0 3.3.75 4.51 2.07.41-.35.7-.84.83-1.38h.49v5.34h-.49c-.65-3.15-2.56-5.08-5.28-5.08-3.87 0-5.29 3.74-5.29 6.75s1.26 6.65 5.75 6.65c2.1 0 4.01-1.14 4.01-3.32 0-1.05-.6-1.58-2.26-1.58zm-31.82 5.94c-4.45 0-8.1-3.46-8.1-7.69s3.65-7.7 8.1-7.7c4.44 0 8.1 3.47 8.1 7.7s-3.63 7.7-8.1 7.7zm-11.85-.15c-.87 0-1.55-.7-1.55-1.56 0-.86.68-1.55 1.55-1.55s1.55.69 1.55 1.55c0 .87-.68 1.56-1.55 1.56zm30.13-3.84c1.43 1.7 3.05 2.91 4.5 3.09v.51h-4l-4.81-6.37h-1.14v3.03c0 2.42.29 2.83 2.3 2.83v.51h-6.55v-.51c2 0 2.3-.41 2.3-2.83v-7.92c0-2.42-.3-2.8-2.3-2.8v-.52h6.41c3.36 0 5.22 1.85 5.22 4.1 0 2.24-1.58 3.77-4.33 4.07l2.4 2.81zm-98.21 2.72v.86h-10.02v-.86c2.93 0 3.46-.75 3.46-5.12v-7c0-4.37-.53-5.08-3.46-5.08v-.87h9.04c4.52 0 7 2.32 7 5.43s-2.48 5.37-7 5.37h-2.49v2.15c0 4.37.53 5.12 3.47 5.12zM93.69 15.2c3.82.01 5.86 1.86 5.86 4.25 0 1.93-1.44 3.64-4.16 4.11l2 2.19c1.76 1.93 3.03 2.93 4.91 3.19 2.45 0 2.84-.58 2.84-3.68v-5.6c0-3.08-.4-3.61-2.84-3.61v-.83h7.85c6.26 0 8.97 3.29 8.97 7.26 0 3.98-2.7 7.3-8.97 7.3H97.42l-4.86-6.08h-.75v1.58c0 3.1.4 3.67 2.84 3.67v.8h-8.7v-.83c2.44 0 2.83-.58 2.83-3.68v-5.6c0-3.08-.4-3.61-2.83-3.61v-.83h7.74zm72.27 10.47l-.2.79c-.4 1.43-.88 1.96-3.99 1.96h-.6c-2.29 0-2.69-.53-2.69-3.62v-2c3.4 0 3.68.31 3.68 2.57h.83v-6.51h-.83c0 2.28-.25 2.58-3.68 2.58v-4.9h2.4c3.12 0 3.59.53 3.99 1.97l.2.82h.72l-.32-4.11h-12.85v.83c2.44 0 2.83.53 2.83 3.62v5.59c0 2.83-.33 3.56-2.26 3.66-1.83-.28-3.08-1.28-4.82-3.17l-2-2.19c2.7-.47 4.15-2.18 4.15-4.1 0-2.41-2.05-4.26-5.9-4.26h-7.68v.83c2.43 0 2.83.53 2.83 3.62v5.59c0 3.1-.4 3.68-2.83 3.68v.82h8.7v-.79c-2.44 0-2.84-.57-2.84-3.67V23.7h.75l4.84 6.08h17.97l.26-4.11h-.66zm38.08-3.17c0 3.01 1.6 6.73 5.79 6.73 4.2 0 5.8-3.72 5.8-6.73 0-3.01-1.59-6.75-5.8-6.75-4.2 0-5.79 3.74-5.79 6.75zm-127.6-6.5c-4.01 0-5.43 3.63-5.43 6.48 0 2.85 1.42 6.47 5.44 6.47 4.01 0 5.47-3.58 5.47-6.47 0-2.9-1.4-6.47-5.47-6.47zm33.85 12.42h-.31c-1.58 0-1.79-.39-1.79-2.4v-9.48h2.1c4.55 0 5.37 3.32 5.37 5.9 0 2.58-.82 5.98-5.37 5.98zm117.6-9.09c0-1.75-.96-3.2-3.08-3.2h-2.15v6.41h2.15c2.1 0 3.09-1.44 3.09-3.2zm-85.11 3.01v-5.8h1.79c1.97 0 2.83 1.36 2.83 2.93s-.86 2.9-2.83 2.9l-1.79-.03zm-50.95 0v-5.8h1.8c1.96 0 2.83 1.36 2.83 2.93s-.87 2.9-2.84 2.9l-1.79-.03zm37.1-9.91h-2.5v7.61h2.5c2.44 0 3.58-1.71 3.58-3.76s-1.14-3.85-3.59-3.85z"/>
</svg>